<svg width="413" height="361" viewBox="0 0 413 361" fill="none" xmlns="http://www.w3.org/2000/svg">
<path d="M184.645 138.709H18.446V261.31H184.645V138.709Z" fill="#F5F9FF"/>
<path d="M184.645 138.709H18.446V154.001H184.645V138.709Z" fill="#D0DBF7"/>
<path d="M31.788 146.707C31.788 148.64 30.221 150.206 28.289 150.206C26.356 150.206 24.79 148.639 24.79 146.707C24.79 144.775 26.357 143.208 28.289 143.208C30.221 143.208 31.788 144.775 31.788 146.707Z" fill="#F2F2F2"/>
<path d="M43.571 146.707C43.571 148.64 42.004 150.206 40.072 150.206C38.14 150.206 36.573 148.639 36.573 146.707C36.573 144.775 38.14 143.208 40.072 143.208C42.004 143.208 43.571 144.775 43.571 146.707Z" fill="#F2F2F2"/>
<path d="M55.354 146.707C55.354 148.64 53.787 150.206 51.855 150.206C49.922 150.206 48.356 148.639 48.356 146.707C48.356 144.775 49.923 143.208 51.855 143.208C53.788 143.208 55.354 144.775 55.354 146.707Z" fill="#F2F2F2"/>
<path d="M129.92 187.347L121.564 178.992L101.546 199.009L81.527 178.992L73.171 187.347L93.19 207.365L73.171 227.382L81.527 235.738L101.546 215.72L121.564 235.738L129.92 227.382L109.901 207.365L129.92 187.347Z" fill="#E3EBFC"/>
<path d="M388.669 61.384H222.47V183.985H388.669V61.384Z" fill="#F5F9FF"/>
<path d="M388.669 61.384H222.47V76.676H388.669V61.384Z" fill="#D0DBF7"/>
<path d="M235.812 69.3821C235.812 71.3151 234.245 72.8811 232.313 72.8811C230.38 72.8811 228.814 71.3141 228.814 69.3821C228.814 67.4501 230.381 65.8831 232.313 65.8831C234.245 65.8831 235.812 67.4491 235.812 69.3821Z" fill="#F2F2F2"/>
<path d="M247.595 69.3821C247.595 71.3151 246.028 72.8811 244.096 72.8811C242.163 72.8811 240.597 71.3141 240.597 69.3821C240.597 67.4501 242.164 65.8831 244.096 65.8831C246.028 65.8831 247.595 67.4491 247.595 69.3821Z" fill="#F2F2F2"/>
<path d="M259.378 69.3821C259.378 71.3151 257.811 72.8811 255.879 72.8811C253.946 72.8811 252.38 71.3141 252.38 69.3821C252.38 67.4501 253.947 65.8831 255.879 65.8831C257.811 65.8831 259.378 67.4491 259.378 69.3821Z" fill="#F2F2F2"/>
<path d="M333.943 110.022L325.588 101.666L305.569 121.684L285.55 101.666L277.195 110.022L297.213 130.039L277.195 150.057L285.55 158.412L305.569 138.395L325.588 158.412L333.943 150.057L313.925 130.039L333.943 110.022Z" fill="#E3EBFC"/>
<path d="M205.348 360.477C317.553 360.477 408.513 352.617 408.513 342.922C408.513 333.227 317.553 325.367 205.348 325.367C93.1431 325.367 2.18298 333.227 2.18298 342.922C2.18298 352.617 93.1431 360.477 205.348 360.477Z" fill="#EDF0FC"/>
<path d="M155.799 63.4199C154.252 60.1769 154.334 57.0349 156.044 53.9939L156.875 52.5449C157.688 51.2209 158.207 50.2029 158.433 49.4899C158.658 48.7779 158.598 48.0549 158.249 47.3239C157.369 45.4799 155.386 45.2939 152.303 46.7649C150.873 47.4469 149.485 48.3439 148.141 49.4529C146.798 50.5619 145.609 51.7929 144.575 53.1439L141.072 45.8009C143.359 43.0709 146.316 40.8409 149.94 39.1119C153.85 37.2459 157.341 36.5859 160.41 37.1319C163.48 37.6779 165.705 39.3959 167.085 42.2889C167.859 43.9099 168.119 45.3959 167.866 46.7459C167.612 48.0969 166.906 49.8089 165.75 51.8819C164.984 53.3019 164.439 54.3709 164.119 55.0899C163.799 55.8089 163.639 56.5179 163.643 57.2189C163.646 57.9209 163.844 58.6849 164.238 59.5099L164.671 60.4169L156.278 64.4209L155.799 63.4199ZM162.226 74.3739C160.981 73.9339 160.063 73.0929 159.471 71.8539C158.865 70.5829 158.785 69.3329 159.234 68.1039C159.681 66.8759 160.542 65.9579 161.813 65.3519C163.053 64.7599 164.311 64.6769 165.587 65.1019C166.863 65.5289 167.797 66.3599 168.388 67.5999C168.98 68.8399 169.039 70.0899 168.567 71.3489C168.094 72.6079 167.238 73.5339 165.998 74.1249C164.728 74.7309 163.469 74.8149 162.226 74.3739Z" fill="#E2E6FF"/>
<path d="M196.546 35.4099C198.636 30.4199 202.246 27.3609 207.376 26.2309L209.837 25.7099C212.138 25.2949 213.803 24.8559 214.83 24.3949C215.855 23.9339 216.606 23.1409 217.078 22.0159C218.266 19.1789 216.486 16.7659 211.742 14.7779C209.541 13.8559 207.143 13.1969 204.549 12.8009C201.957 12.4039 199.381 12.3049 196.828 12.4979L201.561 1.19893C206.921 1.02893 212.39 2.11293 217.966 4.44893C223.983 6.96893 228.225 10.2269 230.691 14.2199C233.158 18.2149 233.459 22.4369 231.595 26.8879C230.55 29.3829 229.143 31.1649 227.373 32.2349C225.601 33.3039 222.971 34.2289 219.483 35.0099C217.119 35.5729 215.373 36.0349 214.244 36.3959C213.116 36.7579 212.159 37.2899 211.375 37.9969C210.589 38.7039 209.931 39.6929 209.399 40.9629L208.815 42.3579L195.901 36.9489L196.546 35.4099ZM190.691 53.6129C189.936 51.7739 189.96 49.8999 190.759 47.9919C191.578 46.0359 192.902 44.6929 194.733 43.9639C196.56 43.2339 198.454 43.2799 200.41 44.0989C202.318 44.8979 203.673 46.2279 204.476 48.0869C205.276 49.9469 205.279 51.8309 204.48 53.7379C203.681 55.6449 202.336 56.9659 200.449 57.6989C198.561 58.4309 196.663 58.3979 194.755 57.5989C192.799 56.7809 191.442 55.4509 190.691 53.6129Z" fill="#E2E6FF"/>
<path d="M406.055 215.369V209.628H402.238V215.369H396.497V219.186H402.238V224.927H406.055V219.186H411.797V215.369H406.055Z" fill="#CAD2F9"/>
<path d="M370.005 31.5988V22.8428H364.184V31.5988H355.428V37.4198H364.184V46.1758H370.005V37.4198H378.762V31.5988H370.005Z" fill="#CAD2F9"/>
<path d="M354.138 201.078V196.897H351.358V201.078H347.177V203.858H351.358V208.039H354.138V203.858H358.319V201.078H354.138Z" fill="#CAD2F9"/>
<path d="M115.711 55.6478V51.4668H112.931V55.6478H108.75V58.4278H112.931V62.6088H115.711V58.4278H119.892V55.6478H115.711Z" fill="#CAD2F9"/>
<path d="M83.48 27.9969V22.2549H79.663V27.9969H73.922V31.8129H79.663V37.5539H83.48V31.8129H89.222V27.9969H83.48Z" fill="#CAD2F9"/>
<path d="M272.01 39.7179C272.01 40.9239 271.033 41.9009 269.827 41.9009C268.621 41.9009 267.644 40.9229 267.644 39.7179C267.644 38.5119 268.622 37.5349 269.827 37.5349C271.033 37.5349 272.01 38.5119 272.01 39.7179Z" fill="#EEF1FF"/>
<path d="M280.951 2.183C280.951 3.389 279.973 4.366 278.768 4.366C277.562 4.366 276.585 3.388 276.585 2.183C276.585 0.976999 277.562 0 278.768 0C279.973 0 280.951 0.977999 280.951 2.183Z" fill="#EEF1FF"/>
<path d="M323.602 24.2629C325.885 24.2629 327.736 22.412 327.736 20.1289C327.736 17.8457 325.885 15.9949 323.602 15.9949C321.319 15.9949 319.468 17.8457 319.468 20.1289C319.468 22.412 321.319 24.2629 323.602 24.2629Z" fill="#EEF1FF"/>
<path d="M410.696 175.422C410.696 176.628 409.719 177.605 408.513 177.605C407.307 177.605 406.33 176.627 406.33 175.422C406.33 174.216 407.307 173.239 408.513 173.239C409.719 173.238 410.696 174.216 410.696 175.422Z" fill="#EEF1FF"/>
<path d="M408.513 243.586C408.513 244.792 407.535 245.769 406.33 245.769C405.124 245.769 404.147 244.791 404.147 243.586C404.147 242.38 405.124 241.403 406.33 241.403C407.536 241.403 408.513 242.38 408.513 243.586Z" fill="#EEF1FF"/>
<path d="M76.105 124.366C76.105 125.572 75.127 126.549 73.922 126.549C72.716 126.549 71.739 125.572 71.739 124.366C71.739 123.16 72.716 122.183 73.922 122.183C75.128 122.183 76.105 123.16 76.105 124.366Z" fill="#EEF1FF"/>
<path d="M38.107 37.954C40.3902 37.954 42.241 36.1032 42.241 33.82C42.241 31.5369 40.3902 29.686 38.107 29.686C35.8239 29.686 33.973 31.5369 33.973 33.82C33.973 36.1032 35.8239 37.954 38.107 37.954Z" fill="#EEF1FF"/>
<path d="M119.633 10.496C119.633 11.702 118.656 12.679 117.45 12.679C116.244 12.679 115.267 11.702 115.267 10.496C115.267 9.28999 116.245 8.31299 117.45 8.31299C118.656 8.31299 119.633 9.28999 119.633 10.496Z" fill="#EEF1FF"/>
<path d="M4.366 141.424C4.366 142.63 3.389 143.607 2.183 143.607C0.976999 143.607 0 142.629 0 141.424C0 140.218 0.977999 139.241 2.183 139.241C3.388 139.241 4.366 140.218 4.366 141.424Z" fill="#EEF1FF"/>
<path d="M4.366 257.768C4.366 258.974 3.389 259.951 2.183 259.951C0.976999 259.951 0 258.974 0 257.768C0 256.562 0.977999 255.585 2.183 255.585C3.388 255.584 4.366 256.562 4.366 257.768Z" fill="#EEF1FF"/>
<path d="M322.68 323.511C322.68 323.511 286.502 251.182 384.63 203.176C384.63 203.176 392.152 306.244 322.68 323.511Z" fill="#6E7FDD"/>
<path d="M326.847 314.296C326.822 303.956 328.983 293.684 331.96 283.774C332.343 282.535 332.683 281.28 333.101 280.053L334.428 276.396L335.762 272.738L337.268 269.15C339.207 264.329 341.642 259.742 343.941 255.088L347.853 248.361C349.114 246.092 350.546 243.93 351.999 241.783C353.467 239.646 354.858 237.458 356.387 235.368C357.947 233.3 359.532 231.251 361.126 229.212L363.514 226.154L366.08 223.242L371.248 217.465C372.094 216.491 373.037 215.603 373.961 214.701L376.742 212.006C378.6 210.216 380.476 208.448 382.363 206.7C380.743 208.712 379.112 210.704 377.463 212.674L374.983 215.619C374.155 216.597 373.309 217.56 372.562 218.606L367.885 224.704L365.529 227.73L363.335 230.876C361.882 232.979 360.42 235.072 358.933 237.145C357.494 239.251 356.195 241.452 354.82 243.599C351.966 247.831 349.62 252.365 347.059 256.768C342.276 265.764 338.06 275.055 334.574 284.64C331.158 294.242 328.288 304.094 326.847 314.296Z" fill="#B3C9F9"/>
<path opacity="0.1" d="M380.958 202.464C379.583 227.333 371.061 293.444 319.6 308.416C321.456 315.921 323.709 320.425 323.709 320.425C393.181 303.158 385.659 200.09 385.659 200.09C384.055 200.874 382.491 201.666 380.958 202.464Z" fill="#0046A0"/>
<path d="M313.827 346.791C313.827 346.791 318.975 324.767 340.508 298.077C364.101 268.836 394.865 258.315 407.637 272.37C420.033 286.011 409.502 304.859 377.57 314.489C345.639 324.12 327.586 328.269 313.827 346.791Z" fill="#FFCF74"/>
<path d="M397.526 280.027C390.22 282.917 383.143 286.269 376.192 289.818C369.263 293.409 362.498 297.299 356.043 301.644C349.567 305.952 343.403 310.721 337.685 315.99C331.988 321.282 326.767 327.101 322.255 333.544C324.075 330.059 326.224 326.74 328.55 323.543C330.951 320.408 333.497 317.362 336.295 314.559C341.836 308.894 348.065 303.935 354.623 299.519C357.928 297.347 361.296 295.274 364.747 293.35C368.217 291.464 371.726 289.65 375.323 288.03C382.492 284.749 389.905 281.98 397.526 280.027Z" fill="#F9AB43"/>
<path opacity="0.1" d="M407.637 272.37C406.945 271.608 406.19 270.932 405.396 270.314C395.038 295.684 364.773 314.059 329.022 314.096C317.049 333.034 313.827 346.791 313.827 346.791C327.586 328.269 345.639 324.12 377.57 314.489C409.502 304.858 420.034 286.011 407.637 272.37Z" fill="#0046A0"/>
<path d="M128.506 334.421C128.506 334.421 54.187 366.312 11.996 265.546C11.996 265.546 115.328 264.059 128.506 334.421Z" fill="#6E7FDD"/>
<path d="M122.571 330.93C112.248 330.35 102.12 327.594 92.4 324.043C91.186 323.589 89.953 323.176 88.752 322.687L85.179 321.148L81.606 319.602L78.112 317.889C73.412 315.671 68.975 312.973 64.464 310.405L57.977 306.107C55.786 304.716 53.711 303.16 51.652 301.584C49.605 299.994 47.501 298.477 45.505 296.828C43.532 295.15 41.579 293.448 39.637 291.738L36.724 289.176L33.967 286.444L28.502 280.948C27.579 280.046 26.748 279.054 25.901 278.078L23.373 275.144C21.694 273.184 20.04 271.208 18.404 269.222C20.318 270.957 22.212 272.702 24.081 274.463L26.876 277.11C27.804 277.994 28.715 278.894 29.717 279.701L35.532 284.726L38.415 287.255L41.427 289.629C43.441 291.203 45.445 292.784 47.429 294.39C49.448 295.95 51.569 297.375 53.631 298.873C57.689 301.969 62.078 304.576 66.324 307.39C75.025 312.69 84.054 317.442 93.419 321.482C102.804 325.454 112.472 328.896 122.571 330.93Z" fill="#B3C9F9"/>
<path opacity="0.1" d="M14.092 270.378C38.839 273.203 104.339 285.573 116.278 337.822C123.878 336.407 128.507 334.422 128.507 334.422C115.328 264.06 11.997 265.547 11.997 265.547C12.686 267.194 13.385 268.801 14.092 270.378Z" fill="#0046A0"/>
<path d="M97.942 307.271C97.942 307.271 97.58 284.656 82.194 254.008C65.336 220.43 37.501 203.627 22.04 214.654C7.03299 225.358 13.331 246.009 42.495 262.19C71.66 278.372 88.422 286.254 97.942 307.271Z" fill="#FFCF74"/>
<path d="M30.298 224.282C36.825 228.655 43.031 233.432 49.071 238.373C55.081 243.351 60.868 248.587 66.255 254.201C71.671 259.784 76.684 265.752 81.154 272.113C85.6 278.492 89.469 285.286 92.513 292.539C91.473 288.747 90.077 285.048 88.481 281.431C86.799 277.859 84.957 274.342 82.817 271.01C78.603 264.3 73.567 258.133 68.094 252.427C65.324 249.604 62.472 246.864 59.508 244.252C56.516 241.673 53.472 239.157 50.3 236.811C43.989 232.084 37.332 227.806 30.298 224.282Z" fill="#F9AB43"/>
<path opacity="0.1" d="M22.04 214.655C22.878 214.057 23.759 213.557 24.666 213.121C29.41 240.11 55.092 264.483 90.023 272.098C97.709 293.144 97.942 307.271 97.942 307.271C88.422 286.254 71.659 278.371 42.495 262.191C13.331 246.01 7.03398 225.359 22.04 214.655Z" fill="#0046A0"/>
<path d="M303.796 329.166C302.987 334.516 297.611 338.894 291.849 338.894H121.355C115.593 338.894 110.158 334.524 109.277 329.184L81.048 157.987C80.167 152.647 84.162 148.277 89.924 148.277H320.66C326.422 148.277 330.475 152.655 329.667 158.005L303.796 329.166Z" fill="#F9AB43"/>
<path d="M261.014 91.072H117.45V293.319H293.011V123.538L261.014 91.072Z" fill="#C2CEF2"/>
<path d="M261.014 91.072L293.246 123.303H261.014V91.072Z" fill="#7997F2"/>
<path d="M253.962 155.027L239.647 140.712L205.348 175.008L171.049 140.712L156.733 155.027L191.032 189.324L156.733 223.621L171.049 237.937L205.348 203.64L239.647 237.937L253.962 223.621L219.664 189.324L253.962 155.027Z" fill="#AFC2E8"/>
<path d="M222.008 207.018C217.481 207.024 212.686 203.489 211.352 199.163L204.775 177.832C203.441 173.506 198.646 169.967 194.119 169.967H77.169C72.642 169.967 69.586 173.614 70.377 178.071L98.924 338.934C99.715 343.391 104.066 347.038 108.593 347.038H311.181C315.708 347.038 319.991 343.38 320.7 338.909L340.345 214.975C341.054 210.504 337.93 206.85 333.403 206.856L222.008 207.018Z" fill="#6379D7"/>
<path d="M193.516 282.406C193.516 276.144 196.002 271.264 200.974 267.764L203.368 266.108C205.639 264.636 207.22 263.423 208.111 262.472C209 261.521 209.447 260.339 209.447 258.927C209.447 255.367 206.468 253.586 200.514 253.586C197.752 253.586 194.898 253.955 191.951 254.692C189.006 255.428 186.212 256.473 183.573 257.822V243.643C189.219 241.065 195.543 239.776 202.54 239.776C210.09 239.776 216.076 241.357 220.494 244.518C224.914 247.68 227.123 252.053 227.123 257.638C227.123 260.769 226.417 263.3 225.006 265.234C223.593 267.168 221.199 269.331 217.824 271.725C215.553 273.383 213.894 274.657 212.851 275.547C211.808 276.438 211.025 277.434 210.504 278.539C209.981 279.645 209.721 280.995 209.721 282.589V284.34H193.515V282.406H193.516ZM195.405 304.457C193.777 302.831 192.964 300.82 192.964 298.426C192.964 295.972 193.777 293.946 195.405 292.349C197.029 290.753 199.072 289.955 201.527 289.955C203.921 289.955 205.962 290.768 207.651 292.394C209.337 294.022 210.183 296.031 210.183 298.425C210.183 300.819 209.338 302.83 207.651 304.456C205.962 306.082 203.921 306.895 201.527 306.895C199.072 306.896 197.029 306.083 195.405 304.457Z" fill="#F5F9FF"/>
<path opacity="0.1" d="M333.402 206.855L320.733 206.873C321.012 209.79 321.161 212.734 321.161 215.704C321.161 282.139 250.057 335.995 162.347 335.995C138.851 335.995 116.55 332.127 96.485 325.191L98.924 338.933C99.715 343.39 104.066 347.037 108.593 347.037H311.181C315.708 347.037 319.991 343.379 320.7 338.908L340.345 214.974C341.053 210.503 337.929 206.85 333.402 206.855Z" fill="#6379D7"/>
<g opacity="0.3">
<path d="M90.033 193.841C90.635 197.879 91.237 201.917 91.84 205.955C93.273 215.564 94.706 225.172 96.139 234.781C97.884 246.483 99.629 258.184 101.374 269.885C102.872 279.931 104.37 289.976 105.868 300.022C106.366 303.36 106.863 306.697 107.361 310.035C107.595 311.602 107.728 313.228 108.068 314.777C108.083 314.843 108.088 314.912 108.098 314.979C108.303 316.354 110.039 317.112 111.262 316.775C112.735 316.37 113.264 314.99 113.058 313.611C112.456 309.573 111.854 305.535 111.251 301.497C109.818 291.888 108.385 282.28 106.952 272.671C105.207 260.97 103.462 249.268 101.717 237.567C100.219 227.521 98.721 217.476 97.223 207.43C96.725 204.092 96.228 200.755 95.73 197.417C95.496 195.85 95.363 194.224 95.023 192.675C95.008 192.609 95.003 192.54 94.993 192.473C94.788 191.098 93.052 190.34 91.829 190.677C90.357 191.082 89.827 192.462 90.033 193.841Z" fill="white"/>
</g>
<path d="M372.356 104.779C356.548 104.779 343.733 117.594 343.733 133.402C343.733 140.467 346.298 146.93 350.54 151.922L349.344 166.66L363.02 160.46C365.947 161.47 369.086 162.026 372.356 162.026C388.164 162.026 400.979 149.211 400.979 133.403C400.979 117.595 388.165 104.779 372.356 104.779Z" fill="#EB725F"/>
<path d="M370.375 148.055C369.852 147.531 369.59 146.885 369.59 146.115C369.59 145.345 369.852 144.699 370.375 144.175C370.899 143.651 371.545 143.389 372.315 143.389C373.085 143.389 373.739 143.651 374.279 144.175C374.817 144.698 375.087 145.345 375.087 146.115C375.087 146.885 374.816 147.532 374.279 148.055C373.739 148.578 373.085 148.84 372.315 148.84C371.545 148.84 370.899 148.578 370.375 148.055ZM368.759 115.861H375.964L374.625 138.91H370.097L368.759 115.861Z" fill="#F2F2F2"/>
<path opacity="0.1" d="M356.676 148.569C353.569 148.569 350.538 148.296 347.612 147.781C348.467 149.249 349.447 150.635 350.541 151.922L349.345 166.66L363.021 160.46C365.948 161.47 369.087 162.026 372.357 162.026C388.165 162.026 400.98 149.211 400.98 133.403C400.98 129.572 400.221 125.919 398.856 122.579C393.124 137.655 376.411 148.569 356.676 148.569Z" fill="#0046A0"/>
<path d="M79.096 97.036V69.895C79.096 66.636 76.429 63.969 73.17 63.969H23.7C20.441 63.969 17.774 66.636 17.774 69.895V104.097C17.774 107.356 20.441 110.023 23.7 110.023H67.991H73.169H93.37L79.096 97.036Z" fill="#F9AB43"/>
<path d="M40.165 83.184C40.165 85.788 38.652 87.898 36.787 87.898C34.921 87.898 33.408 85.787 33.408 83.184C33.408 80.58 34.921 78.47 36.787 78.47C38.652 78.47 40.165 80.581 40.165 83.184Z" fill="white"/>
<path d="M62.625 83.184C62.625 85.788 61.112 87.898 59.246 87.898C57.38 87.898 55.868 85.787 55.868 83.184C55.868 80.58 57.381 78.47 59.246 78.47C61.113 78.47 62.625 80.581 62.625 83.184Z" fill="white"/>
<path d="M40.274 96.366C41.432 95.097 43.044 94.1 44.647 93.522C48.705 92.059 52.627 93.587 55.718 96.366C56.543 97.108 57.77 95.889 56.94 95.144C53.514 92.064 49.069 90.255 44.512 91.744C42.513 92.397 40.483 93.576 39.052 95.144C38.303 95.964 39.522 97.19 40.274 96.366Z" fill="white"/>
<path opacity="0.1" d="M79.096 97.036V69.895C79.096 66.636 76.429 63.969 73.17 63.969H68.099C68.979 67.193 69.452 70.535 69.452 73.965C69.452 88.382 61.261 101.292 48.339 110.024H67.992H73.17H93.371L79.096 97.036Z" fill="#0046A0"/>
<path d="M250.043 249.049C234.179 264.913 234.179 290.635 250.043 306.499C265.907 322.363 291.629 322.363 307.493 306.499C323.357 290.635 323.357 264.913 307.493 249.049C291.628 233.185 265.907 233.185 250.043 249.049ZM302.836 301.843C289.544 315.135 267.992 315.135 254.7 301.843C241.408 288.55 241.408 266.999 254.7 253.707C267.993 240.414 289.544 240.414 302.836 253.707C316.128 266.999 316.128 288.55 302.836 301.843Z" fill="#EB725F"/>
<path opacity="0.3" d="M278.768 311.811C297.566 311.811 312.805 296.572 312.805 277.774C312.805 258.976 297.566 243.737 278.768 243.737C259.97 243.737 244.731 258.976 244.731 277.774C244.731 296.572 259.97 311.811 278.768 311.811Z" fill="white"/>
<path d="M306.397 300.316L301.304 305.408L347.364 351.469L352.457 346.376L306.397 300.316Z" fill="#6E7FDD"/>
<path d="M306.396 300.32L301.304 305.413L318.267 322.376L323.359 317.284L306.396 300.32Z" fill="#EB725F"/>
<path d="M258.951 263.778C260.243 260.053 263.073 257.04 266.477 254.948C269.903 252.871 273.971 251.756 278.04 251.757C282.109 251.747 286.18 252.859 289.607 254.938C293.013 257.028 295.843 260.046 297.128 263.778C293.406 262.521 290.259 261.526 287.132 260.918C284.031 260.289 281.038 260.001 278.039 259.986C275.04 259.991 272.044 260.277 268.942 260.907C265.814 261.514 262.666 262.514 258.951 263.778Z" fill="white"/>
</svg>
