<?xml version="1.0" encoding="UTF-8"?>
<svg id="Layer_1" data-name="Layer 1" xmlns="http://www.w3.org/2000/svg" xmlns:xlink="http://www.w3.org/1999/xlink" viewBox="0 0 30.16 30.16">
  <defs>
    <style>
      .cls-1 {
        fill: none;
      }

      .cls-2 {
        fill: #fff;
        fill-rule: evenodd;
      }

      .cls-3 {
        fill: #9c55ff;
      }

      .cls-4 {
        clip-path: url(#clippath);
      }
    </style>
    <clipPath id="clippath">
      <rect class="cls-1" width="30.16" height="30.16"/>
    </clipPath>
  </defs>
  <g class="cls-4">
    <g>
      <path class="cls-3" d="M15.08,30.16c8.33,0,15.08-6.75,15.08-15.08S23.4,0,15.08,0,0,6.75,0,15.08s6.75,15.08,15.08,15.08Z"/>
      <path class="cls-2" d="M26.78,15.21c0-1.66-.81-2.98-2.35-2.98s-2.48,1.31-2.48,2.96c0,1.96,1.11,2.94,2.69,2.94.77,0,1.36-.18,1.8-.42v-1.3c-.44.22-.95.36-1.59.36s-1.19-.22-1.26-.99h3.18c0-.08.01-.42.01-.58ZM23.57,14.59c0-.73.45-1.04.86-1.04s.82.31.82,1.04h-1.68Z"/>
      <path class="cls-2" d="M19.44,12.23c-.64,0-1.05.3-1.27.51l-.08-.4h-1.43v7.58l1.63-.34v-1.84c.24.17.59.41,1.16.41,1.16,0,2.22-.94,2.22-3,0-1.89-1.08-2.91-2.22-2.91ZM19.05,16.71c-.38,0-.61-.14-.77-.31v-2.41c.16-.19.4-.32.77-.32.59,0,1,.66,1,1.51s-.4,1.52-1,1.52Z"/>
      <path class="cls-2" d="M14.41,11.85l1.63-.35v-1.32l-1.63.34v1.33Z"/>
      <path class="cls-2" d="M14.41,12.34h1.63v5.69h-1.63v-5.69Z"/>
      <path class="cls-2" d="M12.66,12.83l-.1-.48h-1.4v5.69h1.63v-3.85c.38-.5,1.03-.41,1.24-.34v-1.5c-.21-.08-.97-.22-1.35.48Z"/>
      <path class="cls-2" d="M9.41,10.93l-1.59.34v5.21c0,.96.72,1.67,1.68,1.67.53,0,.92-.1,1.14-.21v-1.32c-.21.08-1.24.38-1.24-.58v-2.31h1.24v-1.38h-1.24v-1.41Z"/>
      <path class="cls-2" d="M5.02,14c0-.25.21-.35.55-.35.49,0,1.12.15,1.61.42v-1.53c-.54-.21-1.07-.3-1.61-.3-1.32,0-2.2.69-2.2,1.84,0,1.79,2.47,1.51,2.47,2.28,0,.3-.26.4-.62.4-.54,0-1.23-.22-1.77-.52v1.55c.6.26,1.22.37,1.77.37,1.35,0,2.28-.67,2.28-1.83,0-1.94-2.48-1.59-2.48-2.32Z"/>
    </g>
  </g>
</svg>