<svg xmlns="http://www.w3.org/2000/svg" width="428.034" height="402.612" viewBox="0 0 428.034 402.612">
  <g id="analysis" transform="translate(-4 -5.663)">
    <path id="Path_23" data-name="Path 23" d="M277.677,327.835C151.028,313.423,154.057,133.8,279.9,122.66V20.73A15.057,15.057,0,0,0,264.916,5.663H19.067A15.074,15.074,0,0,0,4,20.73V320.1a15.074,15.074,0,0,0,15.067,15.067H264.916a14.807,14.807,0,0,0,12.762-7.328ZM93.25,37.937h97.482a8.234,8.234,0,1,1,0,16.468H93.25a8.234,8.234,0,1,1,0-16.468ZM44.508,89.067H239.474a8.234,8.234,0,1,1,0,16.468H44.508a8.234,8.234,0,1,1,0-16.468ZM163.48,251.758H44.508a8.234,8.234,0,1,1,0-16.468H163.48a8.234,8.234,0,1,1,0,16.468Zm1.894-48.742H44.508a8.234,8.234,0,1,1,0-16.468H165.374a8.234,8.234,0,1,1,0,16.468Zm9.963-48.741H44.508a8.234,8.234,0,1,1,0-16.468H175.336a8.234,8.234,0,1,1,0,16.468Z" transform="translate(0 0)" fill="#fff"/>
    <path id="Path_24" data-name="Path 24" d="M98.9,83.236V43.551A28.322,28.322,0,0,0,70.572,15.228H42.251V59.359A103.082,103.082,0,0,1,98.9,83.236Z" transform="translate(254.116 63.546)" fill="#fff"/>
    <path id="Path_25" data-name="Path 25" d="M46.622,57.85A86.561,86.561,0,0,0,64.571,178.8c55.905,42.287,138.819.646,137.908-69.326C202.925,27.038,96.075-8.756,46.622,57.85Zm11.033,8.233a72.271,72.271,0,0,1,58.539-29.476,8.233,8.233,0,0,1,0,16.467A55.816,55.816,0,0,0,70.911,75.881a8.242,8.242,0,1,1-13.257-9.8Z" transform="translate(170.375 116.02)" fill="#fff"/>
    <path id="Path_26" data-name="Path 26" d="M273.822,46.755A102.14,102.14,0,0,1,231.75,59.764a31.252,31.252,0,0,1-30.381,23.794H13.565v28.323A28.322,28.322,0,0,0,41.89,140.2H261.143a28.322,28.322,0,0,0,28.323-28.324v-54.5L274.975,46.014a5.522,5.522,0,0,1-1.153.741Z" transform="translate(63.547 268.071)" fill="#fff"/>
    <path id="Path_27" data-name="Path 27" d="M119.509,71.694,78.424,39.583A101.478,101.478,0,0,1,66.156,61.32,105.056,105.056,0,0,1,49.608,78.857L62.864,89.231l1.235.988,27.994,21.9a22.167,22.167,0,0,0,17.043,4.611C130,113.815,136.108,83.614,119.509,71.694Z" transform="translate(302.993 225.348)" fill="#fff"/>
  </g>
</svg>
