<svg xmlns="http://www.w3.org/2000/svg" width="435.394" height="396.003" viewBox="0 0 435.394 396.003">
  <path id="analytics_3_" data-name="analytics (3)" d="M82,378.694l.842.867a6.82,6.82,0,0,1-.15,9.654L41.472,429.242a6.859,6.859,0,0,1-9.654-.15L16.931,413.757a6.838,6.838,0,0,1,.128-9.654L58.3,364.076a6.86,6.86,0,0,1,9.655.149l.85.876L92.349,342.25A75.13,75.13,0,1,1,105.1,356.284Zm71.882-31.857a47.649,47.649,0,1,0-47.648-47.648A47.722,47.722,0,0,0,153.884,346.837Zm-27.515-41.173A7.257,7.257,0,0,1,136.632,295.4l8.177,8.178,26.614-24.144a7.257,7.257,0,0,1,9.752,10.75l-31.734,28.788a7.256,7.256,0,0,1-10.007-.244Zm150.94-132.207a2.719,2.719,0,0,1,2.721-2.721h18.341a2.721,2.721,0,0,1,2.721,2.721v80.33a2.721,2.721,0,0,1-2.721,2.721H280.03a2.719,2.719,0,0,1-2.721-2.721Zm44.163,16.217a2.722,2.722,0,0,1,2.721-2.721h18.342a2.721,2.721,0,0,1,2.721,2.721v64.114a2.721,2.721,0,0,1-2.721,2.721H324.193a2.722,2.722,0,0,1-2.721-2.721Zm44.179-47.429a2.722,2.722,0,0,1,2.721-2.721h18.342a2.722,2.722,0,0,1,2.721,2.721V253.787a2.721,2.721,0,0,1-2.721,2.721H368.372a2.721,2.721,0,0,1-2.721-2.721ZM233.13,222.667a2.721,2.721,0,0,1,2.721-2.721h18.356a2.721,2.721,0,0,1,2.721,2.721v40.19a2.719,2.719,0,0,1-2.721,2.721H235.852a2.719,2.719,0,0,1-2.721-2.721ZM263.515,154.4a19.616,19.616,0,1,1-9.537-10.94l16.744-14.584a19.422,19.422,0,0,1-1.1-6.466,19.582,19.582,0,1,1,39.164,0q0,.777-.061,1.54l11.554,5.7a19.54,19.54,0,0,1,20.442-3.608l19-19.833a19.574,19.574,0,1,1,10.471,10.049l-19,19.834a19.58,19.58,0,1,1-37.406,8.107q0-.777.06-1.54l-11.565-5.7a19.512,19.512,0,0,1-22.017,2.862Zm-18.486,11.54a5.069,5.069,0,1,0-5.076-5.061A5.076,5.076,0,0,0,245.029,165.939Zm44.163-38.469a5.069,5.069,0,1,0-5.061-5.061A5.081,5.081,0,0,0,289.193,127.47Zm88.342-24.294a5.076,5.076,0,1,0-5.061-5.077A5.086,5.086,0,0,0,377.535,103.176Zm-44.163,46.082A5.069,5.069,0,1,0,328.3,144.2,5.071,5.071,0,0,0,333.372,149.258ZM163.974,93.23a9.624,9.624,0,0,1,2.25.936l29.043,24.545c.465.4.683,1.767.935,2.25H166.593a2.47,2.47,0,0,1-2.62-2.251ZM71.256,333.93H48.481A33.585,33.585,0,0,1,15,300.449V70.194A33.585,33.585,0,0,1,48.481,36.713H416.913a33.585,33.585,0,0,1,33.481,33.481V300.449a33.585,33.585,0,0,1-33.481,33.481H301.135v53.191H352.08c15.691,0,28.545,10.253,28.545,22.783v22.813H84.8V409.9c0-12.529,12.854-22.783,28.545-22.783h23.187A89.693,89.693,0,0,0,240.865,277.547H422.409V69.366a4.647,4.647,0,0,0-4.64-4.639H47.653a4.653,4.653,0,0,0-4.669,4.639V277.547H66.9a90.087,90.087,0,0,0,4.353,56.383Zm6.81-82.534h-.7a3.2,3.2,0,0,1-3.2-3.186V96.427a3.2,3.2,0,0,1,3.2-3.2h72.1v25.48a17.072,17.072,0,0,0,17.133,16.764H196.2v84.7A89.682,89.682,0,0,0,78.066,251.4Zm14.193-47.983h65.89a7.257,7.257,0,1,0,0-14.513H92.259a7.257,7.257,0,1,0,0,14.513Zm0-26.459h65.89a7.257,7.257,0,1,0,0-14.513H92.259a7.257,7.257,0,1,0,0,14.513Zm0-26.459h42.925a7.257,7.257,0,1,0,0-14.513H92.259a7.257,7.257,0,0,0,0,14.513Z" transform="translate(-15 -36.713)" fill="#fff" fill-rule="evenodd"/>
</svg>
