<svg xmlns="http://www.w3.org/2000/svg" width="427.471" height="427.47" viewBox="0 0 427.471 427.47">
  <g id="Group_9" data-name="Group 9" transform="translate(-36.265 -36.265)">
    <path id="market-research_1_" data-name="market-research (1)" d="M309.719,380.121A70.065,70.065,0,0,0,346.6,369.7a8.71,8.71,0,0,1,10.834,1.268L371.169,384.7,384.7,371.169,370.965,357.43A8.71,8.71,0,0,1,369.7,346.6a70.407,70.407,0,1,0-59.979,33.525Zm1.472-347.158L260.246,71.611a27.174,27.174,0,0,0-6.355-8.366l51.3-38.918-5.571-.835a5.271,5.271,0,1,1,1.526-10.431l17.934,2.686a5.271,5.271,0,0,1,4.452,5.978l-2.686,17.934a5.271,5.271,0,0,1-10.431-1.526l.775-5.172ZM209.209,78.983l-32.746-12.42a26.916,26.916,0,0,0,3.736-9.844L212.944,69.14a26.912,26.912,0,0,0-3.736,9.844Zm-74.67-7.44L96,97.859a27.121,27.121,0,0,0-5.946-8.693L128.594,62.85a27.121,27.121,0,0,0,5.946,8.693ZM18.277,358.818A5.277,5.277,0,0,1,13,353.541V18.277a5.277,5.277,0,0,1,10.555,0V348.262H238.511a81.043,81.043,0,0,0,6.843,10.555H18.277Zm200-213.644h35.26a8.812,8.812,0,0,1,8.8,8.8v90.11a80.95,80.95,0,0,0-31.684,83.073H218.279a8.812,8.812,0,0,1-8.8-8.8V153.97A8.812,8.812,0,0,1,218.279,145.174ZM53.46,173.391a8.812,8.812,0,0,0-8.8,8.8V318.358a8.812,8.812,0,0,0,8.8,8.8H88.719a8.812,8.812,0,0,0,8.8-8.8V182.186a8.812,8.812,0,0,0-8.8-8.8H53.46Zm82.409-63.485a8.812,8.812,0,0,0-8.8,8.8V318.358a8.812,8.812,0,0,0,8.8,8.8h35.259a8.812,8.812,0,0,0,8.8-8.8V118.7a8.812,8.812,0,0,0-8.8-8.8Zm164.819-35.27h35.26a8.812,8.812,0,0,1,8.8,8.8V236.713a81.116,81.116,0,0,0-52.851-5.977V83.431a8.812,8.812,0,0,1,8.8-8.8ZM71.09,91.969a16.519,16.519,0,1,0,16.519,16.519A16.519,16.519,0,0,0,71.09,91.969ZM235.91,66.962a16.519,16.519,0,1,0,16.519,16.519A16.519,16.519,0,0,0,235.91,66.962ZM153.5,35.7A16.519,16.519,0,1,0,170.02,52.223,16.519,16.519,0,0,0,153.5,35.7ZM391.068,379.643a7.05,7.05,0,0,1,9.951,0l35.042,35.042a15.115,15.115,0,0,1-21.376,21.376l-35.042-35.042a7.05,7.05,0,0,1,0-9.951l11.426-11.426ZM309.72,357.318a47.6,47.6,0,1,1,47.6-47.6A47.6,47.6,0,0,1,309.72,357.318Zm41.121-6.478a58.153,58.153,0,1,1,0-82.24A58.152,58.152,0,0,1,350.84,350.84Z" transform="translate(23.265 23.265)" fill="#fff" fill-rule="evenodd"/>
  </g>
</svg>
