<svg xmlns="http://www.w3.org/2000/svg" width="422" height="422" viewBox="0 0 422 422">
  <path id="status-update_1_" data-name="status-update (1)" d="M98.082,315.405,114.475,331.8v-9.329h89.883v54.954h19.285v-74.79a77.122,77.122,0,1,1,71.98-103.255l42.507-73.625-25.2-25.2L295.9,117.592a129.477,129.477,0,0,0-48.088-19.918v-24.1H198.25V97.671a129.5,129.5,0,0,0-48.088,19.918l-17.036-17.036L98.083,135.6l17.037,17.037A129.477,129.477,0,0,0,95.2,200.721H71.107v49.557H95.2a129.473,129.473,0,0,0,19.918,48.1L98.082,315.41ZM347.238,200.719H311.506L377.752,85.981,444,200.719H408.267V444H347.238ZM128.9,336.9h61.029V444H128.9Zm109.168-71.031H299.1V444h-61.03ZM304.956,32.793a7.207,7.207,0,1,1,12.511-7.158l18.165,31.757a7.2,7.2,0,0,1-5.644,10.76l-35.833,5.077a7.2,7.2,0,0,1-1.972-14.259l15.653-2.217a186.058,186.058,0,0,0-84.808-20.325c-103.058,0-186.6,83.543-186.6,186.6A185.739,185.739,0,0,0,91.081,354.975a7.213,7.213,0,1,1-10.2,10.2A200.709,200.709,0,0,1,22,223.029C22,112,112.005,22,223.029,22a200.221,200.221,0,0,1,87.1,19.838Zm8.566,317.061V251.439H295.687a77.44,77.44,0,0,0,3.777-36.289h33.343V330.569Z" transform="translate(-22 -22)" fill="#fff" fill-rule="evenodd"/>
</svg>
