<svg width="56" height="56" viewBox="0 0 56 56" fill="none" xmlns="http://www.w3.org/2000/svg">
<g clip-path="url(#clip0_127_85)">
<path d="M28 56C43.464 56 56 43.464 56 28C56 12.536 43.464 0 28 0C12.536 0 0 12.536 0 28C0 43.464 12.536 56 28 56Z" fill="url(#paint0_linear_127_85)"/>
<path d="M28 55C42.9117 55 55 42.9117 55 28C55 13.0883 42.9117 1 28 1C13.0883 1 1 13.0883 1 28C1 42.9117 13.0883 55 28 55Z" fill="#1E293B"/>
<path opacity="0.079" d="M28 55C42.9117 55 55 42.9117 55 28C55 13.0883 42.9117 1 28 1C13.0883 1 1 13.0883 1 28C1 42.9117 13.0883 55 28 55Z" fill="url(#paint1_radial_127_85)"/>
<path d="M40.9062 22.7378V22.7387V34.2612C40.9062 36.6981 40.1812 38.6034 38.8854 39.8992C37.5897 41.1949 35.6844 41.92 33.2475 41.92H21.7387C19.3019 41.92 17.3967 41.1949 16.101 39.8976C14.8052 38.6002 14.08 36.6915 14.08 34.2475V22.7387C14.08 20.3019 14.8051 18.3966 16.1008 17.1008C17.3966 15.8051 19.3019 15.08 21.7387 15.08H33.2613C35.6982 15.08 37.6033 15.8051 38.8973 17.1007C40.1912 18.3962 40.9129 20.3012 40.9062 22.7378Z" stroke="#D2D2D2" stroke-width="0.66"/>
<path d="M27.9807 24.1789V34.1985C27.9807 34.7814 27.5067 35.2554 26.9237 35.2554C26.3269 35.2554 25.8548 34.7796 25.8548 34.1985V24.1789C25.8548 23.5978 26.3269 23.1219 26.9237 23.1219C27.5067 23.1219 27.9807 23.5959 27.9807 24.1789Z" stroke="#D2D2D2" stroke-width="0.66"/>
<path d="M33.11 22.1977V33.8841C33.11 34.6341 32.58 35.1718 32.0114 35.1718C31.4287 35.1718 30.9004 34.6321 30.9004 33.8841V22.1977C30.9004 21.4496 31.4287 20.91 32.0114 20.91C32.58 20.91 33.11 21.4477 33.11 22.1977Z" stroke="#D2D2D2" stroke-width="0.66"/>
<path d="M22.6959 30.3007V34.1985C22.6959 34.7796 22.2237 35.2554 21.627 35.2554C21.044 35.2554 20.57 34.7814 20.57 34.1985V30.3007C20.57 29.7177 21.044 29.2437 21.627 29.2437C22.2237 29.2437 22.6959 29.7195 22.6959 30.3007Z" stroke="#D2D2D2" stroke-width="0.66"/>
</g>
<defs>
<linearGradient id="paint0_linear_127_85" x1="2800" y1="5600" x2="2800" y2="0" gradientUnits="userSpaceOnUse">
<stop stop-color="#334155"/>
<stop offset="1" stop-color="#94A3B8" stop-opacity="0.601"/>
</linearGradient>
<radialGradient id="paint1_radial_127_85" cx="0" cy="0" r="1" gradientUnits="userSpaceOnUse" gradientTransform="translate(2633.18 2739.93) scale(1868.29)">
<stop stop-color="#F1F5F9"/>
<stop offset="1" stop-color="#F1F5F9" stop-opacity="0"/>
</radialGradient>
<clipPath id="clip0_127_85">
<rect width="56" height="56" fill="white"/>
</clipPath>
</defs>
</svg>
