<svg width="56" height="56" viewBox="0 0 56 56" fill="none" xmlns="http://www.w3.org/2000/svg">
<g clip-path="url(#clip0_127_53)">
<path d="M28 56C43.464 56 56 43.464 56 28C56 12.536 43.464 0 28 0C12.536 0 0 12.536 0 28C0 43.464 12.536 56 28 56Z" fill="url(#paint0_linear_127_53)"/>
<path d="M28 55C42.9117 55 55 42.9117 55 28C55 13.0883 42.9117 1 28 1C13.0883 1 1 13.0883 1 28C1 42.9117 13.0883 55 28 55Z" fill="#1E293B"/>
<path opacity="0.079" d="M28 55C42.9117 55 55 42.9117 55 28C55 13.0883 42.9117 1 28 1C13.0883 1 1 13.0883 1 28C1 42.9117 13.0883 55 28 55Z" fill="url(#paint1_radial_127_53)"/>
<path d="M39.8099 31.5975L39.8097 31.5983C39.2248 34.1119 38.3732 35.7854 37.202 36.7877C36.0477 37.7755 34.5058 38.1756 32.3829 37.9714L32.3829 37.9714L32.3749 37.9707C31.697 37.9165 30.9582 37.7939 30.1573 37.6006L30.1558 37.6002L27.7758 37.0336L27.7755 37.0335C24.8695 36.3436 23.0935 35.3077 22.1755 33.8296C21.2578 32.3521 21.1174 30.3037 21.8001 27.3916L21.8002 27.3913L23.1884 21.4562C23.1884 21.4561 23.1884 21.456 23.1885 21.4559C23.4669 20.2725 23.7963 19.2638 24.1987 18.4456L24.1987 18.4456L24.2002 18.4426C24.9844 16.8204 26.0134 15.8436 27.3645 15.3773C28.7389 14.903 30.518 14.9316 32.8433 15.4815L32.8446 15.4819L35.2103 16.0343C35.2104 16.0343 35.2104 16.0344 35.2105 16.0344C38.1301 16.7173 39.9087 17.7533 40.8263 19.2323C41.7439 20.7114 41.8811 22.7631 41.1982 25.6758L39.8099 31.5975Z" stroke="#D2D2D2"/>
<path d="M30.8002 38.7623C30.2267 39.0343 29.5787 39.2863 28.8507 39.5238L28.8495 39.5242L26.6141 40.2599C26.6136 40.2601 26.6132 40.2602 26.6128 40.2604C23.8478 41.1516 21.8607 41.1816 20.3652 40.4164C18.8693 39.651 17.7293 38.0205 16.8305 35.2546L15.0175 29.6599C15.0175 29.6597 15.0174 29.6596 15.0174 29.6594C14.1257 26.8936 14.0922 24.9024 14.8544 23.4048C15.6163 21.908 17.2427 20.7681 20.0076 19.8767L20.0076 19.8767L20.0105 19.8757L22.2462 19.1399C22.4689 19.0694 22.6851 19.0037 22.8953 18.9444C22.6329 19.6344 22.4097 20.3995 22.215 21.2271L22.2148 21.2278L20.8265 27.1633C20.1209 30.1729 20.2001 32.5445 21.326 34.3572C22.4515 36.1693 24.543 37.2939 27.5445 38.0065L29.9227 38.5727C29.923 38.5728 29.9233 38.5728 29.9237 38.5729C30.2223 38.645 30.5145 38.7081 30.8002 38.7623Z" stroke="#D2D2D2"/>
<path d="M28.7604 23.6337L28.7604 23.6337L28.7588 23.6333C28.4661 23.5601 28.2813 23.2554 28.3576 22.9504C28.4307 22.658 28.735 22.4733 29.0397 22.5491C29.0399 22.5491 29.0402 22.5492 29.0404 22.5492L35.9096 24.2913L35.9112 24.2917C36.2039 24.3649 36.3887 24.6696 36.3124 24.9746L36.3116 24.978C36.255 25.2113 36.0247 25.3892 35.7775 25.3892C35.7416 25.3892 35.7059 25.384 35.6128 25.3707C35.6104 25.3703 35.608 25.37 35.6055 25.3696L28.7604 23.6337Z" fill="white" stroke="#D2D2D2"/>
<path d="M27.3582 29.1163L27.3582 29.1163L27.3563 29.1158C27.0636 29.0426 26.8788 28.7379 26.9551 28.433C27.0282 28.1406 27.3324 27.9559 27.6371 28.0316C27.6373 28.0316 27.6376 28.0317 27.6379 28.0318L31.7584 29.0796L31.7584 29.0796L31.7604 29.0801C32.053 29.1533 32.2378 29.458 32.1616 29.7629L32.1615 29.7629L32.16 29.7697C32.103 30.0116 31.8909 30.1775 31.6267 30.1775C31.5907 30.1775 31.555 30.1724 31.462 30.1591C31.4596 30.1587 31.4572 30.1584 31.4548 30.158L27.3582 29.1163Z" fill="white" stroke="#D2D2D2"/>
</g>
<defs>
<linearGradient id="paint0_linear_127_53" x1="2800" y1="5600" x2="2800" y2="0" gradientUnits="userSpaceOnUse">
<stop stop-color="#334155"/>
<stop offset="1" stop-color="#94A3B8" stop-opacity="0.601"/>
</linearGradient>
<radialGradient id="paint1_radial_127_53" cx="0" cy="0" r="1" gradientUnits="userSpaceOnUse" gradientTransform="translate(2633.18 2739.93) scale(1868.29)">
<stop stop-color="#F1F5F9"/>
<stop offset="1" stop-color="#F1F5F9" stop-opacity="0"/>
</radialGradient>
<clipPath id="clip0_127_53">
<rect width="56" height="56" fill="white"/>
</clipPath>
</defs>
</svg>
