<svg width="56" height="56" viewBox="0 0 56 56" fill="none" xmlns="http://www.w3.org/2000/svg">
<g clip-path="url(#clip0_127_68)">
<path d="M28 56C43.464 56 56 43.464 56 28C56 12.536 43.464 0 28 0C12.536 0 0 12.536 0 28C0 43.464 12.536 56 28 56Z" fill="url(#paint0_linear_127_68)"/>
<path d="M28 55C42.9117 55 55 42.9117 55 28C55 13.0883 42.9117 1 28 1C13.0883 1 1 13.0883 1 28C1 42.9117 13.0883 55 28 55Z" fill="#1E293B"/>
<path opacity="0.079" d="M28 55C42.9117 55 55 42.9117 55 28C55 13.0883 42.9117 1 28 1C13.0883 1 1 13.0883 1 28C1 42.9117 13.0883 55 28 55Z" fill="url(#paint1_radial_127_68)"/>
<path d="M35.9212 22.9988L35.7657 22.6591C36.7142 22.2249 37.4384 21.7301 37.9201 21.2211C38.4021 20.7119 38.6219 20.2112 38.6219 19.7515C38.6219 19.2918 38.4021 18.7912 37.9201 18.282C37.4384 17.773 36.7142 17.2782 35.7656 16.8438C33.7136 15.9047 30.9561 15.3781 27.9998 15.3781C25.0436 15.3781 22.2862 15.9047 20.2337 16.8438L35.9212 22.9988ZM35.9212 22.9988L35.7657 22.6591C33.714 23.5982 30.9562 24.1248 27.9998 24.1248M35.9212 22.9988L27.9998 24.1248M27.9998 24.1248C25.0435 24.1248 22.2861 23.5982 20.2337 22.6591M27.9998 24.1248L20.2337 22.6591M20.2337 22.6591C19.2853 22.2249 18.5613 21.7302 18.0797 21.2212M20.2337 22.6591L18.0797 21.2212M18.0797 21.2212C17.5978 20.712 17.3781 20.2112 17.3781 19.7515M18.0797 21.2212L17.3781 19.7515M17.3781 19.7515C17.3781 19.2918 17.5978 18.7911 18.0797 18.282M17.3781 19.7515L18.0797 18.282M18.0797 18.282C18.5613 17.773 19.2853 17.2782 20.2336 16.8439L18.0797 18.282ZM19.4853 24.2939L19.4855 24.294C21.7933 25.3498 24.8178 25.9227 28.0002 25.9227C31.1826 25.9227 34.2067 25.3495 36.5145 24.294L36.5147 24.2939C37.3359 23.9178 38.0432 23.4907 38.6219 23.0189V25.1705C38.6219 25.6325 38.4022 26.1346 37.9215 26.6441C37.4409 27.1534 36.7186 27.6479 35.7724 28.0809C33.7247 29.0175 30.9652 29.5435 27.9998 29.5435C25.0344 29.5435 22.2746 29.0175 20.2273 28.0809C19.2811 27.6479 18.5589 27.1534 18.0784 26.6441C17.5978 26.1347 17.3781 25.6325 17.3781 25.1705V23.0189C17.9568 23.4906 18.6641 23.9178 19.4853 24.2939ZM20.2273 33.1387L20.2273 33.1387C19.2812 32.7058 18.5589 32.2111 18.0784 31.7017C17.5977 31.1922 17.3781 30.69 17.3781 30.2284V28.4394C18.3524 29.2366 19.6736 29.8964 21.2231 30.3837C23.161 30.993 25.4842 31.3414 27.9998 31.3414C30.5154 31.3414 32.8386 30.993 34.7766 30.3837C36.3262 29.8964 37.6475 29.2365 38.6219 28.4393V30.2284C38.6219 30.6901 38.4023 31.1922 37.9216 31.7017C37.4411 32.2111 36.7189 32.7058 35.7727 33.1387C33.7246 34.0757 30.9652 34.6017 27.9998 34.6017C25.0344 34.6017 22.2746 34.0757 20.2273 33.1387ZM20.2273 38.5578L20.07 38.9016L20.2273 38.5578C19.2812 38.1248 18.5589 37.6301 18.0784 37.1207C17.5978 36.6111 17.3781 36.1089 17.3781 35.647V33.4973C18.3524 34.2946 19.6736 34.9546 21.2231 35.4419C23.161 36.0513 25.4842 36.3997 27.9998 36.3997C30.5154 36.3997 32.8386 36.0513 34.7766 35.4419C36.3262 34.9546 37.6475 34.2946 38.6219 33.4972V35.647C38.6219 36.1089 38.4022 36.6111 37.9215 37.1207C37.4409 37.6301 36.7185 38.1248 35.7724 38.5578C33.7247 39.4947 30.9652 40.0204 27.9998 40.0204C25.0344 40.0204 22.2746 39.4947 20.2273 38.5578Z" stroke="#D2D2D2" stroke-width="0.756188"/>
</g>
<defs>
<linearGradient id="paint0_linear_127_68" x1="2800" y1="5600" x2="2800" y2="0" gradientUnits="userSpaceOnUse">
<stop stop-color="#334155"/>
<stop offset="1" stop-color="#94A3B8" stop-opacity="0.601"/>
</linearGradient>
<radialGradient id="paint1_radial_127_68" cx="0" cy="0" r="1" gradientUnits="userSpaceOnUse" gradientTransform="translate(2633.18 2739.93) scale(1868.29)">
<stop stop-color="#F1F5F9"/>
<stop offset="1" stop-color="#F1F5F9" stop-opacity="0"/>
</radialGradient>
<clipPath id="clip0_127_68">
<rect width="56" height="56" fill="white"/>
</clipPath>
</defs>
</svg>
