<svg width="56" height="56" viewBox="0 0 56 56" fill="none" xmlns="http://www.w3.org/2000/svg">
<g clip-path="url(#clip0_193_213)">
<path d="M28 56C43.464 56 56 43.464 56 28C56 12.536 43.464 0 28 0C12.536 0 0 12.536 0 28C0 43.464 12.536 56 28 56Z" fill="url(#paint0_linear_193_213)"/>
<path d="M28 55C42.9117 55 55 42.9117 55 28C55 13.0883 42.9117 1 28 1C13.0883 1 1 13.0883 1 28C1 42.9117 13.0883 55 28 55Z" fill="#1E293B"/>
<path opacity="0.079" d="M28 55C42.9117 55 55 42.9117 55 28C55 13.0883 42.9117 1 28 1C13.0883 1 1 13.0883 1 28C1 42.9117 13.0883 55 28 55Z" fill="url(#paint1_radial_193_213)"/>
<path d="M31.962 37.5469L31.8077 37.3995C31.1909 36.8067 30.8077 35.9778 30.8077 35.0577C30.8077 33.2627 32.2627 31.8077 34.0577 31.8077C35.8527 31.8077 37.3077 33.2627 37.3077 35.0577C37.3077 35.9778 36.9244 36.8067 36.3077 37.3995L36.1534 37.5469V41.335L34.335 40.1221L34.0577 39.9376L33.7803 40.1221L31.962 41.335V37.5469Z" fill="#C3D8F2" stroke="#D2D2D2"/>
<path d="M14.1543 14.5H41.8457C42.2066 14.5 42.5 14.7931 42.5 15.1543V38.2305C42.5 38.5912 42.2065 38.8848 41.8457 38.8848H39.4619V38.7705C40.2121 37.6863 40.6152 36.4043 40.6152 35.0576C40.6152 31.4411 37.6741 28.5 34.0576 28.5C30.4411 28.5 27.5 31.4411 27.5 35.0576C27.5 36.404 27.9038 37.6862 28.6543 38.7705V38.8848H14.1543C13.7935 38.8848 13.5 38.5912 13.5 38.2305V15.1543L13.5137 15.0225C13.5745 14.7243 13.8384 14.5 14.1543 14.5ZM18.8457 24.8848H29.6543V21.5771H18.8457V24.8848ZM18.8457 20.2695H37.1543V16.9619H18.8457V20.2695Z" stroke="#D2D2D2"/>
</g>
<defs>
<linearGradient id="paint0_linear_193_213" x1="2800" y1="5600" x2="2800" y2="0" gradientUnits="userSpaceOnUse">
<stop stop-color="#334155"/>
<stop offset="1" stop-color="#94A3B8" stop-opacity="0.601"/>
</linearGradient>
<radialGradient id="paint1_radial_193_213" cx="0" cy="0" r="1" gradientUnits="userSpaceOnUse" gradientTransform="translate(2633.18 2739.93) scale(1868.29)">
<stop stop-color="#F1F5F9"/>
<stop offset="1" stop-color="#F1F5F9" stop-opacity="0"/>
</radialGradient>
<clipPath id="clip0_193_213">
<rect width="56" height="56" fill="white"/>
</clipPath>
</defs>
</svg>
