<svg width="56" height="56" viewBox="0 0 56 56" fill="none" xmlns="http://www.w3.org/2000/svg">
<g clip-path="url(#clip0_127_107)">
<path d="M28 56C43.464 56 56 43.464 56 28C56 12.536 43.464 0 28 0C12.536 0 0 12.536 0 28C0 43.464 12.536 56 28 56Z" fill="url(#paint0_linear_127_107)"/>
<path d="M28 55C42.9117 55 55 42.9117 55 28C55 13.0883 42.9117 1 28 1C13.0883 1 1 13.0883 1 28C1 42.9117 13.0883 55 28 55Z" fill="#1E293B"/>
<path opacity="0.079" d="M28 55C42.9117 55 55 42.9117 55 28C55 13.0883 42.9117 1 28 1C13.0883 1 1 13.0883 1 28C1 42.9117 13.0883 55 28 55Z" fill="url(#paint1_radial_127_107)"/>
<path d="M19.9958 31.91C18.4434 31.91 17.0758 32.7244 16.2983 33.9479V20.9167C16.2983 18.0809 16.661 16.4448 17.6154 15.4905C18.5698 14.5361 20.2059 14.1734 23.0417 14.1734H32.9583C35.7941 14.1734 37.4302 14.5361 38.3846 15.4905C39.339 16.4448 39.7017 18.0809 39.7017 20.9167V31.91H19.9958Z" stroke="#BCBCBC" stroke-width="0.68"/>
<path d="M39.7017 32.59V37.2083C39.7017 39.7547 37.6297 41.8267 35.0833 41.8267H20.9167C18.3703 41.8267 16.2983 39.7547 16.2983 37.2083V36.2875C16.2983 34.2511 17.9595 32.59 19.9958 32.59H39.7017Z" stroke="#EFEFEF" stroke-width="0.68"/>
<path d="M33.6667 21.6391H22.3333C21.9403 21.6391 21.6108 21.3097 21.6108 20.9166C21.6108 20.5236 21.9403 20.1941 22.3333 20.1941H33.6667C34.0597 20.1941 34.3892 20.5236 34.3892 20.9166C34.3892 21.3097 34.0597 21.6391 33.6667 21.6391Z" stroke="#DCDCDC" stroke-width="0.68"/>
<path d="M29.4167 26.5975H22.3333C21.9403 26.5975 21.6108 26.2681 21.6108 25.875C21.6108 25.4819 21.9403 25.1525 22.3333 25.1525H29.4167C29.8097 25.1525 30.1392 25.4819 30.1392 25.875C30.1392 26.2681 29.8097 26.5975 29.4167 26.5975Z" stroke="#DCDCDC" stroke-width="0.68"/>
</g>
<defs>
<linearGradient id="paint0_linear_127_107" x1="2800" y1="5600" x2="2800" y2="0" gradientUnits="userSpaceOnUse">
<stop stop-color="#334155"/>
<stop offset="1" stop-color="#94A3B8" stop-opacity="0.601"/>
</linearGradient>
<radialGradient id="paint1_radial_127_107" cx="0" cy="0" r="1" gradientUnits="userSpaceOnUse" gradientTransform="translate(2633.18 2739.93) scale(1868.29)">
<stop stop-color="#F1F5F9"/>
<stop offset="1" stop-color="#F1F5F9" stop-opacity="0"/>
</radialGradient>
<clipPath id="clip0_127_107">
<rect width="56" height="56" fill="white"/>
</clipPath>
</defs>
</svg>
