<svg xmlns="http://www.w3.org/2000/svg" width="407.724" height="407.724" viewBox="0 0 407.724 407.724">
  <g id="_x30_7" transform="translate(-2 -2)">
    <path id="Path_37" data-name="Path 37" d="M183.9,5H154.776a14.49,14.49,0,0,0-5.016,28.11L111.091,71.779,92.264,52.951a14.556,14.556,0,0,0-20.591,0L17.578,107.046a50.433,50.433,0,0,1,30.209,10.973L81.968,83.837,100.8,102.665a14.556,14.556,0,0,0,20.591,0L170.351,53.7a14.49,14.49,0,0,0,28.11-5.016V19.562A14.562,14.562,0,0,0,183.9,5Z" transform="translate(211.263 40.685)" fill="#fff"/>
    <path id="Path_38" data-name="Path 38" d="M176.739,198.581a50.65,50.65,0,0,1,18.248-38.747l-7.953-7.953a14.383,14.383,0,0,0-16.968-2.407l-9.561-9.561A87.639,87.639,0,1,0,139.914,160.5l9.561,9.561a14.383,14.383,0,0,0,2.407,16.968l26.108,26.108c.467.467,1.014.817,1.512,1.242a50.266,50.266,0,0,1-2.763-15.8Zm-87.369-36.4a72.808,72.808,0,1,1,72.808-72.808A72.893,72.893,0,0,1,89.369,162.177Z" transform="translate(0 0)" fill="#fff"/>
    <ellipse id="Ellipse_2" data-name="Ellipse 2" cx="35.5" cy="37" rx="35.5" ry="37" transform="translate(61.366 205.366)" fill="#fff"/>
    <path id="Path_39" data-name="Path 39" d="M92.369,79.246H19.562A14.562,14.562,0,0,1,5,64.685,43.732,43.732,0,0,1,48.685,21H63.246a43.732,43.732,0,0,1,43.685,43.685A14.562,14.562,0,0,1,92.369,79.246Z" transform="translate(40.685 257.67)" fill="#fff"/>
    <circle id="Ellipse_3" data-name="Ellipse 3" cx="36.5" cy="36.5" r="36.5" transform="translate(322.366 176.366)" fill="#fff"/>
    <path id="Path_40" data-name="Path 40" d="M110.369,77.246H37.562A14.562,14.562,0,0,1,23,62.685,43.732,43.732,0,0,1,66.685,19H81.246a43.732,43.732,0,0,1,43.685,43.685A14.562,14.562,0,0,1,110.369,77.246Z" transform="translate(284.793 230.547)" fill="#fff"/>
    <ellipse id="Ellipse_4" data-name="Ellipse 4" cx="37.5" cy="36" rx="37.5" ry="36" transform="translate(190.366 162.366)" fill="#fff"/>
    <path id="Path_41" data-name="Path 41" d="M101.369,76.246H28.562A14.562,14.562,0,0,1,14,61.685,43.732,43.732,0,0,1,57.685,18H72.246a43.732,43.732,0,0,1,43.685,43.685A14.562,14.562,0,0,1,101.369,76.246Z" transform="translate(162.739 216.985)" fill="#fff"/>
    <path id="Path_42" data-name="Path 42" d="M92.369,26H19.562A14.562,14.562,0,0,0,5,40.562V69.685A14.562,14.562,0,0,0,19.562,84.246H92.369a14.562,14.562,0,0,0,14.562-14.562V40.562A14.562,14.562,0,0,0,92.369,26Z" transform="translate(40.685 325.478)" fill="#fff"/>
    <path id="Path_43" data-name="Path 43" d="M101.369,23H28.562A14.562,14.562,0,0,0,14,37.562v72.808a14.562,14.562,0,0,0,14.562,14.562h72.808a14.562,14.562,0,0,0,14.562-14.562V37.562A14.562,14.562,0,0,0,101.369,23Z" transform="translate(162.739 284.793)" fill="#fff"/>
    <path id="Path_44" data-name="Path 44" d="M110.369,24H37.562A14.562,14.562,0,0,0,23,38.562V96.808a14.562,14.562,0,0,0,14.562,14.562h72.808a14.562,14.562,0,0,0,14.562-14.562V38.562A14.562,14.562,0,0,0,110.369,24Z" transform="translate(284.793 298.355)" fill="#fff"/>
    <circle id="Ellipse_5" data-name="Ellipse 5" cx="58" cy="58" r="58" transform="translate(30.366 30.366)" fill="#fff"/>
  </g>
</svg>
