<svg id="compliant" xmlns="http://www.w3.org/2000/svg" width="433.45" height="433.45" viewBox="0 0 433.45 433.45">
  <path id="Path_64" data-name="Path 64" d="M27.091,379.161V60H12.7A12.7,12.7,0,0,0,0,72.7V429.956a12.7,12.7,0,0,0,12.7,12.7H300.537a12.7,12.7,0,0,0,12.7-12.7v-12.7H65.187A38.139,38.139,0,0,1,27.091,379.161Z" transform="translate(0 -9.205)" fill="#fff"/>
  <path id="Path_65" data-name="Path 65" d="M152,332h25.4v25.4H152Z" transform="translate(-23.32 -50.935)" fill="#fff"/>
  <path id="Path_66" data-name="Path 66" d="M152,92h25.4v25.4H152Z" transform="translate(-23.32 -14.114)" fill="#fff"/>
  <path id="Path_67" data-name="Path 67" d="M152,212h25.4v25.4H152Z" transform="translate(-23.32 -32.525)" fill="#fff"/>
  <path id="Path_68" data-name="Path 68" d="M476.912,251.845l-61.377-23.017a12.7,12.7,0,0,0-8.918,0L345.24,251.845a12.7,12.7,0,0,0-8.24,11.89v61.1a107.288,107.288,0,0,0,69.617,100.457,12.7,12.7,0,0,0,8.918,0,107.288,107.288,0,0,0,69.617-100.457v-61.1A12.7,12.7,0,0,0,476.912,251.845Zm-29.919,57.772-35.917,35.917a12.7,12.7,0,0,1-17.959,0l-17.959-17.959a12.7,12.7,0,0,1,17.959-17.959l8.98,8.98,26.938-26.938a12.7,12.7,0,1,1,17.959,17.959Z" transform="translate(-51.702 -34.982)" fill="#fff"/>
  <path id="Path_69" data-name="Path 69" d="M74.7,382.655h232.56a132.872,132.872,0,0,1-31.026-50.795H227.083a12.7,12.7,0,1,1,0-25.4h43.375a133.062,133.062,0,0,1-1.046-16.607v-8.79H227.083a12.7,12.7,0,1,1,0-25.4h42.329v-25.4H227.083a12.7,12.7,0,0,1,0-25.4h50.745a38.034,38.034,0,0,1,16.3-11.79l61.377-23.016a38.092,38.092,0,0,1,19.725-1.885V12.7A12.7,12.7,0,0,0,362.537,0H74.7A12.7,12.7,0,0,0,62,12.7V369.956A12.7,12.7,0,0,0,74.7,382.655ZM227.083,52.488h84.658a12.7,12.7,0,1,1,0,25.4H227.083a12.7,12.7,0,1,1,0-25.4Zm0,50.795h50.795a12.7,12.7,0,0,1,0,25.4H227.083a12.7,12.7,0,1,1,0-25.4Zm0,50.795h71.959a12.7,12.7,0,0,1,0,25.4H227.083a12.7,12.7,0,0,1,0-25.4ZM112.795,65.187a12.7,12.7,0,0,1,12.7-12.7h50.795a12.7,12.7,0,0,1,12.7,12.7v50.795a12.7,12.7,0,0,1-12.7,12.7H125.494a12.7,12.7,0,0,1-12.7-12.7Zm0,101.59a12.7,12.7,0,0,1,12.7-12.7h50.795a12.7,12.7,0,0,1,12.7,12.7v50.795a12.7,12.7,0,0,1-12.7,12.7H125.494a12.7,12.7,0,0,1-12.7-12.7Zm0,101.59a12.7,12.7,0,0,1,12.7-12.7h50.795a12.7,12.7,0,0,1,12.7,12.7v50.795a12.7,12.7,0,0,1-12.7,12.7H125.494a12.7,12.7,0,0,1-12.7-12.7Z" transform="translate(-9.512)" fill="#fff"/>
</svg>
