<svg xmlns="http://www.w3.org/2000/svg" width="453.836" height="428.562" viewBox="0 0 453.836 428.562">
  <g id="search-analysis" transform="translate(-1 -2.34)">
    <path id="Path_8" data-name="Path 8" d="M57.673,40.6V105a4.742,4.742,0,0,1-4.728,4.728H17.578A4.8,4.8,0,0,1,12.85,105V40.6a4.742,4.742,0,0,1,4.728-4.728H52.945A4.682,4.682,0,0,1,57.673,40.6Z" transform="translate(100.208 283.542)" fill="#fff"/>
    <path id="Path_9" data-name="Path 9" d="M64.338,38.078v88.228a4.8,4.8,0,0,1-4.728,4.728H24.148a4.8,4.8,0,0,1-4.728-4.728V38.078a4.742,4.742,0,0,1,4.728-4.728H59.61A4.742,4.742,0,0,1,64.338,38.078Z" transform="translate(155.766 262.232)" fill="#fff"/>
    <path id="Path_10" data-name="Path 10" d="M77.989,29.966a4.728,4.728,0,0,0,0-9.456h-53.9a4.728,4.728,0,1,0,0,9.456Z" transform="translate(155.259 153.652)" fill="#fff"/>
    <path id="Path_11" data-name="Path 11" d="M17.388,29.966h40.19a4.728,4.728,0,1,0,0-9.456H17.388a4.728,4.728,0,1,0,0,9.456Z" transform="translate(98.601 153.652)" fill="#fff"/>
    <path id="Path_12" data-name="Path 12" d="M82.661,27.528A4.682,4.682,0,0,0,77.933,22.8H28.1a4.728,4.728,0,1,0,0,9.456H77.933A4.682,4.682,0,0,0,82.661,27.528Z" transform="translate(189.169 173.017)" fill="#fff"/>
    <path id="Path_13" data-name="Path 13" d="M17.388,32.256H94.741a4.728,4.728,0,1,0,0-9.456H17.388a4.728,4.728,0,1,0,0,9.456Z" transform="translate(98.601 173.017)" fill="#fff"/>
    <path id="Path_14" data-name="Path 14" d="M75.806,29.818a4.682,4.682,0,0,0-4.728-4.728H24.458a4.728,4.728,0,0,0,0,9.456h46.62A4.742,4.742,0,0,0,75.806,29.818Z" transform="translate(158.388 192.382)" fill="#fff"/>
    <path id="Path_15" data-name="Path 15" d="M17.388,34.546h43.4a4.728,4.728,0,1,0,0-9.456h-43.4a4.728,4.728,0,1,0,0,9.456Z" transform="translate(98.601 192.382)" fill="#fff"/>
    <path id="Path_16" data-name="Path 16" d="M79.786,32.108a4.682,4.682,0,0,0-4.728-4.728H28.438a4.728,4.728,0,0,0,0,9.456h46.62A4.742,4.742,0,0,0,79.786,32.108Z" transform="translate(192.044 211.747)" fill="#fff"/>
    <path id="Path_17" data-name="Path 17" d="M17.388,36.836H98.145a4.728,4.728,0,1,0,0-9.456H17.388a4.728,4.728,0,1,0,0,9.456Z" transform="translate(98.601 211.747)" fill="#fff"/>
    <path id="Path_18" data-name="Path 18" d="M68.736,29.67H17.388a4.728,4.728,0,0,0,0,9.456H68.736a4.728,4.728,0,0,0,0-9.456Z" transform="translate(98.601 231.112)" fill="#fff"/>
    <path id="Path_19" data-name="Path 19" d="M452.068,338.324l-31.111-69.031A4.805,4.805,0,0,0,415,266.74l-6.43,2.364-5.106-14a76.36,76.36,0,0,0,8.511-4.917,84.708,84.708,0,0,0,22.412-117.448,83.557,83.557,0,0,0-39.244-31.206V7.068a4.742,4.742,0,0,0-4.728-4.728H67.005a4.742,4.742,0,0,0-4.728,4.728v25.91H36.367a4.682,4.682,0,0,0-4.728,4.728v20.8H5.728A4.682,4.682,0,0,0,1,63.239V370.1a4.682,4.682,0,0,0,4.728,4.728h25.91v20.8a4.682,4.682,0,0,0,4.728,4.728h25.91v25.816a4.682,4.682,0,0,0,4.728,4.728H390.413a4.682,4.682,0,0,0,4.728-4.728V364.707a31.333,31.333,0,0,0,28.274,18.062,32.345,32.345,0,0,0,10.78-1.891,31.624,31.624,0,0,0,17.872-42.554ZM62.277,390.9H41.095V42.435H62.277Zm323.407-54.374v84.918H71.734V11.8H385.684V98.511c-1.8-.473-3.5-.946-5.39-1.324a84.571,84.571,0,0,0-31.679,166.148,83.141,83.141,0,0,0,15.981,1.513A84.149,84.149,0,0,0,376.512,264L382,278.844l-6.43,2.364a4.653,4.653,0,0,0-2.931,5.674l13.428,47.755a6.114,6.114,0,0,0-.378,1.891Zm7.47-113.855a51.144,51.144,0,1,1-57.305-84.729,50.217,50.217,0,0,1,28.558-8.889,55.4,55.4,0,0,1,9.645.851,50.438,50.438,0,0,1,32.624,21.56A51.408,51.408,0,0,1,393.155,222.673Z" transform="translate(0 0)" fill="#fff"/>
    <path id="Path_20" data-name="Path 20" d="M237.386,33.037a20.609,20.609,0,0,1-9.078,13.712,20.857,20.857,0,0,1-11.915,3.688,21.593,21.593,0,0,1-4.161-.473,20.428,20.428,0,0,1-10.591-5.485l-46.525,31.3a21.153,21.153,0,0,1,.851,11.159,20.827,20.827,0,0,1-9.078,13.712,21.189,21.189,0,0,1-11.82,3.593,21.366,21.366,0,0,1-21.182-25.627,21.2,21.2,0,0,1,3.026-7.565L102.16,49.018A22.39,22.39,0,0,1,93.649,51a20.744,20.744,0,0,1-14.657-5.768L54.689,61.69a21,21,0,0,1,.473,9.74A21.291,21.291,0,0,1,34.169,88.735a20.646,20.646,0,0,1-4.161-.378A21.632,21.632,0,0,1,12.986,63.108,21.3,21.3,0,0,1,22.159,49.4a20.963,20.963,0,0,1,16.076-3.215,21.416,21.416,0,0,1,12.01,7.092L73.6,37.482a20.99,20.99,0,0,1-1.135-12.1A21.371,21.371,0,0,1,97.621,8.451,21.52,21.52,0,0,1,114.548,33.7a20.891,20.891,0,0,1-4.728,9.74l14,20.993A21.494,21.494,0,0,1,139.04,61.69,20.886,20.886,0,0,1,150.2,67.742l46.147-31.111a21.139,21.139,0,0,1-1.04-11.915A20.637,20.637,0,0,1,204.383,11.1a21.044,21.044,0,0,1,16.076-3.215,21.473,21.473,0,0,1,16.927,25.154Z" transform="translate(97.991 43.252)" fill="#fff"/>
    <path id="Path_21" data-name="Path 21" d="M70.823,41.908v52.01a4.8,4.8,0,0,1-4.728,4.728H30.728A4.742,4.742,0,0,1,26,93.918V41.908a4.682,4.682,0,0,1,4.728-4.728H66.095A4.742,4.742,0,0,1,70.823,41.908Z" transform="translate(211.409 294.619)" fill="#fff"/>
    <path id="Path_22" data-name="Path 22" d="M77.393,35.818v109.6a4.742,4.742,0,0,1-4.728,4.728H37.3a4.742,4.742,0,0,1-4.728-4.728V35.818A4.682,4.682,0,0,1,37.3,31.09H72.665A4.682,4.682,0,0,1,77.393,35.818Z" transform="translate(266.967 243.12)" fill="#fff"/>
  </g>
</svg>
