<svg xmlns="http://www.w3.org/2000/svg" id="glipy_copy_2" data-name="glipy copy 2" viewBox="0 0 64 64" width="300" height="300" version="1.1" xmlns:xlink="http://www.w3.org/1999/xlink" xmlns:svgjs="http://svgjs.dev/svgjs"><g width="100%" height="100%" transform="matrix(1,0,0,1,0,0)"><path d="M41.465,42.45l-6.24-2.07751a10.203,10.203,0,0,0-6.45,0L22.535,42.45a6.493,6.493,0,0,0-4.44751,6.17249v2.985A2.39424,2.39424,0,0,0,20.48,54h2.37744V51.675a.75013.75013,0,0,1,1.5-.00006V54h15.285V51.67493a.75.75,0,0,1,1.5,0V54H43.52a2.39424,2.39424,0,0,0,2.39252-2.39252v-2.985A6.493,6.493,0,0,0,41.465,42.45Z" fill="#ffffff" fill-opacity="1" data-original-color="#000000ff" stroke="none" stroke-opacity="1"/><path d="M32,39.045a7.89752,7.89752,0,0,0,.00006-15.795C21.52515,23.67816,21.52216,38.61523,32,39.045Z" fill="#ffffff" fill-opacity="1" data-original-color="#000000ff" stroke="none" stroke-opacity="1"/><path d="M45.5,12A7.51236,7.51236,0,0,0,38,19.5c.42126,9.95087,14.58026,9.948,15-.00006A7.51235,7.51235,0,0,0,45.5,12Zm1.34241,9.90741L45.5,20.5575l-1.34247,1.35a.75309.75309,0,0,1-1.06506-1.065L44.4425,19.5l-1.35-1.34253a.75309.75309,0,1,1,1.06506-1.065l1.34247,1.35,1.34247-1.35a.75309.75309,0,1,1,1.06506,1.065L46.5575,19.5l1.35,1.34247A.75325.75325,0,0,1,46.84241,21.90741Z" fill="#ffffff" fill-opacity="1" data-original-color="#000000ff" stroke="none" stroke-opacity="1"/><path d="M26,19.49994A7.5,7.5,0,0,0,11,19.5C11.42126,29.45087,25.58026,29.448,26,19.49994Zm-8.90247,2.28-1.75506-1.7475a.75309.75309,0,1,1,1.06506-1.065L17.6225,20.19l2.97-2.97a.75059.75059,0,0,1,1.06506,1.0575L18.155,21.78A.74758.74758,0,0,1,17.09753,21.78Z" fill="#ffffff" fill-opacity="1" data-original-color="#000000ff" stroke="none" stroke-opacity="1"/><path d="M32,1.99951A30.00049,30.00049,0,1,0,62,32,30.03424,30.03424,0,0,0,32,1.99951Zm0,58.29218A28.29172,28.29172,0,1,1,60.29224,32,28.32443,28.32443,0,0,1,32,60.29169Z" fill="#ffffff" fill-opacity="1" data-original-color="#000000ff" stroke="none" stroke-opacity="1"/></g></svg>