<svg xmlns="http://www.w3.org/2000/svg" width="434.331" height="434.878" viewBox="0 0 434.331 434.878">
  <g id="chart_1_" data-name="chart (1)" transform="translate(-2.56 -2.5)">
    <path id="Path_134" data-name="Path 134" d="M277.556,244.782H268.95V100.54a5.3,5.3,0,0,0-5.264-5.264H224.18a5.3,5.3,0,0,0-5.264,5.264V244.782h-17.4V128.418a5.3,5.3,0,0,0-5.264-5.264H156.751a5.3,5.3,0,0,0-5.264,5.264V244.782h-17.3V58.654a5.294,5.294,0,0,0-5.264-5.264H89.414a5.3,5.3,0,0,0-5.264,5.264V244.782h-17.4v-88.44a5.3,5.3,0,0,0-5.264-5.264H22.076a5.3,5.3,0,0,0-5.264,5.264v88.44h-8.7a5.264,5.264,0,1,0,0,10.529H277.647a5.265,5.265,0,1,0-.092-10.529Zm-221.33,0H27.34V161.56H56.225Zm134.766,0H162.015v-111.1h28.977Z" transform="translate(1.038 182.067)" fill="#fff"/>
    <path id="Path_135" data-name="Path 135" d="M141.037,17.316a88.252,88.252,0,1,0,88.4,88.256c-.14-48.618-39.778-88.256-88.4-88.256Zm-77.8,88.256A77.811,77.811,0,0,1,135.706,28.05v75.277L82.387,156.645a77.14,77.14,0,0,1-19.152-51.073Zm77.8,77.8a76.985,76.985,0,0,1-51.073-19.223l51.073-51.073,51.073,51.073A77.477,77.477,0,0,1,141.037,183.375Zm58.58-26.659L146.3,103.4V28.05a77.745,77.745,0,0,1,53.319,128.666Z" transform="translate(179.676 53.007)" fill="#fff"/>
    <path id="Path_136" data-name="Path 136" d="M162.86,11.232h0A116.121,116.121,0,0,0,119.5,235.1v19.293A12.216,12.216,0,0,0,131.711,266.6h4.56V379.55a26.589,26.589,0,1,0,53.178,0V266.6h4.56a12.216,12.216,0,0,0,12.207-12.207V235.1c42.585-17.258,72.822-58.931,72.822-107.689-.07-64.053-52.2-116.178-116.178-116.178ZM178.926,379.55a16.066,16.066,0,0,1-32.131,0V266.6h32.131Zm16.767-125.228a1.707,1.707,0,0,1-1.684,1.684h-62.3a1.707,1.707,0,0,1-1.684-1.684V238.747a115.761,115.761,0,0,0,32.833,4.771,117.925,117.925,0,0,0,32.833-4.771ZM162.86,232.995A105.62,105.62,0,1,1,268.515,127.41,105.766,105.766,0,0,1,162.86,232.995Z" transform="translate(157.854 31.239)" fill="#fff"/>
    <path id="Path_137" data-name="Path 137" d="M250.853,10.74A28.275,28.275,0,0,0,207.5,46.675L174.5,79.633a28.21,28.21,0,0,0-32.685.733L131.1,69.608a28.239,28.239,0,1,0-46.051-.824L46.735,107.1a28.189,28.189,0,1,0,7.462,7.416L92.511,76.2a28.262,28.262,0,0,0,15.93,4.944A27.971,27.971,0,0,0,123.365,76.8l11.307,11.261a27.616,27.616,0,0,0-4.349,14.969A28.274,28.274,0,1,0,181.959,87.1l32.959-32.959a28.524,28.524,0,0,0,15.93,4.9,28.29,28.29,0,0,0,20-48.294ZM120.984,65.4a18.166,18.166,0,0,1-25.131,0,17.754,17.754,0,1,1,25.131,0ZM243.345,43.378a17.739,17.739,0,1,1,0-25.131A17.738,17.738,0,0,1,243.345,43.378Z" fill="#fff"/>
  </g>
</svg>
