<svg xmlns="http://www.w3.org/2000/svg" width="73.626" height="94.869" viewBox="0 0 73.626 94.869">
  <path id="data-collection" d="M57.765,44.055v-1.82c0-6.471,16.482-11.717,36.813-11.717s36.813,5.246,36.813,11.717v1.82q-.138.132-.289.264a17.712,17.712,0,0,1-5.052,2.833c-7.095,2.836-18.552,4.643-31.472,4.643S70.2,49.987,63.106,47.152a17.716,17.716,0,0,1-5.052-2.833Q57.9,44.186,57.765,44.055Zm73.626,5.311v18.5q-.138.132-.289.264a17.7,17.7,0,0,1-5.052,2.833c-7.095,2.836-18.552,4.643-31.472,4.643S70.2,73.8,63.106,70.963a17.709,17.709,0,0,1-5.052-2.833q-.15-.132-.289-.264v-18.5l.228.131c6.857,3.876,20.658,6.611,36.586,6.611s29.729-2.736,36.585-6.611l.228-.131Zm-40.5,18.648h7.373a2.157,2.157,0,0,0,0-4.313H90.892a2.157,2.157,0,0,0,0,4.313Zm40.5,5.164v18.5q-.138.132-.289.264a17.711,17.711,0,0,1-5.052,2.833c-7.095,2.836-18.552,4.643-31.472,4.643S70.2,97.611,63.106,94.775a17.715,17.715,0,0,1-5.052-2.833q-.15-.133-.289-.264v-18.5l.228.13c6.857,3.876,20.658,6.611,36.586,6.611s29.729-2.736,36.585-6.611l.228-.13Zm-40.5,18.648h7.373a2.156,2.156,0,1,0,0-4.313H90.892a2.156,2.156,0,0,0,0,4.313Zm40.5,5.164v16.68c0,6.471-16.482,11.717-36.813,11.717s-36.813-5.246-36.813-11.717V96.989l.228.131c6.857,3.876,20.658,6.611,36.586,6.611S124.307,101,131.164,97.12l.228-.131Zm-40.5,18.648h7.373a2.157,2.157,0,1,0,0-4.313H90.892a2.157,2.157,0,0,0,0,4.313Z" transform="translate(-57.766 -30.518)" fill="#fff" fill-rule="evenodd"/>
</svg>
