<svg xmlns="http://www.w3.org/2000/svg" width="391.528" height="425.153" viewBox="0 0 391.528 425.153">
  <g id="Layer_x0020_1" transform="translate(-20.21 0.04)">
    <path id="Path_48" data-name="Path 48" d="M232.786,425.113H197.2a4.985,4.985,0,0,1-4.981-4.981V376.444a167.249,167.249,0,0,1-46.627-19.336l-30.91,30.91a4.981,4.981,0,0,1-7.049,0l-50.321-50.33a4.976,4.976,0,0,1,0-7.049l30.9-30.9A167.146,167.146,0,0,1,68.879,253.11H25.191a4.985,4.985,0,0,1-4.981-4.981V176.952a4.98,4.98,0,0,1,4.981-4.981H68.871a166.969,166.969,0,0,1,19.345-46.635l-30.9-30.9a4.981,4.981,0,0,1,0-7.049l50.321-50.33a4.991,4.991,0,0,1,7.049,0l30.91,30.91A167.248,167.248,0,0,1,192.22,48.629V4.941A4.98,4.98,0,0,1,197.2-.04h35.584a4.98,4.98,0,0,1,4.981,4.981v85.15c-165.734,7.779-165.734,237.11,0,244.889v85.15A4.975,4.975,0,0,1,232.786,425.113ZM237.768,100.2v56.258H201.146a17.215,17.215,0,1,0,0,9.971h36.622v44.908H193.906a19.723,19.723,0,1,0,0,9.971h43.862V266.22H201.146a17.211,17.211,0,1,0,0,9.963h36.622v48.694c-153.031-10-153.031-214.685,0-224.681ZM184.582,216.314v.008a9.751,9.751,0,1,1,0-.008Zm7.339,54.888a7.252,7.252,0,1,1-7.256-7.256A7.262,7.262,0,0,1,191.922,271.2Z" fill="#fff" fill-rule="evenodd"/>
    <path id="Path_49" data-name="Path 49" d="M340.1,50.443H275.231a4.981,4.981,0,0,1,0-9.963H340.1a4.981,4.981,0,1,1,0,9.963Z" transform="translate(-42.445 -6.878)" fill="#fff" fill-rule="evenodd"/>
    <path id="Path_50" data-name="Path 50" d="M340.1,469.483H275.231a4.981,4.981,0,0,1,0-9.963H340.1a4.981,4.981,0,1,1,0,9.963Z" transform="translate(-42.445 -78.012)" fill="#fff" fill-rule="evenodd"/>
    <g id="_1693380388768" transform="translate(227.805 256.257)">
      <path id="Path_51" data-name="Path 51" d="M418.237,357.683H353.361a4.981,4.981,0,0,1,0-9.963h64.875a4.981,4.981,0,1,1,0,9.963Z" transform="translate(-283.513 -315.291)" fill="#fff" fill-rule="evenodd"/>
      <path id="Path_52" data-name="Path 52" d="M353.361,351.052a4.98,4.98,0,0,1-4.981-4.981V313.642a4.981,4.981,0,1,1,9.963,0v32.429A4.975,4.975,0,0,1,353.361,351.052Z" transform="translate(-283.513 -308.66)" fill="#fff" fill-rule="evenodd"/>
      <path id="Path_53" data-name="Path 53" d="M340.1,318.623H275.231a4.981,4.981,0,0,1,0-9.963H340.1a4.981,4.981,0,1,1,0,9.963Z" transform="translate(-270.25 -308.66)" fill="#fff" fill-rule="evenodd"/>
      <path id="Path_54" data-name="Path 54" d="M453.611,375.28a27.1,27.1,0,1,1,27.1-27.1,27.12,27.12,0,0,1-27.1,27.1Z" transform="translate(-296.777 -310.77)" fill="#fff" fill-rule="evenodd"/>
    </g>
    <g id="_1693380385456" transform="translate(227.805 179.26)">
      <path id="Path_55" data-name="Path 55" d="M340.1,252.513H275.231a4.981,4.981,0,1,1,0-9.963H340.1a4.981,4.981,0,1,1,0,9.963Z" transform="translate(-270.25 -220.441)" fill="#fff" fill-rule="evenodd"/>
      <path id="Path_56" data-name="Path 56" d="M375.479,270.11a27.1,27.1,0,1,1,27.1-27.1,27.133,27.133,0,0,1-27.1,27.1Z" transform="translate(-283.513 -215.92)" fill="#fff" fill-rule="evenodd"/>
    </g>
    <g id="_1693380386512" transform="translate(227.805 91.702)">
      <path id="Path_57" data-name="Path 57" d="M418.237,147.061H353.361a4.986,4.986,0,0,1,0-9.971h64.875a4.986,4.986,0,0,1,0,9.971Z" transform="translate(-283.513 -114.981)" fill="#fff" fill-rule="evenodd"/>
      <path id="Path_58" data-name="Path 58" d="M353.361,179.492a4.98,4.98,0,0,1-4.981-4.981V142.081a4.981,4.981,0,1,1,9.963,0v32.429A4.975,4.975,0,0,1,353.361,179.492Z" transform="translate(-283.513 -114.982)" fill="#fff" fill-rule="evenodd"/>
      <path id="Path_59" data-name="Path 59" d="M340.1,186.413H275.231a4.981,4.981,0,0,1,0-9.963H340.1a4.981,4.981,0,1,1,0,9.963Z" transform="translate(-270.25 -121.662)" fill="#fff" fill-rule="evenodd"/>
      <path id="Path_60" data-name="Path 60" d="M453.611,164.65a27.1,27.1,0,1,1,27.1-27.1,27.12,27.12,0,0,1-27.1,27.1Z" transform="translate(-296.777 -110.46)" fill="#fff" fill-rule="evenodd"/>
    </g>
    <path id="Path_61" data-name="Path 61" d="M375.479,68.04a27.1,27.1,0,1,1,27.1-27.1,27.133,27.133,0,0,1-27.1,27.1Z" transform="translate(-55.708 -2.358)" fill="#fff" fill-rule="evenodd"/>
    <path id="Path_62" data-name="Path 62" d="M375.479,487.07a27.1,27.1,0,1,1,27.1-27.091,27.131,27.131,0,0,1-27.1,27.091Z" transform="translate(-55.708 -73.49)" fill="#fff" fill-rule="evenodd"/>
    <path id="Path_63" data-name="Path 63" d="M209.56,192.976a7.252,7.252,0,1,0,7.248-7.256A7.26,7.26,0,0,0,209.56,192.976Z" transform="translate(-32.143 -31.533)" fill="#fff" fill-rule="evenodd"/>
  </g>
</svg>
