<svg xmlns="http://www.w3.org/2000/svg" width="462.087" height="338.895" viewBox="0 0 462.087 338.895">
  <path id="cargo-ship" d="M198.946,416.955a48.365,48.365,0,0,0,27.978-8.507,32.47,32.47,0,0,1,38.7,0,50.264,50.264,0,0,0,55.956,0,32.47,32.47,0,0,1,38.7,0,50.264,50.264,0,0,0,55.956,0,32.47,32.47,0,0,1,38.7,0,48.415,48.415,0,0,0,27.978,8.507V380.883a60.218,60.218,0,0,1-34.833-10.7,20.726,20.726,0,0,0-24.989,0,62.049,62.049,0,0,1-69.665,0,20.712,20.712,0,0,0-24.979,0,62.049,62.049,0,0,1-69.665,0,20.711,20.711,0,0,0-24.979,0,62.049,62.049,0,0,1-69.665,0,20.712,20.712,0,0,0-24.979,0,60.218,60.218,0,0,1-34.833,10.7,60.218,60.218,0,0,1-34.833-10.7,20.712,20.712,0,0,0-24.979,0,58.074,58.074,0,0,1-22.678,9.549,5.9,5.9,0,0,1-1.013.108v35.924a45.98,45.98,0,0,0,16.826-7.307,32.469,32.469,0,0,1,38.7,0,48.415,48.415,0,0,0,27.978,8.507,48.366,48.366,0,0,0,27.978-8.507,32.47,32.47,0,0,1,38.7,0,48.341,48.341,0,0,0,27.949,8.5ZM75.429,133.849v-8.074a5.9,5.9,0,1,0-11.8,0v8.074ZM282.694,161.2h83.128V78.07H330.163V93.5a5.9,5.9,0,1,1-11.8,0V78.07H282.7V161.2Zm47.46,11.8v83.128h53.085l13.306-19.334a5.9,5.9,0,0,1,4.858-2.557h11.88V173H377.623v15.43a5.9,5.9,0,1,1-11.8,0V173Zm-94.919,0v83.128h83.128V173H282.7v15.43a5.9,5.9,0,1,1-11.8,0V173Zm-187.97-19.59h80.188v-7.72H47.264Zm9.932,11.8v69.016h60.323V165.21Zm9.913,47.135a5.9,5.9,0,1,1,11.8,0v8.408a5.9,5.9,0,1,1-11.8,0ZM101.7,226.654a5.905,5.905,0,0,1-5.9-5.9v-8.408a5.9,5.9,0,1,1,11.8,0v8.408A5.9,5.9,0,0,1,101.7,226.654Zm0-33.652a5.905,5.905,0,0,1-5.9-5.9v-8.418a5.9,5.9,0,1,1,11.8,0V187.1A5.905,5.905,0,0,1,101.7,193ZM78.91,187.1a5.9,5.9,0,1,1-11.8,0v-8.418a5.9,5.9,0,1,1,11.8,0ZM37.351,234.236h8.035V219.829H37.351ZM170.968,360.576a32.47,32.47,0,0,0-38.7,0,48.343,48.343,0,0,1-27.978,8.507,48.366,48.366,0,0,1-27.978-8.507,34.063,34.063,0,0,0-13.522-5.832c-17.357-32.856-34.626-70.944-36.1-108.717h113.7l8.9,18.537a5.907,5.907,0,0,0,5.32,3.353H386.336a5.87,5.87,0,0,0,4.858-2.557L404.5,246.028h67.954L399.169,367.922a52.237,52.237,0,0,1-10.936,1.151,48.366,48.366,0,0,1-27.978-8.507,32.47,32.47,0,0,0-38.7,0,50.264,50.264,0,0,1-55.956,0,32.47,32.47,0,0,0-38.7,0,50.255,50.255,0,0,1-55.937.01Zm84.053-66.607a5.9,5.9,0,0,0,5.9,5.9H281.15a5.9,5.9,0,1,0,0-11.8H260.921A5.893,5.893,0,0,0,255.02,293.969ZM314.5,299.86h20.229a5.9,5.9,0,0,0,0-11.8H314.5a5.9,5.9,0,0,0,0,11.8Zm47.676-5.891a5.9,5.9,0,0,0,5.9,5.9H388.3a5.9,5.9,0,1,0,0-11.8H368.074A5.893,5.893,0,0,0,362.173,293.969Z" transform="translate(-20.82 -78.07)" fill="#fff" fill-rule="evenodd"/>
</svg>
