<svg xmlns="http://www.w3.org/2000/svg" width="408.316" height="404.073" viewBox="0 0 408.316 404.073">
  <path id="market-research_2_" data-name="market-research (2)" d="M82.267,9.1a84.753,84.753,0,1,0,43.142,160.935l-42.034-72.8a6.447,6.447,0,0,1-1.108-3.625ZM251.511,164.4a83.451,83.451,0,0,1,68.419,131.226l26.042,25.525,1.012-1.043a7.609,7.609,0,0,1,10.727-.16l45.826,44.468a7.607,7.607,0,0,1,.161,10.727l-16.545,17.051a7.609,7.609,0,0,1-10.727.16L330.6,347.887a7.609,7.609,0,0,1-.162-10.727l.874-.9-25.529-25.025A83.447,83.447,0,1,1,251.511,164.4Zm0,23.527a59.921,59.921,0,1,0,59.921,59.921,59.921,59.921,0,0,0-59.921-59.921ZM86.981,224.88h26.912a8.117,8.117,0,0,1,8.1,8.1V402.589a8.117,8.117,0,0,1-8.1,8.1H86.981a8.117,8.117,0,0,1-8.1-8.1V232.981A8.117,8.117,0,0,1,86.981,224.88ZM12.1,262.717H39.014a8.117,8.117,0,0,1,8.1,8.1V402.589a8.117,8.117,0,0,1-8.1,8.1H12.1a8.117,8.117,0,0,1-8.1-8.1V270.818A8.117,8.117,0,0,1,12.1,262.717ZM222.753,140.495h21.858a9.138,9.138,0,0,1,9.12,9.12v1.85c-.738-.016-1.477-.028-2.219-.028a96.081,96.081,0,0,0-37.878,7.731v-9.553a9.138,9.138,0,0,1,9.12-9.12ZM305,167.631a96.918,96.918,0,0,1,15.578,12.962h22.566a6.481,6.481,0,1,0,0-12.962Zm-24.547-14.174a6.481,6.481,0,1,1,0-12.962H405.834a6.481,6.481,0,0,1,0,12.962Zm-1.959,186.968a96.9,96.9,0,0,1-43.115,2.481v59.683a8.117,8.117,0,0,0,8.1,8.1h26.912a8.117,8.117,0,0,0,8.1-8.1ZM200.244,329.5a96.789,96.789,0,0,1-37.7-44.452,8.123,8.123,0,0,0-5.418,7.642v109.9a8.117,8.117,0,0,0,8.1,8.1h26.912a8.117,8.117,0,0,0,8.1-8.1V329.5ZM222.753,73.556h21.858a9.138,9.138,0,0,1,9.12,9.12v21.858a9.138,9.138,0,0,1-9.12,9.12H222.753a9.138,9.138,0,0,1-9.12-9.12V82.676A9.138,9.138,0,0,1,222.753,73.556Zm57.7,40.1a6.481,6.481,0,1,1,0-12.962h62.692a6.481,6.481,0,1,1,0,12.962Zm0-27.136a6.481,6.481,0,1,1,0-12.962H405.834a6.481,6.481,0,0,1,0,12.962Zm-57.7-79.9h21.858a9.138,9.138,0,0,1,9.12,9.12V37.6a9.138,9.138,0,0,1-9.12,9.12H222.753a9.138,9.138,0,0,1-9.12-9.12V15.738A9.138,9.138,0,0,1,222.753,6.618Zm57.7,40.1a6.481,6.481,0,1,1,0-12.962h62.692a6.481,6.481,0,1,1,0,12.962Zm0-27.135a6.481,6.481,0,1,1,0-12.962H405.834a6.481,6.481,0,0,1,0,12.962ZM136.6,163.557l-36.645-63.47h73.3A84.679,84.679,0,0,1,136.6,163.557Zm36.653-76.432H95.23V9.1A84.766,84.766,0,0,1,173.253,87.125Z" transform="translate(-3.999 -6.618)" fill="#fff" fill-rule="evenodd"/>
</svg>
