<svg xmlns="http://www.w3.org/2000/svg" width="426.839" height="426.839" viewBox="0 0 426.839 426.839">
  <g id="_x30_7" transform="translate(-2 -2)">
    <path id="Path_116" data-name="Path 116" d="M63.977,63.737V25.244A15.244,15.244,0,0,0,48.733,10H18.244A15.244,15.244,0,0,0,3,25.244v81.642A137.6,137.6,0,0,1,63.977,63.737Z" transform="translate(14.244 113.954)" fill="#fff"/>
    <path id="Path_117" data-name="Path 117" d="M68.977,116.243v-95A15.244,15.244,0,0,0,53.733,6H23.244A15.244,15.244,0,0,0,8,21.244v95a136.791,136.791,0,0,1,30.488-3.533A136.79,136.79,0,0,1,68.977,116.243Z" transform="translate(85.465 56.978)" fill="#fff"/>
    <path id="Path_118" data-name="Path 118" d="M73.977,220.84V17.244A15.244,15.244,0,0,0,58.733,2H28.244A15.244,15.244,0,0,0,13,17.244V177.691A137.6,137.6,0,0,1,73.977,220.84Z" transform="translate(156.687)" fill="#fff"/>
    <path id="Path_119" data-name="Path 119" d="M123.954,14A121.954,121.954,0,1,0,245.908,135.954,122.094,122.094,0,0,0,123.954,14Zm0,114.332a45.662,45.662,0,0,1,7.622,90.7v16.015a7.622,7.622,0,1,1-15.244,0V219.027a45.7,45.7,0,0,1-38.111-44.962,7.622,7.622,0,1,1,15.244,0,30.488,30.488,0,1,0,30.488-30.488,45.662,45.662,0,0,1-7.622-90.7V36.866a7.622,7.622,0,0,1,15.244,0V52.881a45.7,45.7,0,0,1,38.111,44.962,7.622,7.622,0,1,1-15.244,0,30.488,30.488,0,1,0-30.488,30.488Z" transform="translate(0 170.931)" fill="#fff"/>
    <path id="Path_120" data-name="Path 120" d="M27,9V54.733H72.733Z" transform="translate(356.106 99.71)" fill="#fff"/>
    <path id="Path_121" data-name="Path 121" d="M140.954,69.977A15.244,15.244,0,0,1,125.71,54.733V9H34.244A15.244,15.244,0,0,0,19,24.244V222.419a15.244,15.244,0,0,0,15.244,15.244h137.2a15.244,15.244,0,0,0,15.244-15.244V69.977Zm7.622,121.954H57.111a7.622,7.622,0,1,1,0-15.244h91.465a7.622,7.622,0,0,1,0,15.244Zm0-30.488H57.111a7.622,7.622,0,1,1,0-15.244h91.465a7.622,7.622,0,0,1,0,15.244Zm0-30.488H57.111a7.622,7.622,0,1,1,0-15.244h91.465a7.622,7.622,0,0,1,0,15.244Z" transform="translate(242.152 99.71)" fill="#fff"/>
  </g>
</svg>
