<svg xmlns="http://www.w3.org/2000/svg" width="401.317" height="401.297" viewBox="0 0 401.317 401.297">
  <g id="business-presentation" transform="translate(-10 -10.002)">
    <path id="Path_77" data-name="Path 77" d="M23.333,10V177.2c34.147,0,63.228,20.738,76.16,50.16H214.716c12.932-29.422,42.018-50.16,76.165-50.16V10Zm83.609,150.474H73.5V43.427h33.445Zm66.884,0H140.382v-83.6h33.445Zm66.89,0H207.272V110.311h33.445Z" transform="translate(53.552)" fill="#fff"/>
    <circle id="Ellipse_6" data-name="Ellipse 6" cx="50.139" cy="50.139" r="50.139" transform="translate(160.52 260.791)" fill="#fff"/>
    <path id="Path_78" data-name="Path 78" d="M36.667,116.776A33.445,33.445,0,0,1,70.112,83.331H137a33.441,33.441,0,0,1,33.44,33.445Z" transform="translate(107.107 294.523)" fill="#fff"/>
    <circle id="Ellipse_7" data-name="Ellipse 7" cx="50.165" cy="50.165" r="50.165" transform="translate(294.268 210.64)" fill="#fff"/>
    <circle id="Ellipse_8" data-name="Ellipse 8" cx="50.165" cy="50.165" r="50.165" transform="translate(26.72 210.64)" fill="#fff"/>
    <path id="Path_79" data-name="Path 79" d="M143.022,99.773a33.456,33.456,0,0,0-32.692-26.442H43.445A33.445,33.445,0,0,0,10,106.776V156.94H110.329a66.651,66.651,0,0,1,32.692-57.168Z" transform="translate(0 254.359)" fill="#fff"/>
    <path id="Path_80" data-name="Path 80" d="M63.483,99.773A33.452,33.452,0,0,1,96.175,73.331H163.06A33.445,33.445,0,0,1,196.5,106.776V156.94H96.175A66.651,66.651,0,0,0,63.483,99.773Z" transform="translate(214.813 254.359)" fill="#fff"/>
  </g>
</svg>
