<svg xmlns="http://www.w3.org/2000/svg" width="441.116" height="430.934" viewBox="0 0 441.116 430.934">
  <path id="statistical" d="M20.5,202.246a6.054,6.054,0,0,1,5.2-10.931L63.18,209.176l.062.03a17.736,17.736,0,0,1,21.739-2.475l.046-.038,59.7-47.47.043-.033A17.742,17.742,0,1,1,179,156.952l.041.023,57.193,34.335.059.036a17.74,17.74,0,0,1,19.53-1.9l.035-.032,21.382-19.323a93.883,93.883,0,0,0,8.784,8.318l-22.073,19.949-.041.035a17.742,17.742,0,1,1-33.835,3.3l-.041-.023-57.193-34.335-.059-.037a17.735,17.735,0,0,1-20.486,1.35l-.045.037-59.7,47.47-.043.033a17.741,17.741,0,1,1-34.476,3.941l-.057-.027L20.5,202.245ZM307.568,49.64a68.142,68.142,0,1,0,95,16.163,68.179,68.179,0,0,0-95-16.163ZM412.956,209.4c-2.322,1.342-13.58,7.668-14.877,8.775A9.592,9.592,0,0,0,396,230.185l30.964,53.568a9.57,9.57,0,0,0,12.989,3.482l13.5-7.8a9.57,9.57,0,0,0,3.464-12.98l-30.964-53.569a9.546,9.546,0,0,0-12.989-3.481ZM305.632,33.665a82.651,82.651,0,0,0-30.2,112.915c22.608,39.336,73.049,53.058,112.913,30.2,39.356-22.566,53.078-73.337,30.2-112.914a82.665,82.665,0,0,0-112.914-30.2ZM384.785,192.1a95.211,95.211,0,0,0,13.374-7.153l8.174,14.325-12.538,7.249Zm-63.362,149.86a37.684,37.684,0,1,1-37.684,37.684A37.685,37.685,0,0,1,321.423,341.959Zm-85.972,33.5H29.163v17.615H235.451Zm-12.2-12.114h12.373a11.3,11.3,0,0,1,11.051-9.25h6.36L255,349.351l-4.5-4.5a11.227,11.227,0,0,1,.006-15.87l20.247-20.258.953-.832V258.269H223.256V363.347Zm-85.9,0h48.457V227.9H137.357Zm-85.9,0H99.918V273.13H51.461Zm205.9,29.729a6.06,6.06,0,0,1,5.927,4.8,66.735,66.735,0,0,0,4.143,9.986,6.061,6.061,0,0,1-.8,7.577l-6.931,6.93,19,19,6.938-6.924a6.061,6.061,0,0,1,7.115-1.049,65.793,65.793,0,0,0,10.439,4.382,6.059,6.059,0,0,1,4.8,5.927v9.8h26.864l.011-9.8a6.061,6.061,0,0,1,4.295-5.774,65.624,65.624,0,0,0,10.481-4.3,6.06,6.06,0,0,1,7.577.8l6.931,6.931,19-19-6.924-6.938a6.061,6.061,0,0,1-1.049-7.115,65.831,65.831,0,0,0,4.383-10.439,6.06,6.06,0,0,1,5.927-4.8h9.8V366.21l-9.8-.012a6.06,6.06,0,0,1-5.774-4.295,65.727,65.727,0,0,0-4.295-10.48,6.061,6.061,0,0,1,.8-7.577l6.931-6.931-19-19-6.938,6.923a6.061,6.061,0,0,1-7.115,1.049,65.787,65.787,0,0,0-10.439-4.382,6.059,6.059,0,0,1-4.8-5.928v-9.8H307.99l-.012,9.8a6.061,6.061,0,0,1-4.295,5.774,65.62,65.62,0,0,0-10.481,4.295,6.058,6.058,0,0,1-7.577-.8l-6.93-6.931-19,19,6.924,6.938a6.061,6.061,0,0,1,1.049,7.115,65.693,65.693,0,0,0-4.381,10.438,6.059,6.059,0,0,1-5.928,4.8h-9.8v26.864h9.8ZM356.42,49.964a56.062,56.062,0,1,1-64.69,45.828,55.874,55.874,0,0,1,64.69-45.828Z" transform="translate(-17.051 -22.566)" fill="#fff" fill-rule="evenodd"/>
</svg>
