<svg xmlns="http://www.w3.org/2000/svg" width="119" height="121.065" viewBox="0 0 119 121.065">
  <path id="chart" d="M54.363,62.167H71.02V125.82H54.363Zm65.01,29.656a25.626,25.626,0,1,1-25.627,25.627,25.627,25.627,0,0,1,25.627-25.627Zm7.836,20.7a7.177,7.177,0,0,0-5.766-6.743v-2.173a2.07,2.07,0,0,0-4.139,0v2.173a7.176,7.176,0,0,0-5.766,6.743c0,4.069,3.749,6.991,7.836,6.991,3.163,0,4.9,2.916,2.735,4.764-2.3,1.96-6.432.644-6.432-1.912a2.07,2.07,0,1,0-4.139,0,7.177,7.177,0,0,0,5.766,6.743v2.173a2.07,2.07,0,0,0,4.139,0v-2.173a7.177,7.177,0,0,0,5.766-6.743c0-4.069-3.749-6.992-7.836-6.992-3.163,0-4.9-2.916-2.735-4.764,2.3-1.96,6.432-.644,6.432,1.912a2.07,2.07,0,1,0,4.139,0ZM26,92.264H42.656V125.82H26Zm85.089-40.528h16.656V88.879a29.9,29.9,0,0,0-16.656-.026ZM35.436,60.075,62.973,42.541l27.442,8.915A2.065,2.065,0,0,0,92.463,51l25.887-21.3-.75,4.477a2.065,2.065,0,0,0,4.074.679l1.661-9.912a2.065,2.065,0,0,0-1.7-2.377l-10.28-.555a2.064,2.064,0,1,0-.21,4.123l4.741.25L90.62,47.179,63.33,38.313v0a2.056,2.056,0,0,0-1.745.222L33.221,56.6a2.061,2.061,0,1,0,2.215,3.476Zm47.29,12.1V125.82H90.8A29.765,29.765,0,0,1,99.381,95.4V72.175Z" transform="translate(-26 -22.01)" fill="#fff" fill-rule="evenodd"/>
</svg>
