<svg xmlns="http://www.w3.org/2000/svg" width="114.853" height="106.941" viewBox="0 0 114.853 106.941">
  <path id="sustainable-development" d="M95.288,52.376a45.488,45.488,0,0,1,45.468,46.81.24.24,0,0,1-.24.233h-3.111a.239.239,0,0,1-.239-.246,42.124,42.124,0,0,0-.838-9.782.238.238,0,0,0-.256-.19l-.584.052a.217.217,0,0,1-.044,0,7.814,7.814,0,0,1-4.035-1.436c-2.392-1.8-2.11-4.415-4.716-5.925-2.573-1.491-5.116.412-8.151-1.948-5.164-4.014.488-8.931-.868-17.406a.232.232,0,0,0-.109-.165A42.006,42.006,0,0,0,83.312,57.7a.23.23,0,0,0-.107.066c-11.318,12.035-.7,9.463-2.559,19.071-.541,2.8-3.218,5.859-4.472,8.862-.943,2.257-1.2,6.717-4.276,7.073l-3.178.369a3.407,3.407,0,0,1-3.756-2.84l-.653-4.025a3.089,3.089,0,0,0-1.948-2.432l-.391-.156a3.086,3.086,0,0,0-3.042.383q-2.206,1.612-4.19,3.368a.231.231,0,0,0-.074.121,41.984,41.984,0,0,0-1.277,10.3q0,.656.02,1.308a.239.239,0,0,1-.239.247H50.06a.24.24,0,0,1-.24-.233,45.487,45.487,0,0,1,45.468-46.81ZM37.76,103.289l0,4.666a2.562,2.562,0,0,0,1.793,2.472l8.412,2.741a.234.234,0,0,1,.16.177,47.836,47.836,0,0,0,2.931,9.031.233.233,0,0,1-.026.237l-5.2,7.139a2.562,2.562,0,0,0,0,3.053l5.78,7.969a2.562,2.562,0,0,0,2.9.946l8.427-2.73a.234.234,0,0,1,.233.049,48.317,48.317,0,0,0,7.67,5.583.233.233,0,0,1,.118.206l-.007,8.834a2.562,2.562,0,0,0,1.792,2.472l9.36,3.05a2.562,2.562,0,0,0,2.9-.941l5.209-7.157a.233.233,0,0,1,.217-.1,48.789,48.789,0,0,0,9.489,0,.234.234,0,0,1,.217.1l5.188,7.154a2.562,2.562,0,0,0,2.9.946l9.365-3.034a2.562,2.562,0,0,0,1.8-2.469l.007-8.849a.234.234,0,0,1,.118-.206,48.329,48.329,0,0,0,7.671-5.581.234.234,0,0,1,.233-.049l8.408,2.74a2.562,2.562,0,0,0,2.9-.941l5.793-7.96a2.562,2.562,0,0,0,0-3.053l-5.193-7.16a.233.233,0,0,1-.025-.236,47.816,47.816,0,0,0,2.933-9.03.234.234,0,0,1,.16-.177l8.4-2.722a2.562,2.562,0,0,0,1.8-2.469l0-4.7a.24.24,0,0,0-.239-.239H127a.239.239,0,0,0-.239.238,31.577,31.577,0,0,1-63.152,0,.239.239,0,0,0-.239-.238H38a.24.24,0,0,0-.239.239Zm85.057.42a.24.24,0,0,1,.285.243,27.948,27.948,0,0,1-32.8,26.608.24.24,0,0,1-.109-.423,97.083,97.083,0,0,1,24.983-14.343,1.79,1.79,0,1,0-1.332-3.323,101.622,101.622,0,0,0-24.584,13.843.239.239,0,0,1-.354-.308C95.968,113.623,107.65,106.633,122.817,103.709Zm-55.27,0c9.9,1.909,18.321,5.553,24.935,11.3a.239.239,0,0,1,.017.345A46.237,46.237,0,0,0,85.277,125.4l-1.548,2.887a.239.239,0,0,1-.312.1,27.94,27.94,0,0,1-16.154-24.44.239.239,0,0,1,.285-.242ZM109.97,72.6a2.637,2.637,0,0,0-2.632-2.632h-2.973a2.637,2.637,0,0,0-2.632,2.632l0,34.848a.239.239,0,0,0,.371.2,35.546,35.546,0,0,1,7.712-3.793.235.235,0,0,0,.151-.222ZM90.253,84.353v24.319a.233.233,0,0,0,.106.2,46.036,46.036,0,0,1,4.753,3.67.238.238,0,0,0,.315,0c.6-.524,2-1.723,2.762-2.36a.232.232,0,0,0,.086-.184V84.353a2.637,2.637,0,0,0-2.632-2.632H92.885A2.638,2.638,0,0,0,90.253,84.353ZM87.238,95.21a2.637,2.637,0,0,0-2.632-2.632h-1.58a2.637,2.637,0,0,0-2.632,2.632v8.3a.235.235,0,0,0,.151.222,54.037,54.037,0,0,1,6.337,3.008.239.239,0,0,0,.356-.209V95.21Z" transform="translate(-37.756 -52.376)" fill="#fff" fill-rule="evenodd"/>
</svg>
