<svg xmlns="http://www.w3.org/2000/svg" width="116.862" height="121.773" viewBox="0 0 116.862 121.773">
  <g id="light-bulb" transform="translate(-9.8)">
    <path id="XMLID_49_" d="M82.112,106.414v3.558a5.643,5.643,0,0,1-4.786,5.588l-.877,3.232a4.023,4.023,0,0,1-3.884,2.982H63.871a4.023,4.023,0,0,1-3.884-2.982l-.852-3.232a5.668,5.668,0,0,1-4.811-5.613v-3.558a3.422,3.422,0,0,1,3.433-3.433H78.68A3.459,3.459,0,0,1,82.112,106.414ZM98.224,58.456A29.848,29.848,0,0,1,89.8,79.278a27.51,27.51,0,0,0-7.367,14.934A4.96,4.96,0,0,1,77.527,98.4H58.91a4.912,4.912,0,0,1-4.886-4.159,27.815,27.815,0,0,0-7.417-14.984,30,30,0,1,1,51.616-20.8ZM71.614,40.29a3.384,3.384,0,0,0-3.383-3.383A21.67,21.67,0,0,0,46.583,58.556a3.383,3.383,0,1,0,6.765,0A14.9,14.9,0,0,1,68.231,43.673,3.369,3.369,0,0,0,71.614,40.29ZM68.231,18.617a3.384,3.384,0,0,0,3.383-3.383V3.383a3.383,3.383,0,1,0-6.765,0V15.234A3.384,3.384,0,0,0,68.231,18.617ZM28.417,58.431a3.384,3.384,0,0,0-3.383-3.383H13.183a3.383,3.383,0,0,0,0,6.765H25.034A3.369,3.369,0,0,0,28.417,58.431Zm94.863-3.383H111.428a3.383,3.383,0,1,0,0,6.765H123.28a3.383,3.383,0,0,0,0-6.765ZM35.307,86.594l-8.394,8.394a3.375,3.375,0,0,0,4.761,4.786l8.394-8.394a3.375,3.375,0,0,0-4.761-4.786ZM98.775,31.27a3.378,3.378,0,0,0,2.38-.977l8.394-8.394a3.384,3.384,0,1,0-4.786-4.786l-8.394,8.394a3.372,3.372,0,0,0,0,4.786A3.436,3.436,0,0,0,98.775,31.27Zm-63.468-1a3.375,3.375,0,1,0,4.761-4.786l-8.394-8.394a3.384,3.384,0,0,0-4.786,4.786Zm65.848,56.326a3.384,3.384,0,0,0-4.786,4.786l8.394,8.394a3.375,3.375,0,0,0,4.761-4.786Z" fill="#fff"/>
  </g>
</svg>
