<svg xmlns="http://www.w3.org/2000/svg" width="435.26" height="442.8" viewBox="0 0 435.26 442.8">
  <g id="Group_8" data-name="Group 8" transform="translate(-32.87 -28.197)">
    <g id="Group_7" data-name="Group 7">
      <path id="statistics" d="M343.348,370.366A225.677,225.677,0,0,0,371.83,268.131H258.908v91.35a380.031,380.031,0,0,1,84.438,10.882ZM48.031,205.269a7.644,7.644,0,0,1-8.4,6.672,7.466,7.466,0,0,1-7.061-7.936c7.092-73.716,55.223-138.274,126.3-169.4l-11.955-1.954a7.4,7.4,0,0,1-6.361-8.483,7.748,7.748,0,0,1,8.977-6.01l39.588,6.469a7.728,7.728,0,0,1,5.832,4.345,7.016,7.016,0,0,1-.671,6.989L175.168,64.89a8.047,8.047,0,0,1-10.713,2.359,7.118,7.118,0,0,1-2.5-10.123l7.135-10.8C101.156,74.568,54.8,135.431,48.031,205.269Zm162.216-64.115h19.488a4.75,4.75,0,0,1,4.87,4.6v90.369a4.75,4.75,0,0,1-4.87,4.6H210.247a4.751,4.751,0,0,1-4.87-4.6V145.756a4.75,4.75,0,0,1,4.87-4.6ZM148,187.747a4.75,4.75,0,0,0-4.87,4.6v43.778a4.751,4.751,0,0,0,4.87,4.6h19.489a4.751,4.751,0,0,0,4.87-4.6V192.347a4.75,4.75,0,0,0-4.87-4.6Zm186.755-82.819H354.24a4.75,4.75,0,0,1,4.87,4.6v126.6a4.751,4.751,0,0,1-4.87,4.6H334.751a4.75,4.75,0,0,1-4.869-4.6V109.531a4.751,4.751,0,0,1,4.87-4.6ZM272.5,159.987h19.489a4.75,4.75,0,0,1,4.87,4.6v71.535a4.75,4.75,0,0,1-4.87,4.6H272.5a4.751,4.751,0,0,1-4.87-4.6V164.59a4.751,4.751,0,0,1,4.87-4.6Zm42.949-90.772,3.089-.01-37.816,32.512L223.066,78.291l-.012.025a8.123,8.123,0,0,0-7.748.9l-62.252,44.662a7.063,7.063,0,0,0-1.491,10.266,8.058,8.058,0,0,0,10.865,1.409l58.629-42.061L279.174,117.1a8.122,8.122,0,0,0,8.581-1.557l38.762-33.312a7.4,7.4,0,0,0,6.316,8.516,7.756,7.756,0,0,0,9.014-5.97l4.488-21.563a7.043,7.043,0,0,0-1.627-6.068,7.952,7.952,0,0,0-5.991-2.674l-23.259.08a7.345,7.345,0,1,0,0,14.666Zm136.9,55.108-2.067,11.293C414.341,62.31,336.617,15.4,251.115,15.405a7.586,7.586,0,0,0-7.791,7.362,7.586,7.586,0,0,0,7.791,7.362c80.961,0,154.227,45.2,186.779,115.193l-11.452-6.78a8.047,8.047,0,0,0-10.713,2.358,7.118,7.118,0,0,0,2.5,10.123l30.623,18.053a8.182,8.182,0,0,0,7.4.634,7.451,7.451,0,0,0,4.6-5.511l6.847-37.406a7.4,7.4,0,0,0-6.361-8.483,7.748,7.748,0,0,0-8.978,6.011ZM130.4,268.135A225.676,225.676,0,0,0,158.885,370.37a380.083,380.083,0,0,1,84.438-10.882V268.135Zm36.438,115.471a242.274,242.274,0,0,0,76.483,74.312V374.211a366.1,366.1,0,0,0-76.483,9.394ZM216.984,458.2a215.976,215.976,0,0,1-111.4-52.176A242.942,242.942,0,0,1,151.3,387.717a254.628,254.628,0,0,0,65.68,70.488Zm-73.313-83.617a252.679,252.679,0,0,0-49.336,20.59c-33.6-34.883-53.019-79.9-54.793-127.037h75.334a239.653,239.653,0,0,0,28.8,106.447ZM387.358,268.135h75.307C460.9,315.27,441.493,360.285,407.9,395.172a252.723,252.723,0,0,0-49.337-20.585,239.64,239.64,0,0,0,28.795-106.447ZM350.933,387.712A254.628,254.628,0,0,1,285.252,458.2,215.987,215.987,0,0,0,396.659,406.02a242.833,242.833,0,0,0-45.725-18.307Zm-92.022,70.2V374.211a366.112,366.112,0,0,1,76.475,9.394,242.243,242.243,0,0,1-76.479,74.312Z" transform="translate(0.329 12.792)" fill="#fff" fill-rule="evenodd"/>
    </g>
  </g>
</svg>
