<svg xmlns="http://www.w3.org/2000/svg" width="426.96" height="433.531" viewBox="0 0 426.96 433.531">
  <g id="Group_6" data-name="Group 6" transform="translate(-36.776 -33.234)">
    <path id="opportunity" d="M318.219,316.806h44.236V442.531H318.219ZM151.858,65.55a7.021,7.021,0,0,1,14.042,0V69.6a19.635,19.635,0,0,1,11.138,7.482,7.011,7.011,0,1,1-11.353,8.227c-2.016-2.785-4.7-2.219-8.181-2.219a5.29,5.29,0,0,0-3.731,9.023c1.887,1.887,3.918,1.559,6.484,1.559,17.055,0,25.876,20.774,13.659,32.991a19.369,19.369,0,0,1-8.014,4.829v4.341a7.021,7.021,0,0,1-14.042,0v-4.048a19.635,19.635,0,0,1-11.138-7.482,7.011,7.011,0,0,1,11.353-8.227c2.017,2.785,4.7,2.219,8.181,2.219a5.29,5.29,0,0,0,3.731-9.023c-1.887-1.887-3.918-1.559-6.484-1.559-17.054,0-25.876-20.774-13.659-32.991a19.38,19.38,0,0,1,8.014-4.83ZM254.913,163.6a7,7,0,1,1,7.021-12.121l20.593,11.89a7,7,0,0,1-7.021,12.121ZM158.7,9a91.7,91.7,0,0,0-46.871,170.517A18.151,18.151,0,0,1,120.9,195.49v1.251H196.49V195.49a18.153,18.153,0,0,1,9.078-15.973A91.7,91.7,0,0,0,158.7,9Zm.182,32.567A59.125,59.125,0,1,0,218,100.692a59.126,59.126,0,0,0-59.125-59.125Zm115.335,65.517a7.021,7.021,0,1,1,0-14.042h23.778a7.021,7.021,0,0,1,0,14.042ZM261.934,48.45a7,7,0,1,1-7.021-12.121l20.593-11.89a7,7,0,1,1,7.021,12.121ZM55.461,151.481A7,7,0,0,1,62.482,163.6l-20.594,11.89a7,7,0,0,1-7.021-12.121ZM43.544,92.945a7.021,7.021,0,1,1,0,14.042H19.765a7.021,7.021,0,0,1,0-14.042Zm18.91-56.617A6.99,6.99,0,1,1,55.489,48.45L34.9,36.56a6.99,6.99,0,1,1,6.965-12.122ZM196.49,210.783v7.065a12.629,12.629,0,0,1-12.6,12.6H133.509a12.628,12.628,0,0,1-12.6-12.6v-7.065Zm-12.6,33.711v1.083a18.639,18.639,0,0,1-18.594,18.6H152.1a18.635,18.635,0,0,1-18.594-18.6v-1.083Zm156.451-.139a19.279,19.279,0,0,0-11.106,3.5l-47.244-31.66A19.368,19.368,0,1,0,246.528,222l-55.227,71.8a19.368,19.368,0,1,0,11.095,8.535l55.228-71.8a19.368,19.368,0,0,0,16.569-2.718l47.244,31.66a19.369,19.369,0,1,0,36.921-2.861l52.158-48.156-2.323,12.787a6.994,6.994,0,1,0,13.768,2.468L427.723,192a6.993,6.993,0,0,0-6.49-8.586l-32.564-1.534a7,7,0,0,0-.658,13.987l14.737.694-53.9,49.762a19.286,19.286,0,0,0-8.514-1.968Zm55.131,1.129H439.7V442.531H395.468ZM163.719,365.476h44.236v77.055H163.719Zm77.249-85.393H285.2V442.531H240.968Z" transform="translate(24.032 24.234)" fill="#fff" fill-rule="evenodd"/>
  </g>
</svg>
