<svg xmlns="http://www.w3.org/2000/svg" width="423.493" height="423.491" viewBox="0 0 423.493 423.491">
  <g id="Group_5" data-name="Group 5" transform="translate(-10 -10)">
    <path id="financial-growth" d="M309.7,371.544H433.238a8.93,8.93,0,0,0,8.889-8.888V324.581a8.93,8.93,0,0,0-8.889-8.888H322.879A155.11,155.11,0,0,1,309.7,371.544Zm26.718-147.3v76.72H322.879q-.315-6.759-1.2-13.362V224.243l-13.736-23.666a7.333,7.333,0,1,1,12.716-7.307l8.385,14.4,8.384-14.4a7.333,7.333,0,1,1,12.717,7.307ZM215.7,26c-12.152,26.238-8.86,64.483,11.242,99.3,17.952,31.088,44.964,51.937,71.045,57.892L255.146,109a7.333,7.333,0,1,1,12.716-7.308l42.821,74.169c7.883-25.565,3.336-59.381-14.612-90.473C275.97,50.569,244.494,28.593,215.7,26ZM442.4,26c12.152,26.238,8.861,64.483-11.241,99.3-17.952,31.088-44.964,51.937-71.046,57.892L402.953,109a7.334,7.334,0,1,0-12.717-7.308l-42.821,74.17c-7.883-25.566-3.336-59.386,14.612-90.474C382.125,50.569,413.6,28.593,442.4,26ZM167.164,167.164A141.164,141.164,0,1,0,308.327,308.328,141.163,141.163,0,0,0,167.164,167.164Zm35.657,117.013a7.365,7.365,0,1,1-14.73,0c0-15.016-23.108-22.629-36.155-11.5-12.565,10.724-3,28.278,15.229,28.278,18.534,0,35.656,13.116,35.656,31.513,0,15.907-12.939,27.975-28.291,30.841v12.911a7.365,7.365,0,0,1-14.73,0V363.313c-15.352-2.861-28.292-14.93-28.292-30.841a7.365,7.365,0,1,1,14.73,0c0,15.015,23.108,22.628,36.156,11.494,12.565-10.724,3-28.277-15.229-28.277-18.535,0-35.657-13.117-35.657-31.513,0-15.907,12.939-27.976,28.292-30.841v-12.9a7.365,7.365,0,1,1,14.73,0v12.912c15.352,2.86,28.291,14.93,28.291,30.841Zm-35.656-86.306A110.454,110.454,0,1,1,56.711,308.326,110.454,110.454,0,0,1,167.164,197.871Zm67.687,42.766a95.725,95.725,0,1,1-135.375,0,95.725,95.725,0,0,1,135.375,0ZM433.238,386.274a8.93,8.93,0,0,1,8.889,8.889v38.075a8.93,8.93,0,0,1-8.889,8.889H247.194a156.676,156.676,0,0,0,55-55.852Z" transform="translate(-16 -16)" fill="#fff" fill-rule="evenodd"/>
  </g>
</svg>
