<?xml version="1.0" encoding="UTF-8"?>
<svg xmlns="http://www.w3.org/2000/svg" xmlns:xlink="http://www.w3.org/1999/xlink" version="1.1" viewBox="0 0 750 500">
  <!-- Generator: Adobe Illustrator 29.3.0, SVG Export Plug-In . SVG Version: 2.1.0 Build 146)  -->
  <defs>
    <style>
      .st0 {
        fill: #ef7265;
      }

      .st1 {
        font-family: ArialMT, Arial;
        font-size: 88.1px;
      }

      .st1, .st2 {
        isolation: isolate;
      }

      .st1, .st3 {
        fill: #425099;
      }

      .st4 {
        fill: #ed7854;
      }

      .st5 {
        fill: #2f324f;
      }

      .st6 {
        fill: #4d82c1;
        opacity: .5;
      }

      .st6, .st7, .st8 {
        mix-blend-mode: multiply;
      }

      .st9 {
        stroke: #ed7854;
      }

      .st9, .st7, .st10, .st8 {
        fill: none;
        stroke-linecap: round;
        stroke-miterlimit: 10;
        stroke-width: 1px;
      }

      .st11 {
        fill: #405c77;
      }

      .st12 {
        fill: #5062ad;
      }

      .st13 {
        fill: #7d91f4;
      }

      .st14 {
        fill: #8c9cea;
      }

      .st15 {
        fill: #b0d1f4;
      }

      .st16 {
        fill: #82264b;
      }

      .st17 {
        fill: #66193c;
      }

      .st18 {
        fill: #8e3f3f;
      }

      .st19 {
        fill: #464b60;
      }

      .st20 {
        fill: #3d4951;
      }

      .st21 {
        fill: #bc864b;
      }

      .st22 {
        fill: #ffae85;
      }

      .st7 {
        opacity: .6;
        stroke: #e66446;
      }

      .st10 {
        stroke: #c2daf4;
      }

      .st23 {
        fill: #e04f4f;
      }

      .st24 {
        fill: #f0fcff;
      }

      .st25 {
        fill: #cfe8ff;
      }

      .st26 {
        fill: #fff;
      }

      .st27 {
        fill: #d1a78b;
      }

      .st28 {
        fill: #ff9c00;
      }

      .st29 {
        fill: #a07453;
      }

      .st30 {
        fill: #f4956c;
      }

      .st31 {
        fill: #d3442d;
      }

      .st32 {
        fill: #526c7f;
      }

      .st33 {
        fill: #4f5960;
      }

      .st34 {
        fill: #7fafdb;
      }

      .st35 {
        fill: #9ed3e5;
      }

      .st36 {
        fill: #c2daf4;
      }

      .st37 {
        fill: #eefbff;
      }

      .st38 {
        fill: #ffbea2;
      }

      .st39 {
        display: none;
      }

      .st40 {
        fill: #e66446;
      }

      .st41 {
        fill: #544966;
      }

      .st8 {
        opacity: .4;
        stroke: #82264b;
      }
    </style>
  </defs>
  <g class="st2">
    <g id="OBJECTS">
      <circle class="st37" cx="285.7" cy="106" r="13.8" transform="translate(19.8 254.9) rotate(-49.6)"/>
      <path class="st37" d="M466.3,118.3h-158.4c-2.1-7.8-1.8-18.6,6.2-18-1.4-8-2.8-16.5.6-23.9s13.6-12,19.9-7c0-12,9.5-22.8,21.1-25.9,11.6-3,24.4,1.2,33.1,9.4s13.5,20,14.8,31.9c9.6-5.6,23.9,1.4,25.4,12.4,3.3-3.9,9.3-5.2,13.9-3.1,4.6,2.2,7.4,7.7,6.5,12.7,3.8-2.4,9.3-1.8,12.5,1.5s6.9,6.1,4.4,9.9h0Z"/>
      <path class="st37" d="M673.1,99h-179c1.9-10,10.1-17.6,20.1-15.5-4-17.6,6.8-37.4,23.8-43.4s37.9,2.4,45.9,18.6c6.7-2.9,15-1.7,20.6,3.1,5.6,4.7,8.1,12.7,6.4,19.8,9.7,0,19.4.2,29.2.3,7.4,0,15,.2,21.8,3s11.2,6.7,11.4,14h-.2Z"/>
      <path class="st37" d="M51.8,173.1h137.6c4.2-4.7-.3-15.7-5.9-18.6s-12.3-2.1-18.6-1c6.4-15.3-6.4-35-23-35.4-16.6-.4-30.2,18.8-24.5,34.4-11.2-3.7-24.7,2.9-28.6,14.1-4.8-5.6-12.8-8.4-20.1-7-7.3,1.4-14.6,6.6-17,13.6h0Z"/>
      <ellipse class="st35" cx="371" cy="438.4" rx="295.7" ry="31.9"/>
      <g>
        <g>
          <path class="st23" d="M481.6,414.3l-.2,16.1s-11.6,7.6-15.1,9.4-4.3,4.5-4.7,7.8c-.4,3.3,14.1,3.7,20.2,1.2,6.1-2.4,8.4-1,11.4-1.4,3.1-.4,11,.6,11.2-5.9l-1.2-15.1,1-21.6-22.7,9.6h.1Z"/>
          <path class="st27" d="M493.2,445.1c-3.1.4-5.3-1-11.4,1.4-5.6,2.2-18.2,2.1-20-.5,0,.5-.2,1-.2,1.5-.4,3.3,14.1,3.7,20.2,1.2,6.1-2.4,8.4-1,11.4-1.4,3.1-.4,11,.6,11.2-5.9v-1.3c-1,5.5-8.3,4.6-11.2,5h0Z"/>
        </g>
        <g>
          <path class="st23" d="M556.7,414.5l.2,16.1s11.6,7.6,15.1,9.4,4.3,4.5,4.7,7.8-14.1,3.7-20.2,1.2c-6.1-2.4-8.4-1-11.4-1.4-3.1-.4-11,.6-11.2-5.9l1.2-15.1-1-21.6,22.7,9.6h0Z"/>
          <path class="st27" d="M545,445.4c3.1.4,5.3-1,11.4,1.4,5.6,2.2,18.2,2.1,20-.5,0,.5.2,1,.2,1.5.4,3.3-14.1,3.7-20.2,1.2-6.1-2.4-8.4-1-11.4-1.4-3.1-.4-11,.6-11.2-5.9v-1.3c1,5.5,8.3,4.6,11.2,5h0Z"/>
        </g>
        <g>
          <path class="st41" d="M486.5,227s-6.4,64.5-7,94.1c-.5,29.7-.9,102.1-.9,102.1h29.7l6.3-92.2,7.3-55.1,4.2-54.1-39.6,5.2h0Z"/>
          <path class="st23" d="M565.8,137.9s-8.8-12.1-26.1-15.2c-17.5-3.1-21.1-.8-21.1-.8,0,0-3.5-2.3-21.1.8-17.3,3.1-26.1,15.2-26.1,15.2l6.2,34.3c7,9,3.5,34.7,3.1,40.2s4.3,6.6,4.3,6.6l-2.7,7.4c6.2,7.8,36.3,10.5,36.3,10.5,0,0,30-2.7,36.3-10.5l-2.7-7.4s4.7-1.2,4.3-6.6c-.4-5.5-3.9-31.2,3.1-40.2l6.2-34.3Z"/>
          <path class="st0" d="M555.8,111.2c-.9-4.8-4.9-8.3-7.1-12.7-3.5-6.9-2.2-15.2-5-22.4-2.2-5.8-7.1-10.5-13-12.5-3.7-1.3-7.4-.4-11.3.6-3.8-1-7.6-1.9-11.3-.6-5.9,2-10.8,6.7-13,12.5-2.7,7.2-1.5,15.5-5,22.4-2.2,4.3-6.2,7.9-7.1,12.7-.7,3.5.6,7.2,2.5,10.2,2,3,4.7,5.4,7.3,7.8,2.3,2,1.5,5.9.6,8.8-.8,2.9-1.7,6.1-.5,8.9.8,2,2.6,3.4,4,5s2.5,3.9,1.7,5.9c3.5-.2,5.3-4.6,5.5-8.1.1-3.5-.8-7-.1-10.4.9-4,4-7.1,6.7-10.3,2.1-2.5,5.9-3.3,6.8-5.6-.2,3.8.7.2,2.1,3.7,1.3-3.6,1.7,0,1.5-3.7,1,2.3,4.7,3.1,6.8,5.6,2.7,3.2,5.8,6.3,6.7,10.3.7,3.4-.2,6.9,0,10.4,0,3.5,2,7.9,5.5,8.1-.8-2,.3-4.2,1.7-5.9,1.4-1.6,3.1-3,4-5,1.2-2.8.3-6-.5-8.9s-1.6-6.8.6-8.8c2.7-2.4,5.4-4.8,7.3-7.8,2-3,3.2-6.7,2.5-10.2h.2Z"/>
          <g>
            <path class="st30" d="M523.8,131.2l-.6.4c-3.4,2.4-7.9,2.2-11.1-.3h0c-2.3-1.8-3.5-4.5-3.5-7.4l.2-14.5h19.1l-.2,14.4c0,3-1.5,5.7-3.9,7.4h0Z"/>
            <path class="st19" d="M527.9,116.9v-7.5c0,0-19,0-19,0v7.3c2.4,1.6,5.3,2.5,8.2,2.8,3.7.3,7.5-.7,10.8-2.6Z"/>
          </g>
          <path class="st22" d="M527.8,80h-18.7c-3.5,0-6.3,2.8-6.3,6.3v13.9c0,8.5,7,15.5,15.5,15.5h.2c8.5,0,15.5-7,15.5-15.5v-13.9c0-3.5-2.8-6.3-6.3-6.3h0Z"/>
          <g>
            <path class="st22" d="M506.1,93.7c1,2.7-.2,5.5-2.6,6.4s-5.1-.6-6-3.3c-1-2.7.2-5.5,2.6-6.4,2.4-.8,5.1.6,6,3.3Z"/>
            <path class="st22" d="M530.8,93.7c-1,2.7.2,5.5,2.6,6.4s5.1-.6,6-3.3c1-2.7-.2-5.5-2.6-6.4-2.4-.8-5.1.6-6,3.3Z"/>
          </g>
          <g>
            <path class="st0" d="M523.8,92.1c.2,0,.5,0,.7-.2q0,0,0,0h1.3s.4,0,.2,0h.3c.2,0,.5,0,.7.2,0,0,.2,0,.4,0h.2q0,0,0,0c.2,0,.4.2.7.3,0,0,.2,0,.3.2,0,0,.3.3.2,0,.4.3,1.1.5,1.5,0,.4-.4.5-1.2,0-1.5-2-1.5-4.5-2.1-7-1.4-.5.2-.9.8-.8,1.3.2.6.7.9,1.3.8h0Z"/>
            <path class="st5" d="M526.9,96c0,1-.8,1.7-1.7,1.7s-1.7-.8-1.7-1.7.8-1.7,1.7-1.7,1.7.8,1.7,1.7Z"/>
            <path class="st0" d="M513.4,92.1c-.2,0-.5,0-.7-.2q0,0,0,0h-1.3s-.4,0-.2,0h-.3c-.2,0-.5,0-.7.2-.1,0-.2,0-.4,0h-.2q0,0,0,0c-.2,0-.4.2-.7.3-.1,0-.2,0-.3.2,0,0-.3.3-.2,0-.4.3-1.1.5-1.5,0-.4-.4-.5-1.2,0-1.5,2-1.5,4.5-2.1,7-1.4.5.2.9.8.8,1.3-.2.6-.7.9-1.3.8h0Z"/>
            <path class="st5" d="M510.3,96c0,1,.8,1.7,1.7,1.7s1.7-.8,1.7-1.7-.8-1.7-1.7-1.7-1.7.8-1.7,1.7Z"/>
            <path class="st30" d="M518.3,102.5h-.5c-.5,0-.8-.4-.8-.9s.4-.9.9-.8c.5,0,1.3,0,1.5-.3s0-.8,0-1.3l-1.7-6.9c0-.5.2-.9.6-1,.5,0,.9.2,1,.6l1.7,6.9c.2.6.4,1.8-.2,2.8-.6.9-1.7,1-2.5,1h0Z"/>
            <path class="st26" d="M523.2,105h-9.5c.8,1.7,2.7,3.1,4.5,3.1,2.7,0,4.4-1.3,5-3.1Z"/>
          </g>
          <path class="st0" d="M518.1,83.4c.6-.9,1.3-1.9,2.3-2.1,1.3-.3,2.5.9,3.3,1.9,1.9,2.2,3.7,4.3,5.6,6.5,1,1.1,2,2.3,3.5,2.8,1.6.5,3.5-.2,4.7-1.4,1.2-1.2,1.7-3,1.9-4.7.5-5.9-4.2-11.4-9.8-13.5s-11.9-1.3-17.6.4c-4.2,1.2-8.4,3.1-10.9,6.6-2.6,3.6-3.2,10.6,2.3,11.4,5.3.7,11.7-3.8,14.6-7.8h.1Z"/>
          <polygon class="st23" points="565.8 137.9 602.6 181.2 582.3 202 555.7 171.3 557.3 139 565.8 137.9"/>
          <polygon class="st23" points="471.4 137.9 434.6 181.2 454.9 202 481.4 171.3 479.9 139 471.4 137.9"/>
          <path class="st41" d="M553.9,227s6.4,64.5,7,94.1c.5,29.7.9,102.1.9,102.1h-29.7l-6.3-92.2-7.3-55.1-4.2-54.1,39.6,5.2h0Z"/>
          <g>
            <path class="st18" d="M481.8,174.5h0c-.3,0-.5-.3-.5-.5.5-10.9.1-22-1.1-32.9,0-.3.2-.5.5-.6.3,0,.5.2.6.5,1.2,10.9,1.6,22,1.1,33,0,.3-.2.5-.5.5h-.1Z"/>
            <path class="st18" d="M557.4,176.6c-.3,0-.5-.2-.5-.5l-.9-35.8c0-.3.2-.5.5-.5h0c.3,0,.5.2.5.5l.9,35.8c0,.3-.2.5-.5.5h0Z"/>
            <path class="st18" d="M479,170.8c-.2,0-.4-.1-.5-.3l-6.3-13.3c-.1-.3,0-.6.2-.7.3-.1.6,0,.7.2l6.3,13.3c.1.3,0,.6-.2.7h-.2Z"/>
            <path class="st18" d="M560.6,169.1h0c-.3,0-.5-.3-.5-.5.2-3.7,1.8-7.3,4.4-9.9.2-.2.5-.2.7,0s.2.5,0,.7c-2.4,2.5-3.9,5.8-4.1,9.2,0,.3-.2.5-.5.5h0Z"/>
          </g>
        </g>
        <path class="st30" d="M151.9,155.4l-14.2,33.3c.8,7,1.3,14.2,2.2,21.2,6.5.3,12.8.1,16.7-.8,0,0,12.1-21.2,15.3-36.8l3.2-15.6-23.2-1.3h0Z"/>
        <g>
          <polygon class="st30" points="282.9 149.1 317.3 200.4 291.9 208.3 259.2 158.1 282.9 149.1"/>
          <g>
            <path class="st11" d="M175.8,414.3l-.2,16.1s-11.6,7.6-15.1,9.4-4.3,4.5-4.7,7.8,14.1,3.7,20.2,1.2c6.1-2.4,8.4-1,11.4-1.4,3.1-.4,11,.6,11.2-5.9l-1.2-15.1,1-21.6-22.7,9.6h.1Z"/>
            <path class="st27" d="M187.4,445.1c-3.1.4-5.3-1-11.4,1.4-5.6,2.2-18.2,2.1-20-.5,0,.5-.2,1-.2,1.5-.4,3.3,14.1,3.7,20.2,1.2,6.1-2.4,8.4-1,11.4-1.4,3.1-.4,11,.6,11.2-5.9v-1.3c-1,5.5-8.3,4.6-11.2,5h0Z"/>
          </g>
          <g>
            <path class="st11" d="M262,414.5l.2,16.1s11.6,7.6,15.1,9.4,4.3,4.5,4.7,7.8c.4,3.3-14.1,3.7-20.2,1.2-6.1-2.4-8.4-1-11.4-1.4-3.1-.4-11,.6-11.2-5.9l1.2-15.1-1-21.6,22.7,9.6h-.1Z"/>
            <path class="st27" d="M250.4,445.4c3.1.4,5.3-1,11.4,1.4,5.6,2.2,18.2,2.1,20-.5,0,.5.2,1,.2,1.5.4,3.3-14.1,3.7-20.2,1.2-6.1-2.4-8.4-1-11.4-1.4-3.1-.4-11,.6-11.2-5.9v-1.3c1,5.5,8.3,4.6,11.2,5h0Z"/>
          </g>
          <g>
            <path class="st33" d="M256.3,216.7l-33.9-11.5-2.6,14.3-2.6-14.3-33.9,11.5c-9.3,39.7-8.8,209.7-8.8,209.7h27.3l18-174.9,18,174.9h27.3s.4-170.1-8.8-209.7Z"/>
            <path class="st20" d="M183.2,238v-1c7.1-1,13-8,12.7-15.4h1c.4,7.8-5.9,15.3-13.7,16.4Z"/>
            <rect class="st20" x="218.8" y="221.5" width="1" height="21.7"/>
            <path class="st20" d="M221.3,238.3c-1.2,0-2.8-.4-4.5-.9-1.9-.5-3.8-1-4.8-.8l-.2-1c6.1-1.6,12.1-3.8,17.9-6.3l.4,1c-5,2.2-10.1,4-15.3,5.6.7.2,1.5.4,2.3.6,1.9.5,3.8,1,4.8.8l.2,1h-.8Z"/>
            <rect class="st20" x="177.4" y="418.4" width="20.7" height="1"/>
            <rect class="st20" x="241.3" y="417.5" width="19.8" height="1"/>
            <path class="st20" d="M256.2,238.7c-4.1-.4-8-2.4-10.7-5.6-2.6-3.2-3.9-7.4-3.5-11.5h1c-.4,4,.8,7.9,3.3,10.9s6.1,4.9,10,5.3v1h-.1Z"/>
          </g>
          <path class="st15" d="M263,168.4l26.4-13.9s-15.7-29.1-22.1-34.3c-6.4-5.2-22.5-11.6-38.9-14.1l-8.8,7.7-8.8-7.7c-16.3,2.5-32.5,8.8-38.9,14.1-6.4,5.2-22.1,34.3-22.1,34.3l26.4,13.9,6.1-8.7s2.6,45.6-.9,51.4c-3.5,5.8.3,8.4.3,8.4h75.5s3.8-2.6.3-8.4c-3.5-5.8-.9-51.4-.9-51.4l6.1,8.7h.3Z"/>
          <rect class="st25" x="182" y="144.5" width="75.2" height="14.6"/>
          <path class="st34" d="M220.6,122.5c8.7,0,17-5.7,20.7-13.7-4.1-1.1-8.4-2-12.7-2.7l-8.8,7.7-8.8-7.7c-3.9.6-7.9,1.4-11.7,2.4,3.6,8.3,12.3,14.1,21.3,14Z"/>
          <g>
            <path class="st30" d="M224.9,112.8l-.6.4c-3,2.1-7.1,2-10-.3h0c-2-1.6-3.2-4.1-3.2-6.7l.2-13.1h17.2l-.2,13c0,2.7-1.4,5.2-3.5,6.7h.1Z"/>
            <path class="st19" d="M228.6,99.6v-6.4h-17.2v6.7c2.7,1.6,5.9,2.5,9,2.3,2.9,0,5.7-1,8.1-2.6h0Z"/>
          </g>
          <path class="st22" d="M228.5,66.7h-16.8c-3.1,0-5.7,2.6-5.7,5.7v12.5c0,7.7,6.3,14,14,14h.2c7.7,0,14-6.3,14-14v-12.5c0-3.1-2.6-5.7-5.7-5.7Z"/>
          <g>
            <path class="st22" d="M209,79c.9,2.4-.2,5-2.3,5.7-2.1.8-4.6-.6-5.4-3-.9-2.4.2-5,2.3-5.7,2.1-.8,4.6.6,5.4,3Z"/>
            <path class="st22" d="M231.2,79c-.9,2.4.2,5,2.3,5.7,2.1.8,4.6-.6,5.4-3,.9-2.4-.2-5-2.3-5.7-2.1-.8-4.6.6-5.4,3Z"/>
          </g>
          <path class="st21" d="M205.5,78c2.1,0,4-1.5,5-3.3,1.1-1.8,1.4-3.9,1.4-6,2.7,2.3,6.4,4.9,9.9,5.5-.5-1.3-.7-2.7-.5-4.1,2.5,1.9,5.5,3.2,8.7,3.6-.4-.9-.7-1.7-1.1-2.6l4.8,6c3.8-7.1,3-15.7-3.3-20.7-6.2-5-16-4.9-22.2.3-6.1,5.2-6.7,14.3-2.9,21.4h.2Z"/>
          <g>
            <path class="st21" d="M224.9,77.6c.2,0,.4,0,.7,0s.1,0,0,0h1.2s.4,0,.2,0h.3c.2,0,.4,0,.6.2.1,0,.2,0,.3,0h.2q0,0,0,0c.2,0,.4.2.6.3,0,0,.2,0,.3.2,0,0,.3.2.1,0,.4.3,1,.4,1.4,0,.3-.4.4-1,0-1.4-1.8-1.4-4.1-1.9-6.3-1.3-.5,0-.8.7-.7,1.2.2.5.7.8,1.2.7h-.1Z"/>
            <path class="st5" d="M227.7,81.1c0,.9-.7,1.6-1.6,1.6s-1.6-.7-1.6-1.6.7-1.6,1.6-1.6,1.6.7,1.6,1.6Z"/>
            <path class="st21" d="M215.6,77.6c-.2,0-.4,0-.7,0s-.1,0,0,0h-1.2s-.4,0-.2,0h-.3c-.2,0-.4,0-.6.2-.1,0-.2,0-.3,0h-.2q0,0,0,0c-.2,0-.4.2-.6.3,0,0-.2,0-.3.2,0,0-.3.2-.1,0-.4.3-1,.4-1.4,0-.3-.4-.4-1,0-1.4,1.8-1.4,4.1-1.9,6.3-1.3.5,0,.8.7.7,1.2-.2.5-.7.8-1.2.7h.1Z"/>
            <path class="st5" d="M212.7,81.1c0,.9.7,1.6,1.6,1.6s1.6-.7,1.6-1.6-.7-1.6-1.6-1.6-1.6.7-1.6,1.6Z"/>
            <path class="st30" d="M219.9,87h-.4c-.4,0-.8-.4-.7-.8,0-.4.3-.8.8-.7.5,0,1.1,0,1.3-.3.2-.2,0-.7,0-1.2l-1.5-6.2c-.1-.4.2-.8.6-.9.4,0,.8.2.9.6l1.5,6.2c.1.6.4,1.6-.2,2.5-.6.8-1.6.9-2.3.9h0Z"/>
            <path class="st26" d="M224.4,89.2h-8.6c.8,1.5,2.4,2.8,4.1,2.8,2.5,0,4-1.2,4.5-2.8Z"/>
          </g>
          <g>
            <path class="st32" d="M182.3,161c-.3,0-.5-.2-.5-.5-.7-12.5-1-25.2-1-37.8s.2-.5.5-.5h0c.3,0,.5.2.5.5,0,12.5.4,25.2,1,37.7,0,.3-.2.5-.5.5h0Z"/>
            <path class="st32" d="M182,157c-.2,0-.4-.1-.5-.4l-6.8-20.8c0-.3,0-.6.3-.7.3,0,.6,0,.7.3l6.8,20.8c0,.3,0,.6-.3.7h-.2Z"/>
          </g>
          <g>
            <path class="st32" d="M257,161h0c-.3,0-.5-.3-.5-.5.7-12.5,1-25.2,1-37.7s.2-.5.5-.5h0c.3,0,.5.2.5.5,0,12.5-.4,25.3-1,37.8,0,.3-.2.5-.5.5h0Z"/>
            <path class="st32" d="M257.3,157h-.2c-.3,0-.4-.4-.3-.7l6.8-20.8c0-.3.4-.4.7-.3.3,0,.4.4.3.7l-6.8,20.8c0,.2-.3.4-.5.4h0Z"/>
          </g>
        </g>
        <g class="st39">
          <path class="st29" d="M317,406.5l-.3,20.9s-15.1,9.8-19.6,12.2c-4.5,2.4-5.6,5.8-6.1,10s18.2,4.8,26.2,1.6c7.9-3.2,10.8-1.3,14.8-1.9,4-.5,14.3.8,14.5-7.7l-1.6-19.6,1.3-28-29.3,12.4h.1Z"/>
          <path class="st27" d="M332.1,446.4c-4,.5-6.9-1.3-14.8,1.9-7.3,2.9-23.5,2.7-25.9-.6-.1.6-.2,1.3-.3,1.9-.5,4.2,18.2,4.8,26.2,1.6,7.9-3.2,10.8-1.3,14.8-1.8s14.3.8,14.5-7.7v-1.7c-1.3,7.1-10.8,5.9-14.5,6.4h0Z"/>
        </g>
        <g class="st39">
          <path class="st14" d="M425.4,120.5c-7.8-6.2-17.7-10.9-26.1-14.2-9.4-3.7-19.4-5.7-29.5-5.9h-.2l-2.6,7.1-2.6-7.1h-.2c-10.1.3-20.1,2.2-29.5,5.9-8.3,3.3-18.2,8-26.1,14.2-16.8,13.3-37.9,58.3-37.9,58.3l28.5,8.1c7.8-15.2,23.3-34.3,23.3-34.3l8.4,47h71.9l8.4-47s15.5,19.1,23.3,34.3l28.5-8.1s-21.1-45-37.9-58.3h.3Z"/>
          <path class="st5" d="M386.9,67.5c0-5.5-4-10.9-8.6-13.9.7,0,1.1-.9.8-1.5-.2-.4-.6-.6-.9-.7-2.2-1-5.3-1.3-7.7-.6-3.1-1.9-6.9-2.7-10.5-2.2-.9,0-1.8.4-2.4,1-.6.7-.7,1.9,0,2.4.4.3.9.4,1.1.8.1.4-.3.8-.7,1-1.5.7-3.3.7-4.8,1.4-.7.3-1.4.9-1.8,1.6s-.3,1.7.3,2.3c.6.6,1.6.6,2.2,0-2.5,2.6-4.3,6-4.6,9.6-.3,3.6.9,7.4,3.7,9.7,7.7,6.5,20.2,2.6,30,.5l1.4-1.7c1-3.2,1.1-6.8.2-10,.7.5,2.3,1.4,2.4.2h-.1Z"/>
          <g>
            <path class="st22" d="M355.4,74c-1.6-1.7-3.9-1.9-5.2-.4-1.3,1.5-1,4.1.6,5.8,1.6,1.7,3.9,1.9,5.2.4,1.3-1.5,1-4.1-.6-5.8Z"/>
            <path class="st22" d="M380.6,74c1.6-1.7,3.9-1.9,5.2-.4,1.3,1.5,1,4.1-.6,5.8-1.6,1.7-3.9,1.9-5.2.4-1.3-1.5-1-4.1.6-5.8Z"/>
          </g>
          <path class="st30" d="M372.8,107.4l-.6.4c-3,2.1-7,2-9.9-.3h0c-2-1.6-3.2-4.1-3.1-6.6l.2-13h17.2l-.2,12.9c0,2.7-1.4,5.1-3.5,6.7h-.1Z"/>
          <path class="st19" d="M376.5,94.9v-7.1h-17.1v6.2c2.5,1.5,5.5,2.4,8.5,2.5,2.9,0,5.9-.5,8.6-1.7h0Z"/>
          <path class="st22" d="M376.4,65.7h-16.8c-3.1,0-5.7,2.5-5.7,5.7v8.3c0,7.7,6.3,13.9,13.9,13.9h.2c7.7,0,13.9-6.3,13.9-13.9v-8.3c0-3.1-2.5-5.7-5.7-5.7h.2Z"/>
          <g>
            <path class="st5" d="M372.6,72.9c.2,0,.4,0,.7,0s.1,0,0,0h1.2s.4,0,.2,0h.3c.2,0,.4,0,.6.2.1,0,.2,0,.3,0h.2q0,0,0,0c.2,0,.4.2.6.3,0,0,.2,0,.3.2,0,0,.3.2.1,0,.4.3,1,.4,1.4,0,.3-.3.4-1,0-1.4-1.8-1.4-4.1-1.9-6.3-1.3-.5,0-.8.7-.7,1.2.2.5.7.8,1.2.7h-.1Z"/>
            <path class="st5" d="M375.5,76.4c0,.9-.7,1.6-1.6,1.6s-1.6-.7-1.6-1.6.7-1.6,1.6-1.6,1.6.7,1.6,1.6Z"/>
            <path class="st5" d="M363.3,72.9c-.2,0-.4,0-.7,0s-.1,0,0,0h-1.2s-.4,0-.2,0h-.3c-.2,0-.4,0-.6.2-.1,0-.2,0-.3,0h-.2q0,0,0,0c-.2,0-.4.2-.6.3,0,0-.2,0-.3.2,0,0-.3.2-.1,0-.4.3-1,.4-1.4,0-.3-.3-.4-1,0-1.4,1.8-1.4,4.1-1.9,6.3-1.3.5,0,.8.7.7,1.2-.2.5-.7.8-1.2.7h.1Z"/>
            <path class="st5" d="M360.5,76.4c0,.9.7,1.6,1.6,1.6s1.6-.7,1.6-1.6-.7-1.6-1.6-1.6-1.6.7-1.6,1.6Z"/>
            <path class="st30" d="M367.7,82.2h-.4c-.4,0-.8-.4-.7-.8,0-.4.3-.8.8-.7.5,0,1.1,0,1.3-.3.2-.2,0-.7,0-1.2l-1.5-6.2c-.1-.4.2-.8.6-.9.4,0,.8.2.9.6l1.5,6.2c.1.6.4,1.6-.2,2.5-.6.8-1.6.9-2.2.9h0Z"/>
            <path class="st26" d="M372.1,84.4h-8.6c.8,1.5,2.4,2.8,4.1,2.8,2.5,0,4-1.2,4.5-2.8Z"/>
          </g>
          <path class="st5" d="M352.8,72.7c.9.5,1.6,1.2,2.2,2,.2,0,.4.2.6.2.2-1.9.5-3.7.7-5.6,1.3.9,2.9,1.3,4.4.6s2.5-1.9,3.6-3c.1,1,1,1.7,2,1.9,1,.2,2-.2,2.7-.8.8-.6,1.4-1.3,2-2.1.8,1.8,2.7,3.3,4.6,3.7.9.2,2,.2,2.8.7,1.4.9,1.5,3,2.2,4.5.2.5.6.9,1.1.9s.6-.4.7-.7v-1c-.2-1.6,0-3.3-.3-5-.2-1.6-.9-3.2-2.2-4.2-1.4-1.1-3.3-1.4-5.1-1.6-4.3-.6-8.7-1.1-12.9-.3-2.4.5-4.8,1.4-6.5,3.1s-3.1,4.2-2.6,6.7h0Z"/>
          <polygon class="st13" points="397.6 168.6 381.9 168.6 378.7 148.2 400.1 148.2 397.6 168.6"/>
          <path class="st3" d="M411.5,153.4h-1.1c1.3-9.4,3.6-18.5,6.8-27.2l1,.4c-3.2,8.7-5.5,17.7-6.8,26.9h.1Z"/>
          <path class="st3" d="M414.5,150.3l-.8-.7c1.9-1.9,4.4-3.2,7-3.7l.2,1c-2.4.4-4.7,1.6-6.4,3.4h0Z"/>
          <path class="st3" d="M321.8,153c-.4-8.8-2-17.6-4.8-26l1-.3c2.8,8.5,4.4,17.3,4.8,26.3h-1.1.1Z"/>
          <path class="st3" d="M319,149.9c-1.7-2.1-3.7-3.9-5.9-5.5l.6-.9c2.3,1.6,4.4,3.5,6.2,5.7l-.8.7h-.1Z"/>
          <rect class="st3" x="367.9" y="128.3" width="1.1" height="50.5"/>
          <path class="st3" d="M364.4,135.4c0,.9-.7,1.6-1.6,1.6s-1.6-.7-1.6-1.6.7-1.6,1.6-1.6,1.6.7,1.6,1.6Z"/>
          <path class="st3" d="M364.4,146.2c0,.9-.7,1.6-1.6,1.6s-1.6-.7-1.6-1.6.7-1.6,1.6-1.6,1.6.7,1.6,1.6Z"/>
          <path class="st3" d="M364.4,157.1c0,.9-.7,1.6-1.6,1.6s-1.6-.7-1.6-1.6.7-1.6,1.6-1.6,1.6.7,1.6,1.6Z"/>
          <path class="st3" d="M364.4,167.9c0,.9-.7,1.6-1.6,1.6s-1.6-.7-1.6-1.6.7-1.6,1.6-1.6,1.6.7,1.6,1.6Z"/>
        </g>
        <g>
          <path class="st36" d="M352.4,64.5c-4.5,9.8-3.6,34.6-5.3,40.3-1.7,5.7-2.4,9.7-2.4,9.7l11.4,1.2,8.3-18.2-2.9-32.9h-9Z"/>
          <g>
            <g>
              <g>
                <polygon class="st38" points="423.2 407.1 424.2 421.7 409.2 422 408.4 408.3 423.2 407.1"/>
                <path class="st28" d="M362.8,239.6l.9,2.4,29.3,78.8c0,32.6,14.7,91.3,14.7,91.3l17.6-.8-4.8-91.8v-1.3c0-.1-.1-.2-.2-.3-4.5-18.1-13.9-63.3-20.3-85-.2-.6-.4-1.2-.5-1.8-1-3.5-1.8-6.1-2.3-7.7-.3-1.1-.5-1.7-.5-1.7l-4.9,2.6-1.4.8-27.5,14.6Z"/>
                <g>
                  <g>
                    <path class="st17" d="M405.8,438.7c0,.1,0,.2,0,.3,0,.5,0,1,0,1.4,0,.9.1,1.4.1,1.4h29.1s.1-1.1,0-2.8c-.2-3-1.2-7.7-5.2-10.8-5.5-4.3-3.4-3.4-4.5-5.3-.1-.2-1.1-3.5-1.2-3.7-.9-2-1.8-3-7-3s-7.5,3.4-8.3,5.1c-.3.7-.7,2.3-1.2,4.1-.2.7-.3,1.5-.5,2.3-.4,2-.8,4.1-1.1,5.8-.3,1.8-.3,3.6-.3,5.1Z"/>
                    <path class="st40" d="M405.8,438.7c0,.1,0,.2,0,.3,0,.5,0,1,0,1.4,1.4-1,2.4-2.3,3-3.9,1.8-4.9-1-10.8-1.1-11.1h0c-.2.8-.3,1.6-.5,2.4.7,2,1.4,5.4.4,8.2-.4,1-1,1.9-1.8,2.7Z"/>
                    <path class="st40" d="M405.8,439c0,1.7.2,2.8.2,2.8h29.1s.1-1.1,0-2.8h-29.3Z"/>
                  </g>
                  <path class="st40" d="M416.2,425.3c0,0,.1,0,.2,0,3.7-1,6.7-.1,6.8-.1.4.1.9-.1,1-.6s-.1-.9-.6-1c-.1,0-3.5-.9-7.6.1-.4.1-.7.6-.6,1,0,.4.4.6.8.6Z"/>
                  <path class="st40" d="M415.7,421.9c0,0,.1,0,.2,0,3.7-1,6.7-.1,6.8-.1.4.1.9-.1,1-.6.1-.4-.1-.9-.6-1-.1,0-3.5-.9-7.6.1-.4.1-.7.6-.6,1,0,.4.4.6.8.6Z"/>
                  <path class="st40" d="M417.5,427.9c0,0,.1,0,.2,0,3.7-1,6.7-.1,6.8-.1.4.1.9-.1,1-.6.1-.4-.1-.9-.6-1-.1,0-3.5-.9-7.6.1-.4.1-.7.6-.6,1,0,.4.4.6.8.6Z"/>
                  <path class="st40" d="M418.9,430.9c0,0,.1,0,.2,0,3.7-1,6.7-.1,6.8-.1.4.1.9-.1,1-.6.1-.4-.1-.9-.6-1-.1,0-3.5-.9-7.6.1-.4.1-.7.6-.6,1,0,.4.4.6.8.6Z"/>
                </g>
              </g>
              <polygon class="st38" points="361.2 407.1 361 421.8 347.3 422 347.2 408.2 361.2 407.1"/>
              <g>
                <path class="st17" d="M315.1,442.3l48.9-.5c.4-.7.5-1.6.6-2.7.3-4.1-1.1-10.7-1.8-14.9,0-.5-.2-.9-.2-1.3,0-.7-.2-1.3-.2-1.7,0-3.4-3-2.8-3-2.8-4.9,4.9-10.6-2.3-13.8.1,0,0-1.4,1-5.2,4.6-3.8,3.5-10.4,5.9-16,8.3-7.2,3.1-9.3,6.2-9.6,8.3-.3,1.7.4,2.7.4,2.7Z"/>
                <path class="st40" d="M315.1,442.3l48.9-.5c.4-.7.5-1.6.6-2.7l-50,.5c-.3,1.7.4,2.7.4,2.7Z"/>
                <path class="st40" d="M359.1,441.8h1.5c-1.5-1.7-2.9-4.2-2.7-7.8.2-4.8,3-8.1,5-9.8,0-.5-.2-.9-.2-1.3-2.2,1.7-5.8,5.4-6,11.1-.1,3.5,1,6,2.4,7.9Z"/>
                <path class="st40" d="M341.2,425.9c.4,0,.7-.3.8-.6.1-.4-.2-.9-.6-1l-3.1-.7c-.4-.1-.9.2-1,.6-.1.4.2.9.6,1l3.1.7c0,0,.1,0,.2,0Z"/>
                <path class="st40" d="M344.6,423.2c.4,0,.7-.3.8-.6.1-.4-.2-.9-.6-1l-3.1-.7c-.4-.1-.9.2-1,.6-.1.4.2.9.6,1l3.1.7c0,0,.1,0,.2,0Z"/>
                <path class="st40" d="M338.2,427.7c.4,0,.7-.3.8-.6.1-.4-.2-.9-.6-1l-3.1-.7c-.4-.1-.9.2-1,.6-.1.4.2.9.6,1l3.1.7c0,0,.1,0,.2,0Z"/>
                <path class="st40" d="M335.1,429.4c.4,0,.7-.3.8-.6.1-.4-.2-.9-.6-1l-3.1-.7c-.4-.1-.9.2-1,.6-.1.4.2.9.6,1l3.1.7c0,0,.1,0,.2,0Z"/>
                <path class="st40" d="M331.8,431c.4,0,.7-.3.8-.6.1-.4-.2-.9-.6-1l-3.1-.7c-.4-.1-.9.2-1,.6-.1.4.2.9.6,1l3.1.7c0,0,.1,0,.2,0Z"/>
                <path class="st40" d="M328.2,432.4c.4,0,.7-.3.8-.6.1-.4-.2-.9-.6-1l-3.1-.7c-.4-.1-.9.2-1,.6-.1.4.2.9.6,1l3.1.7c0,0,.1,0,.2,0Z"/>
              </g>
              <path class="st28" d="M327.7,233.3c5.6,3.7,18.4,6.8,31.3,8.2,16.7,1.9,33.6,1.1,35.8-4.3.2-.6.5-1.2.7-1.9,0,0,0,0,0,0,.2-.5.3-1,.4-1.5.2-.9.4-1.9.6-2.8,0-.6.2-1.1.3-1.7,1.2-8.9.1-18.6.1-18.6l-63.3-13.3s-6.2,18.1-7.2,28.7c0,.6,0,1.1-.1,1.7-.1,2.8.3,4.8,1.4,5.6Z"/>
              <path class="st28" d="M326.2,229c0,.5,0,1,0,1.5,0,1.2,0,2.3,0,3.5,0,.6,0,1.2,0,1.8,0,0,0,.2,0,.2,0,.6,0,1.1,0,1.6.4,35.8,1.7,68.6,4.3,92.1h0s.3,1.6.3,1.6l14.4,81.2,18.6-1.6s-.7-64.3-4.8-79v-90c0,0,0-13,0-13l-25,2.6-1.6-.5-.9-.3-1.5-.5-3.9-1.3Z"/>
            </g>
            <path class="st7" d="M362.8,219.9s1.6,14-1.1,15.7c-2.6,1.7-7.2,0-7.2,0"/>
            <path class="st7" d="M354.5,215.7l-1.7,113.3s9.1,43.4,8.4,78.1"/>
            <path class="st7" d="M368.5,243.4s25.6,68.7,27.4,74.9c1.8,6.2,1.8,29.1,7.3,56.7,5.5,27.6,6.3,36.7,6.3,36.7"/>
            <path class="st7" d="M418,319.5c-5.6,1.2-8.5,0-8.5,0"/>
            <path class="st7" d="M397.3,231.8c-8.3-5.9-10.6-15.1-10.6-15.1"/>
            <path class="st7" d="M342.2,212.9c-7,13-15.9,14.8-15.9,14.8"/>
            <path class="st7" d="M343.4,327.1l-7.5,3.8"/>
            <g>
              <path class="st26" d="M328.8,213.2s0,0,0,0c1.3,1.2,2.8,2.4,4.4,3.5,0,0,.1,0,.2.1.5.4,1.1.7,1.6,1,.4.3.9.5,1.4.8.2.1.5.3.7.4.5.2.9.5,1.4.7,3.8,1.9,8.1,3.5,12.7,4.6.4.1.8.2,1.3.3.3,0,.6.1.9.2.4,0,.9.2,1.3.3.5.1,1,.2,1.5.3.4,0,.8.1,1.3.2.3,0,.5,0,.8.1.4,0,.9.1,1.3.2,4.3.6,8.7.8,13.1.6.6,0,1.2,0,1.8-.1.9,0,1.9-.1,2.8-.2.6,0,1.2-.1,1.8-.2,0,0,.2,0,.3,0,0,0,0,0,.1,0,.5,0,1-.1,1.5-.2,2.6-.4,5.2-1,7.8-1.8.3,0,.5-.1.8-.2.5-.2,1-.3,1.6-.5,1.4-.5,2.9-1,4.3-1.6.4-.2.7-.3,1.1-.5.2-.1.4-.2.7-.3.2-.1.5-.2.7-.3,0,0,0,0,.1,0,2.7-7.3,5.6-33.4,6.4-41.1.2-1.6.3-3.1.4-4.7.3-4.2.4-8.5.3-12.8,0-3.3-.1-6.7-.3-10.1,0-.4,0-.9,0-1.3,0-1.6-.2-3.2-.3-4.8,0-.4,0-.7,0-1.1,0,0,0-.2,0-.3,0,0,0-.1,0-.2,0-1.3-.2-2.5-.2-3.8-.1-2.1-.3-4.3-.4-6.6,0-1.2-.2-2.4-.2-3.7-.5-7.8-2.1-13.9-4.9-18.1-.7-1-1.5-2-2.3-2.8-.6-.6-1.2-1.1-1.9-1.5-1.4-.9-2.9-1.5-4.6-1.8-1.6-.2-3-.6-4.3-.9-.2,0-.5-.1-.7-.2-.7-.2-1.4-.5-2-.7-.7-.3-1.4-.6-2-.9,0,0-.2,0-.3-.1-.2,0-.3-.2-.5-.2,0,0,0,0,0,0-.4-.2-.8-.4-1.2-.6-1.1-.6-1.9-1.2-2.4-1.5-.3-.2-.5-.4-.5-.4h-18.3c-.1.2-.3.4-.4.6,0,0,0,0,0,0-.2.3-.5.6-.7.9-.5.5-1,1-1.5,1.4-.7.5-1.4,1-2.1,1.4-.3.2-.6.3-.9.5-.2.1-.5.2-.7.3-.2.1-.5.2-.8.3-.6.2-1.2.4-1.8.6,0,0,0,0,0,0-3.8,1.2-7.6,1.8-10.1,4-.5.4-.9.8-1.2,1.3h0c-.7,1-1.3,2.2-1.6,3.8,0,.4-.1.9-.2,1.5-.1,4,1.6,10.8,2.3,21.8.2,3.6.3,7.6.3,12.2,0,1.2,0,2.4-.1,3.6,0,.4,0,.7,0,1.1,0,.8,0,1.5-.1,2.3h0c0,.8-.1,1.6-.2,2.4-.1,1.5-.2,3.1-.4,4.6-.1,1.4-.3,2.8-.5,4.3-.2,1.5-.4,3-.6,4.6-.9,6.3-2.9,18.8-5,29.3-.3,1.7-.7,3.3-1,4.8,0,.2,0,.3-.1.5-.4,1.7-.8,3.3-1.1,4.7Z"/>
              <polygon class="st16" points="380.8 93.9 375.9 238.2 402.9 232.1 406.6 143.4 398.7 112.1 380.8 93.9"/>
              <path class="st38" d="M399.3,211.5c-5.5,4.1-9,8.7-7.5,12.7,1.5,4,2.7,9.4,4.1,9.6l1.4.2s2.6,8.2,4.1,8.5c1.4.3.2-4.3.2-4.3,0,0-.4,6.5,1.6,6.2,2.1-.3,1.9-14.1,2.1-18.4.2-4.2-5.9-14.4-5.9-14.4Z"/>
              <path class="st9" d="M397.3,234c0-4.5-1.1-8.4-1.1-8.4"/>
              <path class="st16" d="M398.7,112.1c21.9,16.3,41.7,45.6,47.1,66.4,5.3,20.7-41.1,48.8-41.1,48.8l-7.8-16.6s23.7-21.2,22.6-32.2c-1.6-15.6-24.4-38-24.4-38l3.6-28.4Z"/>
              <g>
                <g>
                  <path class="st38" d="M358.7,96l-.6,4.5c.5.5.9,1,1.4,1.4,7.2,5.8,16.5,1.2,16.5,1.2l2.2-15.7-17.2,7.6-2.3,1Z"/>
                  <path class="st4" d="M358.7,96l-.6,4.5c.5.5.9,1,1.4,1.4,7.1-1.7,12.9-8,12.9-8l-11.4,1.1-2.3,1Z"/>
                </g>
                <path class="st4" d="M355.9,75.2s-2.1-3.4-4-.6c-1.9,2.8-1.6,9.1,2.4,8.7l1.6-8.1Z"/>
                <path class="st16" d="M355.6,60.7s-3.1.6-2.3,4.2c.8,3.6.6,4.2-.2,6.3-.8,2,.7,3.9,1.3,3.8.6-.1,8.6-14.7,1.2-14.3Z"/>
                <path class="st38" d="M351.6,85.4s-1.3,9.3,8.4,10.7c9.7,1.4,17.3-5.3,17.7-5.6,0,0,0,0,0,0l.4-1.9,2-10.1,1.1-5.4s2.6-9.6-6.4-12.8c-6.6-2.3-13.2-2.1-16.9,1-.1,0-.2.2-.4.3-1.2,1.1-2.1,2.5-2.5,4.3l-1.7,9.7-.4,2.4-1.3,7.3Z"/>
                <path class="st16" d="M352.5,80.3c2.9,2.2,3.3-.8,7.3,0,4.1.8,5.3,3.5,11.1,3.3s9-2.1,9.9-1.2c.9.9-2.7,12.3-11.4,14.2-8.7,1.9-15.3,1.2-17.8-4.3-2.5-5.6.8-11.9.8-11.9Z"/>
                <path class="st26" d="M356.5,82l7.6,2s0,3.4-4.5,2.6c-4.1-.7-3.1-4.6-3.1-4.6Z"/>
                <path class="st16" d="M372.3,70.9h0c-.6,1-2,1.3-3,.7-.6-.4-1.3-.7-2.1-1-1.1-.4-1.6-1.6-1.2-2.7h0s4.6.2,6.3,3.1Z"/>
                <path class="st16" d="M354.7,68.4h0c.3,1.2,1.5,1.8,2.7,1.5.7-.2,1.5-.3,2.3-.4,1.2,0,2-1.1,1.9-2.3h0s-4.5-1.1-6.9,1.2Z"/>
                <path class="st16" d="M355.2,61.8c0,.3.1.7.2,1,1,2.4,4.1,2.9,6.6,2.7,2.9-.2,5.7-.7,8.5-1.5,1.5-.5,3.2-1,4.7-.6,1.8.5,2.2,2.1,1.6,3.5-.6,1.7-1.1,2.1-.2,4.1,1,2.2-2.8,2.6-1,4.5.8.8.6,1.8,0,2.7-.5,1,.2,2.1,1.3,2.1,3.2-.3,6.4-5.4,7.3-8,1.4-4.1.7-8.8-1.5-12.6-1.9-3.1-5.8-4.4-9.5-4.7-4-.4-8-.1-11.9.8-1.7.4-3.4,1-4.7,2.2-1,1-1.7,2.4-1.6,3.8Z"/>
                <g>
                  <path class="st16" d="M365.8,74.9c-.1.9.2,1.8.7,1.8.5,0,1.1-.6,1.2-1.6.1-.9-.2-1.8-.7-1.8-.5,0-1.1.6-1.2,1.6Z"/>
                  <path class="st16" d="M356.5,73.6c-.1.9.2,1.8.7,1.8.5,0,1.1-.6,1.2-1.6.1-.9-.2-1.8-.7-1.8-.5,0-1.1.6-1.2,1.6Z"/>
                </g>
                <path class="st38" d="M377.9,80.1s4.5-4.5,6.6-.1c1.8,3.6-3.7,11.4-7.7,7.9l1.1-7.7Z"/>
                <g>
                  <path class="st9" d="M362.4,70.6l-3.3,5.8c-.2.4-.1.8.2,1.1.4.4,1.2,1,2.3,1.2"/>
                  <path class="st9" d="M382.2,80.9c-3.7,1-4.5,3.5-4.9,5"/>
                  <path class="st9" d="M381.2,84.3c-1.2-1.5-2.5-1.3-2.5-1.3"/>
                </g>
              </g>
              <g>
                <g>
                  <g>
                    <path class="st40" d="M352.4,186.3c2.3,6.1,4.5,9.9,6.8,16,3.9-6.9,9.3-8.5,13.2-15.5-1.6-22.7-3.2-45.8-4.8-68.5l-4-.3c-3.7,22.7-7.5,45.6-11.2,68.3Z"/>
                    <polygon class="st31" points="367.6 118.4 365.5 121.3 363.6 118.1 363.2 120.7 365.4 123.2 367.7 120.4 367.6 118.4"/>
                  </g>
                  <polygon class="st40" points="371.2 112.1 365.5 121.3 359.8 111.8 366 106.5 371.2 112.1"/>
                </g>
                <polyline class="st10" points="373.4 114.5 365.8 106.3 357.5 113.8"/>
              </g>
            </g>
            <g>
              <g>
                <path class="st38" d="M285.3,106.8s-5.3,7-11.6,5.4c-5.1-1.3-7.1-7.9-7.7-10.4-.1-.6-.2-1-.2-1,0,0-.4-.1-.9-.4-1.2-.6-3.1-2-3.2-3.9,0-2.7,4.9-1.9,4.9-1.9,0,0-1.2-3.1.1-4.2,1.3-1.1,4.4.1,4.4.1,0,0-2.1-3.7,0-4.9,3-1.8,4.7,2.8,4.9,3.1,0-.3-3.6-14.9-.9-14.5,2.3.4,6,12.5,7,15.7.2.5.2.8.2.8,0,0,.2,0,.5,0,1.4-.1,5.7-.3,6.8,2.5,1.4,3.4-4.3,13.5-4.3,13.5Z"/>
                <g>
                  <path class="st9" d="M281.7,91.2s-4.4,2.4-2.5,4.8c1.9,2.4,5.8,1.8,5.8,1.8"/>
                  <path class="st9" d="M277.4,90.6s1.6,4.4.1,5.1c-1.5.7-5.1-4.7-5.1-4.7"/>
                  <path class="st9" d="M274.9,94.2c1.7,2.9.1,5.9-6.4,0"/>
                  <path class="st9" d="M270.4,96s1.3,3.6-.3,4.5c-1.6.9-4.2-1.3-4.2-1.3"/>
                  <path class="st9" d="M277.1,96.8c2.1,5.3.7,9-2.1,10.1"/>
                </g>
              </g>
              <path class="st16" d="M345,131.1c-12.2,18.9-21.7,27-43.8,32-25.9,3.4-30.2-33.9-32.9-52.4l20.1-3.2c3.2,11.2,5.6,24.1,12.3,33.5-1.3-1-3.1-1.2-4.6-.9,15.8-3.7,30.5-14.6,40.9-27.3l8.1,18.3Z"/>
            </g>
          </g>
          <g>
            <path class="st8" d="M390.7,138.3s10.9,9.2,14,11.1"/>
            <path class="st8" d="M300.1,140c-4.4,7.3-6.4,10.4-6.4,10.4"/>
            <path class="st8" d="M271.4,121.7c9.4-3.4,19-3.8,19-3.8"/>
            <path class="st8" d="M275.1,110.4c1,4.9,2,9.2,2,9.2"/>
            <path class="st6" d="M282.1,114.2c0,.8-.6,1.4-1.4,1.4s-1.4-.6-1.4-1.4.6-1.4,1.4-1.4,1.4.6,1.4,1.4Z"/>
            <path class="st8" d="M337.9,125.3c0,15.3,0,30.4,0,30.4"/>
            <path class="st8" d="M420.6,179.9c6.7-.2,11.2,2.4,11.2,2.4"/>
            <path class="st8" d="M405.2,206.9c3.7,6.4,6.2,12.2,6.2,12.2"/>
            <line class="st8" x1="403.8" y1="220.3" x2="409.3" y2="216.7"/>
            <path class="st6" d="M404.4,213.2c0,.8-.7,1.5-1.5,1.5s-1.5-.7-1.5-1.5.7-1.5,1.5-1.5,1.5.7,1.5,1.5Z"/>
          </g>
          <path class="st26" d="M373.5,64.5s4.1,30.9,2.7,52.9c-.2,2.9,14.9.3,19.6-10.2,0,0-2.1-25-4.4-35.2-6.7-28.4-18-8.9-17.8-7.4Z"/>
          <path class="st10" d="M374.3,62.3c.3,15.2,1.5,27.3,2.1,38.5.6,11.2-1.3,13.9,0,15"/>
          <path class="st26" d="M376.7,69.2c-5,6.6-13.6-.4-18.3,1.8-4.7,2.2-8.6-5-6.1-8.1,2.6-3,24.4,6.3,24.4,6.3Z"/>
          <path class="st26" d="M389.8,60.8c-4.3-10.8-13.3-12.6-22.2-11.9-8.5.7-15.8,7.3-15.2,14.1.6,6.9,25.8,2,30.7.6,4.9-1.4,6.7-2.8,6.7-2.8Z"/>
          <path class="st40" d="M353.3,64.5c15.1,9.6,36.9,1.9,36.9,1.9,0,0,.9-5.5-.2-6.4-6.4,1.7-32.1,2.5-37.2-1.3,0,0-2.4,2.3.6,5.8Z"/>
          <path class="st16" d="M352.9,104.7l-7.9,131.6-24.9-4.2,11.1-90.3,5-27.5c-.1-2.3,1.3-4.4,3.5-5.1l13.2-4.5Z"/>
        </g>
        <g class="st39">
          <path class="st3" d="M314.7,250c.1,2.9-5.1,161.2-5.1,161.2l41.4-2,8.2-140.6-44.5-18.6Z"/>
          <path class="st12" d="M308.3,411.3l43.9-2.1.8-13.3-44.2,2.1c-.3,8.3-.4,13.3-.4,13.3h0Z"/>
        </g>
        <g class="st39">
          <path class="st29" d="M416.1,406.5l.3,20.9s15.1,9.8,19.6,12.2c4.5,2.4,5.6,5.8,6.1,10s-18.2,4.8-26.2,1.6c-7.9-3.2-10.8-1.3-14.8-1.9-4-.5-14.3.8-14.5-7.7l1.6-19.6-1.3-28,29.3,12.4h-.1Z"/>
          <path class="st27" d="M401,446.4c4,.5,6.9-1.3,14.8,1.9,7.3,2.9,23.5,2.7,25.9-.6.1.6.2,1.3.3,1.9.5,4.2-18.2,4.8-26.2,1.6-7.9-3.2-10.8-1.3-14.8-1.8s-14.3.8-14.5-7.7v-1.7c1.3,7.1,10.8,5.9,14.5,6.4h0Z"/>
        </g>
        <g class="st39">
          <path class="st3" d="M418.4,250c-.1,2.9,5.1,161.2,5.1,161.2l-41.4-2-8.2-140.6,44.5-18.6Z"/>
          <path class="st12" d="M424.7,411.3l-43.9-2.1-.8-13.3,44.2,2.1c.3,8.3.4,13.3.4,13.3h0Z"/>
        </g>
        <path class="st24" d="M629.5,337.1c-168.5,30-340.9,30.6-509.6,1.8,10.4-59.6,20.8-119.2,31.2-178.7,148,26.4,299.6,27,447.9,1.8,10.2,58.4,20.4,116.8,30.6,175.2h0Z"/>
        <path class="st30" d="M155.5,188.6c-4-2.5-8.7-3.8-13.4-3.7-1.6,0-3.2.2-4.4,1.2-1.9,1.5-2,4.3-2.1,6.7-1.7.6-3.3,1.9-3.8,3.6-.4,1.8,0,3.7,1.3,5-1.1,1.3-.8,4.6.5,5.7-1.4,1.3-.9,4.6.5,5.9,1.3,1.3,3.3,1.8,5.2,2,3.2.3,6.5,0,9.6-.9,1-.3,2-.7,2.5-1.5.6-.8.4-2.2-.6-2.5,1-.8,1.7-1.9,2.2-3.1.5-1.2.3-2.7-.8-3.4.9-.6,1.4-2.1,1.4-3.1s-.6-2.1-1.4-2.8c1.6-.5,3.2-1.8,3.8-3.4.6-1.6.8-4.9-.6-5.8h.1Z"/>
        <path class="st30" d="M589.6,181.7c4-2.5,8.7-3.8,13.4-3.7,1.6,0,3.2.2,4.4,1.2,1.9,1.5,2,4.3,2.1,6.7,1.7.6,3.3,1.9,3.8,3.6s0,3.7-1.3,5c1.1,1.3.8,4.6-.5,5.7,1.4,1.3.9,4.6-.5,5.9-1.3,1.3-3.3,1.8-5.2,2-3.2.3-6.5,0-9.6-.9-1-.3-2-.7-2.5-1.5-.6-.8-.4-2.2.6-2.5-1-.8-1.7-1.9-2.2-3.1-.5-1.2-.3-2.7.8-3.4-.9-.6-1.4-2.1-1.4-3.1s.6-2.1,1.4-2.8c-1.6-.5-3.2-1.8-3.8-3.4-.6-1.6-.8-4.9.6-5.8h0Z"/>
      </g>
      <g class="st2" xlink:href="#path">
        <text class="st1" transform="translate(214.6 289.9) rotate(7.3)"><tspan x="0" y="0">J</tspan></text>
        <text class="st1" transform="translate(258.3 295.8) rotate(3.4)"><tspan x="0" y="0">O</tspan></text>
        <text class="st1" transform="translate(326.7 299.3) rotate(.5)"><tspan x="0" y="0">I</tspan></text>
        <text class="st1" transform="translate(351.2 300) rotate(-2.1)"><tspan x="0" y="0">N</tspan></text>
        <text class="st1" transform="translate(414.8 297.2) rotate(-4.6)"><tspan x="0" y="0"> </tspan></text>
        <text class="st1" transform="translate(439.2 295.7) rotate(-6.9)"><tspan x="0" y="0">U</tspan></text>
        <text class="st1" transform="translate(502.4 287.9) rotate(-10.1)"><tspan x="0" y="0">S</tspan></text>
        <text class="st1" transform="translate(560.2 277.4) rotate(-12.1)"><tspan x="0" y="0">!</tspan></text>
      </g>
      <circle class="st37" cx="639" cy="58.2" r="7.8"/>
      <circle class="st37" cx="95.5" cy="126.8" r="7.2"/>
      <circle class="st37" cx="422.8" cy="60.4" r="7.2"/>
      <g>
        <ellipse class="st37" cx="112.1" cy="213" rx="2.6" ry="11.6"/>
        <ellipse class="st37" cx="112.1" cy="213" rx="11.6" ry="2.6"/>
      </g>
      <g>
        <ellipse class="st37" cx="602.7" cy="128.9" rx="2.6" ry="11.6"/>
        <ellipse class="st37" cx="602.7" cy="128.9" rx="11.6" ry="2.6"/>
      </g>
      <g>
        <path class="st37" d="M614.8,376.5c0,7.8-1.4,14-3.2,14s-3.2-6.3-3.2-14,1.4-14,3.2-14,3.2,6.3,3.2,14Z"/>
        <path class="st37" d="M611.6,373.3c7.8,0,14,1.4,14,3.2s-6.3,3.2-14,3.2-14-1.4-14-3.2,6.3-3.2,14-3.2Z"/>
      </g>
      <g>
        <ellipse class="st37" cx="49.6" cy="322.4" rx="2.5" ry="11"/>
        <ellipse class="st37" cx="49.6" cy="322.4" rx="11" ry="2.5"/>
      </g>
      <g>
        <ellipse class="st37" cx="686.7" cy="234.4" rx="2.5" ry="11"/>
        <ellipse class="st37" cx="686.7" cy="234.4" rx="11" ry="2.5"/>
      </g>
      <g>
        <ellipse class="st37" cx="272.7" cy="47.9" rx="1.8" ry="8"/>
        <path class="st37" d="M272.7,46c4.4,0,8,.8,8,1.8s-3.6,1.8-8,1.8-8-.8-8-1.8,3.6-1.8,8-1.8Z"/>
      </g>
      <g>
        <path class="st37" d="M475.7,75.3c0,4.4-.8,8-1.8,8s-1.8-3.6-1.8-8,.8-8,1.8-8,1.8,3.6,1.8,8Z"/>
        <ellipse class="st37" cx="473.9" cy="75.3" rx="8" ry="1.8"/>
      </g>
      <path class="st37" d="M103.2,268c0,3-2.4,5.3-5.3,5.3s-5.3-2.4-5.3-5.3,2.4-5.3,5.3-5.3,5.3,2.4,5.3,5.3Z"/>
      <path class="st37" d="M639.4,185c0,2.5-2.1,4.6-4.6,4.6s-4.6-2.1-4.6-4.6,2.1-4.6,4.6-4.6,4.6,2.1,4.6,4.6Z"/>
      <path class="st37" d="M649.7,287.5c0,3.3-2.7,5.9-5.9,5.9s-5.9-2.7-5.9-5.9,2.7-5.9,5.9-5.9,5.9,2.7,5.9,5.9Z"/>
      <circle class="st37" cx="150.6" cy="369.8" r="6.1"/>
    </g>
  </g>
</svg>