<?xml version="1.0" encoding="UTF-8"?>
<svg id="OBJECTS" xmlns="http://www.w3.org/2000/svg" xmlns:xlink="http://www.w3.org/1999/xlink" version="1.1" viewBox="0 0 750 500">
  <!-- Generator: Adobe Illustrator 29.3.0, SVG Export Plug-In . SVG Version: 2.1.0 Build 146)  -->
  <defs>
    <style>
      .st0 {
        fill: #ef7265;
      }

      .st1 {
        fill: #2f324f;
      }

      .st2 {
        fill: #405c77;
      }

      .st3 {
        fill: #5062ad;
      }

      .st4 {
        fill: #7d91f4;
      }

      .st5 {
        fill: #8c9cea;
      }

      .st6 {
        fill: #b0d1f4;
      }

      .st7 {
        fill: #8e3f3f;
      }

      .st8 {
        fill: #464b60;
      }

      .st9 {
        fill: #3d4951;
      }

      .st10 {
        fill: #bc864b;
      }

      .st11 {
        fill: #ffae85;
      }

      .st12 {
        font-size: 88.1px;
      }

      .st12, .st13 {
        fill: #425099;
      }

      .st14 {
        fill: #e04f4f;
      }

      .st15 {
        fill: #f0fcff;
      }

      .st16 {
        fill: #cfe8ff;
      }

      .st17 {
        fill: #fff;
      }

      .st18 {
        fill: #d1a78b;
      }

      .st19 {
        fill: #a07453;
      }

      .st20 {
        fill: #f4956c;
      }

      .st21 {
        fill: #526c7f;
      }

      .st22 {
        fill: #4f5960;
      }

      .st23 {
        fill: #7fafdb;
      }

      .st24 {
        fill: #9ed3e5;
      }

      .st25 {
        fill: #eefbff;
      }

      .st26 {
        fill: #544966;
      }
    </style>
    <path id="path" d="M157.9,277.3s176.6,55.9,446.1-9.8"/>
  </defs>
  <circle class="st25" cx="285.8" cy="106.1" r="13.8" transform="translate(19.7 254.9) rotate(-49.6)"/>
  <path class="st25" d="M466.3,118.3h-158.4c-2.1-7.8-1.8-18.6,6.2-18-1.4-8-2.8-16.5.6-23.9s13.6-12,19.9-7c0-12,9.5-22.8,21.1-25.9,11.6-3,24.4,1.2,33.1,9.4s13.5,20,14.8,31.9c9.6-5.6,23.9,1.4,25.4,12.4,3.3-3.9,9.3-5.2,13.9-3.1,4.6,2.2,7.4,7.7,6.5,12.7,3.8-2.4,9.3-1.8,12.5,1.5s6.9,6.1,4.4,9.9Z"/>
  <path class="st25" d="M673.1,99h-179c1.9-10,10.1-17.6,20.1-15.5-4-17.6,6.8-37.4,23.8-43.4,17-6,37.9,2.4,45.9,18.6,6.7-2.9,15-1.7,20.6,3.1,5.6,4.7,8.1,12.7,6.4,19.8,9.7,0,19.4.2,29.2.3,7.4,0,15,.2,21.8,3,6.8,2.8,11.2,6.7,11.4,14Z"/>
  <path class="st25" d="M51.8,173.1h137.6c4.2-4.7-.3-15.7-5.9-18.6s-12.3-2.1-18.6-1c6.4-15.3-6.4-35-23-35.4-16.6-.4-30.2,18.8-24.5,34.4-11.2-3.7-24.7,2.9-28.6,14.1-4.8-5.6-12.8-8.4-20.1-7-7.3,1.4-14.6,6.6-17,13.6Z"/>
  <ellipse class="st24" cx="371" cy="438.4" rx="295.7" ry="31.9"/>
  <g>
    <g>
      <path class="st14" d="M481.6,414.3l-.2,16.1s-11.6,7.6-15.1,9.4c-3.5,1.8-4.3,4.5-4.7,7.8-.4,3.3,14.1,3.7,20.2,1.2,6.1-2.4,8.4-1,11.4-1.4,3.1-.4,11,.6,11.2-5.9l-1.2-15.1,1-21.6-22.7,9.6Z"/>
      <path class="st18" d="M493.2,445.1c-3.1.4-5.3-1-11.4,1.4-5.6,2.2-18.2,2.1-20-.5,0,.5-.2,1-.2,1.5-.4,3.3,14.1,3.7,20.2,1.2,6.1-2.4,8.4-1,11.4-1.4,3.1-.4,11,.6,11.2-5.9v-1.3c-1,5.5-8.3,4.6-11.2,5Z"/>
    </g>
    <g>
      <path class="st14" d="M556.7,414.5l.2,16.1s11.6,7.6,15.1,9.4c3.5,1.8,4.3,4.5,4.7,7.8.4,3.3-14.1,3.7-20.2,1.2-6.1-2.4-8.4-1-11.4-1.4-3.1-.4-11,.6-11.2-5.9l1.2-15.1-1-21.6,22.7,9.6Z"/>
      <path class="st18" d="M545,445.4c3.1.4,5.3-1,11.4,1.4,5.6,2.2,18.2,2.1,20-.5,0,.5.2,1,.2,1.5.4,3.3-14.1,3.7-20.2,1.2-6.1-2.4-8.4-1-11.4-1.4-3.1-.4-11,.6-11.2-5.9v-1.3c1,5.5,8.3,4.6,11.2,5Z"/>
    </g>
    <g>
      <path class="st26" d="M486.5,227s-6.4,64.5-7,94.1c-.5,29.7-.9,102.1-.9,102.1h29.7l6.3-92.2,7.3-55.1,4.2-54.1-39.6,5.2Z"/>
      <path class="st14" d="M565.8,137.9s-8.8-12.1-26.1-15.2c-17.5-3.1-21.1-.8-21.1-.8,0,0-3.5-2.3-21.1.8-17.3,3.1-26.1,15.2-26.1,15.2l6.2,34.3c7,9,3.5,34.7,3.1,40.2-.4,5.5,4.3,6.6,4.3,6.6l-2.7,7.4c6.2,7.8,36.3,10.5,36.3,10.5,0,0,30-2.7,36.3-10.5l-2.7-7.4s4.7-1.2,4.3-6.6c-.4-5.5-3.9-31.2,3.1-40.2l6.2-34.3Z"/>
      <path class="st0" d="M555.8,111.2c-.9-4.8-4.9-8.3-7.1-12.7-3.5-6.9-2.2-15.2-5-22.4-2.2-5.8-7.1-10.5-13-12.5-3.7-1.3-7.4-.4-11.3.6-3.8-1-7.6-1.9-11.3-.6-5.9,2-10.8,6.7-13,12.5-2.7,7.2-1.5,15.5-5,22.4-2.2,4.3-6.2,7.9-7.1,12.7-.7,3.5.6,7.2,2.5,10.2,2,3,4.7,5.4,7.3,7.8,2.3,2,1.5,5.9.6,8.8-.8,2.9-1.7,6.1-.5,8.9.8,2,2.6,3.4,4,5,1.4,1.6,2.5,3.9,1.7,5.9,3.5-.2,5.3-4.6,5.5-8.1.1-3.5-.8-7-.1-10.4.9-4,4-7.1,6.7-10.3,2.1-2.5,5.9-3.3,6.8-5.6-.2,3.8.7.2,2.1,3.7,1.3-3.6,1.7,0,1.5-3.7,1,2.3,4.7,3.1,6.8,5.6,2.7,3.2,5.8,6.3,6.7,10.3.7,3.4-.2,6.9-.1,10.4.1,3.5,2,7.9,5.5,8.1-.8-2,.3-4.2,1.7-5.9,1.4-1.6,3.1-3,4-5,1.2-2.8.3-6-.5-8.9-.8-2.9-1.6-6.8.6-8.8,2.7-2.4,5.4-4.8,7.3-7.8,2-3,3.2-6.7,2.5-10.2Z"/>
      <g>
        <path class="st20" d="M523.8,131.2l-.6.4c-3.4,2.4-7.9,2.2-11.1-.3h0c-2.3-1.8-3.5-4.5-3.5-7.4l.2-14.5h19.1l-.2,14.4c0,3-1.5,5.7-3.9,7.4Z"/>
        <path class="st8" d="M527.9,116.9v-7.5c.1,0-19,0-19,0v7.3c2.4,1.6,5.3,2.5,8.2,2.8,3.7.3,7.5-.7,10.8-2.6Z"/>
      </g>
      <path class="st11" d="M527.8,80h-18.7c-3.5,0-6.3,2.8-6.3,6.3v13.9c0,8.5,7,15.5,15.5,15.5h.2c8.5,0,15.5-7,15.5-15.5v-13.9c0-3.5-2.8-6.3-6.3-6.3Z"/>
      <g>
        <path class="st11" d="M506.1,93.7c1,2.7-.2,5.5-2.6,6.4s-5.1-.6-6-3.3c-1-2.7.2-5.5,2.6-6.4,2.4-.8,5.1.6,6,3.3Z"/>
        <path class="st11" d="M530.8,93.7c-1,2.7.2,5.5,2.6,6.4s5.1-.6,6-3.3c1-2.7-.2-5.5-2.6-6.4-2.4-.8-5.1.6-6,3.3Z"/>
      </g>
      <g>
        <path class="st0" d="M523.8,92.1c.2,0,.5-.1.7-.2.1,0,.1,0,0,0,0,0,.1,0,.2,0,.1,0,.2,0,.4,0,.2,0,.5,0,.7,0,0,0,.4,0,.2,0,.1,0,.2,0,.3,0,.2,0,.5.1.7.2.1,0,.2,0,.4.1,0,0,.1,0,.2,0q-.1,0,0,0c.2.1.4.2.7.3.1,0,.2.1.3.2,0,0,.3.3.2.1.4.3,1.1.5,1.5,0,.4-.4.5-1.2,0-1.5-2-1.5-4.5-2.1-7-1.4-.5.2-.9.8-.8,1.3.2.6.7.9,1.3.8h0Z"/>
        <path class="st1" d="M526.9,96c0,1-.8,1.7-1.7,1.7s-1.7-.8-1.7-1.7.8-1.7,1.7-1.7,1.7.8,1.7,1.7Z"/>
        <path class="st0" d="M513.4,92.1c-.2,0-.5-.1-.7-.2-.1,0-.1,0,0,0,0,0-.1,0-.2,0-.1,0-.2,0-.4,0-.2,0-.5,0-.7,0,0,0-.4,0-.2,0-.1,0-.2,0-.3,0-.2,0-.5.1-.7.2-.1,0-.2,0-.4.1,0,0-.1,0-.2,0q.1,0,0,0c-.2.1-.4.2-.7.3-.1,0-.2.1-.3.2,0,0-.3.3-.2.1-.4.3-1.1.5-1.5,0-.4-.4-.5-1.2,0-1.5,2-1.5,4.5-2.1,7-1.4.5.2.9.8.8,1.3-.2.6-.7.9-1.3.8h0Z"/>
        <path class="st1" d="M510.3,96c0,1,.8,1.7,1.7,1.7s1.7-.8,1.7-1.7-.8-1.7-1.7-1.7-1.7.8-1.7,1.7Z"/>
        <path class="st20" d="M518.3,102.5c-.2,0-.3,0-.5,0-.5,0-.8-.4-.8-.9,0-.5.4-.9.9-.8.5,0,1.3,0,1.5-.3.2-.3,0-.8,0-1.3l-1.7-6.9c-.1-.5.2-.9.6-1,.5-.1.9.2,1,.6l1.7,6.9c.2.6.4,1.8-.2,2.8-.6.9-1.7,1-2.5,1Z"/>
        <path class="st17" d="M523.2,105h-9.5c.8,1.7,2.7,3.1,4.5,3.1,2.7,0,4.4-1.3,5-3.1Z"/>
      </g>
      <path class="st0" d="M518.1,83.4c.6-.9,1.3-1.9,2.3-2.1,1.3-.3,2.5.9,3.3,1.9,1.9,2.2,3.7,4.3,5.6,6.5,1,1.1,2,2.3,3.5,2.8,1.6.5,3.5-.2,4.7-1.4,1.2-1.2,1.7-3,1.9-4.7.5-5.9-4.2-11.4-9.8-13.5-5.6-2.1-11.9-1.3-17.6.4-4.2,1.2-8.4,3.1-10.9,6.6-2.6,3.6-3.2,10.6,2.3,11.4,5.3.7,11.7-3.8,14.6-7.8Z"/>
      <polygon class="st14" points="565.8 137.9 602.6 181.2 582.3 202 555.7 171.3 557.3 139 565.8 137.9"/>
      <polygon class="st14" points="471.4 137.9 434.6 181.2 454.9 202 481.4 171.3 479.9 139 471.4 137.9"/>
      <path class="st26" d="M553.9,227s6.4,64.5,7,94.1c.5,29.7.9,102.1.9,102.1h-29.7l-6.3-92.2-7.3-55.1-4.2-54.1,39.6,5.2Z"/>
      <g>
        <path class="st7" d="M481.8,174.5h0c-.3,0-.5-.3-.5-.5.5-10.9.1-22-1.1-32.9,0-.3.2-.5.5-.6.3,0,.5.2.6.5,1.2,10.9,1.6,22,1.1,33,0,.3-.2.5-.5.5Z"/>
        <path class="st7" d="M557.4,176.6c-.3,0-.5-.2-.5-.5l-.9-35.8c0-.3.2-.5.5-.5h0c.3,0,.5.2.5.5l.9,35.8c0,.3-.2.5-.5.5h0Z"/>
        <path class="st7" d="M479,170.8c-.2,0-.4-.1-.5-.3l-6.3-13.3c-.1-.3,0-.6.2-.7.3-.1.6,0,.7.2l6.3,13.3c.1.3,0,.6-.2.7,0,0-.1,0-.2,0Z"/>
        <path class="st7" d="M560.6,169.1h0c-.3,0-.5-.3-.5-.5.2-3.7,1.8-7.3,4.4-9.9.2-.2.5-.2.7,0,.2.2.2.5,0,.7-2.4,2.5-3.9,5.8-4.1,9.2,0,.3-.2.5-.5.5Z"/>
      </g>
    </g>
    <path class="st20" d="M151.9,155.4l-14.2,33.3c.8,7,1.3,14.2,2.2,21.2,6.5.3,12.8.1,16.7-.8,0,0,12.1-21.2,15.3-36.8l3.2-15.6-23.2-1.3Z"/>
    <g>
      <polygon class="st20" points="282.9 149.1 317.3 200.4 291.9 208.3 259.2 158.1 282.9 149.1"/>
      <g>
        <path class="st2" d="M175.8,414.3l-.2,16.1s-11.6,7.6-15.1,9.4c-3.5,1.8-4.3,4.5-4.7,7.8-.4,3.3,14.1,3.7,20.2,1.2,6.1-2.4,8.4-1,11.4-1.4,3.1-.4,11,.6,11.2-5.9l-1.2-15.1,1-21.6-22.7,9.6Z"/>
        <path class="st18" d="M187.4,445.1c-3.1.4-5.3-1-11.4,1.4-5.6,2.2-18.2,2.1-20-.5,0,.5-.2,1-.2,1.5-.4,3.3,14.1,3.7,20.2,1.2,6.1-2.4,8.4-1,11.4-1.4,3.1-.4,11,.6,11.2-5.9v-1.3c-1,5.5-8.3,4.6-11.2,5Z"/>
      </g>
      <g>
        <path class="st2" d="M262,414.5l.2,16.1s11.6,7.6,15.1,9.4c3.5,1.8,4.3,4.5,4.7,7.8.4,3.3-14.1,3.7-20.2,1.2-6.1-2.4-8.4-1-11.4-1.4-3.1-.4-11,.6-11.2-5.9l1.2-15.1-1-21.6,22.7,9.6Z"/>
        <path class="st18" d="M250.4,445.4c3.1.4,5.3-1,11.4,1.4,5.6,2.2,18.2,2.1,20-.5,0,.5.2,1,.2,1.5.4,3.3-14.1,3.7-20.2,1.2-6.1-2.4-8.4-1-11.4-1.4-3.1-.4-11,.6-11.2-5.9v-1.3c1,5.5,8.3,4.6,11.2,5Z"/>
      </g>
      <g>
        <path class="st22" d="M256.3,216.7l-33.9-11.5-2.6,14.3-2.6-14.3-33.9,11.5c-9.3,39.7-8.8,209.7-8.8,209.7h27.3l18-174.9,18,174.9h27.3s.4-170.1-8.8-209.7Z"/>
        <path class="st9" d="M183.2,238v-1c7.1-1,13-8,12.7-15.4h1c.4,7.8-5.9,15.3-13.7,16.4Z"/>
        <rect class="st9" x="218.8" y="221.5" width="1" height="21.7"/>
        <path class="st9" d="M221.3,238.3c-1.2,0-2.8-.4-4.5-.9-1.9-.5-3.8-1-4.8-.8l-.2-1c6.1-1.6,12.1-3.8,17.9-6.3l.4,1c-5,2.2-10.1,4-15.3,5.6.7.2,1.5.4,2.3.6,1.9.5,3.8,1,4.8.8l.2,1c-.2,0-.5,0-.7,0Z"/>
        <rect class="st9" x="177.4" y="418.4" width="20.7" height="1"/>
        <rect class="st9" x="241.3" y="417.5" width="19.8" height="1"/>
        <path class="st9" d="M256.2,238.7c-4.1-.4-8-2.4-10.7-5.6-2.6-3.2-3.9-7.4-3.5-11.5h1c-.4,4,.8,7.9,3.3,10.9,2.5,3,6.1,4.9,10,5.3v1Z"/>
      </g>
      <path class="st6" d="M263,168.4l26.4-13.9s-15.7-29.1-22.1-34.3c-6.4-5.2-22.5-11.6-38.9-14.1l-8.8,7.7-8.8-7.7c-16.3,2.5-32.5,8.8-38.9,14.1-6.4,5.2-22.1,34.3-22.1,34.3l26.4,13.9,6.1-8.7s2.6,45.6-.9,51.4c-3.5,5.8.3,8.4.3,8.4h75.5s3.8-2.6.3-8.4c-3.5-5.8-.9-51.4-.9-51.4l6.1,8.7Z"/>
      <rect class="st16" x="182" y="144.5" width="75.2" height="14.6"/>
      <path class="st23" d="M220.6,122.5c8.7,0,17-5.7,20.7-13.7-4.1-1.1-8.4-2-12.7-2.7l-8.8,7.7-8.8-7.7c-3.9.6-7.9,1.4-11.7,2.4,3.6,8.3,12.3,14.1,21.3,14Z"/>
      <g>
        <path class="st20" d="M224.9,112.8l-.6.4c-3,2.1-7.1,2-10-.3h0c-2-1.6-3.2-4.1-3.2-6.7l.2-13.1h17.2l-.2,13c0,2.7-1.4,5.2-3.5,6.7Z"/>
        <path class="st8" d="M228.6,99.6v-6.4c0,0-17.2,0-17.2,0v6.7c2.7,1.6,5.9,2.5,9,2.3,2.9-.1,5.7-1,8.1-2.6Z"/>
      </g>
      <path class="st11" d="M228.5,66.7h-16.8c-3.1,0-5.7,2.6-5.7,5.7v12.5c0,7.7,6.3,14,14,14h.2c7.7,0,14-6.3,14-14v-12.5c0-3.1-2.6-5.7-5.7-5.7Z"/>
      <g>
        <path class="st11" d="M209,79c.9,2.4-.2,5-2.3,5.7-2.1.8-4.6-.6-5.4-3-.9-2.4.2-5,2.3-5.7,2.1-.8,4.6.6,5.4,3Z"/>
        <path class="st11" d="M231.2,79c-.9,2.4.2,5,2.3,5.7,2.1.8,4.6-.6,5.4-3,.9-2.4-.2-5-2.3-5.7-2.1-.8-4.6.6-5.4,3Z"/>
      </g>
      <path class="st10" d="M205.5,78c2.1,0,4-1.5,5-3.3,1.1-1.8,1.4-3.9,1.4-6,2.7,2.3,6.4,4.9,9.9,5.5-.5-1.3-.7-2.7-.5-4.1,2.5,1.9,5.5,3.2,8.7,3.6-.4-.9-.7-1.7-1.1-2.6l4.8,6c3.8-7.1,3-15.7-3.3-20.7-6.2-5-16-4.9-22.2.3-6.1,5.2-6.7,14.3-2.9,21.4Z"/>
      <g>
        <path class="st10" d="M224.9,77.6c.2,0,.4-.1.7-.1.1,0,.1,0,0,0,0,0,.1,0,.2,0,.1,0,.2,0,.3,0,.2,0,.4,0,.7,0,0,0,.4,0,.2,0,0,0,.2,0,.3,0,.2,0,.4,0,.6.2.1,0,.2,0,.3.1,0,0,.1,0,.2,0q-.1,0,0,0c.2,0,.4.2.6.3,0,0,.2.1.3.2,0,0,.3.2.1,0,.4.3,1,.4,1.4,0,.3-.4.4-1,0-1.4-1.8-1.4-4.1-1.9-6.3-1.3-.5.1-.8.7-.7,1.2.2.5.7.8,1.2.7h0Z"/>
        <path class="st1" d="M227.7,81.1c0,.9-.7,1.6-1.6,1.6s-1.6-.7-1.6-1.6.7-1.6,1.6-1.6,1.6.7,1.6,1.6Z"/>
        <path class="st10" d="M215.6,77.6c-.2,0-.4-.1-.7-.1-.1,0-.1,0,0,0,0,0-.1,0-.2,0-.1,0-.2,0-.3,0-.2,0-.4,0-.7,0,0,0-.4,0-.2,0,0,0-.2,0-.3,0-.2,0-.4,0-.6.2-.1,0-.2,0-.3.1,0,0-.1,0-.2,0q.1,0,0,0c-.2,0-.4.2-.6.3,0,0-.2.1-.3.2,0,0-.3.2-.1,0-.4.3-1,.4-1.4,0-.3-.4-.4-1,0-1.4,1.8-1.4,4.1-1.9,6.3-1.3.5.1.8.7.7,1.2-.2.5-.7.8-1.2.7h0Z"/>
        <path class="st1" d="M212.7,81.1c0,.9.7,1.6,1.6,1.6s1.6-.7,1.6-1.6-.7-1.6-1.6-1.6-1.6.7-1.6,1.6Z"/>
        <path class="st20" d="M219.9,87c-.2,0-.3,0-.4,0-.4,0-.8-.4-.7-.8,0-.4.3-.8.8-.7.5,0,1.1,0,1.3-.3.2-.2,0-.7,0-1.2l-1.5-6.2c-.1-.4.2-.8.6-.9.4,0,.8.2.9.6l1.5,6.2c.1.6.4,1.6-.2,2.5-.6.8-1.6.9-2.3.9Z"/>
        <path class="st17" d="M224.4,89.2h-8.6c.8,1.5,2.4,2.8,4.1,2.8,2.5,0,4-1.2,4.5-2.8Z"/>
      </g>
      <g>
        <path class="st21" d="M182.3,161c-.3,0-.5-.2-.5-.5-.7-12.5-1-25.2-1-37.8,0-.3.2-.5.5-.5h0c.3,0,.5.2.5.5,0,12.5.4,25.2,1,37.7,0,.3-.2.5-.5.5h0Z"/>
        <path class="st21" d="M182,157c-.2,0-.4-.1-.5-.4l-6.8-20.8c0-.3,0-.6.3-.7.3,0,.6,0,.7.3l6.8,20.8c0,.3,0,.6-.3.7,0,0-.1,0-.2,0Z"/>
      </g>
      <g>
        <path class="st21" d="M257,161h0c-.3,0-.5-.3-.5-.5.7-12.5,1-25.2,1-37.7,0-.3.2-.5.5-.5h0c.3,0,.5.2.5.5,0,12.5-.4,25.3-1,37.8,0,.3-.2.5-.5.5Z"/>
        <path class="st21" d="M257.3,157c0,0-.1,0-.2,0-.3,0-.4-.4-.3-.7l6.8-20.8c0-.3.4-.4.7-.3.3,0,.4.4.3.7l-6.8,20.8c0,.2-.3.4-.5.4Z"/>
      </g>
    </g>
    <g>
      <path class="st19" d="M317,406.5l-.3,20.9s-15.1,9.8-19.6,12.2c-4.5,2.4-5.6,5.8-6.1,10-.5,4.2,18.2,4.8,26.2,1.6,7.9-3.2,10.8-1.3,14.8-1.9,4-.5,14.3.8,14.5-7.7l-1.6-19.6,1.3-28-29.3,12.4Z"/>
      <path class="st18" d="M332.1,446.4c-4,.5-6.9-1.3-14.8,1.9-7.3,2.9-23.5,2.7-25.9-.6-.1.6-.2,1.3-.3,1.9-.5,4.2,18.2,4.8,26.2,1.6,7.9-3.2,10.8-1.3,14.8-1.8,4-.5,14.3.8,14.5-7.7v-1.7c-1.3,7.1-10.8,5.9-14.5,6.4Z"/>
    </g>
    <g>
      <path class="st5" d="M425.4,120.5c-7.8-6.2-17.7-10.9-26.1-14.2-9.4-3.7-19.4-5.7-29.5-5.9h-.2s-2.6,7.1-2.6,7.1l-2.6-7.1h-.2c-10.1.3-20.1,2.2-29.5,5.9-8.3,3.3-18.2,8-26.1,14.2-16.8,13.3-37.9,58.3-37.9,58.3l28.5,8.1c7.8-15.2,23.3-34.3,23.3-34.3l8.4,47h71.9l8.4-47s15.5,19.1,23.3,34.3l28.5-8.1s-21.1-45-37.9-58.3Z"/>
      <path class="st1" d="M386.9,67.5c0-5.5-4-10.9-8.6-13.9.7,0,1.1-.9.8-1.5-.2-.4-.6-.6-.9-.7-2.2-1-5.3-1.3-7.7-.6-3.1-1.9-6.9-2.7-10.5-2.2-.9.1-1.8.4-2.4,1-.6.7-.7,1.9,0,2.4.4.3.9.4,1.1.8.1.4-.3.8-.7,1-1.5.7-3.3.7-4.8,1.4-.7.3-1.4.9-1.8,1.6s-.3,1.7.3,2.3c.6.6,1.6.6,2.2,0-2.5,2.6-4.3,6-4.6,9.6-.3,3.6.9,7.4,3.7,9.7,7.7,6.5,20.2,2.6,30,.5l1.4-1.7c1-3.2,1.1-6.8.2-10,.7.5,2.3,1.4,2.4.2Z"/>
      <g>
        <path class="st11" d="M355.4,74c-1.6-1.7-3.9-1.9-5.2-.4-1.3,1.5-1,4.1.6,5.8,1.6,1.7,3.9,1.9,5.2.4,1.3-1.5,1-4.1-.6-5.8Z"/>
        <path class="st11" d="M380.6,74c1.6-1.7,3.9-1.9,5.2-.4,1.3,1.5,1,4.1-.6,5.8-1.6,1.7-3.9,1.9-5.2.4-1.3-1.5-1-4.1.6-5.8Z"/>
      </g>
      <path class="st20" d="M372.8,107.4l-.6.4c-3,2.1-7,2-9.9-.3h0c-2-1.6-3.2-4.1-3.1-6.6l.2-13h17.2l-.2,12.9c0,2.7-1.4,5.1-3.5,6.7Z"/>
      <path class="st8" d="M376.5,94.9v-7.1c0,0-17.1,0-17.1,0v6.2c2.5,1.5,5.5,2.4,8.5,2.5,2.9.1,5.9-.5,8.6-1.7Z"/>
      <path class="st11" d="M376.4,65.7h-16.8c-3.1,0-5.7,2.5-5.7,5.7v8.3c0,7.7,6.3,13.9,13.9,13.9h.2c7.7,0,13.9-6.3,13.9-13.9v-8.3c0-3.1-2.5-5.7-5.7-5.7Z"/>
      <g>
        <path class="st1" d="M372.6,72.9c.2,0,.4-.1.7-.1.1,0,.1,0,0,0,0,0,.1,0,.2,0,.1,0,.2,0,.3,0,.2,0,.4,0,.7,0,0,0,.4,0,.2,0,0,0,.2,0,.3,0,.2,0,.4,0,.6.2.1,0,.2,0,.3.1,0,0,.1,0,.2,0q-.1,0,0,0c.2,0,.4.2.6.3,0,0,.2.1.3.2,0,0,.3.2.1,0,.4.3,1,.4,1.4,0,.3-.3.4-1,0-1.4-1.8-1.4-4.1-1.9-6.3-1.3-.5.1-.8.7-.7,1.2.2.5.7.8,1.2.7h0Z"/>
        <path class="st1" d="M375.5,76.4c0,.9-.7,1.6-1.6,1.6s-1.6-.7-1.6-1.6.7-1.6,1.6-1.6,1.6.7,1.6,1.6Z"/>
        <path class="st1" d="M363.3,72.9c-.2,0-.4-.1-.7-.1-.1,0-.1,0,0,0,0,0-.1,0-.2,0-.1,0-.2,0-.3,0-.2,0-.4,0-.7,0,0,0-.4,0-.2,0,0,0-.2,0-.3,0-.2,0-.4,0-.6.2-.1,0-.2,0-.3.1,0,0-.1,0-.2,0q.1,0,0,0c-.2,0-.4.2-.6.3,0,0-.2.1-.3.2,0,0-.3.2-.1,0-.4.3-1,.4-1.4,0-.3-.3-.4-1,0-1.4,1.8-1.4,4.1-1.9,6.3-1.3.5.1.8.7.7,1.2-.2.5-.7.8-1.2.7h0Z"/>
        <path class="st1" d="M360.5,76.4c0,.9.7,1.6,1.6,1.6s1.6-.7,1.6-1.6-.7-1.6-1.6-1.6-1.6.7-1.6,1.6Z"/>
        <path class="st20" d="M367.7,82.2c-.2,0-.3,0-.4,0-.4,0-.8-.4-.7-.8,0-.4.3-.8.8-.7.5,0,1.1,0,1.3-.3.2-.2,0-.7,0-1.2l-1.5-6.2c-.1-.4.2-.8.6-.9.4,0,.8.2.9.6l1.5,6.2c.1.6.4,1.6-.2,2.5-.6.8-1.6.9-2.2.9Z"/>
        <path class="st17" d="M372.1,84.4h-8.6c.8,1.5,2.4,2.8,4.1,2.8,2.5,0,4-1.2,4.5-2.8Z"/>
      </g>
      <path class="st1" d="M352.8,72.7c.9.5,1.6,1.2,2.2,2,.2,0,.4.2.6.2.2-1.9.5-3.7.7-5.6,1.3.9,2.9,1.3,4.4.6s2.5-1.9,3.6-3c.1,1,1,1.7,2,1.9,1,.2,2-.2,2.7-.8.8-.6,1.4-1.3,2-2.1.8,1.8,2.7,3.3,4.6,3.7.9.2,2,.2,2.8.7,1.4.9,1.5,3,2.2,4.5.2.5.6.9,1.1.9.3,0,.6-.4.7-.7,0-.3,0-.7,0-1-.2-1.6,0-3.3-.3-5-.2-1.6-.9-3.2-2.2-4.2-1.4-1.1-3.3-1.4-5.1-1.6-4.3-.6-8.7-1.1-12.9-.3-2.4.5-4.8,1.4-6.5,3.1s-3.1,4.2-2.6,6.7Z"/>
      <polygon class="st4" points="397.6 168.6 381.9 168.6 378.7 148.2 400.1 148.2 397.6 168.6"/>
      <path class="st13" d="M411.5,153.4h-1.1c1.3-9.4,3.6-18.5,6.8-27.2l1,.4c-3.2,8.7-5.5,17.7-6.8,26.9Z"/>
      <path class="st13" d="M414.5,150.3l-.8-.7c1.9-1.9,4.4-3.2,7-3.7l.2,1c-2.4.4-4.7,1.6-6.4,3.4Z"/>
      <path class="st13" d="M321.8,153c-.4-8.8-2-17.6-4.8-26l1-.3c2.8,8.5,4.4,17.3,4.8,26.3h-1.1Z"/>
      <path class="st13" d="M319,149.9c-1.7-2.1-3.7-3.9-5.9-5.5l.6-.9c2.3,1.6,4.4,3.5,6.2,5.7l-.8.7Z"/>
      <rect class="st13" x="367.9" y="128.3" width="1.1" height="50.5"/>
      <path class="st13" d="M364.4,135.4c0,.9-.7,1.6-1.6,1.6s-1.6-.7-1.6-1.6.7-1.6,1.6-1.6,1.6.7,1.6,1.6Z"/>
      <path class="st13" d="M364.4,146.2c0,.9-.7,1.6-1.6,1.6s-1.6-.7-1.6-1.6.7-1.6,1.6-1.6,1.6.7,1.6,1.6Z"/>
      <path class="st13" d="M364.4,157.1c0,.9-.7,1.6-1.6,1.6s-1.6-.7-1.6-1.6.7-1.6,1.6-1.6,1.6.7,1.6,1.6Z"/>
      <path class="st13" d="M364.4,167.9c0,.9-.7,1.6-1.6,1.6s-1.6-.7-1.6-1.6.7-1.6,1.6-1.6,1.6.7,1.6,1.6Z"/>
    </g>
    <g>
      <path class="st13" d="M314.7,250c.1,2.9-5.1,161.2-5.1,161.2l41.4-2,8.2-140.6-44.5-18.6Z"/>
      <path class="st3" d="M308.3,411.3l43.9-2.1.8-13.3-44.2,2.1c-.3,8.3-.4,13.3-.4,13.3Z"/>
    </g>
    <g>
      <path class="st19" d="M416.1,406.5l.3,20.9s15.1,9.8,19.6,12.2c4.5,2.4,5.6,5.8,6.1,10,.5,4.2-18.2,4.8-26.2,1.6-7.9-3.2-10.8-1.3-14.8-1.9-4-.5-14.3.8-14.5-7.7l1.6-19.6-1.3-28,29.3,12.4Z"/>
      <path class="st18" d="M401,446.4c4,.5,6.9-1.3,14.8,1.9,7.3,2.9,23.5,2.7,25.9-.6.1.6.2,1.3.3,1.9.5,4.2-18.2,4.8-26.2,1.6-7.9-3.2-10.8-1.3-14.8-1.8-4-.5-14.3.8-14.5-7.7v-1.7c1.3,7.1,10.8,5.9,14.5,6.4Z"/>
    </g>
    <g>
      <path class="st13" d="M418.4,250c-.1,2.9,5.1,161.2,5.1,161.2l-41.4-2-8.2-140.6,44.5-18.6Z"/>
      <path class="st3" d="M424.7,411.3l-43.9-2.1-.8-13.3,44.2,2.1c.3,8.3.4,13.3.4,13.3Z"/>
    </g>
    <path class="st15" d="M629.5,337.1c-168.5,30-340.9,30.6-509.6,1.8,10.4-59.6,20.8-119.2,31.2-178.7,148,26.4,299.6,27,447.9,1.8,10.2,58.4,20.4,116.8,30.6,175.2Z"/>
    <path class="st20" d="M155.5,188.6c-4-2.5-8.7-3.8-13.4-3.7-1.6,0-3.2.2-4.4,1.2-1.9,1.5-2,4.3-2.1,6.7-1.7.6-3.3,1.9-3.8,3.6-.4,1.8,0,3.7,1.3,5-1.1,1.3-.8,4.6.5,5.7-1.4,1.3-.9,4.6.5,5.9,1.3,1.3,3.3,1.8,5.2,2,3.2.3,6.5,0,9.6-.9,1-.3,2-.7,2.5-1.5.6-.8.4-2.2-.6-2.5,1-.8,1.7-1.9,2.2-3.1.5-1.2.3-2.7-.8-3.4.9-.6,1.4-2.1,1.4-3.1,0-1.1-.6-2.1-1.4-2.8,1.6-.5,3.2-1.8,3.8-3.4.6-1.6.8-4.9-.6-5.8Z"/>
    <path class="st20" d="M589.6,181.7c4-2.5,8.7-3.8,13.4-3.7,1.6,0,3.2.2,4.4,1.2,1.9,1.5,2,4.3,2.1,6.7,1.7.6,3.3,1.9,3.8,3.6s0,3.7-1.3,5c1.1,1.3.8,4.6-.5,5.7,1.4,1.3.9,4.6-.5,5.9-1.3,1.3-3.3,1.8-5.2,2-3.2.3-6.5,0-9.6-.9-1-.3-2-.7-2.5-1.5-.6-.8-.4-2.2.6-2.5-1-.8-1.7-1.9-2.2-3.1-.5-1.2-.3-2.7.8-3.4-.9-.6-1.4-2.1-1.4-3.1s.6-2.1,1.4-2.8c-1.6-.5-3.2-1.8-3.8-3.4-.6-1.6-.8-4.9.6-5.8Z"/>
  </g>
  <text>
    <textPath startOffset="12.9%" xlink:href="#path"><tspan class="st12"><tspan x="0" y="0">JOIN US!</tspan></tspan>
    </textPath></text>
  <circle class="st25" cx="639" cy="58.2" r="7.8"/>
  <circle class="st25" cx="95.5" cy="126.8" r="7.2" transform="translate(-44.9 200.8) rotate(-80.8)"/>
  <circle class="st25" cx="422.8" cy="60.4" r="7.2"/>
  <g>
    <ellipse class="st25" cx="112.1" cy="213" rx="2.6" ry="11.6"/>
    <ellipse class="st25" cx="112.1" cy="213" rx="11.6" ry="2.6"/>
  </g>
  <g>
    <ellipse class="st25" cx="602.7" cy="128.9" rx="2.6" ry="11.6"/>
    <ellipse class="st25" cx="602.7" cy="128.9" rx="11.6" ry="2.6"/>
  </g>
  <g>
    <path class="st25" d="M614.8,376.5c0,7.8-1.4,14-3.2,14s-3.2-6.3-3.2-14,1.4-14,3.2-14,3.2,6.3,3.2,14Z"/>
    <path class="st25" d="M611.6,373.3c7.8,0,14,1.4,14,3.2s-6.3,3.2-14,3.2-14-1.4-14-3.2,6.3-3.2,14-3.2Z"/>
  </g>
  <g>
    <ellipse class="st25" cx="49.6" cy="322.4" rx="2.5" ry="11"/>
    <ellipse class="st25" cx="49.6" cy="322.4" rx="11" ry="2.5"/>
  </g>
  <g>
    <ellipse class="st25" cx="686.7" cy="234.4" rx="2.5" ry="11"/>
    <ellipse class="st25" cx="686.7" cy="234.4" rx="11" ry="2.5"/>
  </g>
  <g>
    <ellipse class="st25" cx="272.7" cy="47.9" rx="1.8" ry="8"/>
    <path class="st25" d="M272.7,46c4.4,0,8,.8,8,1.8s-3.6,1.8-8,1.8-8-.8-8-1.8,3.6-1.8,8-1.8Z"/>
  </g>
  <g>
    <path class="st25" d="M475.7,75.3c0,4.4-.8,8-1.8,8s-1.8-3.6-1.8-8,.8-8,1.8-8,1.8,3.6,1.8,8Z"/>
    <ellipse class="st25" cx="473.9" cy="75.3" rx="8" ry="1.8"/>
  </g>
  <path class="st25" d="M103.2,268c0,3-2.4,5.3-5.3,5.3s-5.3-2.4-5.3-5.3,2.4-5.3,5.3-5.3,5.3,2.4,5.3,5.3Z"/>
  <path class="st25" d="M639.4,185c0,2.5-2.1,4.6-4.6,4.6s-4.6-2.1-4.6-4.6,2.1-4.6,4.6-4.6,4.6,2.1,4.6,4.6Z"/>
  <path class="st25" d="M649.7,287.5c0,3.3-2.7,5.9-5.9,5.9s-5.9-2.7-5.9-5.9,2.7-5.9,5.9-5.9,5.9,2.7,5.9,5.9Z"/>
  <circle class="st25" cx="150.6" cy="369.8" r="6.1"/>
</svg>