<svg xmlns="http://www.w3.org/2000/svg" width="488" height="488" viewBox="0 0 488 488">
  <path id="trend" d="M404.971,420.859a78.3,78.3,0,1,1,13.3-14.647l24.566,23.853.89-.916a7.157,7.157,0,0,1,10.075-.156l43.045,41.774a7.137,7.137,0,0,1,.134,10.076l-15.537,16.005a7.158,7.158,0,0,1-10.076.156L428.349,455.23a7.119,7.119,0,0,1-.156-10.076l.877-.9Zm-50.919-9.429a50.158,50.158,0,1,0-50.158-50.158A50.237,50.237,0,0,0,354.052,411.43Zm-29.219-43.086a8,8,0,0,1,11.314-11.314l8.365,8.365,27.761-25.184a8,8,0,0,1,10.75,11.851l-33.4,30.3a8,8,0,0,1-11.032-.269ZM83.024,198.111a38.534,38.534,0,1,1-10.517-12.058l52.359-45.607a38.075,38.075,0,0,1-4.843-18.618,38.416,38.416,0,1,1,75.648,9.452l41.618,20.525a38.335,38.335,0,0,1,49.176-9.584L388.219,28.026l-3.2.173a8,8,0,0,1-.864-15.977l22.394-1.21a8,8,0,0,1,8.423,7.617l1.04,22.4a8,8,0,0,1-15.983.742l-.13-2.8-101.5,113.91a38.407,38.407,0,1,1-68.208,13.259l-41.633-20.533a38.307,38.307,0,0,1-53.169,6.893Zm75.4-53.886a22.416,22.416,0,1,0-22.4-22.4A22.466,22.466,0,0,0,158.419,144.225Zm109.023,53.767a22.416,22.416,0,1,0-22.435-22.4A22.437,22.437,0,0,0,267.442,197.992ZM49.435,239.157A22.416,22.416,0,1,0,27,216.76,22.448,22.448,0,0,0,49.435,239.157Zm260.944,205.8h-278a7.393,7.393,0,0,1-7.394-7.394V425.14a7.393,7.393,0,0,1,7.394-7.394H278.428a94.774,94.774,0,0,0,31.951,27.213Zm-41.61-43.213H258.076V264.1a3,3,0,0,1,3-3h52.693a3,3,0,0,1,3,3v10.439a94.468,94.468,0,0,0-48,127.2ZM367.1,267.789V176.8a3,3,0,0,0-3-3H342.753a3,3,0,0,1-2.342-4.875l54.059-67.555a3,3,0,0,1,4.685,0l54.059,67.555a3,3,0,0,1-2.342,4.875h-22.08a3,3,0,0,0-3,3V299.943A94.227,94.227,0,0,0,367.1,267.789ZM40.069,401.746V323.141a3,3,0,0,1,3-3H95.8a3,3,0,0,1,3,3v78.605Zm109.023,0V224.085a3,3,0,0,1,3-3h52.693a3,3,0,0,1,3,3V401.746Z" transform="translate(-11 -11)" fill="#fff" fill-rule="evenodd"/>
</svg>
