<svg id="Layer_1" viewBox="0 0 64 64" xmlns="http://www.w3.org/2000/svg" data-name="Layer 1" width="300" height="300" version="1.1" xmlns:xlink="http://www.w3.org/1999/xlink" xmlns:svgjs="http://svgjs.dev/svgjs"><g width="100%" height="100%" transform="matrix(1,0,0,1,0,0)"><path d="m13.525 20.144c0 2.075 1.688 3.763 3.764 3.763s3.763-1.688 3.763-3.763v-3.045h-7.526v3.045z" fill="#ffffff" fill-opacity="1" data-original-color="#000000ff" stroke="none" stroke-opacity="1"/><path d="m21.166 15.099 1.189-9.767h-4.831l-3.568 9.767z" fill="#ffffff" fill-opacity="1" data-original-color="#000000ff" stroke="none" stroke-opacity="1"/><path d="m24.37 5.332-1.189 9.767h7.267l-1.189-9.767z" fill="#ffffff" fill-opacity="1" data-original-color="#000000ff" stroke="none" stroke-opacity="1"/><path d="m48.85 15.099-5.947-9.767h-4.668l3.568 9.767z" fill="#ffffff" fill-opacity="1" data-original-color="#000000ff" stroke="none" stroke-opacity="1"/><path d="m31.99 44.7c0 7.702 6.266 13.968 13.968 13.968 3.492 0 6.68-1.297 9.132-3.422l-9.84-9.84c-.094-.094-.167-.206-.217-.327-.05-.122-.076-.25-.076-.38v-13.917c-7.235.517-12.967 6.553-12.967 13.918z" fill="#ffffff" fill-opacity="1" data-original-color="#000000ff" stroke="none" stroke-opacity="1"/><path d="m15.394 5.332h-4.668l-5.947 9.767h7.047z" fill="#ffffff" fill-opacity="1" data-original-color="#000000ff" stroke="none" stroke-opacity="1"/><path d="m46.957 42.285 8.132-8.132c-2.215-1.92-5.033-3.15-8.132-3.371z" fill="#ffffff" fill-opacity="1" data-original-color="#000000ff" stroke="none" stroke-opacity="1"/><path d="m36.105 5.332h-4.832l1.19 9.767h7.21z" fill="#ffffff" fill-opacity="1" data-original-color="#000000ff" stroke="none" stroke-opacity="1"/><path d="m23.052 20.144c0 2.075 1.688 3.763 3.763 3.763s3.763-1.688 3.763-3.763v-3.045h-7.525v3.045z" fill="#ffffff" fill-opacity="1" data-original-color="#000000ff" stroke="none" stroke-opacity="1"/><path d="m36.341 23.907c2.075 0 3.763-1.688 3.763-3.763v-3.045h-7.526v3.045c0 2.075 1.688 3.763 3.764 3.763z" fill="#ffffff" fill-opacity="1" data-original-color="#000000ff" stroke="none" stroke-opacity="1"/><path d="m45.866 23.907c2.075 0 3.763-1.688 3.763-3.763v-3.045h-7.525v3.045c0 2.075 1.688 3.763 3.763 3.763z" fill="#ffffff" fill-opacity="1" data-original-color="#000000ff" stroke="none" stroke-opacity="1"/><path d="m29.99 44.7c0-8.798 7.152-15.956 15.947-15.967.007 0 .013-.004.02-.004s.012.004.019.004c.451 0 .896.03 1.337.068v-3.085c-.463.121-.947.191-1.447.191-1.977 0-3.724-1.002-4.763-2.524-1.038 1.522-2.785 2.524-4.763 2.524s-3.725-1.002-4.763-2.524c-1.038 1.522-2.785 2.524-4.763 2.524s-3.724-1.002-4.763-2.524c-1.038 1.522-2.785 2.524-4.763 2.524s-3.725-1.002-4.763-2.524c-1.038 1.522-2.785 2.524-4.763 2.524-.501 0-.984-.071-1.447-.191v20.538h23.754c-.05-.511-.079-1.029-.079-1.553z" fill="#ffffff" fill-opacity="1" data-original-color="#000000ff" stroke="none" stroke-opacity="1"/><path d="m7.763 23.907c2.075 0 3.763-1.688 3.763-3.763v-3.045h-7.526v3.045c0 2.075 1.688 3.763 3.763 3.763z" fill="#ffffff" fill-opacity="1" data-original-color="#000000ff" stroke="none" stroke-opacity="1"/><path d="m56.504 53.832c2.126-2.452 3.423-5.64 3.423-9.132s-1.297-6.681-3.424-9.133l-9.132 9.132z" fill="#ffffff" fill-opacity="1" data-original-color="#000000ff" stroke="none" stroke-opacity="1"/></g></svg>