<svg xmlns="http://www.w3.org/2000/svg" width="462.087" height="377.33" viewBox="0 0 462.087 377.33">
  <g id="_x32_1_STOCK_VALUATION" transform="translate(-8.385 -53.804)">
    <g id="Group_3" data-name="Group 3" transform="translate(8.385 53.804)" opacity="0.99">
      <path id="Path_45" data-name="Path 45" d="M422.725,230.221a30.086,30.086,0,0,0-20.069,7.656l-42.312-35.29a29.98,29.98,0,0,0,4.44-15.72,30.329,30.329,0,1,0-56.219,15.72L266.3,237.876a30.174,30.174,0,0,0-37.556-2.084l-28.45-29.537A90.466,90.466,0,1,0,57.637,192.031L20.354,218.623A28.52,28.52,0,1,0,60.129,258.4l26.547-37.283a90.143,90.143,0,0,0,107.093-8.608l28.45,29.582a30.313,30.313,0,1,0,49.877,2.718l42.312-35.29a30,30,0,0,0,40.137,0l42.311,35.29a30.286,30.286,0,0,0,25.867,46.072,30.33,30.33,0,1,0,0-60.66ZM52.745,253.144a19.458,19.458,0,1,1-27.135-27.136L62.8,199.461a87.718,87.718,0,0,0,7.656,8.833,92.656,92.656,0,0,0,8.789,7.61Zm124.036-71.351-18.3-19.072a30.373,30.373,0,1,0-6.523,6.3L170.3,188.135a57.136,57.136,0,1,1,6.478-6.342Zm69.447,100.026a21.269,21.269,0,1,1,21.246-21.292A21.326,21.326,0,0,1,246.229,281.819Zm176.5,0a21.269,21.269,0,1,1,21.292-21.292A21.286,21.286,0,0,1,422.725,281.819Z" transform="translate(-8.385 -53.804)" fill="#fff"/>
      <path id="Path_46" data-name="Path 46" d="M473.248,436.052h-8.97V357.363a11.91,11.91,0,0,0-11.869-11.869H407.651a11.91,11.91,0,0,0-11.869,11.869v78.689H376.031V295.707a11.911,11.911,0,0,0-11.869-11.87H319.4a11.88,11.88,0,0,0-11.869,11.87V436.052H287.782V361.259a11.929,11.929,0,0,0-11.915-11.915H231.154a11.89,11.89,0,0,0-11.869,11.915v74.793H199.534v-161.5a11.919,11.919,0,0,0-11.914-11.869H142.907a11.919,11.919,0,0,0-11.914,11.869v161.5h-8.924a4.53,4.53,0,0,0,0,9.06H473.247a4.53,4.53,0,0,0,0-9.06Zm-282.774,0H140.053v-161.5a2.833,2.833,0,0,1,2.854-2.809h44.713a2.833,2.833,0,0,1,2.854,2.809v161.5Zm176.5,0H316.594V295.707A2.822,2.822,0,0,1,319.4,292.9H364.16a2.823,2.823,0,0,1,2.809,2.809V436.052Z" transform="translate(-15.689 -67.782)" fill="#fff"/>
      <path id="Path_47" data-name="Path 47" d="M360.582,314.157v46.12a4.53,4.53,0,0,0,9.06,0v-46.12a4.53,4.53,0,0,0-9.06,0Z" transform="translate(-31.954 -70.924)" fill="#fff"/>
    </g>
  </g>
</svg>
