<svg xmlns="http://www.w3.org/2000/svg" width="416.53" height="415.419" viewBox="0 0 416.53 415.419">
  <path id="standard-operating-procedures" d="M358.676,234.946H336.685V242.8h-.023a5.818,5.818,0,0,1-4.129,5.565,56.52,56.52,0,0,0-8.9,3.642,5.842,5.842,0,0,1-7.3-.773l-5.557-5.557-15.551,15.551,5.558,5.557-.015.015a5.819,5.819,0,0,1,1.018,6.851,56.536,56.536,0,0,0-3.725,8.861,5.841,5.841,0,0,1-5.713,4.628h-7.854v21.991h7.854v.023a5.818,5.818,0,0,1,5.565,4.129,56.438,56.438,0,0,0,3.643,8.9,5.842,5.842,0,0,1-.773,7.3l-5.558,5.557,15.551,15.551,5.557-5.558.015.015a5.819,5.819,0,0,1,6.851-1.018,56.588,56.588,0,0,0,8.861,3.725,5.841,5.841,0,0,1,4.627,5.713v7.854h21.991v-7.854h.023a5.818,5.818,0,0,1,4.129-5.565,56.436,56.436,0,0,0,8.9-3.643,5.842,5.842,0,0,1,7.3.773l5.557,5.557,15.551-15.551-5.558-5.557.015-.015a5.819,5.819,0,0,1-1.018-6.851,56.5,56.5,0,0,0,3.725-8.861,5.841,5.841,0,0,1,5.713-4.627h7.854V287.138h-7.854v-.023a5.818,5.818,0,0,1-5.565-4.129,56.393,56.393,0,0,0-3.643-8.9,5.842,5.842,0,0,1,.773-7.3l5.558-5.558-15.551-15.551-5.557,5.557-.015-.015a5.819,5.819,0,0,1-6.851,1.018,56.583,56.583,0,0,0-8.86-3.725,5.841,5.841,0,0,1-4.628-5.713v-7.854Zm-23.365-11.678H360.05a10.319,10.319,0,0,1,10.3,10.3v5.073l3.359,1.392c3.25-3.249,5.763-6.6,10.874-6.6a10.275,10.275,0,0,1,7.285,3.013l17.494,17.494a10.315,10.315,0,0,1,0,14.571l-3.588,3.588,1.392,3.359c4.852,0,8.738-.6,12.356,3.022a10.276,10.276,0,0,1,3.022,7.282V310.5a10.263,10.263,0,0,1-3.034,7.27l.012.012c-3.618,3.618-7.5,3.022-12.355,3.022l-1.392,3.359c3.43,3.43,6.6,5.759,6.6,10.873a10.283,10.283,0,0,1-3.024,7.274l.012.012L391.873,359.82a10.324,10.324,0,0,1-14.571,0l-3.588-3.588-3.359,1.392c0,4.851.6,8.738-3.022,12.356A10.276,10.276,0,0,1,360.051,373H335.312a10.263,10.263,0,0,1-7.27-3.034l-.012.012c-3.618-3.618-3.022-7.5-3.022-12.355l-3.359-1.392c-3.43,3.43-5.759,6.6-10.874,6.6a10.275,10.275,0,0,1-7.285-3.013L286,342.326a10.293,10.293,0,0,1,.012-14.559l-.012-.012,3.588-3.587-1.392-3.359c-4.664,0-8.775.61-12.344-3.034l-.012.012a10.276,10.276,0,0,1-3.022-7.282V285.766a10.319,10.319,0,0,1,10.3-10.3h5.073l1.392-3.359c-3.25-3.25-6.6-5.762-6.6-10.874a10.262,10.262,0,0,1,3.024-7.274l-.012-.012,17.494-17.494a10.3,10.3,0,0,1,14.559.012l.012-.012,3.587,3.587,3.359-1.392c0-4.851-.6-8.737,3.022-12.355a10.276,10.276,0,0,1,7.282-3.022Zm27.558,59.679a21.48,21.48,0,0,1,0,30.376c-13.493,13.493-36.666,3.892-36.666-15.188S349.375,269.453,362.869,282.946Zm-15.188-17.969a33.157,33.157,0,1,1-33.157,33.157A33.159,33.159,0,0,1,347.681,264.977ZM34.431,73.469h24a5.979,5.979,0,0,0,5.947-5.947V37.18ZM161.6,145.845a5.839,5.839,0,0,1,0-11.678H289.611a5.839,5.839,0,1,1,0,11.678Zm0,32.041a5.839,5.839,0,0,1,0-11.678H289.611a5.839,5.839,0,1,1,0,11.678Zm-39.788-45.548H74.431v47.377h47.378V153.86l-16.27,15.858a5.832,5.832,0,0,1-7.9.639L78.932,155.646a5.832,5.832,0,0,1,7.208-9.169l14.7,11.56L121.808,137.6v-5.259ZM68.592,120.659h59.056a5.84,5.84,0,0,1,5.833,5.561l1.11-1.082a5.823,5.823,0,0,1,8.12,8.348l-9.224,8.99v43.078a5.839,5.839,0,0,1-5.839,5.839H68.592a5.839,5.839,0,0,1-5.839-5.839V126.5a5.839,5.839,0,0,1,5.839-5.839Zm53.217,103.58H74.431v47.377h47.378V245.762l-16.27,15.858a5.833,5.833,0,0,1-7.9.639L78.932,247.548a5.832,5.832,0,0,1,7.208-9.169l14.7,11.56L121.808,229.5V224.24ZM68.592,212.562h59.056a5.84,5.84,0,0,1,5.833,5.561l1.11-1.082a5.823,5.823,0,0,1,8.12,8.348l-9.224,8.99v43.078a5.839,5.839,0,0,1-5.839,5.839H68.592a5.839,5.839,0,0,1-5.839-5.839V218.4a5.839,5.839,0,0,1,5.839-5.839Zm53.217,103.58H74.431v47.377h47.378V337.664l-16.27,15.858a5.833,5.833,0,0,1-7.9.639L78.932,339.45a5.832,5.832,0,0,1,7.208-9.169l14.7,11.56L121.808,321.4v-5.259ZM68.592,304.464h59.056a5.84,5.84,0,0,1,5.833,5.561l1.11-1.082a5.823,5.823,0,0,1,8.12,8.348l-9.224,8.99v43.078a5.839,5.839,0,0,1-5.839,5.839H68.592a5.839,5.839,0,0,1-5.839-5.839V310.3a5.839,5.839,0,0,1,5.839-5.839ZM339.967,181.731l6.03-1.738a5.787,5.787,0,0,1,3.28-.025l16.206,4.67V66.788a5.981,5.981,0,0,0-5.947-5.947h-19.57V181.728ZM313.395,411.616H33.855a5.979,5.979,0,0,1-5.947-5.946V85.147H58.435A17.661,17.661,0,0,0,76.06,67.522v-39H322.342a5.981,5.981,0,0,1,5.947,5.948V185.094l-84.8,24.439a5.814,5.814,0,0,0-4.217,5.588h-.026v10.947H161.6a5.839,5.839,0,1,0,0,11.678h77.645v20.362H161.6a5.839,5.839,0,1,0,0,11.678h77.645c0,18.234-.269,29.6,4.3,48.182H161.6a5.839,5.839,0,1,0,0,11.678h85.323a150.154,150.154,0,0,0,8.516,20.362H161.6a5.839,5.839,0,1,0,0,11.678H262.034A149.507,149.507,0,0,0,313.4,411.612Zm52.089,8.279a146.931,146.931,0,0,1-16.074,5.767,5.8,5.8,0,0,1-3.371.027,146.778,146.778,0,0,1-14.425-5.066,17.7,17.7,0,0,1-9.271,2.673H65.1v14.7a5.978,5.978,0,0,0,5.947,5.945H359.538a5.979,5.979,0,0,0,5.947-5.945V419.9Zm-17.8-5.878a136.625,136.625,0,0,1-69.31-49.084c-9.294-12.464-17.307-27.915-21.552-42.662a136.291,136.291,0,0,1-5.9-39.76V219.489L347.68,191.6l96.758,27.884v63.022c0,60.415-39.808,113.989-96.758,131.507Z" transform="translate(-27.908 -28.519)" fill="#fff" fill-rule="evenodd"/>
</svg>
