<svg xmlns="http://www.w3.org/2000/svg" width="406.784" height="399.52" viewBox="0 0 406.784 399.52">
  <g id="management" transform="translate(0 -0.5)">
    <path id="Path_93" data-name="Path 93" d="M386.112,245.556A29.056,29.056,0,1,1,357.056,216.5,29.057,29.057,0,0,1,386.112,245.556Zm0,0" transform="translate(-30.176 -19.872)" fill="#fff"/>
    <path id="Path_94" data-name="Path 94" d="M114.112,245.556A29.056,29.056,0,1,1,85.056,216.5,29.057,29.057,0,0,1,114.112,245.556Zm0,0" transform="translate(-5.152 -19.872)" fill="#fff"/>
    <path id="Path_95" data-name="Path 95" d="M250.112,213.556A29.056,29.056,0,1,1,221.056,184.5,29.057,29.057,0,0,1,250.112,213.556Zm0,0" transform="translate(-17.664 -16.928)" fill="#fff"/>
    <path id="Path_96" data-name="Path 96" d="M116.427,420.724a35.719,35.719,0,0,1-7.466-21.792v-72.64a65.35,65.35,0,0,1,3.763-21.569c-1.249-.085-2.486-.223-3.763-.223H50.848a50.259,50.259,0,0,0-28.577,8.818A50.9,50.9,0,0,0,0,355.348V384.4a36.382,36.382,0,0,0,21.147,32.972A34.291,34.291,0,0,0,29.056,420V340.82H43.584v79.9Zm0,0" transform="translate(0 -27.968)" fill="#fff"/>
    <path id="Path_97" data-name="Path 97" d="M136.223,440.481c-.078-.057-.142-.131-.223-.188v.188Zm0,0" transform="translate(-12.512 -40.461)" fill="#fff"/>
    <path id="Path_98" data-name="Path 98" d="M289.846,299.47a51.453,51.453,0,0,0-16.287-18.16,18.4,18.4,0,0,0-2.121-1.358A50.77,50.77,0,0,0,244.96,272.5H186.848A50.846,50.846,0,0,0,136,323.348v72.64a21.793,21.793,0,0,0,21.792,21.792h7.264v-101.7h14.528v101.7h72.64v-101.7h14.528v101.7h7.264a21.793,21.793,0,0,0,21.792-21.792v-72.64a50.735,50.735,0,0,0-5.962-23.878Zm0,0" transform="translate(-12.512 -25.024)" fill="#fff"/>
    <path id="Path_99" data-name="Path 99" d="M413.954,313.332a50.277,50.277,0,0,0-28.6-8.832H327.243c-1.27,0-2.508.138-3.756.223a65.451,65.451,0,0,1,3.756,21.569v72.64a35.719,35.719,0,0,1-7.466,21.792H392.62v-79.9h14.528V420a33.461,33.461,0,0,0,7.785-2.586A36.372,36.372,0,0,0,436.2,384.4V355.348a50.9,50.9,0,0,0-22.25-42.016Zm0,0" transform="translate(-29.419 -27.968)" fill="#fff"/>
    <path id="Path_100" data-name="Path 100" d="M215.168,104.5a86.994,86.994,0,0,0-79.142,123.488h41.456a43.584,43.584,0,1,1,75.371,0h41.491A86.993,86.993,0,0,0,215.168,104.5Zm0,0" transform="translate(-11.776 -9.568)" fill="#fff"/>
    <path id="Path_101" data-name="Path 101" d="M379.936,153.044H340.711l-1.412-5.455A134.2,134.2,0,0,0,324.484,112.1l-2.908-4.859,27.85-27.9a7.2,7.2,0,0,0,0-10.2L318.579,38.274a7.367,7.367,0,0,0-10.172,0l-27.9,27.9-4.859-2.9a134.5,134.5,0,0,0-35.536-14.826l-5.455-1.419V7.764A7.264,7.264,0,0,0,227.392.5H183.808a7.264,7.264,0,0,0-7.264,7.264V46.989L171.089,48.4a134.512,134.512,0,0,0-35.5,14.808l-4.859,2.908L102.836,38.274a7.365,7.365,0,0,0-10.2,0L61.774,69.121a7.2,7.2,0,0,0,0,10.215l27.9,27.9-2.9,4.859A134.209,134.209,0,0,0,71.95,147.589l-1.426,5.455H31.264A7.264,7.264,0,0,0,24,160.308v43.584a7.264,7.264,0,0,0,7.264,7.264h9.828a43.468,43.468,0,0,1,63.117-23.012c-.117-2.011-.305-4-.305-6.044a101.7,101.7,0,0,1,203.392,0c0,2.039-.188,4.033-.305,6.044a43.468,43.468,0,0,1,63.117,23.012h9.828a7.264,7.264,0,0,0,7.264-7.264V160.308a7.264,7.264,0,0,0-7.264-7.264Zm0,0" transform="translate(-2.208)" fill="#fff"/>
  </g>
</svg>
