<svg xmlns="http://www.w3.org/2000/svg" width="408.959" height="359.436" viewBox="0 0 408.959 359.436">
  <g id="book" transform="translate(0 -31)">
    <path id="Path_104" data-name="Path 104" d="M198.737,249.962A23.961,23.961,0,0,0,174.775,226H31v47.925H198.737Z" transform="translate(-6.239 -39.244)" fill="#fff"/>
    <path id="Path_105" data-name="Path 105" d="M271,249.962v23.962H438.737V226H294.962A23.961,23.961,0,0,0,271,249.962Z" transform="translate(-54.539 -39.244)" fill="#fff"/>
    <path id="Path_106" data-name="Path 106" d="M222.793,102.887A59.974,59.974,0,0,1,282.7,162.793h71.887V126.85H324.074a107.8,107.8,0,0,0-4.273-10.24l21.6-21.59L290.567,44.187l-21.59,21.6a107.8,107.8,0,0,0-10.24-4.273V31H186.85V61.512a107.806,107.806,0,0,0-10.24,4.273l-21.59-21.6L104.187,95.02l21.6,21.59a107.809,107.809,0,0,0-4.273,10.24H91v35.944h71.887a59.974,59.974,0,0,1,59.906-59.906Z" transform="translate(-18.314 0)" fill="#fff"/>
    <path id="Path_107" data-name="Path 107" d="M264.385,339.962H408.959V316H0v23.962H144.573v59.906H94.588a35.944,35.944,0,1,0,0,23.962h73.948V339.962H192.5V447.793h23.962V339.962h23.962v83.868h73.948a35.944,35.944,0,1,0,0-23.962H264.385Z" transform="translate(0 -57.357)" fill="#fff"/>
  </g>
</svg>
