<svg xmlns="http://www.w3.org/2000/svg" width="416.994" height="416.993" viewBox="0 0 416.994 416.993">
  <g id="flexibility" transform="translate(0 0)">
    <path id="Path_75" data-name="Path 75" d="M404.777,231H322.519A12.217,12.217,0,0,0,310.3,243.217v8.144a101.805,101.805,0,0,1-203.61,0v-8.144A12.217,12.217,0,0,0,94.475,231H12.217A12.217,12.217,0,0,0,0,243.217v49.036a12.217,12.217,0,0,0,11.2,12.174l17.958,1.5a20.5,20.5,0,0,1,13.945,33.666l-11.64,13.757a12.217,12.217,0,0,0,.687,16.53l57.829,57.83a12.215,12.215,0,0,0,16.53.687l13.757-11.64A20.5,20.5,0,0,1,153.934,430.7l1.5,17.958a12.217,12.217,0,0,0,12.175,11.2h81.784a12.217,12.217,0,0,0,12.174-11.2l1.5-17.958a20.5,20.5,0,0,1,33.666-13.946l13.757,11.641a12.215,12.215,0,0,0,16.53-.687l57.829-57.83a12.217,12.217,0,0,0,.687-16.53l-11.64-13.757a20.5,20.5,0,0,1,13.945-33.666l17.958-1.5a12.217,12.217,0,0,0,11.2-12.174V243.217A12.217,12.217,0,0,0,404.777,231Z" transform="translate(0 -42.864)" fill="#fff"/>
    <path id="Path_76" data-name="Path 76" d="M87.493,100.694a12.217,12.217,0,0,0,22.96-8.356l-5.67-15.579,64.7,30.169a68.715,68.715,0,0,1,39.729,58.544,44.794,44.794,0,1,0,24.917,0,68.714,68.714,0,0,1,39.729-58.544l64.7-30.169-5.67,15.579a12.217,12.217,0,0,0,22.96,8.356L371.606,57.4a12.216,12.216,0,0,0-7.3-15.658L321.011,25.985a12.217,12.217,0,0,0-8.356,22.96l15.579,5.67-64.7,30.169a93.218,93.218,0,0,0-29.645,21.84V41.71l11.723,11.723a12.216,12.216,0,0,0,17.277-17.277L230.31,3.579a12.216,12.216,0,0,0-17.277,0L180.455,36.156a12.217,12.217,0,0,0,17.277,17.277L209.454,41.71v64.914a93.218,93.218,0,0,0-29.645-21.84l-64.7-30.17,15.579-5.67a12.217,12.217,0,0,0-8.356-22.96L79.038,41.742a12.216,12.216,0,0,0-7.3,15.658Z" transform="translate(-13.174 0)" fill="#fff"/>
  </g>
</svg>
