<svg xmlns="http://www.w3.org/2000/svg" width="409.165" height="424.192" viewBox="0 0 409.165 424.192">
  <g id="report" transform="translate(-146.066 -98)">
    <g id="Group_2" data-name="Group 2" transform="translate(146.066 98)">
      <path id="Path_36" data-name="Path 36" d="M630.374,234.347v242.4a45.462,45.462,0,0,1-45.463,45.449H342.443a45.461,45.461,0,0,1-45.463-45.449V368.7A128.786,128.786,0,1,0,319.712,113.15c-3.919,0-7.794.182-11.6.515A45.386,45.386,0,0,1,342.443,98H493.986v90.9a45.462,45.462,0,0,0,45.463,45.449Zm-242.468,212.1v-15.15a15.154,15.154,0,0,0-30.308,0v15.15a15.154,15.154,0,0,0,30.308,0Zm60.617,0v-60.6a15.154,15.154,0,0,0-30.308,0v60.6a15.154,15.154,0,0,0,30.308,0Zm60.617,0V400.994a15.154,15.154,0,0,0-30.308,0v45.449a15.154,15.154,0,0,0,30.308,0Zm60.617,0V340.4a15.154,15.154,0,0,0-30.308,0V446.443a15.154,15.154,0,0,0,30.308,0ZM524.294,98.288a45.472,45.472,0,0,1,28.49,14.589l65.769,72.31a45.622,45.622,0,0,1,10.283,18.861H539.448a15.154,15.154,0,0,1-15.154-15.15ZM417.046,257.072A98.5,98.5,0,1,1,304.558,144.616v82.157a30.3,30.3,0,0,0,30.308,30.3ZM334.866,144.616a98.6,98.6,0,0,1,82.179,82.157H334.866Z" transform="translate(-221.209 -98)" fill="#fff" fill-rule="evenodd"/>
    </g>
  </g>
</svg>
