<svg xmlns="http://www.w3.org/2000/svg" width="454.223" height="405.752" viewBox="0 0 454.223 405.752">
  <g id="puzzle" transform="translate(0 0)">
    <path id="Path_34" data-name="Path 34" d="M424.239,300.388l56.525-56.521-56.525-56.525,9.107-9.107A40.411,40.411,0,0,0,376.2,121.082l-9.107,9.107L310.566,73.665,293.886,90.347v26.365a67.069,67.069,0,0,1,0,130.481v81.753H244.954L235.2,338.7l75.366,75.363L367.09,357.54l7.849,7.853a40.413,40.413,0,0,0,57.152-57.152Zm0,0" transform="translate(-26.541 -8.313)" fill="#fff"/>
    <path id="Path_35" data-name="Path 35" d="M240.7,293.991V214.054h11.1a40.412,40.412,0,1,0,0-80.825H240.7V53.292H160.762V40.414a40.412,40.412,0,1,0-80.825,0V53.292H0v79.937H11.1a40.475,40.475,0,0,1,39.617,32.43,13.677,13.677,0,0,1,0,15.965A40.479,40.479,0,0,1,11.1,214.054H0v79.937H79.937V281.11a40.412,40.412,0,0,1,80.825,0v12.881Zm0,0" fill="#fff"/>
  </g>
</svg>
