<svg xmlns="http://www.w3.org/2000/svg" width="425.921" height="426.569" viewBox="0 0 425.921 426.569">
  <g id="assembly" transform="translate(-0.387)">
    <path id="Path_108" data-name="Path 108" d="M252.292,420A12.305,12.305,0,0,0,240,432.292c.674,16.307,23.912,16.3,24.584,0A12.3,12.3,0,0,0,252.292,420Z" transform="translate(-38.944 -67.182)" fill="#fff"/>
    <path id="Path_109" data-name="Path 109" d="M387.292,420A12.3,12.3,0,0,0,375,432.292c.674,16.307,23.912,16.3,24.584,0A12.3,12.3,0,0,0,387.292,420Z" transform="translate(-60.885 -67.182)" fill="#fff"/>
    <path id="Path_110" data-name="Path 110" d="M363.9,360H62.794c-83.241,3.385-83.177,119.564,0,122.919H363.9C447.143,479.533,447.079,363.355,363.9,360ZM100.433,458.335c-20.753,0-37.638-16.542-37.638-36.876,2.068-48.921,73.218-48.906,75.277,0C138.071,441.793,121.187,458.335,100.433,458.335Zm112.915,0c-20.753,0-37.639-16.542-37.639-36.876,2.068-48.921,73.218-48.906,75.277,0C250.987,441.793,234.1,458.335,213.348,458.335Zm112.915,0c-20.755,0-37.639-16.542-37.639-36.876,2.067-48.921,73.218-48.906,75.277,0C363.9,441.793,347.018,458.335,326.264,458.335Z" transform="translate(0 -56.349)" fill="#fff"/>
    <path id="Path_111" data-name="Path 111" d="M117.292,420A12.305,12.305,0,0,0,105,432.292c.674,16.307,23.912,16.3,24.584,0A12.305,12.305,0,0,0,117.292,420Z" transform="translate(-17.002 -67.182)" fill="#fff"/>
    <path id="Path_112" data-name="Path 112" d="M45,225h98.335v86.043H45Z" transform="translate(-8.054 -35.819)" fill="#fff"/>
    <path id="Path_113" data-name="Path 113" d="M195,225h98.335v86.043H195Z" transform="translate(-30.819 -35.819)" fill="#fff"/>
    <path id="Path_114" data-name="Path 114" d="M345,225h98.335v86.043H345Z" transform="translate(-53.584 -35.819)" fill="#fff"/>
    <path id="Path_115" data-name="Path 115" d="M222.172,63.573a37.606,37.606,0,0,0-24.32,25.51L160.99,100.91,146.2,143.616l24.233,7.774,10.752-31.045,19.177-6.152c13.777,27.888,55.4,27.871,69.169,0l19.176,6.152,10.752,31.045,24.233-7.774L308.9,100.91,272.036,89.083a37.609,37.609,0,0,0-24.321-25.51V24.584H349.886V0H120V24.584H222.172Z" transform="translate(-21.595)" fill="#fff"/>
  </g>
</svg>
