<svg xmlns="http://www.w3.org/2000/svg" width="411.519" height="408.585" viewBox="0 0 411.519 408.585">
  <path id="project-management" d="M290.609,364.447a44.511,44.511,0,0,1,36.979,13.108,13.518,13.518,0,0,0,19.116,0l29.1-29.1a13.517,13.517,0,0,0,0-19.116c-28.65-28.65-8.32-77.738,32.2-77.738a13.515,13.515,0,0,0,13.516-13.517V196.938A13.515,13.515,0,0,0,408,183.421c-40.521,0-60.85-49.089-32.2-77.738a13.517,13.517,0,0,0,0-19.116l-29.1-29.1a13.518,13.518,0,0,0-19.116,0c-28.65,28.65-77.739,8.32-77.739-32.2a13.514,13.514,0,0,0-13.516-13.516h-41.15a13.514,13.514,0,0,0-13.516,13.516c0,40.52-49.089,60.85-77.739,32.2a13.518,13.518,0,0,0-19.116,0l-29.1,29.1a13.518,13.518,0,0,0,0,19.116c28.65,28.65,8.319,77.738-32.2,77.738A13.515,13.515,0,0,0,10,196.938v41.149A13.515,13.515,0,0,0,23.516,251.6c40.519,0,60.85,49.089,32.2,77.738a13.518,13.518,0,0,0,0,19.116l29.1,29.1a13.518,13.518,0,0,0,19.116,0A44.561,44.561,0,0,1,140.9,364.414a22.976,22.976,0,0,1,5.083-24.9,23.128,23.128,0,0,1,8.327-5.342c-7.012-21.828-19.852-45.773-36.689-85.963-28.023-66.881,25.215-141.429,98.142-141.429S341.923,181.332,313.9,248.212c-16.838,40.19-29.678,64.135-36.689,85.963A23.119,23.119,0,0,1,292.3,355.8a22.892,22.892,0,0,1-1.692,8.652Zm-128.353-2.5a6.156,6.156,0,0,1,0-12.311H269.263a6.156,6.156,0,0,1,0,12.311Zm20.023,58.387h66.96a6.156,6.156,0,0,0,0-12.311h-66.96a6.156,6.156,0,0,0,0,12.311Zm-20.023-41.5H269.263a6.156,6.156,0,0,1,0,12.311H162.257a6.156,6.156,0,0,1,0-12.311Zm28.48-46.076V243.68H175.5a32.088,32.088,0,1,1,32.118-32.118V226.8H223.9V211.562a32.088,32.088,0,1,1,32.118,32.118H240.782v89.076H223.9V243.68H207.619v89.076H190.736Zm0-105.959H175.5a15.208,15.208,0,1,1,15.236-15.236Zm50.046,0V211.562A15.208,15.208,0,1,1,256.018,226.8Z" transform="translate(-10 -11.752)" fill="#fff" fill-rule="evenodd"/>
</svg>
