<svg xmlns="http://www.w3.org/2000/svg" width="333.896" height="390.772" viewBox="0 0 333.896 390.772">
  <g id="premium-badge" transform="translate(-26.93)">
    <g id="Layer_5_21_" transform="translate(26.93)">
      <g id="Group_4" data-name="Group 4">
        <path id="Path_102" data-name="Path 102" d="M359.3,332.028s-43.372-74.543-51.152-87.912c8.852-2.7,18.281-5.085,22.2-11.85,6.529-11.272-5.093-29.763-2.041-41.845,3.144-12.435,21.7-23.195,21.7-35.834,0-12.314-19.187-26.7-22.333-39.062-3.073-12.08,8.515-30.591,1.964-41.849S301.272,63.34,292.291,54.7c-9.241-8.894-9.213-30.654-20.359-36.615-11.192-5.982-29.381,6.108-41.807,3.244C217.84,18.5,206.864,0,194.033,0,181.011,0,160.3,20.981,157.051,21.736c-12.42,2.887-30.632-9.174-41.812-3.166-11.136,5.98-11.067,27.743-20.292,36.652C85.98,63.88,64.16,63,57.63,74.267s5.093,29.757,2.042,41.845c-3.059,12.119-22.264,24.4-22.264,38.414,0,12.641,18.605,23.367,21.768,35.8,3.074,12.08-8.514,30.589-1.963,41.851,3.566,6.13,11.657,8.647,19.738,11.066.943.282,2.727,1.337,1.519,3.1-5.528,9.542-50.024,86.335-50.024,86.335-3.54,6.108-.665,11.344,6.386,11.641l34.514,1.439c7.051.3,15.9,5.421,19.66,11.39l18.417,29.225c3.764,5.97,9.736,5.858,13.274-.249,0,0,51.531-88.966,51.552-88.991,1.034-1.208,2.073-.96,2.57-.538,5.638,4.8,13.5,9.59,20.058,9.59,6.433,0,12.39-4.508,18.283-9.536.479-.409,1.646-1.246,2.5.492.014.027,51.488,88.507,51.488,88.507,3.548,6.1,9.521,6.2,13.273.226l18.365-29.259c3.753-5.974,12.589-11.118,19.64-11.425l34.511-1.5C359.985,343.369,362.85,338.126,359.3,332.028ZM251.072,252a114.383,114.383,0,1,1-2.289-199.424c.285.155.567.316.85.474q.6.334,1.2.677A114.594,114.594,0,0,1,251.072,252Z" transform="translate(-26.93)" fill="#fff"/>
        <path id="Path_103" data-name="Path 103" d="M238.628,66.81c-.158-.092-.319-.177-.477-.268a96.431,96.431,0,0,0-99.564,165.147c1.1.695,2.207,1.378,3.341,2.035a96.451,96.451,0,1,0,96.7-166.914Zm11.513,75.232-16.114,15.706c-4.991,4.864-8.11,14.465-6.931,21.335l3.8,22.178c1.179,6.869-2.9,9.836-9.073,6.593l-19.918-10.472c-6.169-3.243-16.264-3.243-22.433,0l-19.917,10.472c-6.169,3.243-10.253.277-9.074-6.593l3.8-22.178c1.179-6.869-1.941-16.471-6.932-21.335l-16.113-15.706c-4.992-4.864-3.431-9.665,3.466-10.668l22.267-3.236c6.9-1,15.064-6.936,18.149-13.186l9.958-20.178c3.085-6.25,8.132-6.25,11.216,0l9.959,20.178c3.085,6.25,11.251,12.183,18.149,13.186l22.267,3.236C253.571,132.377,255.131,137.178,250.14,142.042Z" transform="translate(-23.212 2.997)" fill="#fff"/>
      </g>
    </g>
  </g>
</svg>
