<svg xmlns="http://www.w3.org/2000/svg" width="128.944" height="114.751" viewBox="0 0 128.944 114.751">
  <path id="market-research" d="M136.4,126.144a7.286,7.286,0,0,1-10.275,0l-19.78-19.78a3.513,3.513,0,0,1-.169-4.775l-.833-.833a5.76,5.76,0,0,0-7.092-.887A33.768,33.768,0,0,1,89.6,103.5V95.141a25.982,25.982,0,1,0-27.367-6.432l-2.08,2.6a10.913,10.913,0,0,0-1.526-.107,10.8,10.8,0,0,0-4.123.813A33.959,33.959,0,1,1,110.12,88a5.761,5.761,0,0,0,.887,7.092l.833.833a3.513,3.513,0,0,1,4.775.169l19.78,19.78A7.287,7.287,0,0,1,136.4,126.144ZM21.8,130.508H11.681a1.311,1.311,0,0,0-1.308,1.308v18.322a1.311,1.311,0,0,0,1.308,1.308H21.8a1.311,1.311,0,0,0,1.308-1.308V131.816A1.311,1.311,0,0,0,21.8,130.508Zm20.943-24.157H32.624a1.311,1.311,0,0,0-1.308,1.308v42.479a1.311,1.311,0,0,0,1.308,1.308H42.745a1.311,1.311,0,0,0,1.308-1.308V107.659A1.311,1.311,0,0,0,42.745,106.351Zm20.943,8.928H53.567a1.311,1.311,0,0,0-1.308,1.308v33.55a1.311,1.311,0,0,0,1.308,1.308H63.688A1.311,1.311,0,0,0,65,150.138v-33.55A1.311,1.311,0,0,0,63.688,115.28ZM84.631,92.846H74.511A1.311,1.311,0,0,0,73.2,94.154v55.984a1.311,1.311,0,0,0,1.308,1.308H84.631a1.311,1.311,0,0,0,1.308-1.308V94.154A1.311,1.311,0,0,0,84.631,92.846Zm2.106-17.04a7.168,7.168,0,0,1-10.06,6.559L64.382,97.76a7.169,7.169,0,1,1-12.722,2.6l-8.746-4.721a7.164,7.164,0,0,1-8.086,1.676l-12.36,15.693a7.165,7.165,0,1,1-2.875-2.269l12.36-15.693a7.169,7.169,0,1,1,12.7-2.632L53.4,97.138a7.164,7.164,0,0,1,8.118-1.662l12.3-15.4a7.168,7.168,0,1,1,12.923-4.274ZM20.243,117.318a3.505,3.505,0,1,0-3.505,3.505A3.505,3.505,0,0,0,20.243,117.318ZM41.189,90.743a3.505,3.505,0,1,0-3.506,3.505A3.505,3.505,0,0,0,41.189,90.743Zm20.946,11.294a3.505,3.505,0,1,0-3.505,3.505A3.505,3.505,0,0,0,62.134,102.037Zm20.94-26.232a3.505,3.505,0,1,0-3.505,3.505A3.505,3.505,0,0,0,83.074,75.805Z" transform="translate(-9.57 -36.695)" fill="#fff" fill-rule="evenodd"/>
</svg>
