<svg xmlns="http://www.w3.org/2000/svg" width="458.211" height="432.036" viewBox="0 0 458.211 432.036">
  <path id="statisctics" d="M30.966,181.085a11.085,11.085,0,0,1,.785-15.658L138.945,68.47a11.085,11.085,0,0,1,14.85-.02l60.869,54.758,78.871-78.87H290.57a11.086,11.086,0,1,1,0-22.171H320.3a11.086,11.086,0,0,1,11.086,11.086v29.7a11.086,11.086,0,1,1-22.171,0V60.015l-86.307,86.306a11.085,11.085,0,0,1-15.253.4L146.4,91.621,46.624,181.869a11.085,11.085,0,0,1-15.658-.784ZM431.5,350.456H344.405V263.338a5.544,5.544,0,0,0-5.543-5.543A98.2,98.2,0,1,0,437.039,356,5.544,5.544,0,0,0,431.5,350.456ZM368.035,228.623a5.544,5.544,0,0,0-5.543,5.543v92.66a5.544,5.544,0,0,0,5.543,5.543h92.633a5.544,5.544,0,0,0,5.543-5.543A98.3,98.3,0,0,0,368.035,228.623Zm-94.093-95.843a5.544,5.544,0,0,0-5.543,5.543V258.464a119.689,119.689,0,0,1,57.444-22.135V138.323a5.544,5.544,0,0,0-5.543-5.543Zm-26.36,144.833v-73.39a5.544,5.544,0,0,0-5.543-5.543H195.682a5.544,5.544,0,0,0-5.543,5.543V344.912H169.322V169.961a5.543,5.543,0,0,0-5.543-5.543H117.421a5.543,5.543,0,0,0-5.543,5.543V344.912H91.061V239.654a5.544,5.544,0,0,0-5.543-5.543H39.188a5.544,5.544,0,0,0-5.543,5.543V344.912H19.086a11.086,11.086,0,0,0,0,22.172H219c-.334-3.652-.515-7.348-.515-11.086a119.855,119.855,0,0,1,29.094-78.384Z" transform="translate(-8 -22.166)" fill="#fff"/>
</svg>
