<svg xmlns="http://www.w3.org/2000/svg" width="399.75" height="399.75" viewBox="0 0 399.75 399.75">
  <g id="_x31_1" transform="translate(-2 -2)">
    <ellipse id="Ellipse_9" data-name="Ellipse 9" cx="43" cy="42.5" rx="43" ry="42.5" transform="translate(159 173.374)" fill="#fff"/>
    <path id="Path_85" data-name="Path 85" d="M153.768,77.107A57.168,57.168,0,0,0,96.661,20H68.107A57.168,57.168,0,0,0,11,77.107,14.273,14.273,0,0,0,25.277,91.384H139.491A14.273,14.273,0,0,0,153.768,77.107Z" transform="translate(119.491 238.982)" fill="#fff"/>
    <ellipse id="Ellipse_10" data-name="Ellipse 10" cx="42.5" cy="43" rx="42.5" ry="43" transform="translate(31 230.374)" fill="#fff"/>
    <path id="Path_86" data-name="Path 86" d="M87.661,24H59.107A57.168,57.168,0,0,0,2,81.107V95.384a14.273,14.273,0,0,0,14.277,14.277H130.491a14.273,14.273,0,0,0,14.277-14.277V81.107A57.168,57.168,0,0,0,87.661,24Z" transform="translate(0 292.089)" fill="#fff"/>
    <ellipse id="Ellipse_11" data-name="Ellipse 11" cx="42.5" cy="43" rx="42.5" ry="43" transform="translate(288 230.374)" fill="#fff"/>
    <path id="Path_87" data-name="Path 87" d="M105.661,24H77.107A57.168,57.168,0,0,0,20,81.107V95.384a14.273,14.273,0,0,0,14.277,14.277H148.491a14.273,14.273,0,0,0,14.277-14.277V81.107A57.168,57.168,0,0,0,105.661,24Z" transform="translate(238.982 292.089)" fill="#fff"/>
    <path id="Path_88" data-name="Path 88" d="M9.014,2V87.465H94.479A93.01,93.01,0,0,0,9.014,2Z" transform="translate(93.119 0)" fill="#fff"/>
    <path id="Path_89" data-name="Path 89" d="M94.98,187.6A93.045,93.045,0,0,0,187.6,101.77H94.98a7.148,7.148,0,0,1-7.152-7.152V2A92.935,92.935,0,0,0,94.98,187.6Z" transform="translate(0 0)" fill="#fff"/>
    <path id="Path_90" data-name="Path 90" d="M68.83,5H40.277A14.276,14.276,0,0,0,26,19.277v99.937H83.107V19.277A14.276,14.276,0,0,0,68.83,5Z" transform="translate(318.642 39.83)" fill="#fff"/>
    <path id="Path_91" data-name="Path 91" d="M78.107,16.277A14.276,14.276,0,0,0,63.83,2H35.277A14.277,14.277,0,0,0,21,16.277V159.044H78.107Z" transform="translate(252.259 0)" fill="#fff"/>
    <path id="Path_92" data-name="Path 92" d="M73.107,21.277A14.276,14.276,0,0,0,58.83,7H30.277A14.277,14.277,0,0,0,16,21.277V92.661H73.107Z" transform="translate(185.875 66.384)" fill="#fff"/>
  </g>
</svg>
