<svg width="133" height="91" viewBox="0 0 133 91" fill="none" xmlns="http://www.w3.org/2000/svg">
<mask id="mask0_257_1177" style="mask-type:luminance" maskUnits="userSpaceOnUse" x="0" y="0" width="133" height="91">
<path d="M118.046 85.998C114.259 87.211 109.646 87.5395 105.982 87.2867C105.982 87.2867 38.6185 93.776 14.2686 87.1229C-3.75284 82.1989 -1.57725 64.6697 3.93788 53.4498C9.51588 42.1021 -5.12636 20.1672 18.4109 7.44786C31.9492 0.131865 44.092 11.8394 67.4964 3.19638C88.6266 -4.60677 115.883 2.37277 122.549 18.7383C127.134 29.9964 121.354 42.1322 127.134 48.0145C136.509 57.5547 132.198 81.466 118.046 85.998Z" fill="white"/>
</mask>
<g mask="url(#mask0_257_1177)">
<path d="M118.046 85.998C114.259 87.211 109.646 87.5395 105.982 87.2867C105.982 87.2867 38.6185 93.776 14.2686 87.1229C-3.75284 82.1989 -1.57725 64.6697 3.93788 53.4498C9.51588 42.1021 -5.12636 20.1672 18.4109 7.44786C31.9492 0.131865 44.092 11.8394 67.4964 3.19638C88.6266 -4.60677 115.883 2.37277 122.549 18.7383C127.134 29.9964 121.354 42.1322 127.134 48.0145C136.509 57.5547 132.198 81.466 118.046 85.998Z" fill="#DAE6FF"/>
</g>
<mask id="mask1_257_1177" style="mask-type:luminance" maskUnits="userSpaceOnUse" x="0" y="0" width="133" height="91">
<path d="M118.046 85.998C114.259 87.211 109.646 87.5395 105.982 87.2867C105.982 87.2867 38.6185 93.776 14.2686 87.1229C-3.75284 82.1989 -1.57725 64.6697 3.93788 53.4498C9.51588 42.1021 -5.12636 20.1672 18.4109 7.44786C31.9492 0.131865 44.092 11.8394 67.4964 3.19638C88.6266 -4.60677 115.883 2.37277 122.549 18.7383C127.134 29.9964 121.354 42.1322 127.134 48.0145C136.509 57.5547 132.198 81.466 118.046 85.998Z" fill="white"/>
</mask>
<g mask="url(#mask1_257_1177)">
<path d="M116.223 92.9037C116.236 92.9016 116.249 92.8982 116.262 92.8932C116.367 92.8538 116.42 92.7367 116.381 92.6318C106.073 65.2048 97.0801 45.9573 91.0585 38.4345C90.9248 38.2675 90.8282 38.147 90.7904 38.0851C90.7315 37.9894 90.6063 37.9599 90.511 38.0181C90.4153 38.0769 90.3854 38.2019 90.4441 38.2975C90.4953 38.3809 90.588 38.4967 90.7415 38.6883C96.7369 46.1785 105.708 65.3867 116.001 92.7746C116.035 92.8665 116.129 92.9186 116.223 92.9037Z" fill="#BBCFF8"/>
<path d="M87.1337 37.2533C87.8437 38.0952 91.2257 39.5004 91.466 39.2976C91.7064 39.095 90.8927 35.5243 90.1826 34.6824C89.4728 33.8403 88.2147 33.7334 87.3727 34.4433C86.5308 35.1532 86.4238 36.4113 87.1337 37.2533Z" fill="#BBCFF8"/>
<path d="M93.636 39.5203C93.3853 40.6187 94.3199 44.2469 94.6336 44.3185C94.9471 44.3901 97.3632 41.5265 97.6138 40.4279C97.8646 39.3295 97.1773 38.2357 96.0788 37.9851C94.9803 37.7346 93.8866 38.4218 93.636 39.5203Z" fill="#BBCFF8"/>
<path d="M90.167 46.2101C91.2936 46.207 94.6182 44.4793 94.6173 44.1576C94.6164 43.8359 91.2823 42.1268 90.1557 42.1299C89.0289 42.133 88.1181 43.049 88.1211 44.1757C88.1243 45.3024 89.0402 46.2132 90.167 46.2101Z" fill="#BBCFF8"/>
<path d="M104.501 57.4262C103.884 59.214 104.787 65.4376 105.298 65.6138C105.808 65.79 110.358 61.4485 110.975 59.6608C111.592 57.873 110.643 55.9236 108.855 55.3065C107.067 54.6894 105.118 55.6385 104.501 57.4262Z" fill="#BBCFF8"/>
<path d="M97.5026 67.9619C99.3833 68.1606 105.244 65.8788 105.3 65.342C105.357 64.8052 100.102 61.3497 98.2218 61.1511C96.3409 60.9524 94.6552 62.3161 94.4567 64.1968C94.2581 66.0776 95.6217 67.7632 97.5026 67.9619Z" fill="#BBCFF8"/>
<path d="M109.881 64.0949C108.663 66.0627 108.065 73.7354 108.627 74.0832C109.188 74.4308 115.789 70.4739 117.007 68.506C118.225 66.5381 117.617 63.9554 115.649 62.7373C113.682 61.5193 111.099 62.127 109.881 64.0949Z" fill="#BBCFF8"/>
<path d="M99.791 77.9483C102.105 77.9533 108.952 74.4381 108.953 73.7774C108.954 73.1169 102.123 69.5724 99.8089 69.5674C97.4946 69.5625 95.6143 71.4345 95.6094 73.7489C95.6045 76.0631 97.4767 77.9434 99.791 77.9483Z" fill="#BBCFF8"/>
<path d="M113.533 73.0197C112.315 74.9877 111.717 82.6603 112.279 83.008C112.841 83.3557 119.441 79.3987 120.659 77.4308C121.878 75.463 121.27 72.8803 119.302 71.6622C117.334 70.444 114.751 71.0519 113.533 73.0197Z" fill="#BBCFF8"/>
<path d="M103.443 86.8722C105.758 86.8772 112.604 83.3619 112.605 82.7013C112.607 82.0408 105.776 78.4963 103.461 78.4912C101.147 78.4863 99.2667 80.3584 99.2617 82.6728C99.2568 84.9872 101.129 86.8672 103.443 86.8722Z" fill="#BBCFF8"/>
<path d="M120.963 84.0414C119.087 85.397 115.612 92.2636 115.999 92.7989C116.385 93.3344 123.996 92.1899 125.872 90.8344C127.747 89.4788 128.169 86.8592 126.814 84.9834C125.458 83.1077 122.839 82.6858 120.963 84.0414Z" fill="#BBCFF8"/>
<path d="M106.74 95.7205C109.036 96.0147 116.268 93.3829 116.352 92.7277C116.436 92.0725 110.101 87.7019 107.806 87.4075C105.51 87.1133 103.411 88.7358 103.116 91.0312C102.822 93.3269 104.445 95.4263 106.74 95.7205Z" fill="#BBCFF8"/>
<path d="M96.9882 45.0974C96.7335 46.2135 97.6832 49.8998 98.0017 49.9726C98.3203 50.0452 100.775 47.1358 101.03 46.0197C101.285 44.9037 100.586 43.7924 99.4702 43.5377C98.3542 43.2831 97.243 43.9813 96.9882 45.0974Z" fill="#BBCFF8"/>
<path d="M93.6215 51.9532C94.7662 51.9499 98.144 50.1946 98.1432 49.8678C98.1422 49.5411 94.7548 47.8044 93.61 47.8076C92.4653 47.8108 91.5398 48.7414 91.543 49.8862C91.5462 51.0309 92.4767 51.9563 93.6215 51.9532Z" fill="#BBCFF8"/>
<path d="M100.738 50.234C100.248 51.7845 101.163 57.1148 101.605 57.2548C102.048 57.3948 105.863 53.5614 106.354 52.0109C106.844 50.4602 105.985 48.8054 104.434 48.3148C102.884 47.824 101.229 48.6834 100.738 50.234Z" fill="#BBCFF8"/>
<path d="M95.2147 60.0312C96.841 60.0266 101.64 57.5327 101.639 57.0685C101.637 56.6042 96.8247 54.137 95.1984 54.1416C93.572 54.1461 92.2572 55.4681 92.2617 57.0945C92.2662 58.7209 93.5883 60.0358 95.2147 60.0312Z" fill="#BBCFF8"/>
<path d="M24.6443 94.0478C24.6378 94.0475 24.6313 94.0465 24.6247 94.0448C24.572 94.0312 24.5403 93.9775 24.554 93.9248C28.1092 80.1606 31.4529 70.4105 33.9691 66.4701C34.025 66.3827 34.0653 66.3195 34.0804 66.2877C34.1038 66.2385 34.1626 66.2178 34.2117 66.2409C34.2608 66.2643 34.2817 66.3231 34.2584 66.3722C34.238 66.4151 34.1992 66.4757 34.1352 66.5762C31.6299 70.4994 28.2949 80.2295 24.7447 93.974C24.7328 94.0202 24.6901 94.0502 24.6443 94.0478Z" fill="#8DACE2"/>
<path d="M35.7993 65.6974C35.5004 66.1403 33.9414 66.9929 33.8151 66.9076C33.6886 66.8223 33.8966 65.0576 34.1956 64.6147C34.4946 64.1718 35.0959 64.0552 35.5388 64.3542C35.9816 64.6532 36.0983 65.2545 35.7993 65.6974Z" fill="#8DACE2"/>
<path d="M32.7816 67.1273C32.9593 67.6443 32.6959 69.4429 32.5483 69.4936C32.4007 69.5444 31.0872 68.2878 30.9095 67.7708C30.7318 67.2538 31.0069 66.6907 31.5238 66.513C32.0408 66.3353 32.6039 66.6104 32.7816 67.1273Z" fill="#8DACE2"/>
<path d="M34.8 70.1755C34.2564 70.2323 32.5632 69.5706 32.547 69.4154C32.5308 69.2602 34.0509 68.2633 34.5946 68.2066C35.1384 68.1499 35.6251 68.5447 35.6819 69.0884C35.7385 69.6321 35.3437 70.1188 34.8 70.1755Z" fill="#8DACE2"/>
<path d="M28.4665 76.3266C28.8566 77.1572 28.7423 80.2063 28.5053 80.3177C28.2682 80.429 25.8489 78.5698 25.4588 77.7392C25.0687 76.9086 25.4258 75.9191 26.2564 75.5291C27.0869 75.139 28.0765 75.4961 28.4665 76.3266Z" fill="#8DACE2"/>
<path d="M32.3864 81.0478C31.4894 81.2408 28.5443 80.4429 28.4892 80.1868C28.4341 79.9308 30.7905 77.9923 31.6875 77.7993C32.5846 77.6062 33.4683 78.177 33.6613 79.074C33.8543 79.9711 33.2835 80.8547 32.3864 81.0478Z" fill="#8DACE2"/>
<path d="M26.2164 79.8222C26.9057 80.7086 27.5906 84.3792 27.3377 84.576C27.0846 84.7727 23.6958 83.2049 23.0064 82.3185C22.3171 81.4321 22.4768 80.1548 23.3633 79.4654C24.2496 78.7761 25.527 78.9358 26.2164 79.8222Z" fill="#8DACE2"/>
<path d="M31.7959 85.9841C30.6797 86.1061 27.1952 84.7641 27.1604 84.4455C27.1256 84.1269 30.2379 82.0639 31.3542 81.9419C32.4704 81.8199 33.4742 82.6259 33.5962 83.7421C33.7182 84.8583 32.9122 85.8621 31.7959 85.9841Z" fill="#8DACE2"/>
<path d="M24.9155 84.3163C25.6049 85.2027 26.2899 88.8733 26.0369 89.0701C25.7839 89.2668 22.395 87.6991 21.7057 86.8127C21.0163 85.9263 21.1761 84.649 22.0625 83.9596C22.9488 83.2702 24.2262 83.4299 24.9155 84.3163Z" fill="#8DACE2"/>
<path d="M30.4952 90.4783C29.3789 90.6003 25.8945 89.2582 25.8597 88.9397C25.8248 88.6211 28.9371 86.5581 30.0534 86.436C31.1696 86.3141 32.1734 87.12 32.2954 88.2363C32.4174 89.3525 31.6114 90.3563 30.4952 90.4783Z" fill="#8DACE2"/>
<path d="M21.8975 90.0181C22.8725 90.5751 24.904 93.7081 24.745 93.9864C24.586 94.2647 20.8554 94.1059 19.8804 93.5489C18.9054 92.9919 18.5666 91.75 19.1236 90.775C19.6806 89.8 20.9225 89.4611 21.8975 90.0181Z" fill="#8DACE2"/>
<path d="M31.4531 69.9906C31.6336 70.5158 31.366 72.3433 31.2161 72.3948C31.0662 72.4463 29.7315 71.1696 29.551 70.6444C29.3704 70.1191 29.6499 69.5469 30.1751 69.3664C30.7003 69.1859 31.2725 69.4653 31.4531 69.9906Z" fill="#8DACE2"/>
<path d="M33.4338 73.1242C32.8814 73.1818 31.1612 72.5096 31.1447 72.3519C31.1282 72.1942 32.6727 71.1813 33.2251 71.1237C33.7775 71.0661 34.272 71.4671 34.3297 72.0196C34.3873 72.572 33.9862 73.0666 33.4338 73.1242Z" fill="#8DACE2"/>
<path d="M29.9095 72.6631C30.2264 73.3857 30.0604 76.0045 29.8541 76.0949C29.6478 76.1853 27.6093 74.5332 27.2925 73.8105C26.9756 73.0878 27.3046 72.245 28.0273 71.9282C28.75 71.6114 29.5926 71.9404 29.9095 72.6631Z" fill="#8DACE2"/>
<path d="M33.0804 77.1038C32.2956 77.1857 29.8517 76.2306 29.8283 76.0066C29.8049 75.7825 31.9991 74.3436 32.784 74.2617C33.5688 74.1799 34.2714 74.7497 34.3532 75.5345C34.4352 76.3193 33.8653 77.0219 33.0804 77.1038Z" fill="#8DACE2"/>
<path d="M10.2187 87.1691C10.2092 87.1699 10.1995 87.1697 10.1896 87.1685C10.1103 87.1588 10.0538 87.0867 10.0636 87.0074C12.5983 66.2881 15.5952 51.4527 18.5021 45.2338C18.5666 45.0957 18.6133 44.9961 18.6291 44.9469C18.6537 44.8708 18.7354 44.8293 18.8113 44.8536C18.8873 44.8783 18.929 44.9598 18.9045 45.0358C18.883 45.1022 18.8383 45.1979 18.7642 45.3563C15.8699 51.5483 12.8819 66.3528 10.3507 87.0425C10.3422 87.1119 10.2858 87.1638 10.2187 87.1691Z" fill="#BBCFF8"/>
<path d="M21.0219 43.7574C20.6716 44.4594 18.5658 45.9998 18.3654 45.8997C18.1649 45.7998 18.1292 43.191 18.4795 42.4889C18.8297 41.7868 19.6828 41.5017 20.3849 41.8519C21.0869 42.2022 21.3721 43.0553 21.0219 43.7574Z" fill="#BBCFF8"/>
<path d="M16.8992 46.417C17.2571 47.1355 17.2188 49.8044 17.0136 49.9066C16.8086 50.0088 14.6552 48.4315 14.2973 47.713C13.9394 46.9945 14.2318 46.1219 14.9503 45.7641C15.6687 45.4062 16.5413 45.6985 16.8992 46.417Z" fill="#BBCFF8"/>
<path d="M20.4228 50.4668C19.6422 50.6537 17.0505 50.0153 16.9971 49.7925C16.9438 49.5696 18.9654 47.8268 19.746 47.6399C20.5267 47.453 21.311 47.9343 21.498 48.7149C21.6848 49.4956 21.2035 50.2799 20.4228 50.4668Z" fill="#BBCFF8"/>
<path d="M12.3841 60.6378C13.1114 61.7721 13.5301 66.2327 13.2064 66.4403C12.8826 66.6479 9.00391 64.4055 8.27675 63.2712C7.54959 62.137 7.87953 60.628 9.01383 59.9008C10.148 59.1736 11.657 59.5036 12.3841 60.6378Z" fill="#BBCFF8"/>
<path d="M18.9949 66.7592C17.726 67.2123 13.2857 66.6158 13.1563 66.2537C13.0269 65.8915 16.0853 62.6174 17.3541 62.1642C18.623 61.7111 20.0189 62.3725 20.472 63.6413C20.9251 64.9101 20.2638 66.3061 18.9949 66.7592Z" fill="#BBCFF8"/>
<path d="M9.77765 66.1583C10.9512 67.3164 12.6526 72.5284 12.3221 72.8634C11.9915 73.1984 6.75739 71.5663 5.58378 70.4081C4.41017 69.25 4.39765 67.3599 5.55582 66.1863C6.71388 65.0128 8.60409 65.0002 9.77765 66.1583Z" fill="#BBCFF8"/>
<path d="M19.0846 74.0568C17.483 74.4486 12.1531 73.1635 12.0413 72.7063C11.9294 72.2493 16.0644 68.6488 17.6659 68.2571C19.2675 67.8653 20.8834 68.846 21.2752 70.4476C21.6669 72.0491 20.6861 73.6651 19.0846 74.0568Z" fill="#BBCFF8"/>
<path d="M8.74628 72.9503C9.91989 74.1084 11.6213 79.3204 11.2908 79.6554C10.9602 79.9903 5.72602 78.3582 4.55251 77.2001C3.3789 76.0421 3.36644 74.1519 4.5245 72.9783C5.68251 71.8047 7.57272 71.7922 8.74628 72.9503Z" fill="#BBCFF8"/>
<path d="M18.0534 80.8488C16.4518 81.2406 11.1218 79.9554 11.01 79.4984C10.8982 79.0413 15.0331 75.4409 16.6347 75.0491C18.2362 74.6573 19.8521 75.638 20.2439 77.2396C20.6356 78.8412 19.6549 80.457 18.0534 80.8488Z" fill="#BBCFF8"/>
<path d="M5.45156 81.8282C6.97782 82.452 10.5362 86.623 10.3582 87.0587C10.1802 87.4943 4.71883 87.9789 3.19268 87.3551C1.66642 86.7313 0.934855 84.9884 1.55861 83.4622C2.18242 81.936 3.92535 81.2044 5.45156 81.8282Z" fill="#BBCFF8"/>
<path d="M17.2563 87.5275C15.7162 88.1164 10.2675 87.5078 10.0994 87.0682C9.93129 86.6286 13.5836 82.5397 15.1236 81.9507C16.6637 81.3618 18.3895 82.1328 18.9784 83.6728C19.5673 85.2129 18.7963 86.9386 17.2563 87.5275Z" fill="#BBCFF8"/>
<path d="M15.5136 50.8421C15.8772 51.5721 15.8382 54.2838 15.6299 54.3875C15.4215 54.4913 13.2336 52.8888 12.8701 52.1588C12.5064 51.4288 12.8034 50.5422 13.5335 50.1786C14.2634 49.8151 15.15 50.1121 15.5136 50.8421Z" fill="#BBCFF8"/>
<path d="M18.9972 55.0235C18.2041 55.2133 15.5709 54.5648 15.5167 54.3384C15.4625 54.112 17.5164 52.3412 18.3096 52.1513C19.1027 51.9614 19.8996 52.4504 20.0895 53.2435C20.2794 54.0367 19.7903 54.8336 18.9972 55.0235Z" fill="#BBCFF8"/>
<path d="M13.7837 55.0267C14.3836 56.0179 14.6443 59.8619 14.3614 60.0332C14.0785 60.2044 10.794 58.1904 10.194 57.1991C9.59415 56.2078 9.91131 54.9179 10.9027 54.3181C11.8939 53.7181 13.1837 54.0354 13.7837 55.0267Z" fill="#BBCFF8"/>
<path d="M19.2471 60.8838C18.1203 61.1535 14.3793 60.232 14.3023 59.9104C14.2252 59.5887 17.1434 57.073 18.2702 56.8033C19.397 56.5335 20.5292 57.2282 20.7989 58.355C21.0687 59.4819 20.3739 60.614 19.2471 60.8838Z" fill="#BBCFF8"/>
<path d="M50.2148 72.7207C50.2148 72.7207 52.0599 69.1178 51.8515 67.7467C51.6431 66.3756 50.5206 62.4785 50.8137 61.0254C50.905 60.5731 51.859 57.1083 52.7223 56.636C53.3063 56.3165 54.5934 57.6278 54.1417 59.399C53.3565 62.4779 54.2924 64.2918 54.8003 65.5996C55.6665 67.8303 56.0003 69.1597 56.0277 68.0765C56.0277 68.0765 55.6229 64.7398 55.7817 63.2855C55.8246 62.8927 56.6919 59.8781 57.5248 59.601C57.9753 59.4512 59.3887 60.2018 58.8321 62.9726C58.4664 64.7937 59.4871 65.9883 60.2358 67.2471C60.8837 68.3366 64.0442 71.0987 64.0442 71.0987L59.7692 74.354L50.2148 72.7207Z" fill="#E96F5F"/>
<path d="M47.4633 66.839C47.4633 66.839 45.452 61.1377 45.3005 58.7961C45.2397 57.8568 45.3312 54.7589 46.0992 54.2213C47.3668 53.3337 48.8201 55.5575 48.6856 58.3999C48.552 61.2204 51.3035 63.4315 52.6284 65.2931C55.9223 69.9212 57.9079 72.7067 57.9079 72.7067L47.4633 66.839Z" fill="#F78978"/>
<path d="M53.8488 46.4698C53.4229 46.0447 54.2747 45.9682 54.2747 45.0762V44.286C54.2747 41.7339 54.852 39.6171 56.0066 37.9357C57.1612 36.2543 59.0351 34.6028 61.6282 32.982C63.0864 32.1319 64.1504 31.4426 64.8192 30.9157C65.488 30.3889 65.9635 29.8424 66.2474 29.2745C66.5305 28.7075 66.6725 27.9779 66.6725 27.0868C66.6725 25.5875 66.1149 24.4329 65.0014 23.6221C63.887 22.8122 62.2765 22.4068 60.17 22.4068C56.8474 22.4068 53.8694 23.2783 51.236 25.0205C50.7494 25.3044 50.4253 25.4455 50.2636 25.4455C49.8984 25.4455 48.5938 24.8663 48.3509 24.4199L46.9812 20.7049C46.8187 20.4218 46.7383 20.1789 46.7383 19.9754C46.7383 19.611 46.9606 19.2869 47.4071 19.0029C51.1744 16.4509 55.8545 15.1748 61.4461 15.1748C65.9841 15.1748 69.6505 16.2182 72.4464 18.305C75.2422 20.3919 76.6406 23.2989 76.6406 27.0261C76.6406 29.4567 76.0727 31.4623 74.9386 33.0428C73.8037 34.6233 71.9802 36.1226 69.4684 37.5406C67.4825 38.6746 66.1252 39.7283 65.3966 40.7007C64.667 41.6731 64.3027 42.909 64.3027 44.4082V45.0762C64.3027 45.9682 64.1 46.6268 63.6946 47.0518C63.2892 47.4777 62.5802 47.6899 61.5675 47.6899H57.009C56.0365 47.6899 54.2739 46.8957 53.8488 46.4698ZM53.8488 56.1116C53.2211 55.6053 53.8488 55.4693 53.8488 54.6183V53.3422C53.8488 52.4511 54.1627 51.7515 54.7905 51.2452C55.4182 50.7389 56.3205 50.4857 57.4956 50.4857H61.021C62.2354 50.4857 63.1574 50.7389 63.7851 51.2452C64.4129 51.7515 64.7276 52.4511 64.7276 53.3422V54.6183C64.7276 55.5094 64.4129 56.1988 63.7851 56.6846C63.1574 57.1713 62.2354 57.4141 61.021 57.4141H57.4956C56.3205 57.4142 54.4765 56.6179 53.8488 56.1116Z" fill="#1E66BC"/>
<path d="M96.816 75.1822C95.3762 74.7855 94.027 74.4059 92.8513 74.0643C92.1961 73.8721 91.5941 73.6926 91.0617 73.5284C90.202 73.2623 89.5225 73.0361 89.0854 72.864C87.9675 72.4238 86.2089 71.9926 84.7692 71.1385L84.7683 71.1376C83.7934 70.5601 82.9657 69.7885 82.5807 68.6882C81.6266 65.9622 76.5284 61.1357 71.9183 57.9845C69.4046 56.265 66.8364 53.4534 65.9069 52.3166C65.176 51.4223 62.6326 47.5761 61.66 47.2681C61.0874 47.0876 59.7058 48.6672 59.5339 49.5709C59.1644 51.5073 60.5129 53.9534 63.2096 57.6704C65.7791 61.2116 66.0948 63.262 65.9839 65.1803C65.9107 66.4264 65.6545 67.6752 64.1415 68.7948C63.9628 68.926 63.4288 69.3837 62.6557 69.8387C61.0385 70.792 58.376 71.7351 55.7692 69.6459C55.7385 69.6208 55.7077 69.5974 55.6762 69.5732L55.6754 69.5724C55.6754 69.5724 55.6754 69.5724 55.6746 69.5715C54.5463 68.701 53.1131 68.156 51.8177 67.5567C50.4616 66.9291 49.2553 66.2411 48.7102 65.0555C48.0469 63.614 46.8756 62.3283 45.6647 60.8787L45.6639 60.8778C44.7862 59.8302 43.8876 58.6958 43.1463 57.3536C41.3372 54.0821 39.2495 54.2893 38.5274 55.6541C38.1362 56.395 39.9561 61.5691 40.3143 62.297C40.7912 63.2693 44.6825 69.7554 45.5205 70.7927C47.5811 73.3474 56.4561 80.9855 58.1468 82.2921C61.0109 84.5066 68.8737 85.0168 75.379 86.1046C75.8143 86.1775 76.2485 86.2563 76.6816 86.3408L76.6833 86.3409C79.0615 86.8063 81.4015 87.4453 83.6828 88.2558C84.4061 88.5111 85.1219 88.7843 85.8326 89.0749C86.1526 89.2059 86.4723 89.3402 86.7894 89.4786C91.3548 84.484 94.5548 79.7194 96.816 75.1822Z" fill="#FFA089"/>
<path d="M85.2299 90.3617L76.6406 86.3219L84.759 71.1348L93.1328 73.4607L85.2299 90.3617Z" fill="#89B4FD"/>
<path d="M125.446 81.3739L91.5008 72.6572L91.3462 72.9639L91.0638 73.5287L83.685 88.2558L83.1263 89.371L82.6172 90.3861L107.922 104.671C113.684 99.3302 119.115 87.2321 125.446 81.3739Z" fill="#100259"/>
<path d="M86.9663 73.8993C87.2332 74.1509 87.6535 74.1386 87.9051 73.8716C88.1568 73.6048 88.1444 73.1844 87.8775 72.9329C87.6107 72.6812 87.1903 72.6936 86.9387 72.9605C86.6871 73.2274 86.6995 73.6478 86.9663 73.8993Z" fill="#100259"/>
<path d="M53.5456 46.2247C53.1196 45.7996 52.9075 45.141 52.9075 44.249V43.4588C52.9075 40.9067 53.4848 38.79 54.6394 37.1085C55.794 35.4271 57.6679 33.7756 60.261 32.1549C61.7192 31.3048 62.7832 30.6154 63.452 30.0886C64.1208 29.5618 64.5963 29.0153 64.8803 28.4474C65.1633 27.8803 65.3053 27.1508 65.3053 26.2596C65.3053 24.7604 64.7477 23.6058 63.6342 22.795C62.5198 21.9851 60.9093 21.5797 58.8029 21.5797C55.4802 21.5797 52.5022 22.4512 49.8689 24.1933C49.3822 24.4773 49.0581 24.6184 48.8964 24.6184C48.5313 24.6184 48.2276 24.396 47.9848 23.9496L45.614 19.8777C45.4515 19.5947 45.3711 19.3518 45.3711 19.1482C45.3711 18.7839 45.5934 18.4597 46.0399 18.1758C49.8073 15.6237 54.4873 14.3477 60.0789 14.3477C64.6169 14.3477 68.2833 15.3911 71.0792 17.4779C73.875 19.5647 75.2734 22.4717 75.2734 26.1989C75.2734 28.6296 74.7055 30.6352 73.5714 32.2156C72.4365 33.7962 70.6131 35.2954 68.1012 36.7134C66.1153 37.8475 64.758 38.9011 64.0294 39.8736C63.2998 40.846 62.9355 42.0818 62.9355 43.5811V44.249C62.9355 45.1411 62.7328 45.7996 62.3274 46.2247C61.922 46.6506 61.213 46.8627 60.2003 46.8627H55.6418C54.6694 46.8627 53.9706 46.6506 53.5456 46.2247ZM53.4233 55.8275C52.7955 55.3212 52.4816 54.6421 52.4816 53.7911V52.5151C52.4816 51.6239 52.7955 50.9243 53.4233 50.418C54.051 49.9117 54.9533 49.6585 56.1284 49.6585H59.6538C60.8682 49.6585 61.7902 49.9117 62.418 50.418C63.0457 50.9243 63.3605 51.6239 63.3605 52.5151V53.7911C63.3605 54.6823 63.0457 55.3717 62.418 55.8574C61.7902 56.3441 60.8682 56.587 59.6538 56.587H56.1284C54.9533 56.587 54.051 56.3338 53.4233 55.8275Z" fill="#2A6FD3"/>
<path d="M82.0357 67.575C80.3579 64.7817 75.9501 60.7422 71.9174 57.9842C69.4039 56.2656 66.8348 53.4542 65.9051 52.3172C65.1754 51.4229 62.6315 47.576 61.6587 47.268C61.0857 47.0884 59.7044 48.668 59.5327 49.5714C59.1634 51.5079 60.5112 53.9545 63.2076 57.6705C65.7778 61.2117 66.0935 63.2621 65.9824 65.1805C65.9797 65.2247 65.9767 65.2676 65.974 65.3119L82.0357 67.575Z" fill="#FFA089"/>
</g>
<mask id="mask2_257_1177" style="mask-type:luminance" maskUnits="userSpaceOnUse" x="0" y="0" width="133" height="91">
<path d="M118.046 85.998C114.259 87.211 109.646 87.5395 105.982 87.2867C105.982 87.2867 38.6185 93.776 14.2686 87.1229C-3.75284 82.1989 -1.57725 64.6697 3.93788 53.4498C9.51588 42.1021 -5.12636 20.1672 18.4109 7.44786C31.9492 0.131865 44.092 11.8394 67.4964 3.19638C88.6266 -4.60677 115.883 2.37277 122.549 18.7383C127.134 29.9964 121.354 42.1322 127.134 48.0145C136.509 57.5547 132.198 81.466 118.046 85.998Z" fill="white"/>
</mask>
<g mask="url(#mask2_257_1177)">
<path d="M87.7402 18.0258L79.0778 20.9675C78.6452 21.1144 78.1754 20.8828 78.0285 20.4502C77.8816 20.0176 78.1132 19.5479 78.5458 19.4009L87.2082 16.4592C87.6408 16.3123 88.1106 16.5439 88.2575 16.9765C88.4045 17.4091 88.1728 17.8789 87.7402 18.0258Z" fill="white"/>
</g>
<mask id="mask3_257_1177" style="mask-type:luminance" maskUnits="userSpaceOnUse" x="0" y="0" width="133" height="91">
<path d="M118.046 85.998C114.259 87.211 109.646 87.5395 105.982 87.2867C105.982 87.2867 38.6185 93.776 14.2686 87.1229C-3.75284 82.1989 -1.57725 64.6697 3.93788 53.4498C9.51588 42.1021 -5.12636 20.1672 18.4109 7.44786C31.9492 0.131865 44.092 11.8394 67.4964 3.19638C88.6266 -4.60677 115.883 2.37277 122.549 18.7383C127.134 29.9964 121.354 42.1322 127.134 48.0145C136.509 57.5547 132.198 81.466 118.046 85.998Z" fill="white"/>
</mask>
<g mask="url(#mask3_257_1177)">
<path d="M78.7671 11.2692L75.9432 16.3936C75.7631 16.7203 75.3523 16.8392 75.0256 16.6592L74.7597 16.5126C74.433 16.3326 74.3141 15.9218 74.4941 15.5951L77.3181 10.4707C77.4981 10.144 77.9089 10.0251 78.2356 10.2051L78.5015 10.3516C78.8282 10.5317 78.9471 10.9425 78.7671 11.2692Z" fill="white"/>
</g>
<mask id="mask4_257_1177" style="mask-type:luminance" maskUnits="userSpaceOnUse" x="0" y="0" width="133" height="91">
<path d="M118.046 85.998C114.259 87.211 109.646 87.5395 105.982 87.2867C105.982 87.2867 38.6185 93.776 14.2686 87.1229C-3.75284 82.1989 -1.57725 64.6697 3.93788 53.4498C9.51588 42.1021 -5.12636 20.1672 18.4109 7.44786C31.9492 0.131865 44.092 11.8394 67.4964 3.19638C88.6266 -4.60677 115.883 2.37277 122.549 18.7383C127.134 29.9964 121.354 42.1322 127.134 48.0145C136.509 57.5547 132.198 81.466 118.046 85.998Z" fill="white"/>
</mask>
<g mask="url(#mask4_257_1177)">
<path d="M70.4258 9.25854L70.1495 13.1827C70.128 13.4887 69.8624 13.7193 69.5564 13.6978L69.0712 13.6636C68.7652 13.6421 68.5345 13.3765 68.5561 13.0705L68.8324 9.14638C68.8539 8.84036 69.1195 8.60974 69.4255 8.63128L69.9107 8.66544C70.2167 8.68698 70.4474 8.95252 70.4258 9.25854Z" fill="white"/>
</g>
</svg>
