<?xml version="1.0" encoding="UTF-8"?>
<svg xmlns="http://www.w3.org/2000/svg" viewBox="0 0 700 500">
  <defs>
    <style>
      .cls-1, .cls-2, .cls-3 {
        stroke: #000;
      }

      .cls-1, .cls-2, .cls-3, .cls-4, .cls-5, .cls-6 {
        fill: none;
      }

      .cls-1, .cls-2, .cls-4, .cls-6 {
        stroke-linecap: round;
      }

      .cls-1, .cls-4, .cls-5 {
        stroke-miterlimit: 10;
      }

      .cls-7 {
        fill: #2463eb;
      }

      .cls-2, .cls-3, .cls-6 {
        stroke-linejoin: round;
      }

      .cls-8 {
        fill: #7584f1;
      }

      .cls-9 {
        fill: #d3ddf7;
      }

      .cls-10 {
        fill: #fff;
      }

      .cls-11 {
        fill: #f5f5ff;
      }

      .cls-12 {
        fill: #333969;
      }

      .cls-13 {
        fill: #dfdfeb;
      }

      .cls-4, .cls-5 {
        stroke: #424242;
      }

      .cls-14 {
        fill: #db9c7f;
      }

      .cls-6 {
        stroke: #1a1c30;
        stroke-width: .78px;
      }
    </style>
  </defs>
  <g id="BACKGROUND">
    <ellipse class="cls-11" cx="289.02" cy="220.78" rx="232.75" ry="165.91"/>
  </g>
  <g id="OBJECTS">
    <ellipse class="cls-13" cx="540.28" cy="439.71" rx="106.25" ry="14.74"/>
    <ellipse class="cls-13" cx="317.58" cy="446.82" rx="191.95" ry="16.35"/>
    <g>
      <path class="cls-7" d="M354.28,157.1s-3.55,20.62-29.43,47.15c0,0-2.86-3.54,2.09-18.21,4.95-14.67,25.87-33.94,27.35-28.95Z"/>
      <path class="cls-1" d="M354.28,157.1s-23.29,16.66-29.43,47.15c0,0-1.19,10.46,2.39,19.52"/>
      <path class="cls-7" d="M291.68,173.75s6.53-4.95-4.71-17.32c-10.68-11.75-21.98-22.28-44.08-26.14,0,0,6.67,29.93,21.07,37.06,14.4,7.13,27.72,6.39,27.72,6.39Z"/>
      <path class="cls-7" d="M238.05,195.76s23.05,5.03,62.15-8.02c0,0-2.42-4.04-19.89-5.4-17.47-1.36-46.81,10.06-42.26,13.42Z"/>
      <path class="cls-1" d="M238.05,195.76s27.66-14.64,62.15-8.02c0,0,3.55.89,7.16,5.71"/>
      <path class="cls-7" d="M257.15,216.65s24.67,16.24,63.77,3.19c0,0-7.6-13.76-25.07-15.11-17.47-1.36-43.24,8.56-38.69,11.92Z"/>
      <path class="cls-1" d="M257.15,216.65s26.59-12.41,63.77,3.19c0,0,4.37,1.95,7.98,6.77"/>
      <path d="M340.66,137.58s7.28-.87-10.49,15.56c-16.78,15.52-14.64,15.64-14.64,15.64,0,0,6.37-23.22,25.13-31.2Z"/>
      <path class="cls-7" d="M303.32,176.64s5.44,2.1,15.25-6.9c9.81-9,13.46-29.06,22.09-32.16,0,0-21.64,6.99-37.33,39.07Z"/>
      <path class="cls-1" d="M338.98,245.57c-11.06-22.28-26.42-47.6-47.31-71.81,0,0-5.13-6.72-22.96-24.14-17.83-17.42-25.83-19.32-25.83-19.32"/>
      <path class="cls-1" d="M338.1,138.65s-20.59,8.98-34.78,38c-3.44,7.03.68,12.59,4.04,16.81"/>
    </g>
    <g>
      <path class="cls-7" d="M525.86,379.15s-17.21,12.7-56.86,3.38c0,0,.11-6.36,14.34-12.48,14.23-6.12,44.78,3.21,42.53,9.1Z"/>
      <path class="cls-1" d="M524.63,378s-27.16-9.08-55.45,3.85c0,0-9.17,5.18-14.4,13.4"/>
      <path class="cls-7" d="M468.48,351.22s7.84,2.38,11.26-13.98c3.24-15.54,5.13-30.88-4.71-51.03,0,0-20.32,22.97-17.64,38.81,2.68,15.84,11.1,26.19,11.1,26.19Z"/>
      <path d="M526.81,357.35s6.05,4.14-18.14,4.8c-22.85.63-21.32,2.12-21.32,2.12,0,0,20.09-13.28,39.46-6.92Z"/>
      <path class="cls-7" d="M472.98,362.15s2.71,5.16,16.02,4.85c13.31-.31,29.27-13,37.8-9.65,0,0-20.88-8.99-53.82,4.8Z"/>
      <path class="cls-1" d="M438.11,431.67c11.55-22.04,23.03-49.33,30.37-80.45,0,0,2.43-8.1,6.07-32.75,3.64-24.66.48-32.25.48-32.25"/>
      <path class="cls-1" d="M524.18,356.47s-21.41-6.8-51.2,5.68c-7.22,3.02-9.26,7.8-12.31,16.65"/>
    </g>
    <g>
      <path class="cls-12" d="M251.61,232.33c-5.57,0-10.96-1.95-15.24-5.52l-11.87-9.9c-4.27-3.56-9.34-5.47-14.54-5.47h-58.89c-5.34,0-9.68,4.33-9.68,9.68v213.19c0,9.22,7.48,16.7,16.7,16.7h293.55c7.17,0,12.99-5.81,12.99-12.99v-192.69c0-7.17-5.81-12.99-12.99-12.99h-200.04Z"/>
      <path class="cls-7" d="M464.64,439.1s-19.98-37.47-21.98-41.78l-54.6-111.23c-1.37-2.96-4.34-4.85-7.59-4.85h-202.89c-7.38,0-18.04-3.87-23.71-8.59l-8.19-6.83c-4.27-3.56-9.34-5.47-14.54-5.47h-56.04c-5.97,0-10.02,6.06-7.74,11.57l67.77,163.9c3.8,9.19,12.76,15.18,22.7,15.18h303.14c1.98,0,3.8-1.69,3.8-3.67l-.14-8.23Z"/>
      <line class="cls-3" x1="382.11" y1="291.82" x2="462.23" y2="447.56"/>
      <path class="cls-3" d="M349.1,318.66h-69.01c-1.88,0-3.63-.95-4.64-2.51h0c-2.33-3.61.3-8.33,4.64-8.33h69.01c1.88,0,3.63.95,4.64,2.51h0c2.33,3.61-.3,8.33-4.64,8.33Z"/>
    </g>
    <g>
      <g>
        <path class="cls-14" d="M524.38,232.44c1.29-5.57-4.64-12.51-10.25-11.42-4.57.89-6.84,1.99-7.58,2.23-1.43.47-12.14-.22-13.37,1.56-.89,1.29,4.7,2.78,8.27,3.14.74.07.95,1.03.32,1.42-3.51,2.18-10.5,6.6-11.1,7.69-.8,1.47-4.43,7.16-3.4,7.79,1.02.63,4.12-2.21,6.13-4.23,2.01-2.02,7.89-3.74,7.89-3.74,0,0-10.22,10.25-11.56,13.1-2.01,4.23,3.81,2.38,3.81,2.38-.91,2.39,3.86,1.87,4.99.97,2.23-1.78,9.11-10.09,9.14-9.25s-7.12,9.9-6.39,12.02c.72,2.11,3.61-.54,5.28-2.77,1.67-2.23,6.57-8.47,6.57-8.47,0,0,5.57-4.07,10.22-11.09.04-.06,1.02-1.27,1.03-1.33Z"/>
        <line class="cls-1" x1="493.8" y1="252.13" x2="503.54" y2="240.51"/>
      </g>
      <path class="cls-7" d="M451.1,199.49l35.06-21.87c.22-.14.42-.3.62-.47l11.56-11.9c2.52-2.21,6.4-1.69,8.26,1.09l5.67,8.5c1.2,1.8,1.24,4.13.11,5.98l-8.14,13.2c-.6.97-1.48,1.73-2.53,2.18-6.55,2.8-31.56,13.37-46.48,17.58-3.71,1.05-7.31-1.97-6.98-5.81l.37-4.32c.14-1.7,1.06-3.23,2.49-4.17Z"/>
      <path d="M531.85,418.06l-1.85,12.6s-34.74,13.35-31.52,13.54c3.22.19,53.15-2.71,53.15-2.71l-2.94-22.87-16.84-.56Z"/>
      <path class="cls-5" d="M541.53,214.23s2.77,26.65,4.85,28.03c2.08,1.38,4.84,2.08,4.84,2.08l-4.5-30.45-5.19.35Z"/>
      <path d="M596.4,195.91s14.08,28.68,9.99,44.65l-78.06-10.74,1.63-29.79,66.44-4.12Z"/>
      <path class="cls-4" d="M598.54,201.72s-11.03,20.43-32.15,22.07"/>
      <path class="cls-4" d="M580.88,219.43s4.28,13.24,16.69,13.52"/>
      <path d="M528.33,229.83s-20.91,74.46-21.46,98.43l15.28,92.34s14.58,7.25,29.76,1.39c.62-.24-7.7-47.89-8.28-96.96l43.64-91.32-58.95-3.88Z"/>
      <path d="M606.73,237.44l-3.07,89.85,34.38,93.93s-14.38,12.15-32.56,1.09l-37.32-89.44,3.83-65.08-16.27-9.85-2.42-28.19,53.44,7.68Z"/>
      <polygon class="cls-10" points="546.32 221.02 562.9 233.5 586.65 206.98 528.94 215.22 543.07 233.95 546.32 221.02"/>
      <path d="M613.75,416.54l-3,10.87s-21.92,23.77-18.69,23.77,39.22-14.72,39.22-14.72l-4.61-22.64-12.92,2.72Z"/>
      <path class="cls-4" d="M593.59,208.62s9.48,23.3,2.65,121.05c0,0,23.94,52.69,36.36,94.37"/>
      <polyline class="cls-4" points="558.75 260.27 534.85 326.83 545.1 424.05"/>
      <g>
        <g>
          <path class="cls-14" d="M454.54,212.63s.46,2.33-4.7,4.11-8.2,1.21-8.2,1.21c0,0-11.58-13.66-12.09-14.14s.36-5.73,3.79-7.84c2.08-1.28,10.15.8,16.16,2.64,4.19,1.28,6.78,5.48,6.08,9.81-.28,1.7-.62,3.28-1.04,4.21Z"/>
          <path class="cls-14" d="M445.04,209s-9.47-1.37-13.47-4.67c0,0-5.98-1.2-7.25-.45-1.27.75-2.31,1.83-5.06,2.29-2.75.46-1.92-1.37.97-3.96.83-.74,3.03-3.41,4.95-3.77,2.58-.49,8.15-2.46,8.15-2.46l11.19,13.38"/>
          <path class="cls-14" d="M441.64,217.95s-3.84,2.41-5.19,2.34c-1.35-.07-2.62-.87-2.95-3.09,0,0-7.15,1.31-4.88-4.1,0,0-4.32-.7-4.43-3.52,0,0-3.83-1.91-3-4.97.84-3.06,12.87-2.79,12.87-2.79l12.77,6.48-5.18,9.64Z"/>
          <path class="cls-6" d="M438.93,218.47s3.65-3.23,3.44-4.53c-.2-1.3-.89-2.01-1.72-1.76-1.11.33-5.34,3.56-7.16,5.03"/>
          <path class="cls-6" d="M428.61,213.11s9.71-1.52,9.8-2.95c.09-1.44-.59-3.34-2.62-2.93-2.41.48-9.32,2.14-11.62,2.09"/>
          <path class="cls-6" d="M440.66,212.17s1.78-1.11,1.08-2.35c-.71-1.24-1.67-1.67-3.74-1.14"/>
          <path class="cls-6" d="M423.99,205.26s.53-.69,1.28-1.4"/>
        </g>
        <path class="cls-12" d="M428.86,172.57h5.63v51.51c0,1.5-1.22,2.72-2.72,2.72h-.19c-1.5,0-2.72-1.22-2.72-2.72v-51.51h0Z" transform="translate(-42.47 237.17) rotate(-29.34)"/>
        <path class="cls-12" d="M428.41,184.65l2.12,3.77c.57,1.02.31,2.26-.58,2.76l-4.58,2.57c-.9.5-2.09.08-2.66-.94l-2.21-3.93"/>
        <path class="cls-12" d="M418.62,147.77c-8.76-16.25-19.74-27.43-26.71-27.95l.23-1.54-3.65,2.38c-6.27,4.27-2.94,23.33,7.44,42.57,10.37,19.25,23.86,31.39,30.13,27.12l3.43-2.28-.99-1.32c2.41-7.45-1.35-23.14-9.88-38.97Z"/>
        <path class="cls-8" d="M422.26,145.4c10.37,19.25,13.7,38.31,7.44,42.57-6.27,4.27-19.75-7.88-30.13-27.12-10.37-19.25-13.7-38.31-7.44-42.57,6.27-4.27,19.75,7.88,30.13,27.12Z"/>
        <path class="cls-9" d="M418.8,147.76c8.44,15.66,11.76,30.76,7.4,33.73-4.35,2.97-14.73-7.33-23.17-22.99-8.44-15.66-11.76-30.76-7.4-33.73,4.35-2.96,14.73,7.33,23.17,22.99Z"/>
        <path class="cls-14" d="M445.04,209s-9.47-1.37-13.47-4.67c0,0-5.98-1.2-7.25-.45-1.27.75-2.31,1.83-5.06,2.29-2.75.46-1.92-1.37.97-3.96.83-.74,3.03-3.41,4.95-3.77,2.58-.49,8.15-2.46,8.15-2.46l11.19,13.38"/>
        <path class="cls-6" d="M445.04,209s-9.47-1.37-13.47-4.67c0,0-5.98-1.2-7.25-.45-1.27.75-2.31,1.83-5.06,2.29"/>
        <path class="cls-12" d="M418.8,147.76c-8.44-15.66-18.82-25.96-23.17-22.99-.34.23-.63.55-.88.93,5.03.31,13.84,9.86,21.18,23.49,7.78,14.43,11.2,28.37,8.29,32.8.75.05,1.42-.11,1.99-.5,4.35-2.96,1.04-18.07-7.4-33.73Z"/>
        <path class="cls-10" d="M412.92,141.62c4.49,8.33,6.25,16.36,3.94,17.94-2.32,1.58-7.83-3.9-12.33-12.23s-6.25-16.36-3.94-17.94,7.83,3.9,12.33,12.23Z"/>
      </g>
      <path class="cls-7" d="M580.86,168.43l-6.96-24.85c-2.56-9.12-7.04-17.56-12.96-24.96-10.49-13.1-38.04-11.91-38.04-11.91l-21.2,15.25c-.06.04-.13.07-.19.11-12.48,6.89-14.77,17.51-14.45,33.89l.77,22.11,14.35-13.7,3.62,4.97c-.02-.14-.03-.28-.04-.41l1.72,2.7-1.67-2.29c.51,4.56,2.89,16.18,13.95,21.61l6.3,9.92-1.67,13.7c59.14,21.5,73.86-20.72,73.86-20.72l-17.38-25.4Z"/>
      <path class="cls-1" d="M499.14,162.08l7.74,9.47s-1.06,14.59,13.65,19.27"/>
      <path class="cls-7" d="M557.91,181.36l-45.01,39.21s8.91,12.48,12.92,12.92l53.92-34.31"/>
      <path class="cls-1" d="M526.27,208.54s24.51-27.63,32.98-31.64"/>
      <path class="cls-1" d="M546.27,151.56s1.17,6.18,9.02,27.91"/>
      <path class="cls-1" d="M532.06,229.93s50.36-32.08,50.8-41.44-12.7-52.81-12.7-52.81"/>
      <path class="cls-1" d="M537.58,184.48s12.12,1.14,15.88-9.86"/>
      <path class="cls-1" d="M488.5,176.29s3.34-3.34,6.68.45"/>
      <path class="cls-10" d="M448.84,198.35l7.13-3.34s8.69,9.47,5.57,17.6l-8.69,2.56s4.01-8.91-4.01-16.82Z"/>
      <path class="cls-10" d="M515.74,215.56s9.36,4.01,16.04,15.54l-7.19,5.51s-8.86-12.7-15.04-14.71l6.18-6.35Z"/>
      <g>
        <path class="cls-10" d="M507.89,105.27l29.52,2.17s1.12,16.24-16.71,30.56l-8.01-7.78-4.36,9.47s-6.77-3.81-7.69-14.75l1.44-13.28,5.8-6.39Z"/>
        <path class="cls-14" d="M522.89,106.71c1.08.92,1.59,2.33,1.34,3.73-.95,5.28-3.81,18.08-9.56,19.68-7.27,2.03-11.8-12.32-11.8-12.32l3.62-25.07,16.4,13.98Z"/>
        <g>
          <path d="M499.87,112.65l-.09,3.65c-.07.04-1.31,10.81,2.31,11.23,15.13-2.74,16.09-17.08,17.38-31.32,0,0-21.07,13.6-19.6,16.45Z"/>
          <path class="cls-14" d="M474.68,85.78s-3.69,35.15,18.15,41.2,27.07-29.56,26.31-41.88c-.75-12.32-6.24-16.9-21.55-17.45-22.64-.82-22.91,18.13-22.91,18.13Z"/>
          <path d="M494.3,102.76c.06,1.27-.54,2.32-1.34,2.36s-1.51-.95-1.57-2.22c-.06-1.27.54-2.32,1.34-2.36s1.51.95,1.57,2.22Z"/>
          <path class="cls-1" d="M496.69,96.28s-7.21,3.14-7.92-2.31"/>
          <path class="cls-1" d="M480.02,96.3s-2.38,4.14-5.12,2.3"/>
          <path class="cls-1" d="M476.18,103.65s1.36-.44,3.36.62"/>
          <path class="cls-1" d="M497.56,116.76s1.97-1.88,3.59-2.31"/>
          <path d="M474.42,93.33s.37-10.29,4.93-16.11c0,0,6.27,14.25,33.29,17.16l7.87-1.65s3.22-16.5-8.07-23c-11.29-6.5-28.56-2.91-34.12,2.94-9.42,9.91-3.9,20.67-3.9,20.67Z"/>
          <polygon points="507.4 92.5 512.07 101.74 515.38 91.36 507.4 92.5"/>
          <path class="cls-14" d="M523.73,100.78c-1.35,4.91-5.21,8.16-8.63,7.25-3.42-.91-5.1-5.62-3.76-10.54,1.35-4.91,5.21-8.16,8.63-7.25,3.42.91,5.1,5.62,3.76,10.54Z"/>
          <path class="cls-2" d="M520.3,96.5s-3.85-3.31-5.95,2.74c0,0,2.25,2.38.83,4.26,0,0,2.22.5,3.31-1.45"/>
          <path class="cls-2" d="M518.64,98.82s-.21-1.35-1.71-2.88"/>
          <path class="cls-10" d="M520.51,107.87c0,1.84-1.49,3.33-3.33,3.33s-3.33-1.49-3.33-3.33,1.49-3.33,3.33-3.33,3.33,1.49,3.33,3.33Z"/>
          <path d="M511.16,74.03s4.1-21.43,13.68-17.33c9.58,4.1,13.91,24.62,4.79,26.22-9.12,1.6-16.19-2.74-16.19-2.74l-2.28-6.16Z"/>
          <path class="cls-1" d="M511.27,80.19s15.85,13.22,20.98,1.03"/>
        </g>
      </g>
      <line class="cls-4" x1="571.16" y1="267.29" x2="552.82" y2="256.93"/>
    </g>
    <g>
      <path class="cls-9" d="M154.79,131.33c19.82.54,36.22,16.42,37.36,36.21.67,11.64-3.84,22.23-11.43,29.71-1.12,1.1-1.64,2.68-1.38,4.23l2.85,16.87-17.54-10.22c-1-.58-2.18-.8-3.31-.57-4.29.86-8.83,1.02-13.51.31-17.33-2.63-30.85-16.97-32.45-34.43-2.13-23.26,16.45-42.75,39.41-42.12Z"/>
      <path d="M151.95,183.15l-.11-9.21c1.34-.33,2.57-.75,3.68-1.28,1.11-.53,2.08-1.13,2.91-1.82.83-.69,1.53-1.46,2.1-2.31.56-.85.99-1.77,1.28-2.75.29-.98.44-2.02.44-3.1,0-1.56-.38-3.03-1.14-4.41-.76-1.38-1.85-2.5-3.27-3.35-1.42-.85-3.1-1.28-5.07-1.28-2.11,0-4.06.58-5.86,1.74-1.8,1.16-3.17,3.14-4.11,5.94l-.98-.65c.83-2.65,2.23-4.68,4.19-6.1,1.96-1.42,4.19-2.12,6.7-2.12,2.14,0,4.02.45,5.64,1.36,1.62.91,2.88,2.13,3.79,3.68.91,1.54,1.36,3.28,1.36,5.2,0,1.45-.25,2.81-.74,4.09-.49,1.27-1.18,2.43-2.07,3.49-.89,1.05-1.97,1.97-3.24,2.75-1.27.78-2.71,1.37-4.3,1.77l-.11,8.39h-1.09ZM151.3,190.01c0-.47.13-.86.38-1.17.25-.31.6-.46,1.04-.46.51,0,.87.15,1.09.44.22.29.33.69.33,1.2,0,.44-.12.82-.35,1.14-.24.33-.59.49-1.06.49s-.83-.15-1.06-.44c-.24-.29-.35-.69-.35-1.2Z"/>
    </g>
  </g>
</svg>