<svg xmlns="http://www.w3.org/2000/svg" width="398.262" height="398.239" viewBox="0 0 398.262 398.239">
  <g id="idea-development" transform="translate(-2 -2.003)">
    <path id="Path_124" data-name="Path 124" d="M393.624,31h-86.29a6.657,6.657,0,0,0-6.638,6.638,99.565,99.565,0,0,1-199.131,0A6.657,6.657,0,0,0,94.928,31H8.638A6.657,6.657,0,0,0,2,37.638V72.618a6.6,6.6,0,0,0,5.045,6.439l38.1,9.492A162.123,162.123,0,0,0,54.77,111.98L34.591,145.633a6.731,6.731,0,0,0,1,8.1l49.451,49.451a6.731,6.731,0,0,0,8.1,1L126.789,184a162.127,162.127,0,0,0,23.431,9.625l9.492,38.1a6.6,6.6,0,0,0,6.439,5.045h69.961a6.6,6.6,0,0,0,6.439-5.045l9.492-38.1A162.129,162.129,0,0,0,275.473,184l33.653,20.179a6.731,6.731,0,0,0,8.1-1l49.451-49.451a6.731,6.731,0,0,0,1-8.1L347.492,111.98a162.126,162.126,0,0,0,9.625-23.431l38.1-9.492a6.6,6.6,0,0,0,5.045-6.439V37.638A6.657,6.657,0,0,0,393.624,31Z" transform="translate(0 163.474)" fill="#fff"/>
    <path id="Path_125" data-name="Path 125" d="M35,52.826V99.29a6.638,6.638,0,0,0,13.275,0V55.614l7.368-7.368A19.871,19.871,0,1,0,68.188,13,19.972,19.972,0,0,0,48.275,32.913a20.391,20.391,0,0,0,.332,3.518L36.925,48.113A6.98,6.98,0,0,0,35,52.826Z" transform="translate(186.044 61.995)" fill="#fff"/>
    <path id="Path_126" data-name="Path 126" d="M53.458,48.246l7.368,7.368V99.29a6.638,6.638,0,0,0,13.275,0V52.826a6.98,6.98,0,0,0-1.925-4.713L60.494,36.431a20.389,20.389,0,0,0,.332-3.518A19.913,19.913,0,1,0,40.913,52.826,19.772,19.772,0,0,0,53.458,48.246Z" transform="translate(107.116 61.995)" fill="#fff"/>
    <path id="Path_127" data-name="Path 127" d="M56.411,180.8a17.707,17.707,0,0,1,6.107,8.563,19.912,19.912,0,0,0-12.346,18.386,20.316,20.316,0,0,0,13.275,18.718v14.47A19.972,19.972,0,0,0,83.36,260.851h.664a33.2,33.2,0,0,0,65.049,0h.664a19.972,19.972,0,0,0,19.913-19.913v-14.47a19.982,19.982,0,0,0,13.275-18.718,19.574,19.574,0,0,0-12.346-18.386,18.2,18.2,0,0,1,6.239-8.7A99.491,99.491,0,0,0,105.2,2.644C59.8,7.689,22.957,44.263,17.713,89.6a98.885,98.885,0,0,0,38.7,91.2Zm60.138,93.326a20,20,0,0,1-18.785-13.275h37.569A20,20,0,0,1,116.548,274.126Zm46.464-59.739H70.084a6.638,6.638,0,0,1,0-13.275h92.928a6.638,6.638,0,1,1,0,13.275ZM30.856,91.125c4.58-39.3,36.441-70.957,75.8-75.338a86.243,86.243,0,0,1,62.129,154.326A31.343,31.343,0,0,0,157.1,187.836H123.186V75a6.709,6.709,0,0,0-.2-1.128,19.913,19.913,0,1,0-12.877,0,6.707,6.707,0,0,0-.2,1.128V187.836H75.992a30.929,30.929,0,0,0-11.55-17.59A85.942,85.942,0,0,1,30.856,91.125Z" transform="translate(84.583 0)" fill="#fff"/>
    <path id="Path_128" data-name="Path 128" d="M49,22.638a6.657,6.657,0,0,0,6.638,6.638H75.551a6.638,6.638,0,0,0,0-13.275H55.638A6.657,6.657,0,0,0,49,22.638Z" transform="translate(264.972 78.908)" fill="#fff"/>
    <path id="Path_129" data-name="Path 129" d="M16.638,29.275H36.551a6.638,6.638,0,0,0,0-13.275H16.638a6.638,6.638,0,1,0,0,13.275Z" transform="translate(45.102 78.908)" fill="#fff"/>
    <path id="Path_130" data-name="Path 130" d="M51.121,36.3l18.055,8.43a7.028,7.028,0,0,0,2.788.6,6.66,6.66,0,0,0,2.854-12.678l-18.055-8.43a6.637,6.637,0,0,0-5.642,12.014Z" transform="translate(255.483 121.738)" fill="#fff"/>
    <path id="Path_131" data-name="Path 131" d="M15.771,19.815l18.055,8.43a7.028,7.028,0,0,0,2.788.6,6.66,6.66,0,0,0,2.854-12.678L21.413,7.735a6.637,6.637,0,0,0-5.642,12.014Z" transform="translate(56.191 28.829)" fill="#fff"/>
    <path id="Path_132" data-name="Path 132" d="M53.989,28.811a6.793,6.793,0,0,0,2.788-.6l18.055-8.43A6.637,6.637,0,1,0,69.19,7.769L51.135,16.2a6.6,6.6,0,0,0-3.186,8.828,6.7,6.7,0,0,0,6.04,3.85Z" transform="translate(255.402 28.86)" fill="#fff"/>
    <path id="Path_133" data-name="Path 133" d="M33.85,24.193,15.8,32.623a6.6,6.6,0,0,0-3.186,8.828,6.7,6.7,0,0,0,6.04,3.85,6.794,6.794,0,0,0,2.788-.6l18.055-8.43A6.637,6.637,0,0,0,33.85,24.259Z" transform="translate(56.166 121.826)" fill="#fff"/>
  </g>
</svg>
