<svg xmlns="http://www.w3.org/2000/svg" width="98.688" height="116.964" viewBox="0 0 98.688 116.964">
  <g id="sop" transform="translate(-5)">
    <path id="Path_2160" data-name="Path 2160" d="M40.275,14A18.3,18.3,0,0,0,22,32.275H58.551A18.3,18.3,0,0,0,40.275,14Z" transform="translate(14.068 11.586)" fill="#fff"/>
    <path id="Path_2161" data-name="Path 2161" d="M51.861,21.931A21.956,21.956,0,0,1,73.792,43.861H95.722V39.694a6.809,6.809,0,0,0-6.8-6.8,3.213,3.213,0,0,1-2.961-2.12c-.237-.6-.475-1.188-.731-1.773a3.18,3.18,0,0,1,.6-3.6,6.839,6.839,0,0,0,0-9.613l-5.9-5.9a6.979,6.979,0,0,0-9.613,0,3.18,3.18,0,0,1-3.6.6c-.585-.256-1.17-.493-1.773-.731A3.213,3.213,0,0,1,62.826,6.8a6.809,6.809,0,0,0-6.8-6.8H47.694a6.809,6.809,0,0,0-6.8,6.8,3.213,3.213,0,0,1-2.12,2.961c-.6.237-1.188.475-1.773.731a3.18,3.18,0,0,1-3.6-.6,6.979,6.979,0,0,0-9.613,0l-5.9,5.9a6.839,6.839,0,0,0,0,9.613,3.18,3.18,0,0,1,.6,3.6c-.256.585-.493,1.17-.731,1.773A3.213,3.213,0,0,1,14.8,32.9a6.809,6.809,0,0,0-6.8,6.8v4.167H29.931A21.956,21.956,0,0,1,51.861,21.931Z" transform="translate(2.483 0)" fill="#fff"/>
    <path id="Path_2162" data-name="Path 2162" d="M49.31,36.655A3.659,3.659,0,0,0,45.655,33H42v7.31h3.655A3.659,3.659,0,0,0,49.31,36.655Z" transform="translate(30.619 27.309)" fill="#fff"/>
    <path id="Path_2163" data-name="Path 2163" d="M34.483,33A5.489,5.489,0,0,0,29,38.483v3.655a5.483,5.483,0,1,0,10.965,0V38.483A5.489,5.489,0,0,0,34.483,33Z" transform="translate(19.861 27.309)" fill="#fff"/>
    <path id="Path_2164" data-name="Path 2164" d="M98.2,66.206a5.489,5.489,0,0,0,5.483-5.483V31.483A5.489,5.489,0,0,0,98.2,26H10.483A5.489,5.489,0,0,0,5,31.483V60.723a5.489,5.489,0,0,0,5.483,5.483h20.1V77.171a3.659,3.659,0,0,1-3.655,3.655h-3.84a9.138,9.138,0,1,0,0,3.655h3.84a7.319,7.319,0,0,0,7.31-7.31V66.206H52.516v11.15a9.138,9.138,0,1,0,3.655,0V66.206H74.447V77.171a7.319,7.319,0,0,0,7.31,7.31H85.6a9.138,9.138,0,1,0,0-3.655h-3.84A3.659,3.659,0,0,1,78.1,77.171V66.206ZM31.5,44.275h1.828a6.4,6.4,0,0,1,0,12.793h-6.4a1.828,1.828,0,0,1,0-3.655h6.4a2.741,2.741,0,0,0,0-5.483H31.5a6.4,6.4,0,0,1,0-12.793h6.4a1.828,1.828,0,0,1,0,3.655H31.5a2.741,2.741,0,0,0,0,5.483Zm31.982,3.655a9.138,9.138,0,0,1-18.275,0V44.275a9.138,9.138,0,1,1,18.275,0Zm9.138,7.31a1.828,1.828,0,1,1-3.655,0V36.965a1.828,1.828,0,0,1,1.828-1.828h5.483a7.31,7.31,0,0,1,0,14.62H72.619Z" transform="translate(0 21.516)" fill="#fff"/>
  </g>
</svg>
