<svg xmlns="http://www.w3.org/2000/svg" width="403.684" height="431.162" viewBox="0 0 403.684 431.162">
  <g id="case" transform="translate(-16.5)">
    <path id="Path_28" data-name="Path 28" d="M302.5,8.84V83.081h73.483Z" transform="translate(-45.156 -1.396)" fill="#fff"/>
    <path id="Path_29" data-name="Path 29" d="M367.5,419.75v57.474a20.211,20.211,0,0,0,40.421,0V419.9a113.241,113.241,0,0,1-40.421-.152Z" transform="translate(-55.418 -66.273)" fill="#fff"/>
    <ellipse id="Ellipse_1" data-name="Ellipse 1" cx="87" cy="87.5" rx="87" ry="87.5" transform="translate(246.184 154.942)" fill="#fff"/>
    <path id="Path_30" data-name="Path 30" d="M94.5,95h82.527v55.579H94.5Z" transform="translate(-12.315 -14.999)" fill="#fff"/>
    <path id="Path_31" data-name="Path 31" d="M223.263,268.634H69.553a12.632,12.632,0,1,1,0-25.263H220.3c0-.141-.008-.28-.008-.421a112.218,112.218,0,0,1,3.586-28.211H69.553a12.632,12.632,0,1,1,0-25.263H233.844a112.522,112.522,0,0,1,98.869-58.948q2.754,0,5.474.135V106.948H244.713a12.636,12.636,0,0,1-12.632-12.632V0H54.4A37.941,37.941,0,0,0,16.5,37.9V365.477a37.941,37.941,0,0,0,37.9,37.9H286.818v-57.8a112.886,112.886,0,0,1-63.555-76.935ZM56.921,67.369A12.632,12.632,0,0,1,69.553,54.737h107.79a12.632,12.632,0,0,1,12.632,12.632v80.843a12.632,12.632,0,0,1-12.632,12.632H69.553a12.632,12.632,0,0,1-12.632-12.632Zm100.211,255.16H69.553a12.632,12.632,0,1,1,0-25.263h87.58a12.632,12.632,0,1,1,0,25.263Z" fill="#fff"/>
  </g>
</svg>
