<svg xmlns="http://www.w3.org/2000/svg" width="102.979" height="124.73" viewBox="0 0 102.979 124.73">
  <g id="strategic" transform="translate(-6.63 -1.06)">
    <path id="Path_2149" data-name="Path 2149" d="M29.487,22.3H26.168a2.142,2.142,0,0,0-2.148,2.148v15.8a2.142,2.142,0,0,0,2.148,2.148H56.9a2.142,2.142,0,0,0,2.148-2.148v-15.8A2.142,2.142,0,0,0,56.9,22.3H53.582a2.142,2.142,0,0,0-2.148,2.148v4.686a1.175,1.175,0,0,1-1.172,1.172H46.67A1.175,1.175,0,0,1,45.5,29.134V24.448A2.142,2.142,0,0,0,43.35,22.3H39.758a2.142,2.142,0,0,0-2.148,2.148v4.686a1.175,1.175,0,0,1-1.172,1.172H32.846a1.175,1.175,0,0,1-1.172-1.172V24.448A2.2,2.2,0,0,0,29.487,22.3Z" transform="translate(16.565 20.233)" fill="#fff"/>
    <path id="Path_2150" data-name="Path 2150" d="M69.39,55.65H22.215a2.658,2.658,0,0,0-2.655,2.655V73.789H72.045V58.305A2.658,2.658,0,0,0,69.39,55.65ZM63.141,66.643H28.464a1.914,1.914,0,1,1,0-3.827H63.122a1.917,1.917,0,0,1,1.914,1.913A1.888,1.888,0,0,1,63.141,66.643Z" transform="translate(12.317 52.001)" fill="#fff"/>
    <path id="Path_2151" data-name="Path 2151" d="M106.387,44.095h-7.2a42.025,42.025,0,0,0-6.053-14.605l5.116-5.116a3.242,3.242,0,0,0,0-4.53l-7.42-7.4a3.205,3.205,0,0,0-4.53,0l-5.116,5.1a41.691,41.691,0,0,0-14.605-6.072v-7.2a3.2,3.2,0,0,0-3.222-3.2H52.886a3.208,3.208,0,0,0-3.222,3.2v7.224a41.443,41.443,0,0,0-14.586,6.072l-5.116-5.116a3.205,3.205,0,0,0-4.53,0l-7.42,7.4a3.223,3.223,0,0,0,0,4.53l5.116,5.135a41.928,41.928,0,0,0-6.053,14.586H9.832a3.192,3.192,0,0,0-3.2,3.2V57.782a3.192,3.192,0,0,0,3.2,3.2h7.244a41.656,41.656,0,0,0,6.053,14.605l-5.1,5.116a3.205,3.205,0,0,0,0,4.53l7.4,7.4a3.205,3.205,0,0,0,4.53,0l5.116-5.116a42.9,42.9,0,0,0,6.932,3.71A36.338,36.338,0,0,0,45.7,78.557a28.878,28.878,0,1,1,24.837,0,36.045,36.045,0,0,0,3.69,12.672A41.79,41.79,0,0,0,81.2,87.52l5.1,5.116a3.205,3.205,0,0,0,4.53,0l7.42-7.4a3.242,3.242,0,0,0,0-4.53l-5.116-5.116a41.655,41.655,0,0,0,6.053-14.605h7.2a3.208,3.208,0,0,0,3.222-3.2V47.3A3.221,3.221,0,0,0,106.387,44.095Z" transform="translate(0 0)" fill="#fff"/>
    <path id="Path_2152" data-name="Path 2152" d="M54.75,64.21c-6.775-9.392-6.775-23.04-6.287-29.64H31.807c.488,6.58.488,20.248-6.287,29.64Z" transform="translate(17.994 31.921)" fill="#fff"/>
    <path id="Path_2153" data-name="Path 2153" d="M22.04,54.229v1.328H64.821V54.229A2.525,2.525,0,0,0,62.3,51.71H24.559A2.538,2.538,0,0,0,22.04,54.229Z" transform="translate(14.679 48.248)" fill="#fff"/>
  </g>
</svg>
