<svg xmlns="http://www.w3.org/2000/svg" width="392.238" height="439.016" viewBox="0 0 392.238 439.016">
  <g id="supply-chain" transform="translate(-27.277 0)">
    <path id="Path_81" data-name="Path 81" d="M271,257.176v90.033l77.971-45.016V212.16Z" transform="translate(-34.742 -30.243)" fill="#fff"/>
    <path id="Path_82" data-name="Path 82" d="M243.038,223.713l77.97-45.017-77.97-45.015L165.067,178.7Z" transform="translate(-19.641 -19.056)" fill="#fff"/>
    <path id="Path_83" data-name="Path 83" d="M228.038,257.176,150.067,212.16v90.033l77.971,45.016Z" transform="translate(-17.503 -30.243)" fill="#fff"/>
    <path id="Path_84" data-name="Path 84" d="M403.242,272.109a188,188,0,0,0-.033-105.174,45.007,45.007,0,0,0-44.336-76.877,187.993,187.993,0,0,0-91.1-52.559,45.008,45.008,0,0,0-88.746-.042,188,188,0,0,0-91.063,52.61,45.011,45.011,0,0,0-44.413,76.841,188,188,0,0,0,.033,105.174,45.048,45.048,0,0,0,28.77,79.709,44.505,44.505,0,0,0,15.561-2.835,188,188,0,0,0,91.1,52.563,45.007,45.007,0,0,0,88.746.04,187.987,187.987,0,0,0,91.058-52.606,45.014,45.014,0,0,0,44.419-76.844ZM264.57,375.834a44.995,44.995,0,0,0-82.332-.037,162.22,162.22,0,0,1-73.621-42.451,45.013,45.013,0,0,0-41.15-71.336,162.212,162.212,0,0,1-.043-85A45.03,45.03,0,0,0,108.642,105.7a162.213,162.213,0,0,1,73.58-42.521,45,45,0,0,0,82.333.037,162.218,162.218,0,0,1,73.638,42.468,45.018,45.018,0,0,0,41.135,71.326,162.2,162.2,0,0,1,.039,85,44.994,44.994,0,0,0-41.2,71.282,162.2,162.2,0,0,1-73.6,42.538Z" fill="#fff"/>
  </g>
</svg>
