<svg enable-background="new 0 0 32 32" viewBox="0 0 32 32" xmlns="http://www.w3.org/2000/svg" width="300" height="300" version="1.1" xmlns:xlink="http://www.w3.org/1999/xlink" xmlns:svgjs="http://svgjs.dev/svgjs"><g width="100%" height="100%" transform="matrix(1,0,0,1,0,0)"><g id="Guides"/><g id="_x32_0"/><g id="_x31_9"/><g id="_x31_8"/><g id="_x31_7"/><g id="_x31_6"/><g id="_x31_5"><path d="m9.7226563 7.0836792c.1679688-.1123047.3867188-.1123047.5546875 0l.7226562.4819336v-2.5656128h-2v2.5656128z" fill="#ffffff" fill-opacity="1" data-original-color="#000000ff" stroke="none" stroke-opacity="1"/><path d="m15 5h-3v3.4996948c0 .1845703-.1015625.3540039-.2641602.440918-.0737304.0395508-.1547851.059082-.2358398.059082-.097168 0-.1938477-.0283203-.2773438-.0839844l-1.2226562-.8149414-1.2226562.8149414c-.1533204.1025391-.3510743.1123047-.5131836.0249024-.1625977-.0869141-.2641602-.2563477-.2641602-.440918v-3.4996948h-3v9h9c.5522852 0 1-.4477148 1-1z" fill="#ffffff" fill-opacity="1" data-original-color="#000000ff" stroke="none" stroke-opacity="1"/><path d="m7 2 2 2h2l-2-2z" fill="#ffffff" fill-opacity="1" data-original-color="#000000ff" stroke="none" stroke-opacity="1"/><path d="m2.7000122 2 2 2h3.2999878l-2-2z" fill="#ffffff" fill-opacity="1" data-original-color="#000000ff" stroke="none" stroke-opacity="1"/><path d="m12.9929199 2.2929077c-.187561-.187561-.4418945-.2929077-.7071533-.2929077h-2.2857666l2 2h2.7000122z" fill="#ffffff" fill-opacity="1" data-original-color="#000000ff" stroke="none" stroke-opacity="1"/><path d="m2 2.7 2 1.9999998v9l-1.7071068-1.7071066c-.1875363-.1875362-.2928932-.4418907-.2928932-.7071066z" fill="#ffffff" fill-opacity="1" data-original-color="#000000ff" stroke="none" stroke-opacity="1"/><path d="m22.2773438 7.0836792c-.1679688-.1123047-.3867188-.1123047-.5546875 0l-.7226563.4819336v-2.5656128h2v2.5656128z" fill="#ffffff" fill-opacity="1" data-original-color="#000000ff" stroke="none" stroke-opacity="1"/><path d="m17 5h3v3.4996948c0 .1845703.1015625.3540039.2641602.440918.0737304.0395508.1547851.059082.2358398.059082.097168 0 .1938477-.0283203.2773438-.0839844l1.2226562-.8149414 1.2226563.8149414c.1533203.1025391.3510742.1123047.5131836.0249023.1625976-.086914.2641601-.2563476.2641601-.4409179v-3.4996948h3v9h-9c-.5522842 0-1-.4477148-1-1z" fill="#ffffff" fill-opacity="1" data-original-color="#000000ff" stroke="none" stroke-opacity="1"/><path d="m25 2-2 2h-2l2-2z" fill="#ffffff" fill-opacity="1" data-original-color="#000000ff" stroke="none" stroke-opacity="1"/><path d="m29.2999878 2-2 2h-3.2999878l2-2z" fill="#ffffff" fill-opacity="1" data-original-color="#000000ff" stroke="none" stroke-opacity="1"/><path d="m19.0070801 2.2929077c.187561-.187561.4418945-.2929077.7071533-.2929077h2.2857666l-2 2h-2.7000122z" fill="#ffffff" fill-opacity="1" data-original-color="#000000ff" stroke="none" stroke-opacity="1"/><path d="m30 2.7-2 1.9999998v9l1.7071075-1.7071066c.1875363-.1875362.2928925-.4418907.2928925-.7071066z" fill="#ffffff" fill-opacity="1" data-original-color="#000000ff" stroke="none" stroke-opacity="1"/><path d="m20.5761719 23h-2.3564453c-.5494995.609314-1.3365479 1-2.2197266 1h-9c-1.6542969 0-3-1.3457031-3-3s1.3457031-3 3-3h9c.8831787 0 1.6702271.390686 2.2197266 1h2.3564453c-.7737427-1.7626953-2.531128-3-4.5761719-3h-9c-2.7568359 0-5 2.2431641-5 5s2.2431641 5 5 5h9c2.0450439 0 3.8024292-1.2373047 4.5761719-3z" fill="#ffffff" fill-opacity="1" data-original-color="#000000ff" stroke="none" stroke-opacity="1"/><path d="m25 20h-9c-2.0450439 0-3.8024292 1.2373047-4.5761719 3h2.3564453c.5494995-.609314 1.3365479-1 2.2197266-1h9c1.6542969 0 3 1.3457031 3 3s-1.3457031 3-3 3h-9c-.8831787 0-1.6702271-.390686-2.2197266-1h-2.3564453c.7737427 1.7626953 2.531128 3 4.5761719 3h9c2.7568359 0 5-2.2431641 5-5s-2.2431641-5-5-5z" fill="#ffffff" fill-opacity="1" data-original-color="#000000ff" stroke="none" stroke-opacity="1"/></g><g id="_x31_4"/><g id="_x31_3"/><g id="_x31_2"/><g id="_x31_1"/><g id="_x31_0"/><g id="_x30_9"/><g id="_x30_8"/><g id="_x30_7"/><g id="_x30_6"/><g id="_x30_5"/><g id="_x30_4"/><g id="_x30_3"/><g id="_x30_2"/><g id="_x30_1"/></g></svg>