<svg xmlns="http://www.w3.org/2000/svg" width="440.16" height="361.185" viewBox="0 0 440.16 361.185">
  <g id="price-tag" transform="translate(0 -43.469)">
    <g id="Group_1" data-name="Group 1" transform="translate(0 43.469)">
      <path id="Path_32" data-name="Path 32" d="M368.746,253.362,205.052,417.056a58.063,58.063,0,0,1-6.177,5.36,32.648,32.648,0,0,0,8.448,1.09H361.206A33.845,33.845,0,0,0,395,389.713V252.09a182.437,182.437,0,0,1-22.438-2.816Q370.79,251.318,368.746,253.362Z" transform="translate(-18.217 -62.32)" fill="#fff"/>
      <path id="Path_33" data-name="Path 33" d="M419.75,127.319l-.818-.818c-15.17-15.17-37.244-29.16-62.316-39.606-4.542-1.908-9.175-3.634-13.808-5.178v-.273A37,37,0,0,0,306.29,44.927l-98.107-1.453a48.158,48.158,0,0,0-34.7,14.08L9.879,221.339a33.828,33.828,0,0,0,0,47.782L118.705,377.947a33.828,33.828,0,0,0,47.782,0L330.272,214.162a48.645,48.645,0,0,0,10.719-16.351c16.442,4.633,32.43,7.086,46.51,6.995,34.883-.182,46.419-15.443,50.235-24.527C441.461,171.195,444.186,152.209,419.75,127.319Zm-202.665,92.93c-3.815,2.089-7.721,4.36-11.628,6.359-3.724,1.908-5,1.453-6.359-2.544a48.878,48.878,0,0,0-13.626-20.439,18.46,18.46,0,0,0-5.45-3.634c-7.449-2.907-13.989,1.908-13.081,9.9a42.887,42.887,0,0,0,3.27,11.537c2.634,6.45,5.45,12.9,7.358,19.621,6.177,21.438-7.449,42.513-28.978,44.6a36.79,36.79,0,0,1-22.074-4.815c-3-1.726-5.269-1.544-7.54,1-2.271,2.453-4.815,4.724-7.176,7.086-2.089,2.089-4.36,2.18-6.45.091-2.634-2.453-5.178-5.087-7.721-7.631-2.18-2.271-2-4.633.182-6.813,1.726-1.726,3.452-3.543,5.178-5.269,3.815-3.906,3.815-4.179.727-8.448A65.5,65.5,0,0,1,94,243.231c-1.726-5-1.272-6.268,3.27-8.811,3.361-1.908,6.722-3.815,10.174-5.632,4-2.089,5.178-1.635,6.54,2.634a62.825,62.825,0,0,0,10.628,19.712,26.325,26.325,0,0,0,11.264,8.63c8.539,3.361,16.351-2.634,15.443-11.718a31.336,31.336,0,0,0-2.362-8.993c-2.907-7.449-6.631-14.625-8.539-22.528-3.179-12.718-1.726-24.345,8.539-33.429,11.628-10.265,24.618-10.9,38.335-4.542,5.632,2.634,5.632,2.725,9.992-1.635,1.453-1.453,2.907-2.907,4.451-4.36,3.361-3.179,4.451-3.179,7.812,0l3,3c6.9,6.9,6.9,6.9,0,13.9-4.905,4.905-4.905,4.905-.818,10.537a59.5,59.5,0,0,1,7.54,13.989C220.265,216.706,219.72,218.8,217.085,220.249Zm194.307-50.871c-3.089,7.358-36.064,13.808-86.117-7.086A192.354,192.354,0,0,1,285.761,140.4c-.363.454-.818.908-1.181,1.363a28.005,28.005,0,1,1,7.9-15.715A194.212,194.212,0,0,0,329.818,146.4c4.905,2,9.538,3.815,14.08,5.36l-.545-39.425c.818.363,1.544.636,2.362,1,21.438,8.9,40.7,21.075,53.142,33.52l.545.545C411.211,159.295,412.392,166.925,411.393,169.378Z" transform="translate(0 -43.469)" fill="#fff"/>
    </g>
  </g>
</svg>
