<svg xmlns="http://www.w3.org/2000/svg" width="117.895" height="109.019" viewBox="0 0 117.895 109.019">
  <g id="setting" transform="translate(-1.883 -3)">
    <path id="Path_2154" data-name="Path 2154" d="M55.737,17a12.507,12.507,0,0,0-9.4,4.3l-10-4c-.524-.1-1.036-.2-1.56-.3H20.1A2.1,2.1,0,0,0,18,19.1V23.29a2.1,2.1,0,0,0,2.1,2.1h13.87l9.241,3.7A12.558,12.558,0,1,0,55.737,17Zm0,18.869a6.29,6.29,0,1,1,6.29-6.29A6.3,6.3,0,0,1,55.737,35.869Z" transform="translate(51.461 44.702)" fill="#fff"/>
    <path id="Path_2155" data-name="Path 2155" d="M33.25,29.541l-3.111-6.222A4.2,4.2,0,0,0,26.386,21H20.1A2.1,2.1,0,0,0,18,23.1V27.29a2.1,2.1,0,0,0,2.1,2.1h3.7l1.937,3.87a12.6,12.6,0,1,0,7.518-3.715Zm1.522,18.713a6.29,6.29,0,1,1,6.29-6.29A6.3,6.3,0,0,1,34.772,48.255Z" transform="translate(51.461 57.474)" fill="#fff"/>
    <path id="Path_2156" data-name="Path 2156" d="M20.1,34.158h14.68l1.551-.3,10.009-4a12.553,12.553,0,1,0-3.128-7.782l-9.241,3.7H20.1a2.1,2.1,0,0,0-2.1,2.1v4.193A2.1,2.1,0,0,0,20.1,34.158ZM55.737,15.29a6.29,6.29,0,1,1-6.29,6.29A6.3,6.3,0,0,1,55.737,15.29Z" transform="translate(51.461 19.158)" fill="#fff"/>
    <path id="Path_2157" data-name="Path 2157" d="M20.1,36.544h6.29a4.187,4.187,0,0,0,3.749-2.319L33.246,28a12.529,12.529,0,1,0-7.514-3.715l-1.937,3.87H20.1a2.1,2.1,0,0,0-2.1,2.1v4.193A2.1,2.1,0,0,0,20.1,36.544ZM34.772,9.29a6.29,6.29,0,1,1-6.29,6.29A6.3,6.3,0,0,1,34.772,9.29Z" transform="translate(51.461 0)" fill="#fff"/>
    <path id="Path_2158" data-name="Path 2158" d="M63.172,100.84,61.4,110.308a2.1,2.1,0,0,1-2.063,1.711H46.043a2.091,2.091,0,0,1-2.059-1.711L41.67,97.955A41.856,41.856,0,0,1,23.208,87.267l-11.887,4.18a2.093,2.093,0,0,1-2.512-.931L2.163,79.007a2.1,2.1,0,0,1,.453-2.642l9.564-8.2a41.855,41.855,0,0,1-.025-21.334L2.616,38.649a2.1,2.1,0,0,1-.453-2.642L8.809,24.5a2.1,2.1,0,0,1,2.512-.931l11.891,4.18A40.69,40.69,0,0,1,41.662,17.1L43.984,4.715A2.094,2.094,0,0,1,46.043,3H59.335a2.091,2.091,0,0,1,2.059,1.711l1.778,9.468V34.695a24.844,24.844,0,0,0-10.483-2.344A25.158,25.158,0,1,0,63.172,80.328Z" transform="translate(0 0)" fill="#fff"/>
  </g>
</svg>
