<svg xmlns="http://www.w3.org/2000/svg" width="452.25" height="395.487" viewBox="0 0 452.25 395.487">
  <g id="presentation" transform="translate(0)">
    <path id="Path_122" data-name="Path 122" d="M433.12,0H234.43A41.628,41.628,0,0,0,192.8,41.629V139.5c10.5,5.22,21.851,10.865,32.444,16.131L241.452,123.2a39.749,39.749,0,1,1,71.106,35.553l-28.89,57.794a60.356,60.356,0,0,1-2.07,22.824h19.074L250.364,377.707a13.248,13.248,0,1,0,24.9,9.054l53.6-147.387h9.285l54.144,147.432a13.249,13.249,0,0,0,24.874-9.133l-50.79-138.3h66.744a41.63,41.63,0,0,0,41.629-41.629V41.629A41.63,41.63,0,0,0,433.121,0Zm-28.39,182.612H345.284a13.249,13.249,0,1,1,0-26.5h59.447a13.249,13.249,0,0,1,0,26.5Zm0-49.675H345.284a13.25,13.25,0,1,1,0-26.5h59.447a13.25,13.25,0,0,1,0,26.5Zm0-49.668H262.82a13.249,13.249,0,0,1,0-26.5H404.731a13.249,13.249,0,0,1,0,26.5Zm0,0" transform="translate(-22.5)" fill="#fff"/>
    <path id="Path_123" data-name="Path 123" d="M233.122,237.192a34.257,34.257,0,0,0,.355-21.03L266.36,150.4a13.249,13.249,0,0,0-23.7-11.852l-28.045,56.083c-16.762-8.346-42.229-21.009-62.745-31.212-19.088-9.492-32.71-18-55.952-18H84.21a34.271,34.271,0,1,0-.01,0,84.631,84.631,0,0,0-59.516,24.65A83.541,83.541,0,0,0,0,229.629V272.2a41.7,41.7,0,0,0,28.383,39.472v74.059a13.248,13.248,0,0,0,13.249,13.249h85.149a13.248,13.248,0,0,0,13.249-13.249V236.868c12.563,6.28,29.066,14.53,42.419,21.21a36.293,36.293,0,0,0,50.621-20.73l.052-.155Zm0,0" transform="translate(0 -3.501)" fill="#fff"/>
  </g>
</svg>
