<svg xmlns="http://www.w3.org/2000/svg" width="88.567" height="104.729" viewBox="0 0 88.567 104.729">
  <path id="online-learning_2_" data-name="online-learning (2)" d="M28.517,14.667a36.932,36.932,0,0,1,39.534,0,4.368,4.368,0,0,0,5.78-.953A3.663,3.663,0,0,0,72.8,8.366a45.79,45.79,0,0,0-49.034,0,3.663,3.663,0,0,0-1.03,5.348A4.368,4.368,0,0,0,28.517,14.667ZM48.283,24.3a19.013,19.013,0,0,0-8.992,2.224,4.34,4.34,0,0,1-5.672-1.4,3.688,3.688,0,0,1,1.515-5.248,28.175,28.175,0,0,1,26.3,0,3.688,3.688,0,0,1,1.515,5.248,4.34,4.34,0,0,1-5.673,1.4A19.01,19.01,0,0,0,48.283,24.3Zm-4.151,20.5c-9.311-5.452-21.863-7.969-31.3-8.928A7.848,7.848,0,0,0,4,43.527V88.4c0,4.506,3.97,8.159,8.832,8.653,9.438.96,21.99,3.476,31.3,8.929Zm8.3,61.187c9.311-5.452,21.863-7.969,31.3-8.929,4.862-.494,8.832-4.147,8.832-8.653V43.527a7.848,7.848,0,0,0-8.832-7.663c-9.437.959-21.99,3.476-31.3,8.928Z" transform="translate(-4 -1.25)" fill="#fff" fill-rule="evenodd"/>
</svg>
