<?xml version="1.0" encoding="UTF-8"?>
<svg id="Layer_1" xmlns="http://www.w3.org/2000/svg" xmlns:xlink="http://www.w3.org/1999/xlink" viewBox="0 0 2146 744">
  <defs>
    <style>
      .cls-1 {
        fill: url(#linear-gradient-2);
      }

      .cls-1, .cls-2 {
        fillRule: evenodd;
      }

      .cls-2 {
        fill: url(#radial-gradient);
      }

      .cls-3 {
        fill: url(#linear-gradient);
      }
    </style>
    <radialGradient id="radial-gradient" cx="686.11" cy="40.26" fx="686.11" fy="40.26" r=".78" gradientTransform="translate(-35991.81 632716.5) rotate(-90) scale(921)" gradientUnits="userSpaceOnUse">
      <stop offset="0" stop-color="#d9dcff"/>
      <stop offset=".22" stop-color="#565ef4"/>
      <stop offset="1" stop-color="#0f172a" stop-opacity="0"/>
    </radialGradient>
    <linearGradient id="linear-gradient" x1="685.43" y1="41.15" x2="685.5" y2="42.01" gradientTransform="translate(-453445.06 -13492.22) scale(664 345)" gradientUnits="userSpaceOnUse">
      <stop offset="0" stop-color="#5665f4"/>
      <stop offset="1" stop-color="#6865ef"/>
    </linearGradient>
    <linearGradient id="linear-gradient-2" x1="684.89" y1="40.92" x2="685.2" y2="41.77" gradientTransform="translate(-314787 -17277) scale(461 427)" gradientUnits="userSpaceOnUse">
      <stop offset="0" stop-color="#6366f1"/>
      <stop offset="1" stop-color="#6366f1" stop-opacity="0"/>
    </linearGradient>
  </defs>
  <path class="cls-2" d="M-140-114h2440v921H-140V-114Z"/>
  <path class="cls-3" d="M1835.72,667.76c-3.68-3-8.76-3.61-13.04-1.57-4.29,2.05-7.02,6.38-7.01,11.13v98.57h-430.37c-6.79,0-12.3,5.52-12.3,12.32v98.57c0,6.8,5.51,12.32,12.3,12.32h430.37v98.57c0,4.75,2.73,9.08,7.01,11.13,4.28,2.04,9.36,1.43,13.04-1.57l196.74-160.18c2.87-2.34,4.54-5.85,4.54-9.56s-1.67-7.22-4.54-9.56l-196.74-160.18h0Z"/>
  <polygon class="cls-1" points="773 160 1234 529 950 587 773 160"/>
</svg>