<?xml version="1.0" encoding="UTF-8"?>
<svg id="Layer_1" xmlns="http://www.w3.org/2000/svg" xmlns:xlink="http://www.w3.org/1999/xlink" viewBox="0 0 2146 744">
  <defs>
    <style>
      .cls-1 {
        mask: url(#mask);
      }

      .cls-2 {
        fill: url(#linear-gradient-2);
      }

      .cls-2, .cls-3, .cls-4 {
        fillRule: evenodd;
      }

      .cls-3 {
        fill: #fff;
      }

      .cls-4 {
        fill: url(#radial-gradient);
      }

      .cls-5 {
        fill: url(#linear-gradient);
      }

      .cls-6 {
        filter: url(#g);
      }

      .cls-7 {
        filter: url(#e);
      }
    </style>
    <mask id="mask" x="-140" y="-114" width="2440" height="1273.93" maskUnits="userSpaceOnUse">
      <g id="b">
        <path id="a" class="cls-3" d="M-140-114h2440v921H-140V-114Z"/>
      </g>
    </mask>
    <radialGradient id="radial-gradient" cx="573.29" cy="872.62" fx="573.29" fy="872.62" r=".78" gradientTransform="translate(804768.2 528810.5) rotate(-90) scale(921 -921)" gradientUnits="userSpaceOnUse">
      <stop offset="0" stop-color="#d9dcff"/>
      <stop offset=".22" stop-color="#565ef4"/>
      <stop offset="1" stop-color="#0f172a" stop-opacity="0"/>
    </radialGradient>
    <filter id="e" x="-22.6%" y="-43.5%" width="145.2%" height="187%">
      <feGaussianBlur in="SourceGraphic" stdDeviation="50"/>
    </filter>
    <linearGradient id="linear-gradient" x1="572.6" y1="872.33" x2="572.67" y2="871.47" gradientTransform="translate(-378526.07 301659.79) scale(664 -345)" gradientUnits="userSpaceOnUse">
      <stop offset="0" stop-color="#5665f4"/>
      <stop offset="1" stop-color="#6865ef"/>
    </linearGradient>
    <filter id="g" x="-32.5%" y="-35.1%" width="165.1%" height="170.3%">
      <feGaussianBlur in="SourceGraphic" stdDeviation="50"/>
    </filter>
    <linearGradient id="linear-gradient-2" x1="572.13" y1="872.47" x2="572.44" y2="871.62" gradientTransform="translate(-262807 372741) scale(461 -427)" gradientUnits="userSpaceOnUse">
      <stop offset="0" stop-color="#6366f1"/>
      <stop offset="1" stop-color="#6366f1" stop-opacity="0"/>
    </linearGradient>
  </defs>
  <g class="cls-1">
    <g>
      <path class="cls-4" d="M-140-114h2440v921H-140V-114Z"/>
      <g class="cls-7">
        <path class="cls-5" d="M1835.72,667.76c-3.68-3-8.76-3.61-13.04-1.57-4.29,2.05-7.02,6.38-7.01,11.13v98.57h-430.37c-6.79,0-12.3,5.52-12.3,12.32v98.57c0,6.8,5.51,12.32,12.3,12.32h430.37v98.57c0,4.75,2.73,9.08,7.01,11.13,4.28,2.04,9.36,1.43,13.04-1.57l196.74-160.18c2.87-2.34,4.54-5.85,4.54-9.56,0-3.71-1.67-7.22-4.54-9.56l-196.74-160.18h0Z"/>
      </g>
      <g class="cls-6">
        <polygon class="cls-2" points="773 160 1234 529 950 587 773 160"/>
      </g>
    </g>
  </g>
</svg>