<?xml version="1.0" encoding="UTF-8"?>
<svg id="Layer_1" xmlns="http://www.w3.org/2000/svg" viewBox="0 0 200 200">
  <defs>
    <style>
      .cls-1 {
        fill: #fff;
      }
    </style>
  </defs>
  <path class="cls-1" d="M169.31,165.34l-6.83,6.84c-5.65,5.66-15.31,3.08-17.39-4.64l-2.51-9.34c-2.08-7.73,4.99-14.8,12.71-12.74l9.34,2.49c7.73,2.06,10.33,11.72,4.68,17.38ZM173.66,119.21h0c7.97,6.28,19.75,1.57,21.2-8.47h0c1.45-10.04-8.52-17.89-17.94-14.13h0c-9.42,3.77-11.24,16.32-3.26,22.6ZM152.14,134.47h0c7.02-.42,10.95-8.28,7.08-14.15h0c-3.87-5.87-12.64-5.34-15.79.94h0c-3.15,6.29,1.69,13.62,8.71,13.2ZM104.6,152.89l14.67,13.02c2,1.77,5.17.72,5.7-1.9l3.94-19.22c.54-2.62-1.96-4.83-4.5-3.99l-18.61,6.2c-2.53.84-3.2,4.11-1.21,5.89ZM155.11,73.13h0c-6.89-1.41-12.72,5.16-10.5,11.83h0c2.22,6.67,10.83,8.43,15.5,3.18h0c4.67-5.26,1.89-13.6-5-15.01ZM139.54,99.02l-5.2-4.09c-2.53-1.99-6.26-.5-6.72,2.69l-.95,6.55c-.46,3.18,2.7,5.67,5.69,4.48l6.14-2.46c2.99-1.19,3.56-5.17,1.03-7.16ZM130.53,82.75l1.49-5.59c.88-3.29-2.13-6.29-5.42-5.41l-5.59,1.5c-3.28.88-4.38,4.99-1.97,7.39l4.1,4.09c2.41,2.4,6.51,1.3,7.39-1.99ZM129.26,128.96l-3.17-11.78c-.51-1.91-2.9-2.54-4.29-1.15l-8.62,8.64c-1.4,1.4-.75,3.78,1.15,4.29l11.79,3.15c1.91.51,3.65-1.24,3.14-3.15ZM88.66,124.97l7.83,19.58,13.05-16.57-20.87-3.01ZM120.18,6.41l-17.56-2.54c-6.14-.89-10.94,5.21-8.64,10.97l6.58,16.47c2.3,5.76,9.98,6.87,13.82,2l10.97-13.94c3.84-4.88.96-12.08-5.18-12.97ZM147.33,40.15h0c-2.62,9.8,6.36,18.77,16.16,16.13h0c9.8-2.64,13.07-14.89,5.89-22.06h0c-7.18-7.17-19.43-3.87-22.05,5.93ZM120.96,40.84h0c-5.87,3.87-5.34,12.64.94,15.79h0c6.29,3.15,13.62-1.69,13.2-8.71h0c-.42-7.02-8.28-10.95-14.15-7.08ZM94.96,45.42l-12.24-10.86c-2.54-2.25-6.56-.91-7.24,2.41l-3.29,16.03c-.68,3.32,2.49,6.14,5.71,5.07l15.53-5.17c3.22-1.07,4.07-5.23,1.53-7.48ZM96.89,72.22l9.59,1.38c2.51.36,4.47-2.13,3.53-4.48l-3.6-9c-.94-2.35-4.07-2.81-5.64-.81l-5.99,7.61c-1.57,1.99-.39,4.93,2.12,5.29ZM70.37,66.13l5.48,20.37,14.9-14.93-20.38-5.44ZM66.39,191.11l45.2,6.53-16.95-42.41-28.25,35.88ZM58.95,137.31l-44.1,11.86,32.32,32.26,11.78-44.12ZM66.23,167.39l26.41-17.42-28.29-14.16,1.89,31.58ZM60.77,129.56l-10-30.02-21,23.66,30.99,6.35ZM71.83,109.37l-5.44,20.38,20.37-5.48-14.93-14.9ZM71.73,109.07l3.01-20.87-19.59,7.83,16.57,13.05ZM62.49,58.69l-11.86-44.1L18.36,46.91l44.12,11.78ZM44.67,94.43l-35.88-28.25-6.53,45.2,42.41-16.95ZM32.46,65.99l17.42,26.41,14.16-28.29-31.58,1.89Z"/>
</svg>