<svg width="988" height="141" viewBox="0 0 988 141" fill="none" xmlns="http://www.w3.org/2000/svg">
<rect x="210" y="89" width="265" height="52" rx="26" fill="#18A0FB"/>
<path d="M270.344 123.12C269.208 123.12 268.224 122.976 267.392 122.688C266.576 122.384 265.944 121.904 265.496 121.248C265.048 120.576 264.792 119.68 264.728 118.56L264.296 108.888H267.68L268.088 117.384C268.12 118.04 268.224 118.544 268.4 118.896C268.592 119.232 268.864 119.464 269.216 119.592C269.568 119.704 270.024 119.76 270.584 119.76C271.192 119.76 271.624 119.92 271.88 120.24C272.136 120.544 272.264 120.928 272.264 121.392C272.264 121.888 272.096 122.304 271.76 122.64C271.44 122.96 270.968 123.12 270.344 123.12ZM265.952 120.888C264.88 121.128 263.848 121.24 262.856 121.224C261.864 121.192 260.976 121.016 260.192 120.696C259.408 120.36 258.784 119.88 258.32 119.256C257.872 118.632 257.648 117.84 257.648 116.88C257.648 116.032 257.832 115.264 258.2 114.576C258.584 113.872 259.112 113.256 259.784 112.728C260.472 112.2 261.272 111.752 262.184 111.384C263.096 111.016 264.088 110.736 265.16 110.544L265.496 113.952C264.808 113.984 264.184 114.08 263.624 114.24C263.08 114.384 262.608 114.576 262.208 114.816C261.824 115.056 261.528 115.328 261.32 115.632C261.112 115.92 261.008 116.232 261.008 116.568C261.008 116.84 261.104 117.064 261.296 117.24C261.488 117.416 261.744 117.56 262.064 117.672C262.384 117.768 262.752 117.824 263.168 117.84C263.584 117.856 264.008 117.832 264.44 117.768C264.888 117.704 265.328 117.6 265.76 117.456L265.952 120.888ZM266.024 106.416C265.56 106.416 265.16 106.256 264.824 105.936C264.504 105.6 264.344 105.208 264.344 104.76C264.344 104.296 264.504 103.896 264.824 103.56C265.16 103.224 265.56 103.056 266.024 103.056C266.472 103.056 266.856 103.224 267.176 103.56C267.496 103.896 267.656 104.296 267.656 104.76C267.656 105.208 267.496 105.6 267.176 105.936C266.856 106.256 266.472 106.416 266.024 106.416ZM261.872 106.392C261.408 106.392 261.008 106.232 260.672 105.912C260.352 105.576 260.192 105.184 260.192 104.736C260.192 104.272 260.352 103.872 260.672 103.536C261.008 103.2 261.408 103.032 261.872 103.032C262.32 103.032 262.704 103.2 263.024 103.536C263.344 103.872 263.504 104.272 263.504 104.736C263.504 105.184 263.344 105.576 263.024 105.912C262.704 106.232 262.32 106.392 261.872 106.392ZM270.336 123.12L270.576 119.76C271.536 119.76 272.272 119.712 272.784 119.616C273.296 119.52 273.648 119.344 273.84 119.088C274.048 118.816 274.152 118.432 274.152 117.936C274.152 117.488 274.088 116.952 273.96 116.328C273.848 115.704 273.696 115.056 273.504 114.384C273.328 113.712 273.136 113.096 272.928 112.536L276.24 111.624C276.448 112.168 276.648 112.8 276.84 113.52C277.032 114.24 277.192 114.984 277.32 115.752C277.448 116.504 277.512 117.232 277.512 117.936C277.512 119.024 277.336 119.912 276.984 120.6C276.632 121.272 276.136 121.792 275.496 122.16C274.872 122.528 274.12 122.784 273.24 122.928C272.36 123.056 271.392 123.12 270.336 123.12ZM276.264 128.688C275.8 128.688 275.4 128.52 275.064 128.184C274.744 127.864 274.584 127.48 274.584 127.032C274.584 126.568 274.744 126.168 275.064 125.832C275.4 125.496 275.8 125.328 276.264 125.328C276.712 125.328 277.096 125.496 277.416 125.832C277.736 126.168 277.896 126.568 277.896 127.032C277.896 127.48 277.736 127.864 277.416 128.184C277.096 128.52 276.712 128.688 276.264 128.688ZM272.112 128.688C271.648 128.688 271.248 128.52 270.912 128.184C270.592 127.864 270.432 127.48 270.432 127.032C270.432 126.568 270.592 126.168 270.912 125.832C271.248 125.496 271.648 125.328 272.112 125.328C272.56 125.328 272.944 125.496 273.264 125.832C273.584 126.168 273.744 126.568 273.744 127.032C273.744 127.48 273.584 127.864 273.264 128.184C272.944 128.52 272.56 128.688 272.112 128.688ZM279.801 122.04L280.977 118.992C281.569 119.248 282.137 119.44 282.681 119.568C283.225 119.696 283.769 119.76 284.313 119.76C284.873 119.76 285.337 119.712 285.705 119.616C286.089 119.504 286.377 119.344 286.569 119.136C286.761 118.928 286.857 118.68 286.857 118.392C286.857 118.12 286.769 117.744 286.593 117.264C286.433 116.784 286.137 116.16 285.705 115.392C285.273 114.608 284.641 113.64 283.809 112.488L286.665 110.592C287.433 111.68 288.097 112.744 288.657 113.784C289.217 114.808 289.649 115.768 289.953 116.664C290.273 117.544 290.433 118.32 290.433 118.992C290.433 119.824 290.209 120.552 289.761 121.176C289.329 121.784 288.681 122.264 287.817 122.616C286.969 122.968 285.921 123.144 284.673 123.144C284.209 123.144 283.689 123.104 283.113 123.024C282.537 122.944 281.953 122.824 281.361 122.664C280.785 122.504 280.265 122.296 279.801 122.04ZM298.967 123.12C297.479 123.12 296.327 122.968 295.511 122.664C294.711 122.36 294.151 121.888 293.831 121.248C293.511 120.592 293.327 119.768 293.279 118.776L292.775 105.432H296.135L296.639 117.168C296.671 117.904 296.751 118.456 296.879 118.824C297.007 119.192 297.247 119.44 297.599 119.568C297.967 119.696 298.503 119.76 299.207 119.76C299.815 119.76 300.247 119.92 300.503 120.24C300.775 120.544 300.911 120.928 300.911 121.392C300.911 121.888 300.743 122.304 300.407 122.64C300.071 122.96 299.591 123.12 298.967 123.12ZM323.072 123.12C322.256 123.12 321.472 123.048 320.72 122.904C319.968 122.744 319.288 122.536 318.68 122.28C318.088 122.024 317.6 121.736 317.216 121.416L319.376 119.088C319.952 119.328 320.544 119.504 321.152 119.616C321.76 119.712 322.48 119.76 323.312 119.76C323.92 119.76 324.352 119.92 324.608 120.24C324.88 120.544 325.016 120.928 325.016 121.392C325.016 121.888 324.848 122.304 324.512 122.64C324.176 122.96 323.696 123.12 323.072 123.12ZM311.432 123.432C309.944 123.432 308.704 123.368 307.712 123.24C306.736 123.112 305.944 122.928 305.336 122.688C304.728 122.448 304.248 122.16 303.896 121.824C303.544 121.488 303.256 121.12 303.032 120.72L303.704 120.528C303.304 121.296 302.848 121.864 302.336 122.232C301.824 122.6 301.288 122.84 300.728 122.952C300.168 123.064 299.592 123.12 299 123.12L299.24 119.76C299.736 119.76 300.128 119.68 300.416 119.52C300.704 119.36 300.936 119.096 301.112 118.728C301.304 118.36 301.48 117.872 301.64 117.264C301.8 116.656 301.992 115.912 302.216 115.032L305.264 115.776C305.152 116.208 305.056 116.584 304.976 116.904C304.912 117.224 304.856 117.504 304.808 117.744C304.776 117.968 304.76 118.152 304.76 118.296C304.76 118.6 304.832 118.872 304.976 119.112C305.12 119.336 305.4 119.52 305.816 119.664C306.232 119.792 306.84 119.896 307.64 119.976C308.456 120.04 309.52 120.072 310.832 120.072C312.224 120.072 313.384 120.024 314.312 119.928C315.24 119.816 315.976 119.664 316.52 119.472C317.08 119.264 317.48 119.016 317.72 118.728C317.96 118.424 318.08 118.08 318.08 117.696C318.08 117.392 318.008 117.112 317.864 116.856C317.736 116.584 317.52 116.36 317.216 116.184C316.912 116.008 316.52 115.92 316.04 115.92C315.464 115.92 314.88 116.064 314.288 116.352C313.712 116.624 313.144 116.992 312.584 117.456C312.024 117.904 311.488 118.408 310.976 118.968C310.48 119.528 310.032 120.088 309.632 120.648L306.032 120.24C306.656 119.232 307.36 118.264 308.144 117.336C308.928 116.408 309.768 115.592 310.664 114.888C311.56 114.168 312.488 113.6 313.448 113.184C314.408 112.768 315.384 112.56 316.376 112.56C317.448 112.56 318.36 112.768 319.112 113.184C319.864 113.6 320.44 114.176 320.84 114.912C321.24 115.648 321.44 116.496 321.44 117.456C321.44 118.624 321.104 119.656 320.432 120.552C319.776 121.448 318.712 122.152 317.24 122.664C315.784 123.176 313.848 123.432 311.432 123.432ZM323.094 123.12L323.334 119.76C323.91 119.76 324.406 119.704 324.822 119.592C325.238 119.48 325.59 119.256 325.878 118.92C326.166 118.568 326.406 118.056 326.598 117.384C326.806 116.712 326.99 115.816 327.15 114.696L330.294 115.224C330.262 115.464 330.214 115.744 330.15 116.064C330.102 116.384 330.054 116.712 330.006 117.048C329.974 117.368 329.958 117.672 329.958 117.96C329.958 118.248 330.014 118.504 330.126 118.728C330.238 118.952 330.414 119.144 330.654 119.304C330.91 119.448 331.238 119.56 331.638 119.64C332.054 119.72 332.558 119.76 333.15 119.76C333.758 119.76 334.19 119.92 334.446 120.24C334.702 120.544 334.83 120.928 334.83 121.392C334.83 121.888 334.662 122.304 334.326 122.64C334.006 122.96 333.534 123.12 332.91 123.12C332.19 123.12 331.534 123.064 330.942 122.952C330.366 122.84 329.862 122.656 329.43 122.4C329.014 122.128 328.67 121.776 328.398 121.344C328.142 120.896 327.982 120.352 327.918 119.712H329.07C328.782 120.48 328.414 121.096 327.966 121.56C327.534 122.008 327.046 122.344 326.502 122.568C325.958 122.792 325.39 122.936 324.798 123C324.222 123.08 323.654 123.12 323.094 123.12ZM330.798 112.536C330.334 112.536 329.934 112.376 329.598 112.056C329.278 111.72 329.118 111.328 329.118 110.88C329.118 110.416 329.278 110.016 329.598 109.68C329.934 109.344 330.334 109.176 330.798 109.176C331.246 109.176 331.63 109.344 331.95 109.68C332.27 110.016 332.43 110.416 332.43 110.88C332.43 111.328 332.27 111.72 331.95 112.056C331.63 112.376 331.246 112.536 330.798 112.536ZM326.646 112.512C326.182 112.512 325.782 112.352 325.446 112.032C325.126 111.696 324.966 111.304 324.966 110.856C324.966 110.392 325.126 109.992 325.446 109.656C325.782 109.32 326.182 109.152 326.646 109.152C327.094 109.152 327.478 109.32 327.798 109.656C328.118 109.992 328.278 110.392 328.278 110.856C328.278 111.304 328.118 111.696 327.798 112.032C327.478 112.352 327.094 112.512 326.646 112.512ZM332.914 123.12L333.154 119.784C334.482 119.784 335.546 119.776 336.346 119.76C337.162 119.744 337.794 119.712 338.242 119.664C338.706 119.6 339.05 119.528 339.274 119.448C339.498 119.352 339.69 119.248 339.85 119.136C340.042 118.992 340.202 118.8 340.33 118.56C340.474 118.304 340.586 117.968 340.666 117.552C340.746 117.136 340.786 116.616 340.786 115.992C340.786 115.208 340.714 114.552 340.57 114.024C340.442 113.48 340.25 113.072 339.994 112.8C339.754 112.528 339.458 112.392 339.106 112.392C338.85 112.392 338.61 112.48 338.386 112.656C338.162 112.816 337.978 113.04 337.834 113.328C337.69 113.616 337.618 113.944 337.618 114.312C337.618 114.52 337.674 114.704 337.786 114.864C337.898 115.024 338.074 115.144 338.314 115.224C338.554 115.304 338.858 115.344 339.226 115.344C339.578 115.344 339.946 115.304 340.33 115.224C340.73 115.128 341.098 115 341.434 114.84L341.53 117.696C341.274 117.872 340.978 118.032 340.642 118.176C340.306 118.32 339.946 118.432 339.562 118.512C339.194 118.576 338.818 118.608 338.434 118.608C337.586 118.608 336.85 118.496 336.226 118.272C335.618 118.032 335.146 117.648 334.81 117.12C334.474 116.592 334.306 115.872 334.306 114.96C334.306 114.256 334.426 113.56 334.666 112.872C334.906 112.168 335.25 111.536 335.698 110.976C336.146 110.4 336.674 109.944 337.282 109.608C337.89 109.256 338.562 109.08 339.298 109.08C340.386 109.08 341.282 109.4 341.986 110.04C342.706 110.664 343.234 111.512 343.57 112.584C343.922 113.64 344.098 114.816 344.098 116.112C344.098 117.248 343.93 118.24 343.594 119.088C343.258 119.92 342.858 120.576 342.394 121.056C342.01 121.456 341.57 121.792 341.074 122.064C340.578 122.336 339.97 122.552 339.25 122.712C338.546 122.856 337.674 122.96 336.634 123.024C335.61 123.088 334.37 123.12 332.914 123.12ZM341.338 106.896C340.874 106.896 340.474 106.736 340.138 106.416C339.818 106.08 339.658 105.688 339.658 105.24C339.658 104.776 339.818 104.376 340.138 104.04C340.474 103.704 340.874 103.536 341.338 103.536C341.786 103.536 342.17 103.704 342.49 104.04C342.81 104.376 342.97 104.776 342.97 105.24C342.97 105.688 342.81 106.08 342.49 106.416C342.17 106.736 341.786 106.896 341.338 106.896ZM337.186 106.872C336.722 106.872 336.322 106.712 335.986 106.392C335.666 106.056 335.506 105.664 335.506 105.216C335.506 104.752 335.666 104.352 335.986 104.016C336.322 103.68 336.722 103.512 337.186 103.512C337.634 103.512 338.018 103.68 338.338 104.016C338.658 104.352 338.818 104.752 338.818 105.216C338.818 105.664 338.658 106.056 338.338 106.392C338.018 106.712 337.634 106.872 337.186 106.872ZM354.487 110.136C354.487 109.608 354.455 109.08 354.391 108.552C354.343 108.024 354.279 107.528 354.199 107.064C354.119 106.584 354.047 106.168 353.983 105.816L357.343 105.336C357.407 105.656 357.471 106.08 357.535 106.608C357.599 107.136 357.655 107.696 357.703 108.288C357.751 108.864 357.775 109.416 357.775 109.944C357.775 110.776 357.703 111.56 357.559 112.296C357.415 113.032 357.199 113.728 356.911 114.384C356.623 115.024 356.263 115.64 355.831 116.232L355.399 116.808C354.983 117.32 354.495 117.824 353.935 118.32C353.391 118.816 352.791 119.296 352.135 119.76H353.695C354.239 119.76 354.655 119.728 354.943 119.664C355.231 119.6 355.423 119.512 355.519 119.4C355.631 119.272 355.687 119.128 355.687 118.968C355.687 118.68 355.439 118.256 354.943 117.696C354.447 117.12 353.759 116.464 352.879 115.728C351.999 114.976 350.967 114.184 349.783 113.352C348.615 112.504 347.351 111.656 345.991 110.808L347.743 108.24C349.631 109.408 351.223 110.48 352.519 111.456C353.831 112.432 354.903 113.32 355.735 114.12C356.583 114.92 357.239 115.648 357.703 116.304C358.167 116.96 358.487 117.552 358.663 118.08C358.839 118.592 358.927 119.056 358.927 119.472C358.927 119.936 358.855 120.384 358.711 120.816C358.567 121.232 358.335 121.608 358.015 121.944C357.695 122.264 357.279 122.52 356.767 122.712C356.255 122.904 355.623 123 354.871 123H347.815V119.784C349.463 118.6 350.767 117.48 351.727 116.424C352.703 115.368 353.407 114.328 353.839 113.304C354.271 112.28 354.487 111.224 354.487 110.136ZM347.479 130.416L347.071 128.736C347.631 128.64 348.047 128.56 348.319 128.496C348.607 128.432 348.911 128.36 349.231 128.28L348.991 128.88C348.575 128.736 348.175 128.448 347.791 128.016C347.423 127.6 347.239 127.12 347.239 126.576C347.239 126 347.367 125.536 347.623 125.184C347.879 124.832 348.207 124.576 348.607 124.416C349.007 124.256 349.423 124.176 349.855 124.176C350.095 124.176 350.319 124.192 350.527 124.224C350.751 124.256 350.951 124.304 351.127 124.368L350.935 126.096C350.775 126.064 350.615 126.032 350.455 126C350.295 125.968 350.119 125.952 349.927 125.952C349.719 125.952 349.527 126.016 349.351 126.144C349.191 126.288 349.111 126.456 349.111 126.648C349.111 126.92 349.207 127.16 349.399 127.368C349.591 127.576 349.815 127.736 350.071 127.848C350.343 127.976 350.567 128.048 350.743 128.064L349.423 128.208C349.855 128.096 350.263 127.976 350.647 127.848C351.031 127.736 351.391 127.616 351.727 127.488L352.207 129.096C351.807 129.24 351.335 129.392 350.791 129.552C350.263 129.728 349.711 129.888 349.135 130.032C348.575 130.176 348.023 130.304 347.479 130.416ZM362.115 123L361.611 105.432H364.971L365.475 123H362.115ZM373.358 122.328C373.358 121.96 373.39 121.528 373.454 121.032C373.518 120.536 373.638 119.976 373.814 119.352C373.99 118.712 374.254 118 374.606 117.216L377.558 118.248C377.382 118.744 377.23 119.2 377.102 119.616C376.974 120.016 376.878 120.392 376.814 120.744C376.75 121.08 376.718 121.416 376.718 121.752C376.718 122.472 376.894 123.096 377.246 123.624C377.614 124.168 378.11 124.584 378.734 124.872C379.374 125.176 380.11 125.328 380.942 125.328C382.302 125.328 383.342 125.104 384.062 124.656C384.798 124.224 385.294 123.536 385.55 122.592C385.822 121.632 385.926 120.392 385.862 118.872L385.382 105.432H388.766L389.126 116.784C389.158 117.584 389.27 118.2 389.462 118.632C389.654 119.064 389.95 119.36 390.35 119.52C390.766 119.68 391.302 119.76 391.958 119.76C392.566 119.76 392.998 119.92 393.254 120.24C393.51 120.544 393.638 120.928 393.638 121.392C393.638 121.888 393.47 122.304 393.134 122.64C392.798 122.96 392.326 123.12 391.718 123.12C391.366 123.12 390.99 123.072 390.59 122.976C390.19 122.88 389.806 122.728 389.438 122.52C389.07 122.312 388.75 122.04 388.478 121.704C388.206 121.352 388.022 120.92 387.926 120.408L389.222 119.76C389.222 121.376 389.03 122.744 388.646 123.864C388.278 124.984 387.734 125.888 387.014 126.576C386.31 127.264 385.438 127.76 384.398 128.064C383.374 128.384 382.19 128.544 380.846 128.544C379.822 128.544 378.854 128.416 377.942 128.16C377.046 127.904 376.254 127.52 375.566 127.008C374.878 126.496 374.334 125.848 373.934 125.064C373.55 124.296 373.358 123.384 373.358 122.328ZM391.719 123.12L391.959 119.76C392.535 119.76 393.031 119.704 393.447 119.592C393.863 119.48 394.215 119.256 394.503 118.92C394.791 118.568 395.031 118.056 395.223 117.384C395.431 116.712 395.615 115.816 395.775 114.696L398.919 115.224C398.887 115.464 398.839 115.744 398.775 116.064C398.727 116.384 398.679 116.712 398.631 117.048C398.599 117.368 398.583 117.672 398.583 117.96C398.583 118.248 398.639 118.504 398.751 118.728C398.863 118.952 399.039 119.144 399.279 119.304C399.535 119.448 399.863 119.56 400.263 119.64C400.679 119.72 401.183 119.76 401.775 119.76C402.383 119.76 402.815 119.92 403.071 120.24C403.327 120.544 403.455 120.928 403.455 121.392C403.455 121.888 403.287 122.304 402.951 122.64C402.631 122.96 402.159 123.12 401.535 123.12C400.815 123.12 400.159 123.064 399.567 122.952C398.991 122.84 398.487 122.656 398.055 122.4C397.639 122.128 397.295 121.776 397.023 121.344C396.767 120.896 396.607 120.352 396.543 119.712H397.695C397.407 120.48 397.039 121.096 396.591 121.56C396.159 122.008 395.671 122.344 395.127 122.568C394.583 122.792 394.015 122.936 393.423 123C392.847 123.08 392.279 123.12 391.719 123.12ZM399.423 112.536C398.959 112.536 398.559 112.376 398.223 112.056C397.903 111.72 397.743 111.328 397.743 110.88C397.743 110.416 397.903 110.016 398.223 109.68C398.559 109.344 398.959 109.176 399.423 109.176C399.871 109.176 400.255 109.344 400.575 109.68C400.895 110.016 401.055 110.416 401.055 110.88C401.055 111.328 400.895 111.72 400.575 112.056C400.255 112.376 399.871 112.536 399.423 112.536ZM395.271 112.512C394.807 112.512 394.407 112.352 394.071 112.032C393.751 111.696 393.591 111.304 393.591 110.856C393.591 110.392 393.751 109.992 394.071 109.656C394.407 109.32 394.807 109.152 395.271 109.152C395.719 109.152 396.103 109.32 396.423 109.656C396.743 109.992 396.903 110.392 396.903 110.856C396.903 111.304 396.743 111.696 396.423 112.032C396.103 112.352 395.719 112.512 395.271 112.512ZM401.539 123.12L401.779 119.76H405.139C405.699 119.76 406.123 119.728 406.411 119.664C406.715 119.6 406.923 119.504 407.035 119.376C407.147 119.232 407.203 119.064 407.203 118.872C407.203 118.584 407.075 118.248 406.819 117.864C406.579 117.48 406.259 117.08 405.859 116.664C405.475 116.248 405.067 115.832 404.635 115.416C404.203 114.984 403.787 114.584 403.387 114.216C403.003 113.848 402.683 113.528 402.427 113.256C402.187 112.968 402.067 112.76 402.067 112.632C402.067 112.184 402.091 111.832 402.139 111.576C402.187 111.304 402.251 111.088 402.331 110.928C402.427 110.768 402.531 110.632 402.643 110.52C402.915 110.248 403.323 109.944 403.867 109.608C404.411 109.256 405.051 108.888 405.787 108.504C406.539 108.104 407.379 107.688 408.307 107.256C409.235 106.808 410.219 106.344 411.259 105.864L412.627 108.792C411.571 109.256 410.627 109.688 409.795 110.088C408.979 110.472 408.243 110.832 407.587 111.168C406.947 111.488 406.371 111.792 405.859 112.08C405.363 112.368 404.915 112.64 404.515 112.896L404.755 111.12C405.443 111.712 406.067 112.272 406.627 112.8C407.187 113.328 407.707 113.856 408.187 114.384C408.667 114.912 409.115 115.456 409.531 116.016C409.963 116.576 410.379 117.184 410.779 117.84C411.131 118.4 411.491 118.816 411.859 119.088C412.243 119.36 412.611 119.544 412.963 119.64C413.331 119.72 413.659 119.76 413.947 119.76C414.555 119.76 414.987 119.92 415.243 120.24C415.515 120.544 415.651 120.928 415.651 121.392C415.651 121.888 415.483 122.304 415.147 122.64C414.811 122.96 414.331 123.12 413.707 123.12C413.179 123.12 412.611 123.032 412.003 122.856C411.395 122.664 410.827 122.36 410.299 121.944C409.771 121.528 409.371 120.96 409.099 120.24L410.395 120.336C410.155 120.848 409.867 121.288 409.531 121.656C409.211 122.008 408.827 122.296 408.379 122.52C407.931 122.728 407.419 122.88 406.843 122.976C406.267 123.072 405.619 123.12 404.899 123.12H401.539ZM413.727 123.12L413.967 119.76C414.703 119.76 415.231 119.688 415.551 119.544C415.871 119.384 416.063 119.096 416.127 118.68C416.191 118.248 416.207 117.624 416.175 116.808L415.743 105.432H419.127L419.607 117.048C419.639 117.976 419.599 118.816 419.487 119.568C419.391 120.304 419.143 120.936 418.743 121.464C418.359 121.992 417.759 122.4 416.943 122.688C416.143 122.976 415.071 123.12 413.727 123.12ZM422.772 123L422.268 105.432H425.628L426.132 123H422.772Z" fill="white"/>
<rect x="487" y="89" width="167" height="52" rx="26" fill="#18A0FB"/>
<path d="M547.2 123.504L547.824 120.144C549.376 120.144 550.728 120.104 551.88 120.024C553.032 119.928 553.984 119.792 554.736 119.616C555.504 119.424 556.072 119.176 556.44 118.872C556.824 118.568 557.016 118.2 557.016 117.768C557.016 117.192 556.92 116.504 556.728 115.704C556.536 114.888 556.288 114.064 555.984 113.232L559.128 112.32C559.336 112.864 559.536 113.464 559.728 114.12C559.92 114.76 560.072 115.408 560.184 116.064C560.312 116.704 560.376 117.304 560.376 117.864C560.376 118.856 560.16 119.712 559.728 120.432C559.296 121.136 558.576 121.72 557.568 122.184C556.576 122.632 555.232 122.96 553.536 123.168C551.84 123.392 549.728 123.504 547.2 123.504ZM547.176 123.504C545.448 123.504 543.984 123.368 542.784 123.096C541.6 122.84 540.632 122.472 539.88 121.992C539.144 121.496 538.608 120.92 538.272 120.264C537.936 119.608 537.768 118.888 537.768 118.104C537.768 117.592 537.808 117.08 537.888 116.568C537.984 116.04 538.096 115.528 538.224 115.032C538.368 114.536 538.496 114.088 538.608 113.688L541.608 114.384C541.544 114.672 541.472 114.984 541.392 115.32C541.312 115.656 541.248 115.984 541.2 116.304C541.152 116.608 541.128 116.888 541.128 117.144C541.128 117.736 541.336 118.264 541.752 118.728C542.184 119.176 542.888 119.528 543.864 119.784C544.84 120.024 546.152 120.144 547.8 120.144L548.28 122.736L547.176 123.504ZM551.136 112.536C550.672 112.536 550.272 112.376 549.936 112.056C549.616 111.72 549.456 111.328 549.456 110.88C549.456 110.416 549.616 110.016 549.936 109.68C550.272 109.344 550.672 109.176 551.136 109.176C551.584 109.176 551.968 109.344 552.288 109.68C552.608 110.016 552.768 110.416 552.768 110.88C552.768 111.328 552.608 111.72 552.288 112.056C551.968 112.376 551.584 112.536 551.136 112.536ZM546.984 112.512C546.52 112.512 546.12 112.352 545.784 112.032C545.464 111.696 545.304 111.304 545.304 110.856C545.304 110.392 545.464 109.992 545.784 109.656C546.12 109.32 546.52 109.152 546.984 109.152C547.432 109.152 547.816 109.32 548.136 109.656C548.456 109.992 548.616 110.392 548.616 110.856C548.616 111.304 548.456 111.696 548.136 112.032C547.816 112.352 547.432 112.512 546.984 112.512ZM569.194 123.12C567.706 123.12 566.554 122.968 565.738 122.664C564.938 122.36 564.378 121.888 564.058 121.248C563.738 120.592 563.554 119.768 563.506 118.776L563.002 105.432H566.362L566.866 117.168C566.898 117.904 566.978 118.456 567.106 118.824C567.234 119.192 567.474 119.44 567.826 119.568C568.194 119.696 568.73 119.76 569.434 119.76C570.042 119.76 570.474 119.92 570.73 120.24C571.002 120.544 571.138 120.928 571.138 121.392C571.138 121.888 570.97 122.304 570.634 122.64C570.298 122.96 569.818 123.12 569.194 123.12ZM569.131 123.12L569.371 119.76C570.491 119.76 571.499 119.688 572.395 119.544C573.291 119.384 574.075 119.176 574.747 118.92C575.435 118.664 576.003 118.368 576.451 118.032C576.915 117.696 577.259 117.344 577.483 116.976C577.723 116.592 577.843 116.216 577.843 115.848C577.843 115.64 577.787 115.448 577.675 115.272C577.579 115.08 577.411 114.928 577.171 114.816C576.931 114.688 576.603 114.624 576.187 114.624C575.979 114.624 575.731 114.648 575.443 114.696C575.155 114.744 574.867 114.816 574.579 114.912C574.291 114.992 574.019 115.104 573.763 115.248C574.099 115.504 574.467 115.832 574.867 116.232C575.267 116.616 575.667 117.024 576.067 117.456C576.467 117.872 576.811 118.28 577.099 118.68C577.435 118.824 577.803 118.968 578.203 119.112C578.619 119.24 579.067 119.352 579.547 119.448C580.027 119.544 580.531 119.624 581.059 119.688C581.587 119.736 582.131 119.76 582.691 119.76C583.299 119.76 583.731 119.92 583.987 120.24C584.259 120.544 584.395 120.928 584.395 121.392C584.395 121.888 584.227 122.304 583.891 122.64C583.555 122.96 583.075 123.12 582.451 123.12C581.171 123.12 580.035 123.024 579.043 122.832C578.051 122.624 577.163 122.328 576.379 121.944C575.611 121.544 574.891 121.064 574.219 120.504C574.027 120.168 573.755 119.808 573.403 119.424C573.067 119.024 572.707 118.64 572.323 118.272C571.955 117.904 571.619 117.6 571.315 117.36C571.235 117.296 571.139 117.128 571.027 116.856C570.931 116.568 570.843 116.272 570.763 115.968C570.683 115.648 570.643 115.424 570.643 115.296C570.643 114.928 570.811 114.536 571.147 114.12C571.499 113.704 571.963 113.32 572.539 112.968C573.131 112.6 573.779 112.304 574.483 112.08C575.203 111.84 575.931 111.72 576.667 111.72C577.659 111.72 578.483 111.872 579.139 112.176C579.811 112.464 580.315 112.872 580.651 113.4C580.987 113.912 581.155 114.512 581.155 115.2C581.155 115.968 580.987 116.736 580.651 117.504C580.315 118.256 579.819 118.968 579.163 119.64C578.523 120.312 577.715 120.912 576.739 121.44C575.779 121.952 574.659 122.36 573.379 122.664C572.115 122.968 570.699 123.12 569.131 123.12ZM576.403 109.488C575.907 109.488 575.483 109.32 575.131 108.984C574.795 108.648 574.627 108.232 574.627 107.736C574.627 107.24 574.795 106.816 575.131 106.464C575.483 106.112 575.907 105.936 576.403 105.936C576.883 105.936 577.291 106.112 577.627 106.464C577.979 106.816 578.155 107.24 578.155 107.736C578.155 108.232 577.979 108.648 577.627 108.984C577.291 109.32 576.883 109.488 576.403 109.488ZM582.469 123.12L582.709 119.76C583.461 119.76 583.989 119.688 584.293 119.544C584.613 119.384 584.805 119.096 584.869 118.68C584.933 118.248 584.949 117.624 584.917 116.808L584.533 105.432H587.941L588.349 116.784C588.381 117.584 588.477 118.2 588.637 118.632C588.797 119.064 589.061 119.36 589.429 119.52C589.813 119.68 590.325 119.76 590.965 119.76C591.573 119.76 592.005 119.92 592.261 120.24C592.517 120.544 592.645 120.928 592.645 121.392C592.645 121.888 592.477 122.304 592.141 122.64C591.805 122.96 591.333 123.12 590.725 123.12C590.021 123.12 589.365 123.04 588.757 122.88C588.149 122.72 587.645 122.416 587.245 121.968C586.845 121.52 586.581 120.872 586.453 120.024L587.509 120.048C587.237 120.88 586.885 121.52 586.453 121.968C586.021 122.4 585.477 122.704 584.821 122.88C584.181 123.04 583.397 123.12 582.469 123.12ZM590.719 123.12L590.959 119.76C591.695 119.76 592.223 119.688 592.543 119.544C592.863 119.384 593.055 119.096 593.119 118.68C593.183 118.248 593.199 117.624 593.167 116.808L592.735 105.432H596.119L596.599 117.048C596.631 117.976 596.591 118.816 596.479 119.568C596.383 120.304 596.135 120.936 595.735 121.464C595.351 121.992 594.751 122.4 593.935 122.688C593.135 122.976 592.063 123.12 590.719 123.12ZM599.764 123L599.26 105.432H602.62L603.124 123H599.764Z" fill="white"/>
<rect x="666" y="89" width="253" height="52" rx="26" fill="#18A0FB"/>
<path d="M735.2 123.504L735.824 120.144C737.376 120.144 738.728 120.104 739.88 120.024C741.032 119.928 741.984 119.792 742.736 119.616C743.504 119.424 744.072 119.176 744.44 118.872C744.824 118.568 745.016 118.2 745.016 117.768C745.016 117.192 744.92 116.504 744.728 115.704C744.536 114.888 744.288 114.064 743.984 113.232L747.128 112.32C747.336 112.864 747.536 113.464 747.728 114.12C747.92 114.76 748.072 115.408 748.184 116.064C748.312 116.704 748.376 117.304 748.376 117.864C748.376 118.856 748.16 119.712 747.728 120.432C747.296 121.136 746.576 121.72 745.568 122.184C744.576 122.632 743.232 122.96 741.536 123.168C739.84 123.392 737.728 123.504 735.2 123.504ZM735.176 123.504C733.448 123.504 731.984 123.368 730.784 123.096C729.6 122.84 728.632 122.472 727.88 121.992C727.144 121.496 726.608 120.92 726.272 120.264C725.936 119.608 725.768 118.888 725.768 118.104C725.768 117.592 725.808 117.08 725.888 116.568C725.984 116.04 726.096 115.528 726.224 115.032C726.368 114.536 726.496 114.088 726.608 113.688L729.608 114.384C729.544 114.672 729.472 114.984 729.392 115.32C729.312 115.656 729.248 115.984 729.2 116.304C729.152 116.608 729.128 116.888 729.128 117.144C729.128 117.736 729.336 118.264 729.752 118.728C730.184 119.176 730.888 119.528 731.864 119.784C732.84 120.024 734.152 120.144 735.8 120.144L736.28 122.736L735.176 123.504ZM739.136 112.536C738.672 112.536 738.272 112.376 737.936 112.056C737.616 111.72 737.456 111.328 737.456 110.88C737.456 110.416 737.616 110.016 737.936 109.68C738.272 109.344 738.672 109.176 739.136 109.176C739.584 109.176 739.968 109.344 740.288 109.68C740.608 110.016 740.768 110.416 740.768 110.88C740.768 111.328 740.608 111.72 740.288 112.056C739.968 112.376 739.584 112.536 739.136 112.536ZM734.984 112.512C734.52 112.512 734.12 112.352 733.784 112.032C733.464 111.696 733.304 111.304 733.304 110.856C733.304 110.392 733.464 109.992 733.784 109.656C734.12 109.32 734.52 109.152 734.984 109.152C735.432 109.152 735.816 109.32 736.136 109.656C736.456 109.992 736.616 110.392 736.616 110.856C736.616 111.304 736.456 111.696 736.136 112.032C735.816 112.352 735.432 112.512 734.984 112.512ZM757.194 123.12C755.706 123.12 754.554 122.968 753.738 122.664C752.938 122.36 752.378 121.888 752.058 121.248C751.738 120.592 751.554 119.768 751.506 118.776L751.002 105.432H754.362L754.866 117.168C754.898 117.904 754.978 118.456 755.106 118.824C755.234 119.192 755.474 119.44 755.826 119.568C756.194 119.696 756.73 119.76 757.434 119.76C758.042 119.76 758.474 119.92 758.73 120.24C759.002 120.544 759.138 120.928 759.138 121.392C759.138 121.888 758.97 122.304 758.634 122.64C758.298 122.96 757.818 123.12 757.194 123.12ZM757.227 123.12L757.467 119.784C758.091 119.8 758.667 119.792 759.195 119.76C759.723 119.728 760.195 119.68 760.611 119.616C761.043 119.552 761.419 119.48 761.739 119.4C762.075 119.32 762.355 119.248 762.579 119.184C763.123 119.008 763.587 118.8 763.971 118.56C764.355 118.304 764.651 118.016 764.859 117.696C765.067 117.376 765.171 117.032 765.171 116.664C765.171 116.376 765.107 116.088 764.979 115.8C764.867 115.496 764.699 115.248 764.475 115.056C764.251 114.864 763.987 114.768 763.683 114.768C763.395 114.768 763.131 114.856 762.891 115.032C762.651 115.208 762.459 115.448 762.315 115.752C762.171 116.04 762.099 116.376 762.099 116.76C762.099 117.096 762.179 117.416 762.339 117.72C762.499 118.008 762.723 118.288 763.011 118.56C763.299 118.832 763.643 119.088 764.043 119.328L760.851 120.552C760.499 120.216 760.163 119.856 759.843 119.472C759.539 119.088 759.283 118.656 759.075 118.176C758.883 117.68 758.787 117.128 758.787 116.52C758.787 115.784 758.931 115.112 759.219 114.504C759.507 113.896 759.891 113.376 760.371 112.944C760.851 112.496 761.387 112.152 761.979 111.912C762.571 111.672 763.163 111.552 763.755 111.552C764.715 111.552 765.547 111.776 766.251 112.224C766.955 112.672 767.499 113.256 767.883 113.976C768.283 114.696 768.483 115.48 768.483 116.328C768.483 117.112 768.339 117.816 768.051 118.44C767.763 119.048 767.371 119.592 766.875 120.072C766.395 120.536 765.859 120.944 765.267 121.296C764.691 121.648 764.107 121.944 763.515 122.184C763.227 122.312 762.867 122.432 762.435 122.544C762.003 122.656 761.515 122.76 760.971 122.856C760.427 122.936 759.843 123 759.219 123.048C758.595 123.096 757.931 123.12 757.227 123.12ZM769.899 123.12C768.971 123.12 768.059 123.072 767.163 122.976C766.267 122.88 765.435 122.736 764.667 122.544C763.915 122.352 763.259 122.12 762.699 121.848L764.355 119.256C764.835 119.384 765.395 119.488 766.035 119.568C766.691 119.632 767.371 119.68 768.075 119.712C768.795 119.744 769.483 119.76 770.139 119.76C770.747 119.76 771.179 119.92 771.435 120.24C771.707 120.544 771.843 120.928 771.843 121.392C771.843 121.888 771.675 122.304 771.339 122.64C771.003 122.96 770.523 123.12 769.899 123.12ZM763.779 109.32C763.283 109.32 762.859 109.152 762.507 108.816C762.171 108.48 762.003 108.064 762.003 107.568C762.003 107.072 762.171 106.648 762.507 106.296C762.859 105.944 763.283 105.768 763.779 105.768C764.259 105.768 764.667 105.944 765.003 106.296C765.355 106.648 765.531 107.072 765.531 107.568C765.531 108.064 765.355 108.48 765.003 108.816C764.667 109.152 764.259 109.32 763.779 109.32ZM769.93 123.12L770.17 119.76C770.922 119.76 771.45 119.688 771.754 119.544C772.074 119.384 772.266 119.096 772.33 118.68C772.394 118.248 772.41 117.624 772.378 116.808L771.994 105.432H775.402L775.81 116.784C775.842 117.584 775.938 118.2 776.098 118.632C776.258 119.064 776.522 119.36 776.89 119.52C777.274 119.68 777.786 119.76 778.426 119.76C779.034 119.76 779.466 119.92 779.722 120.24C779.978 120.544 780.106 120.928 780.106 121.392C780.106 121.888 779.938 122.304 779.602 122.64C779.266 122.96 778.794 123.12 778.186 123.12C777.482 123.12 776.826 123.04 776.218 122.88C775.61 122.72 775.106 122.416 774.706 121.968C774.306 121.52 774.042 120.872 773.914 120.024L774.97 120.048C774.698 120.88 774.346 121.52 773.914 121.968C773.482 122.4 772.938 122.704 772.282 122.88C771.642 123.04 770.858 123.12 769.93 123.12ZM778.18 123.12L778.42 119.76C778.82 119.76 779.124 119.68 779.332 119.52C779.54 119.36 779.748 119.08 779.956 118.68C780.164 118.28 780.452 117.736 780.82 117.048C781.22 116.28 781.636 115.64 782.068 115.128C782.5 114.6 782.932 114.184 783.364 113.88C783.812 113.56 784.252 113.336 784.684 113.208C785.132 113.064 785.572 112.992 786.004 112.992C786.596 112.992 787.148 113.12 787.66 113.376C788.188 113.616 788.692 114.04 789.172 114.648C789.652 115.24 790.108 116.056 790.54 117.096C790.844 117.816 791.148 118.368 791.452 118.752C791.756 119.136 792.068 119.4 792.388 119.544C792.724 119.688 793.06 119.76 793.396 119.76C794.004 119.76 794.436 119.92 794.692 120.24C794.948 120.544 795.076 120.928 795.076 121.392C795.076 121.888 794.908 122.304 794.572 122.64C794.236 122.96 793.764 123.12 793.156 123.12C792.372 123.12 791.66 122.992 791.02 122.736C790.38 122.48 789.876 122.096 789.508 121.584L790.204 121.056C790.06 121.392 789.844 121.744 789.556 122.112C789.284 122.48 788.924 122.792 788.476 123.048C788.044 123.304 787.524 123.432 786.916 123.432C786.516 123.432 786.044 123.352 785.5 123.192C784.972 123.048 784.42 122.8 783.844 122.448C783.284 122.08 782.764 121.584 782.284 120.96C781.98 121.52 781.644 121.96 781.276 122.28C780.908 122.584 780.476 122.8 779.98 122.928C779.484 123.056 778.884 123.12 778.18 123.12ZM783.676 118.128C783.836 118.368 784.028 118.608 784.252 118.848C784.476 119.088 784.724 119.304 784.996 119.496C785.268 119.672 785.556 119.816 785.86 119.928C786.18 120.04 786.492 120.096 786.796 120.096C787.116 120.096 787.38 119.976 787.588 119.736C787.796 119.48 787.804 119.104 787.612 118.608C787.532 118.4 787.42 118.168 787.276 117.912C787.148 117.64 786.996 117.384 786.82 117.144C786.66 116.904 786.476 116.704 786.268 116.544C786.076 116.384 785.876 116.304 785.668 116.304C785.46 116.304 785.244 116.368 785.02 116.496C784.796 116.624 784.572 116.824 784.348 117.096C784.124 117.352 783.9 117.696 783.676 118.128ZM793.156 123.12L793.396 119.76C794.132 119.76 794.66 119.688 794.98 119.544C795.3 119.384 795.492 119.096 795.556 118.68C795.62 118.248 795.636 117.624 795.604 116.808L795.172 105.432H798.556L799.036 117.048C799.068 117.976 799.028 118.816 798.916 119.568C798.82 120.304 798.572 120.936 798.172 121.464C797.788 121.992 797.188 122.4 796.372 122.688C795.572 122.976 794.5 123.12 793.156 123.12ZM802.201 123L801.697 105.432H805.057L805.561 123H802.201ZM821.748 132.456C820.676 132.456 819.628 132.328 818.604 132.072C817.596 131.816 816.684 131.408 815.868 130.848C815.052 130.304 814.404 129.6 813.924 128.736C813.444 127.872 813.204 126.832 813.204 125.616C813.204 124.304 813.468 123.104 813.996 122.016C814.524 120.912 815.268 119.936 816.228 119.088C817.188 118.24 818.324 117.536 819.636 116.976C820.964 116.4 822.412 115.992 823.98 115.752L824.772 118.92C823.364 119.176 822.14 119.512 821.1 119.928C820.076 120.344 819.228 120.832 818.556 121.392C817.884 121.952 817.38 122.552 817.044 123.192C816.724 123.848 816.564 124.536 816.564 125.256C816.564 125.832 816.668 126.336 816.876 126.768C817.1 127.2 817.396 127.56 817.764 127.848C818.132 128.152 818.54 128.392 818.988 128.568C819.436 128.76 819.9 128.896 820.38 128.976C820.86 129.056 821.316 129.096 821.748 129.096C822.852 129.096 823.876 128.992 824.82 128.784C825.78 128.576 826.62 128.32 827.34 128.016L828.3 131.112C827.916 131.304 827.372 131.504 826.668 131.712C825.98 131.92 825.204 132.096 824.34 132.24C823.492 132.384 822.628 132.456 821.748 132.456ZM816.972 119.16C816.412 118.936 815.892 118.616 815.412 118.2C814.948 117.784 814.572 117.272 814.284 116.664C814.012 116.04 813.876 115.328 813.876 114.528C813.876 113.52 814.14 112.648 814.668 111.912C815.196 111.176 815.9 110.608 816.78 110.208C817.66 109.808 818.62 109.608 819.66 109.608C820.172 109.608 820.644 109.64 821.076 109.704C821.524 109.768 821.98 109.864 822.444 109.992L821.916 113.184C821.58 113.104 821.236 113.04 820.884 112.992C820.532 112.944 820.22 112.92 819.948 112.92C819.388 112.92 818.9 113 818.484 113.16C818.084 113.32 817.772 113.552 817.548 113.856C817.34 114.144 817.236 114.488 817.236 114.888C817.236 115.208 817.332 115.512 817.524 115.8C817.732 116.088 817.996 116.344 818.316 116.568C818.636 116.776 818.988 116.952 819.372 117.096C819.756 117.224 820.132 117.296 820.5 117.312L816.972 119.16ZM828.428 123L827.924 105.432H831.284L831.788 123H828.428ZM834.438 128.52L833.742 125.16C834.878 125.016 835.87 124.84 836.718 124.632C837.566 124.44 838.278 124.168 838.854 123.816C839.43 123.464 839.862 122.984 840.15 122.376C840.438 121.752 840.582 120.952 840.582 119.976C840.582 119.032 840.438 118.28 840.15 117.72C839.862 117.16 839.478 116.88 838.998 116.88C838.662 116.88 838.382 117 838.158 117.24C837.934 117.464 837.766 117.736 837.654 118.056C837.558 118.36 837.51 118.632 837.51 118.872C837.51 119.016 837.55 119.168 837.63 119.328C837.71 119.488 837.886 119.624 838.158 119.736C838.43 119.848 838.854 119.912 839.43 119.928C840.022 119.944 840.822 119.888 841.83 119.76H845.862C846.47 119.76 846.902 119.92 847.158 120.24C847.43 120.544 847.566 120.928 847.566 121.392C847.566 121.888 847.398 122.304 847.062 122.64C846.726 122.96 846.246 123.12 845.622 123.12H839.022C838.014 123.12 837.15 123 836.43 122.76C835.71 122.52 835.158 122.136 834.774 121.608C834.39 121.064 834.198 120.344 834.198 119.448C834.198 118.728 834.318 118.008 834.558 117.288C834.814 116.568 835.166 115.912 835.614 115.32C836.062 114.712 836.582 114.232 837.174 113.88C837.782 113.512 838.438 113.328 839.142 113.328C840.102 113.328 840.942 113.624 841.662 114.216C842.382 114.808 842.942 115.592 843.342 116.568C843.758 117.544 843.966 118.608 843.966 119.76C843.966 121.568 843.582 123.104 842.814 124.368C842.046 125.632 840.95 126.608 839.526 127.296C838.102 128 836.406 128.408 834.438 128.52ZM845.656 123.12L845.896 119.76C846.6 119.76 847.152 119.712 847.552 119.616C847.968 119.52 848.264 119.344 848.44 119.088C848.616 118.816 848.704 118.432 848.704 117.936C848.704 117.488 848.64 116.952 848.512 116.328C848.4 115.704 848.248 115.056 848.056 114.384C847.864 113.712 847.672 113.096 847.48 112.536L850.792 111.624C850.984 112.168 851.176 112.8 851.368 113.52C851.56 114.24 851.72 114.984 851.848 115.752C851.992 116.504 852.064 117.232 852.064 117.936C852.064 118.816 851.952 119.56 851.728 120.168C851.504 120.76 851.192 121.256 850.792 121.656C850.408 122.04 849.944 122.344 849.4 122.568C848.872 122.776 848.288 122.92 847.648 123C847.008 123.08 846.344 123.12 845.656 123.12ZM849.112 109.632C848.616 109.632 848.192 109.464 847.84 109.128C847.504 108.792 847.336 108.376 847.336 107.88C847.336 107.384 847.504 106.96 847.84 106.608C848.192 106.256 848.616 106.08 849.112 106.08C849.592 106.08 850 106.256 850.336 106.608C850.688 106.96 850.864 107.384 850.864 107.88C850.864 108.376 850.688 108.792 850.336 109.128C850 109.464 849.592 109.632 849.112 109.632ZM855.145 123L854.689 107.112H858.049L858.505 123H855.145ZM853.825 105.576L853.417 103.896C853.977 103.8 854.393 103.72 854.665 103.656C854.953 103.592 855.257 103.52 855.577 103.44L855.337 104.04C854.921 103.896 854.521 103.616 854.137 103.2C853.769 102.768 853.585 102.28 853.585 101.736C853.585 101.16 853.713 100.696 853.969 100.344C854.225 99.992 854.553 99.736 854.953 99.576C855.353 99.416 855.769 99.336 856.201 99.336C856.441 99.336 856.665 99.352 856.873 99.384C857.097 99.416 857.297 99.464 857.473 99.528L857.281 101.256C857.121 101.224 856.961 101.192 856.801 101.16C856.641 101.128 856.465 101.112 856.273 101.112C856.065 101.112 855.873 101.184 855.697 101.328C855.537 101.456 855.457 101.616 855.457 101.808C855.457 102.08 855.553 102.32 855.745 102.528C855.937 102.736 856.161 102.904 856.417 103.032C856.689 103.144 856.913 103.208 857.089 103.224L855.769 103.368C856.201 103.256 856.609 103.144 856.993 103.032C857.377 102.904 857.737 102.776 858.073 102.648L858.553 104.256C858.153 104.4 857.681 104.56 857.137 104.736C856.609 104.896 856.057 105.048 855.481 105.192C854.921 105.336 854.369 105.464 853.825 105.576Z" fill="white"/>
<g filter="url(#filter0_d_98_678)">
<rect x="646" y="30" width="154" height="52" rx="26" fill="#18A0FB"/>
<path d="M686.262 46.9375V64H682.758V46.9375H686.262ZM698.438 59.5352C698.438 59.2305 698.391 58.957 698.297 58.7148C698.211 58.4648 698.047 58.2383 697.805 58.0352C697.562 57.8242 697.223 57.6172 696.785 57.4141C696.348 57.2109 695.781 57 695.086 56.7812C694.312 56.5312 693.578 56.25 692.883 55.9375C692.195 55.625 691.586 55.2617 691.055 54.8477C690.531 54.4258 690.117 53.9375 689.812 53.3828C689.516 52.8281 689.367 52.1836 689.367 51.4492C689.367 50.7383 689.523 50.0938 689.836 49.5156C690.148 48.9297 690.586 48.4297 691.148 48.0156C691.711 47.5938 692.375 47.2695 693.141 47.043C693.914 46.8164 694.762 46.7031 695.684 46.7031C696.941 46.7031 698.039 46.9297 698.977 47.3828C699.914 47.8359 700.641 48.457 701.156 49.2461C701.68 50.0352 701.941 50.9375 701.941 51.9531H698.449C698.449 51.4531 698.344 51.0156 698.133 50.6406C697.93 50.2578 697.617 49.957 697.195 49.7383C696.781 49.5195 696.258 49.4102 695.625 49.4102C695.016 49.4102 694.508 49.5039 694.102 49.6914C693.695 49.8711 693.391 50.1172 693.188 50.4297C692.984 50.7344 692.883 51.0781 692.883 51.4609C692.883 51.75 692.953 52.0117 693.094 52.2461C693.242 52.4805 693.461 52.6992 693.75 52.9023C694.039 53.1055 694.395 53.2969 694.816 53.4766C695.238 53.6562 695.727 53.832 696.281 54.0039C697.211 54.2852 698.027 54.6016 698.73 54.9531C699.441 55.3047 700.035 55.6992 700.512 56.1367C700.988 56.5742 701.348 57.0703 701.59 57.625C701.832 58.1797 701.953 58.8086 701.953 59.5117C701.953 60.2539 701.809 60.918 701.52 61.5039C701.23 62.0898 700.812 62.5859 700.266 62.9922C699.719 63.3984 699.066 63.707 698.309 63.918C697.551 64.1289 696.703 64.2344 695.766 64.2344C694.922 64.2344 694.09 64.125 693.27 63.9062C692.449 63.6797 691.703 63.3398 691.031 62.8867C690.367 62.4336 689.836 61.8555 689.438 61.1523C689.039 60.4492 688.84 59.6172 688.84 58.6562H692.367C692.367 59.1875 692.449 59.6367 692.613 60.0039C692.777 60.3711 693.008 60.668 693.305 60.8945C693.609 61.1211 693.969 61.2852 694.383 61.3867C694.805 61.4883 695.266 61.5391 695.766 61.5391C696.375 61.5391 696.875 61.4531 697.266 61.2812C697.664 61.1094 697.957 60.8711 698.145 60.5664C698.34 60.2617 698.438 59.918 698.438 59.5352ZM708.082 46.9375V64H704.578V46.9375H708.082ZM721.266 58.3398H724.77C724.699 59.4883 724.383 60.5078 723.82 61.3984C723.266 62.2891 722.488 62.9844 721.488 63.4844C720.496 63.9844 719.301 64.2344 717.902 64.2344C716.809 64.2344 715.828 64.0469 714.961 63.6719C714.094 63.2891 713.352 62.7422 712.734 62.0312C712.125 61.3203 711.66 60.4609 711.34 59.4531C711.02 58.4453 710.859 57.3164 710.859 56.0664V54.8828C710.859 53.6328 711.023 52.5039 711.352 51.4961C711.688 50.4805 712.164 49.6172 712.781 48.9062C713.406 48.1953 714.152 47.6484 715.02 47.2656C715.887 46.8828 716.855 46.6914 717.926 46.6914C719.348 46.6914 720.547 46.9492 721.523 47.4648C722.508 47.9805 723.27 48.6914 723.809 49.5977C724.355 50.5039 724.684 51.5352 724.793 52.6914H721.277C721.238 52.0039 721.102 51.4219 720.867 50.9453C720.633 50.4609 720.277 50.0977 719.801 49.8555C719.332 49.6055 718.707 49.4805 717.926 49.4805C717.34 49.4805 716.828 49.5898 716.391 49.8086C715.953 50.0273 715.586 50.3594 715.289 50.8047C714.992 51.25 714.77 51.8125 714.621 52.4922C714.48 53.1641 714.41 53.9531 714.41 54.8594V56.0664C714.41 56.9492 714.477 57.7266 714.609 58.3984C714.742 59.0625 714.945 59.625 715.219 60.0859C715.5 60.5391 715.859 60.8828 716.297 61.1172C716.742 61.3438 717.277 61.457 717.902 61.457C718.637 61.457 719.242 61.3398 719.719 61.1055C720.195 60.8711 720.559 60.5234 720.809 60.0625C721.066 59.6016 721.219 59.0273 721.266 58.3398ZM731.915 69.544L730.691 66.568C731.539 66.28 732.315 65.944 733.019 65.56C733.739 65.176 734.363 64.752 734.891 64.288C735.419 63.824 735.827 63.32 736.115 62.776C736.403 62.216 736.547 61.616 736.547 60.976C736.547 60.304 736.395 59.568 736.091 58.768C735.787 57.968 735.419 57.152 734.987 56.32L738.131 54.808C738.419 55.304 738.667 55.84 738.875 56.416C739.099 56.976 739.283 57.48 739.427 57.928C739.571 58.376 739.667 58.68 739.715 58.84C739.939 59.608 740.243 60.12 740.627 60.376C741.027 60.632 741.667 60.76 742.547 60.76C743.155 60.76 743.587 60.92 743.843 61.24C744.115 61.544 744.251 61.928 744.251 62.392C744.251 62.888 744.083 63.304 743.747 63.64C743.411 63.96 742.931 64.12 742.307 64.12C741.651 64.12 741.075 64.024 740.579 63.832C740.083 63.64 739.683 63.36 739.379 62.992C739.091 62.624 738.907 62.192 738.827 61.696L739.715 62.2C739.619 63.048 739.339 63.848 738.875 64.6C738.427 65.368 737.843 66.072 737.123 66.712C736.403 67.352 735.595 67.912 734.699 68.392C733.803 68.872 732.875 69.256 731.915 69.544ZM736.811 52.36C736.315 52.36 735.891 52.192 735.539 51.856C735.203 51.52 735.035 51.104 735.035 50.608C735.035 50.112 735.203 49.688 735.539 49.336C735.891 48.984 736.315 48.808 736.811 48.808C737.291 48.808 737.699 48.984 738.035 49.336C738.387 49.688 738.563 50.112 738.563 50.608C738.563 51.104 738.387 51.52 738.035 51.856C737.699 52.192 737.291 52.36 736.811 52.36ZM742.336 64.12L742.576 60.76C742.944 60.76 743.256 60.672 743.512 60.496C743.784 60.304 744.064 59.992 744.352 59.56C744.64 59.112 744.976 58.512 745.36 57.76C745.84 56.8 746.336 56.048 746.848 55.504C747.376 54.96 747.912 54.576 748.456 54.352C749.016 54.112 749.576 53.992 750.136 53.992C750.84 53.992 751.496 54.144 752.104 54.448C752.712 54.752 753.24 55.168 753.688 55.696C754.136 56.208 754.48 56.8 754.72 57.472C754.976 58.128 755.104 58.808 755.104 59.512C755.104 60.36 754.92 61.128 754.552 61.816C754.2 62.488 753.704 63.024 753.064 63.424C752.44 63.808 751.72 64 750.904 64C750.216 64 749.416 63.88 748.504 63.64C747.592 63.4 746.632 62.896 745.624 62.128L746.848 59.224C747.568 59.72 748.24 60.08 748.864 60.304C749.504 60.528 750.032 60.64 750.448 60.64C750.768 60.64 751.032 60.608 751.24 60.544C751.448 60.48 751.6 60.376 751.696 60.232C751.792 60.088 751.84 59.896 751.84 59.656C751.84 59.32 751.76 58.976 751.6 58.624C751.44 58.272 751.224 57.976 750.952 57.736C750.696 57.48 750.392 57.352 750.04 57.352C749.704 57.352 749.416 57.48 749.176 57.736C748.952 57.976 748.728 58.328 748.504 58.792C748.296 59.24 748.04 59.768 747.736 60.376C747.368 61.112 747.008 61.728 746.656 62.224C746.304 62.704 745.928 63.088 745.528 63.376C745.144 63.648 744.688 63.84 744.16 63.952C743.648 64.064 743.04 64.12 742.336 64.12ZM755.728 69.52L754.504 66.448C755.88 65.968 756.992 65.44 757.84 64.864C758.704 64.288 759.336 63.672 759.736 63.016C760.152 62.36 760.36 61.68 760.36 60.976C760.36 60.528 760.296 60.064 760.168 59.584C760.04 59.088 759.856 58.568 759.616 58.024C759.392 57.48 759.12 56.912 758.8 56.32L761.944 54.808C762.504 55.88 762.936 56.904 763.24 57.88C763.56 58.856 763.72 59.768 763.72 60.616C763.72 61.4 763.616 62.152 763.408 62.872C763.216 63.592 762.912 64.264 762.496 64.888C762.096 65.528 761.576 66.128 760.936 66.688C760.296 67.248 759.544 67.76 758.68 68.224C757.816 68.704 756.832 69.136 755.728 69.52Z" fill="white"/>
<rect x="810" y="29" width="145" height="52" rx="26" fill="#18A0FB"/>
<path d="M859.902 52.8867V55.6289H850.996V52.8867H859.902ZM852.039 45.9375V63H848.523V45.9375H852.039ZM862.41 45.9375V63H858.906V45.9375H862.41ZM874.352 58.5352C874.352 58.2305 874.305 57.957 874.211 57.7148C874.125 57.4648 873.961 57.2383 873.719 57.0352C873.477 56.8242 873.137 56.6172 872.699 56.4141C872.262 56.2109 871.695 56 871 55.7812C870.227 55.5312 869.492 55.25 868.797 54.9375C868.109 54.625 867.5 54.2617 866.969 53.8477C866.445 53.4258 866.031 52.9375 865.727 52.3828C865.43 51.8281 865.281 51.1836 865.281 50.4492C865.281 49.7383 865.438 49.0938 865.75 48.5156C866.062 47.9297 866.5 47.4297 867.062 47.0156C867.625 46.5938 868.289 46.2695 869.055 46.043C869.828 45.8164 870.676 45.7031 871.598 45.7031C872.855 45.7031 873.953 45.9297 874.891 46.3828C875.828 46.8359 876.555 47.457 877.07 48.2461C877.594 49.0352 877.855 49.9375 877.855 50.9531H874.363C874.363 50.4531 874.258 50.0156 874.047 49.6406C873.844 49.2578 873.531 48.957 873.109 48.7383C872.695 48.5195 872.172 48.4102 871.539 48.4102C870.93 48.4102 870.422 48.5039 870.016 48.6914C869.609 48.8711 869.305 49.1172 869.102 49.4297C868.898 49.7344 868.797 50.0781 868.797 50.4609C868.797 50.75 868.867 51.0117 869.008 51.2461C869.156 51.4805 869.375 51.6992 869.664 51.9023C869.953 52.1055 870.309 52.2969 870.73 52.4766C871.152 52.6562 871.641 52.832 872.195 53.0039C873.125 53.2852 873.941 53.6016 874.645 53.9531C875.355 54.3047 875.949 54.6992 876.426 55.1367C876.902 55.5742 877.262 56.0703 877.504 56.625C877.746 57.1797 877.867 57.8086 877.867 58.5117C877.867 59.2539 877.723 59.918 877.434 60.5039C877.145 61.0898 876.727 61.5859 876.18 61.9922C875.633 62.3984 874.98 62.707 874.223 62.918C873.465 63.1289 872.617 63.2344 871.68 63.2344C870.836 63.2344 870.004 63.125 869.184 62.9062C868.363 62.6797 867.617 62.3398 866.945 61.8867C866.281 61.4336 865.75 60.8555 865.352 60.1523C864.953 59.4492 864.754 58.6172 864.754 57.6562H868.281C868.281 58.1875 868.363 58.6367 868.527 59.0039C868.691 59.3711 868.922 59.668 869.219 59.8945C869.523 60.1211 869.883 60.2852 870.297 60.3867C870.719 60.4883 871.18 60.5391 871.68 60.5391C872.289 60.5391 872.789 60.4531 873.18 60.2812C873.578 60.1094 873.871 59.8711 874.059 59.5664C874.254 59.2617 874.352 58.918 874.352 58.5352ZM885.095 68.544L883.871 65.568C884.719 65.28 885.495 64.944 886.199 64.56C886.919 64.176 887.543 63.752 888.071 63.288C888.599 62.824 889.007 62.32 889.295 61.776C889.583 61.216 889.727 60.616 889.727 59.976C889.727 59.304 889.575 58.568 889.271 57.768C888.967 56.968 888.599 56.152 888.167 55.32L891.311 53.808C891.599 54.304 891.847 54.84 892.055 55.416C892.279 55.976 892.463 56.48 892.607 56.928C892.751 57.376 892.847 57.68 892.895 57.84C893.119 58.608 893.423 59.12 893.807 59.376C894.207 59.632 894.847 59.76 895.727 59.76C896.335 59.76 896.767 59.92 897.023 60.24C897.295 60.544 897.431 60.928 897.431 61.392C897.431 61.888 897.263 62.304 896.927 62.64C896.591 62.96 896.111 63.12 895.487 63.12C894.831 63.12 894.255 63.024 893.759 62.832C893.263 62.64 892.863 62.36 892.559 61.992C892.271 61.624 892.087 61.192 892.007 60.696L892.895 61.2C892.799 62.048 892.519 62.848 892.055 63.6C891.607 64.368 891.023 65.072 890.303 65.712C889.583 66.352 888.775 66.912 887.879 67.392C886.983 67.872 886.055 68.256 885.095 68.544ZM889.991 51.36C889.495 51.36 889.071 51.192 888.719 50.856C888.383 50.52 888.215 50.104 888.215 49.608C888.215 49.112 888.383 48.688 888.719 48.336C889.071 47.984 889.495 47.808 889.991 47.808C890.471 47.808 890.879 47.984 891.215 48.336C891.567 48.688 891.743 49.112 891.743 49.608C891.743 50.104 891.567 50.52 891.215 50.856C890.879 51.192 890.471 51.36 889.991 51.36ZM895.516 63.12L895.756 59.76C896.124 59.76 896.436 59.672 896.692 59.496C896.964 59.304 897.244 58.992 897.532 58.56C897.82 58.112 898.156 57.512 898.54 56.76C899.02 55.8 899.516 55.048 900.028 54.504C900.556 53.96 901.092 53.576 901.636 53.352C902.196 53.112 902.756 52.992 903.316 52.992C904.02 52.992 904.676 53.144 905.284 53.448C905.892 53.752 906.42 54.168 906.868 54.696C907.316 55.208 907.66 55.8 907.9 56.472C908.156 57.128 908.284 57.808 908.284 58.512C908.284 59.36 908.1 60.128 907.732 60.816C907.38 61.488 906.884 62.024 906.244 62.424C905.62 62.808 904.9 63 904.084 63C903.396 63 902.596 62.88 901.684 62.64C900.772 62.4 899.812 61.896 898.804 61.128L900.028 58.224C900.748 58.72 901.42 59.08 902.044 59.304C902.684 59.528 903.212 59.64 903.628 59.64C903.948 59.64 904.212 59.608 904.42 59.544C904.628 59.48 904.78 59.376 904.876 59.232C904.972 59.088 905.02 58.896 905.02 58.656C905.02 58.32 904.94 57.976 904.78 57.624C904.62 57.272 904.404 56.976 904.132 56.736C903.876 56.48 903.572 56.352 903.22 56.352C902.884 56.352 902.596 56.48 902.356 56.736C902.132 56.976 901.908 57.328 901.684 57.792C901.476 58.24 901.22 58.768 900.916 59.376C900.548 60.112 900.188 60.728 899.836 61.224C899.484 61.704 899.108 62.088 898.708 62.376C898.324 62.648 897.868 62.84 897.34 62.952C896.828 63.064 896.22 63.12 895.516 63.12ZM908.907 68.52L907.683 65.448C909.059 64.968 910.171 64.44 911.019 63.864C911.883 63.288 912.515 62.672 912.915 62.016C913.331 61.36 913.539 60.68 913.539 59.976C913.539 59.528 913.475 59.064 913.347 58.584C913.219 58.088 913.035 57.568 912.795 57.024C912.571 56.48 912.299 55.912 911.979 55.32L915.123 53.808C915.683 54.88 916.115 55.904 916.419 56.88C916.739 57.856 916.899 58.768 916.899 59.616C916.899 60.4 916.795 61.152 916.587 61.872C916.395 62.592 916.091 63.264 915.675 63.888C915.275 64.528 914.755 65.128 914.115 65.688C913.475 66.248 912.723 66.76 911.859 67.224C910.995 67.704 910.011 68.136 908.907 68.52Z" fill="white"/>
<rect x="462" y="30" width="174" height="52" rx="26" fill="#18A0FB"/>
<path d="M513.2 64.504L513.824 61.144C515.376 61.144 516.728 61.104 517.88 61.024C519.032 60.928 519.984 60.792 520.736 60.616C521.504 60.424 522.072 60.176 522.44 59.872C522.824 59.568 523.016 59.2 523.016 58.768C523.016 58.192 522.92 57.504 522.728 56.704C522.536 55.888 522.288 55.064 521.984 54.232L525.128 53.32C525.336 53.864 525.536 54.464 525.728 55.12C525.92 55.76 526.072 56.408 526.184 57.064C526.312 57.704 526.376 58.304 526.376 58.864C526.376 59.856 526.16 60.712 525.728 61.432C525.296 62.136 524.576 62.72 523.568 63.184C522.576 63.632 521.232 63.96 519.536 64.168C517.84 64.392 515.728 64.504 513.2 64.504ZM513.176 64.504C511.448 64.504 509.984 64.368 508.784 64.096C507.6 63.84 506.632 63.472 505.88 62.992C505.144 62.496 504.608 61.92 504.272 61.264C503.936 60.608 503.768 59.888 503.768 59.104C503.768 58.592 503.808 58.08 503.888 57.568C503.984 57.04 504.096 56.528 504.224 56.032C504.368 55.536 504.496 55.088 504.608 54.688L507.608 55.384C507.544 55.672 507.472 55.984 507.392 56.32C507.312 56.656 507.248 56.984 507.2 57.304C507.152 57.608 507.128 57.888 507.128 58.144C507.128 58.736 507.336 59.264 507.752 59.728C508.184 60.176 508.888 60.528 509.864 60.784C510.84 61.024 512.152 61.144 513.8 61.144L514.28 63.736L513.176 64.504ZM517.136 53.536C516.672 53.536 516.272 53.376 515.936 53.056C515.616 52.72 515.456 52.328 515.456 51.88C515.456 51.416 515.616 51.016 515.936 50.68C516.272 50.344 516.672 50.176 517.136 50.176C517.584 50.176 517.968 50.344 518.288 50.68C518.608 51.016 518.768 51.416 518.768 51.88C518.768 52.328 518.608 52.72 518.288 53.056C517.968 53.376 517.584 53.536 517.136 53.536ZM512.984 53.512C512.52 53.512 512.12 53.352 511.784 53.032C511.464 52.696 511.304 52.304 511.304 51.856C511.304 51.392 511.464 50.992 511.784 50.656C512.12 50.32 512.52 50.152 512.984 50.152C513.432 50.152 513.816 50.32 514.136 50.656C514.456 50.992 514.616 51.392 514.616 51.856C514.616 52.304 514.456 52.696 514.136 53.032C513.816 53.352 513.432 53.512 512.984 53.512ZM537.042 51.136C537.042 50.608 537.01 50.08 536.946 49.552C536.898 49.024 536.834 48.528 536.754 48.064C536.674 47.584 536.602 47.168 536.538 46.816L539.898 46.336C539.962 46.656 540.026 47.08 540.09 47.608C540.154 48.136 540.21 48.696 540.258 49.288C540.306 49.864 540.33 50.416 540.33 50.944C540.33 51.776 540.258 52.56 540.114 53.296C539.97 54.032 539.754 54.728 539.466 55.384C539.178 56.024 538.818 56.64 538.386 57.232L537.954 57.808C537.538 58.32 537.05 58.824 536.49 59.32C535.946 59.816 535.346 60.296 534.69 60.76H536.25C536.794 60.76 537.21 60.728 537.498 60.664C537.786 60.6 537.978 60.512 538.074 60.4C538.186 60.272 538.242 60.128 538.242 59.968C538.242 59.68 537.994 59.256 537.498 58.696C537.002 58.12 536.314 57.464 535.434 56.728C534.554 55.976 533.522 55.184 532.338 54.352C531.17 53.504 529.906 52.656 528.546 51.808L530.298 49.24C532.186 50.408 533.778 51.48 535.074 52.456C536.386 53.432 537.458 54.32 538.29 55.12C539.138 55.92 539.794 56.648 540.258 57.304C540.722 57.96 541.042 58.552 541.218 59.08C541.394 59.592 541.482 60.056 541.482 60.472C541.482 60.936 541.41 61.384 541.266 61.816C541.122 62.232 540.89 62.608 540.57 62.944C540.25 63.264 539.834 63.52 539.322 63.712C538.81 63.904 538.178 64 537.426 64H530.37V60.784C532.018 59.6 533.322 58.48 534.282 57.424C535.258 56.368 535.962 55.328 536.394 54.304C536.826 53.28 537.042 52.224 537.042 51.136ZM550.358 64.12C548.87 64.12 547.718 63.968 546.902 63.664C546.102 63.36 545.542 62.888 545.222 62.248C544.902 61.592 544.718 60.768 544.67 59.776L544.166 46.432H547.526L548.03 58.168C548.062 58.904 548.142 59.456 548.27 59.824C548.398 60.192 548.638 60.44 548.99 60.568C549.358 60.696 549.894 60.76 550.598 60.76C551.206 60.76 551.638 60.92 551.894 61.24C552.166 61.544 552.302 61.928 552.302 62.392C552.302 62.888 552.134 63.304 551.798 63.64C551.462 63.96 550.982 64.12 550.358 64.12ZM566.087 64.12C565.351 64.12 564.663 64.064 564.023 63.952C563.399 63.84 562.823 63.648 562.295 63.376C561.767 63.088 561.295 62.696 560.879 62.2C560.479 61.704 560.143 61.08 559.871 60.328L561.767 58.816C562.055 59.328 562.407 59.728 562.823 60.016C563.239 60.288 563.735 60.48 564.311 60.592C564.887 60.704 565.559 60.76 566.327 60.76C566.935 60.76 567.367 60.92 567.623 61.24C567.879 61.544 568.007 61.928 568.007 62.392C568.007 62.888 567.839 63.304 567.503 63.64C567.183 63.96 566.711 64.12 566.087 64.12ZM550.391 64.12L550.631 60.76C551.495 60.76 552.351 60.712 553.199 60.616C554.047 60.52 554.871 60.376 555.671 60.184C556.471 59.992 557.231 59.744 557.951 59.44C558.687 59.136 559.375 58.768 560.015 58.336C559.535 58.048 559.015 57.8 558.455 57.592C557.895 57.384 557.295 57.232 556.655 57.136C556.031 57.024 555.367 56.968 554.663 56.968C554.407 56.968 554.135 56.976 553.847 56.992C553.575 57.008 553.295 57.04 553.007 57.088C552.719 57.12 552.431 57.168 552.143 57.232L551.663 53.944C552.127 53.816 552.615 53.728 553.127 53.68C553.655 53.616 554.119 53.584 554.519 53.584C555.383 53.584 556.175 53.68 556.895 53.872C557.631 54.064 558.303 54.304 558.911 54.592C559.535 54.88 560.111 55.168 560.639 55.456C561.183 55.744 561.695 55.984 562.175 56.176C562.671 56.368 563.151 56.464 563.615 56.464H564.503L564.887 59.656C564.199 59.688 563.551 59.824 562.943 60.064C562.351 60.288 561.759 60.576 561.167 60.928C560.591 61.264 559.967 61.616 559.295 61.984C558.639 62.352 557.895 62.696 557.063 63.016C556.231 63.336 555.271 63.6 554.183 63.808C553.095 64.016 551.831 64.12 550.391 64.12ZM557.183 69.52C556.719 69.52 556.319 69.36 555.983 69.04C555.663 68.72 555.503 68.328 555.503 67.864C555.503 67.4 555.663 66.992 555.983 66.64C556.319 66.304 556.719 66.136 557.183 66.136C557.647 66.136 558.039 66.304 558.359 66.64C558.695 66.992 558.863 67.4 558.863 67.864C558.863 68.328 558.695 68.72 558.359 69.04C558.039 69.36 557.647 69.52 557.183 69.52ZM566.094 64.12L566.334 60.76C566.734 60.76 567.038 60.68 567.246 60.52C567.454 60.36 567.662 60.08 567.87 59.68C568.078 59.28 568.366 58.736 568.734 58.048C569.134 57.28 569.55 56.64 569.982 56.128C570.414 55.6 570.846 55.184 571.278 54.88C571.726 54.56 572.166 54.336 572.598 54.208C573.046 54.064 573.486 53.992 573.918 53.992C574.51 53.992 575.062 54.12 575.574 54.376C576.102 54.616 576.606 55.04 577.086 55.648C577.566 56.24 578.022 57.056 578.454 58.096C578.758 58.816 579.062 59.368 579.366 59.752C579.67 60.136 579.982 60.4 580.302 60.544C580.638 60.688 580.974 60.76 581.31 60.76C581.918 60.76 582.35 60.92 582.606 61.24C582.862 61.544 582.99 61.928 582.99 62.392C582.99 62.888 582.822 63.304 582.486 63.64C582.15 63.96 581.678 64.12 581.07 64.12C580.286 64.12 579.574 63.992 578.934 63.736C578.294 63.48 577.79 63.096 577.422 62.584L578.118 62.056C577.974 62.392 577.758 62.744 577.47 63.112C577.198 63.48 576.838 63.792 576.39 64.048C575.958 64.304 575.438 64.432 574.83 64.432C574.43 64.432 573.958 64.352 573.414 64.192C572.886 64.048 572.334 63.8 571.758 63.448C571.198 63.08 570.678 62.584 570.198 61.96C569.894 62.52 569.558 62.96 569.19 63.28C568.822 63.584 568.39 63.8 567.894 63.928C567.398 64.056 566.798 64.12 566.094 64.12ZM571.59 59.128C571.75 59.368 571.942 59.608 572.166 59.848C572.39 60.088 572.638 60.304 572.91 60.496C573.182 60.672 573.47 60.816 573.774 60.928C574.094 61.04 574.406 61.096 574.71 61.096C575.03 61.096 575.294 60.976 575.502 60.736C575.71 60.48 575.718 60.104 575.526 59.608C575.446 59.4 575.334 59.168 575.19 58.912C575.062 58.64 574.91 58.384 574.734 58.144C574.574 57.904 574.39 57.704 574.182 57.544C573.99 57.384 573.79 57.304 573.582 57.304C573.374 57.304 573.158 57.368 572.934 57.496C572.71 57.624 572.486 57.824 572.262 58.096C572.038 58.352 571.814 58.696 571.59 59.128ZM581.07 64.12L581.31 60.76C582.046 60.76 582.574 60.688 582.894 60.544C583.214 60.384 583.406 60.096 583.47 59.68C583.534 59.248 583.55 58.624 583.518 57.808L583.086 46.432H586.47L586.95 58.048C586.982 58.976 586.942 59.816 586.83 60.568C586.734 61.304 586.486 61.936 586.086 62.464C585.702 62.992 585.102 63.4 584.286 63.688C583.486 63.976 582.414 64.12 581.07 64.12ZM590.115 64L589.611 46.432H592.971L593.475 64H590.115Z" fill="white"/>
<rect x="294" y="30" width="158" height="52" rx="26" fill="#18A0FB"/>
<path d="M333.824 72.456C332.768 72.456 331.776 72.344 330.848 72.12C329.92 71.896 329.104 71.552 328.4 71.088C327.712 70.624 327.168 70.024 326.768 69.288C326.384 68.552 326.192 67.68 326.192 66.672C326.192 65.632 326.408 64.712 326.84 63.912C327.272 63.128 327.824 62.44 328.496 61.848C329.168 61.24 329.88 60.696 330.632 60.216C331.4 59.72 332.12 59.248 332.792 58.8C333.464 58.352 334.016 57.896 334.448 57.432C334.88 56.952 335.096 56.424 335.096 55.848C335.096 55.64 335.04 55.448 334.928 55.272C334.832 55.08 334.664 54.928 334.424 54.816C334.2 54.688 333.88 54.624 333.464 54.624C333.192 54.624 332.912 54.656 332.624 54.72C332.336 54.768 332.056 54.84 331.784 54.936C331.512 55.016 331.256 55.12 331.016 55.248C331.432 55.584 331.84 55.96 332.24 56.376C332.656 56.776 333.032 57.168 333.368 57.552C333.72 57.92 333.992 58.24 334.184 58.512C334.552 58.704 334.952 58.88 335.384 59.04C335.816 59.184 336.272 59.312 336.752 59.424C337.248 59.536 337.76 59.624 338.288 59.688C338.816 59.736 339.36 59.76 339.92 59.76C340.528 59.76 340.96 59.92 341.216 60.24C341.472 60.544 341.6 60.928 341.6 61.392C341.6 61.888 341.432 62.304 341.096 62.64C340.76 62.96 340.288 63.12 339.68 63.12C338.352 63.12 337.216 63.024 336.272 62.832C335.344 62.64 334.504 62.352 333.752 61.968C333.016 61.568 332.256 61.08 331.472 60.504C331.28 60.168 331 59.8 330.632 59.4C330.264 58.984 329.888 58.592 329.504 58.224C329.136 57.856 328.824 57.568 328.568 57.36C328.52 57.312 328.44 57.152 328.328 56.88C328.216 56.592 328.112 56.288 328.016 55.968C327.936 55.648 327.896 55.424 327.896 55.296C327.896 54.976 328.048 54.616 328.352 54.216C328.656 53.8 329.08 53.408 329.624 53.04C330.184 52.656 330.832 52.344 331.568 52.104C332.304 51.848 333.104 51.72 333.968 51.72C335.536 51.72 336.664 52.056 337.352 52.728C338.056 53.384 338.408 54.232 338.408 55.272C338.408 56.232 338.192 57.088 337.76 57.84C337.344 58.592 336.8 59.28 336.128 59.904C335.456 60.528 334.744 61.104 333.992 61.632C333.256 62.16 332.552 62.672 331.88 63.168C331.208 63.68 330.656 64.192 330.224 64.704C329.808 65.232 329.6 65.8 329.6 66.408C329.6 66.92 329.728 67.344 329.984 67.68C330.256 68.032 330.6 68.312 331.016 68.52C331.432 68.728 331.888 68.872 332.384 68.952C332.896 69.048 333.392 69.096 333.872 69.096C334.368 69.096 334.88 69.056 335.408 68.976C335.952 68.896 336.512 68.768 337.088 68.592C337.68 68.432 338.288 68.224 338.912 67.968L339.92 70.848C339.312 71.168 338.664 71.448 337.976 71.688C337.288 71.944 336.592 72.136 335.888 72.264C335.184 72.392 334.496 72.456 333.824 72.456ZM339.688 63.12L339.928 59.76C340.504 59.76 341 59.704 341.416 59.592C341.832 59.48 342.184 59.256 342.472 58.92C342.76 58.568 343 58.056 343.192 57.384C343.4 56.712 343.584 55.816 343.744 54.696L346.888 55.224C346.856 55.464 346.808 55.744 346.743 56.064C346.696 56.384 346.648 56.712 346.6 57.048C346.568 57.368 346.552 57.672 346.552 57.96C346.552 58.248 346.608 58.504 346.72 58.728C346.832 58.952 347.008 59.144 347.248 59.304C347.504 59.448 347.832 59.56 348.232 59.64C348.648 59.72 349.152 59.76 349.744 59.76C350.352 59.76 350.784 59.92 351.04 60.24C351.296 60.544 351.424 60.928 351.424 61.392C351.424 61.888 351.256 62.304 350.92 62.64C350.6 62.96 350.128 63.12 349.504 63.12C348.784 63.12 348.128 63.064 347.536 62.952C346.96 62.84 346.456 62.656 346.023 62.4C345.608 62.128 345.264 61.776 344.992 61.344C344.736 60.896 344.576 60.352 344.512 59.712H345.664C345.376 60.48 345.008 61.096 344.56 61.56C344.128 62.008 343.64 62.344 343.096 62.568C342.552 62.792 341.984 62.936 341.392 63C340.816 63.08 340.248 63.12 339.688 63.12ZM346.384 68.688C345.92 68.688 345.52 68.52 345.184 68.184C344.864 67.864 344.704 67.48 344.704 67.032C344.704 66.568 344.864 66.168 345.184 65.832C345.52 65.496 345.92 65.328 346.384 65.328C346.832 65.328 347.216 65.496 347.536 65.832C347.856 66.168 348.016 66.568 348.016 67.032C348.016 67.48 347.856 67.864 347.536 68.184C347.216 68.52 346.832 68.688 346.384 68.688ZM342.232 68.688C341.768 68.688 341.368 68.52 341.032 68.184C340.712 67.864 340.552 67.48 340.552 67.032C340.552 66.568 340.712 66.168 341.032 65.832C341.368 65.496 341.768 65.328 342.232 65.328C342.68 65.328 343.064 65.496 343.384 65.832C343.704 66.168 343.864 66.568 343.864 67.032C343.864 67.48 343.704 67.864 343.384 68.184C343.064 68.52 342.68 68.688 342.232 68.688ZM361.94 63.432C360.452 63.432 359.212 63.368 358.22 63.24C357.244 63.112 356.452 62.928 355.844 62.688C355.236 62.448 354.756 62.16 354.404 61.824C354.052 61.488 353.764 61.12 353.54 60.72L354.212 60.528C353.812 61.296 353.356 61.864 352.844 62.232C352.332 62.6 351.796 62.84 351.236 62.952C350.676 63.064 350.1 63.12 349.508 63.12L349.748 59.76C350.244 59.76 350.636 59.68 350.924 59.52C351.212 59.36 351.444 59.096 351.62 58.728C351.812 58.36 351.988 57.872 352.148 57.264C352.308 56.656 352.5 55.912 352.724 55.032L355.772 55.776C355.66 56.208 355.564 56.584 355.484 56.904C355.42 57.224 355.364 57.504 355.316 57.744C355.284 57.968 355.268 58.152 355.268 58.296C355.268 58.6 355.34 58.872 355.484 59.112C355.628 59.336 355.908 59.52 356.324 59.664C356.74 59.792 357.348 59.896 358.148 59.976C358.964 60.04 360.028 60.072 361.34 60.072C362.732 60.072 363.892 60.024 364.82 59.928C365.748 59.816 366.484 59.664 367.028 59.472C367.588 59.264 367.988 59.016 368.228 58.728C368.468 58.424 368.588 58.08 368.588 57.696C368.588 57.392 368.516 57.112 368.372 56.856C368.244 56.584 368.028 56.36 367.724 56.184C367.42 56.008 367.028 55.92 366.548 55.92C365.972 55.92 365.388 56.064 364.796 56.352C364.22 56.624 363.652 56.992 363.092 57.456C362.532 57.904 361.996 58.408 361.484 58.968C360.988 59.528 360.54 60.088 360.14 60.648L356.54 60.24C357.164 59.232 357.868 58.264 358.652 57.336C359.436 56.408 360.276 55.592 361.172 54.888C362.068 54.168 362.996 53.6 363.956 53.184C364.916 52.768 365.892 52.56 366.884 52.56C367.956 52.56 368.868 52.768 369.62 53.184C370.372 53.6 370.948 54.176 371.348 54.912C371.748 55.648 371.948 56.496 371.948 57.456C371.948 58.624 371.612 59.656 370.94 60.552C370.284 61.448 369.22 62.152 367.748 62.664C366.292 63.176 364.356 63.432 361.94 63.432ZM366.188 50.328C365.692 50.328 365.268 50.16 364.916 49.824C364.58 49.488 364.412 49.072 364.412 48.576C364.412 48.08 364.58 47.656 364.916 47.304C365.268 46.952 365.692 46.776 366.188 46.776C366.668 46.776 367.076 46.952 367.412 47.304C367.764 47.656 367.94 48.08 367.94 48.576C367.94 49.072 367.764 49.488 367.412 49.824C367.076 50.16 366.668 50.328 366.188 50.328ZM374.795 63L374.291 45.432H377.651L378.155 63H374.795ZM380.806 68.52L380.11 65.16C381.246 65.016 382.238 64.84 383.086 64.632C383.934 64.44 384.646 64.168 385.222 63.816C385.798 63.464 386.23 62.984 386.518 62.376C386.806 61.752 386.95 60.952 386.95 59.976C386.95 59.032 386.806 58.28 386.518 57.72C386.23 57.16 385.846 56.88 385.366 56.88C385.03 56.88 384.75 57 384.526 57.24C384.302 57.464 384.134 57.736 384.022 58.056C383.926 58.36 383.878 58.632 383.878 58.872C383.878 59.016 383.918 59.168 383.998 59.328C384.078 59.488 384.254 59.624 384.526 59.736C384.798 59.848 385.222 59.912 385.798 59.928C386.39 59.944 387.19 59.888 388.198 59.76H392.23C392.838 59.76 393.27 59.92 393.526 60.24C393.798 60.544 393.934 60.928 393.934 61.392C393.934 61.888 393.766 62.304 393.43 62.64C393.094 62.96 392.614 63.12 391.99 63.12H385.39C384.382 63.12 383.518 63 382.798 62.76C382.078 62.52 381.526 62.136 381.142 61.608C380.758 61.064 380.566 60.344 380.566 59.448C380.566 58.728 380.686 58.008 380.926 57.288C381.182 56.568 381.534 55.912 381.982 55.32C382.43 54.712 382.95 54.232 383.542 53.88C384.15 53.512 384.806 53.328 385.51 53.328C386.47 53.328 387.31 53.624 388.03 54.216C388.75 54.808 389.31 55.592 389.71 56.568C390.126 57.544 390.334 58.608 390.334 59.76C390.334 61.568 389.95 63.104 389.182 64.368C388.414 65.632 387.318 66.608 385.894 67.296C384.47 68 382.774 68.408 380.806 68.52ZM392.023 63.12L392.263 59.76C392.663 59.76 392.967 59.68 393.175 59.52C393.383 59.36 393.591 59.08 393.799 58.68C394.007 58.28 394.295 57.736 394.663 57.048C395.063 56.28 395.479 55.64 395.911 55.128C396.343 54.6 396.775 54.184 397.207 53.88C397.655 53.56 398.095 53.336 398.527 53.208C398.975 53.064 399.415 52.992 399.847 52.992C400.439 52.992 400.991 53.12 401.503 53.376C402.031 53.616 402.535 54.04 403.015 54.648C403.495 55.24 403.951 56.056 404.383 57.096C404.687 57.816 404.991 58.368 405.295 58.752C405.599 59.136 405.911 59.4 406.231 59.544C406.567 59.688 406.903 59.76 407.239 59.76C407.847 59.76 408.279 59.92 408.535 60.24C408.791 60.544 408.919 60.928 408.919 61.392C408.919 61.888 408.751 62.304 408.415 62.64C408.079 62.96 407.607 63.12 406.999 63.12C406.215 63.12 405.503 62.992 404.863 62.736C404.223 62.48 403.719 62.096 403.351 61.584L404.047 61.056C403.903 61.392 403.687 61.744 403.399 62.112C403.127 62.48 402.767 62.792 402.319 63.048C401.887 63.304 401.367 63.432 400.759 63.432C400.359 63.432 399.887 63.352 399.343 63.192C398.815 63.048 398.263 62.8 397.687 62.448C397.127 62.08 396.607 61.584 396.127 60.96C395.823 61.52 395.487 61.96 395.119 62.28C394.751 62.584 394.319 62.8 393.823 62.928C393.327 63.056 392.727 63.12 392.023 63.12ZM397.519 58.128C397.679 58.368 397.871 58.608 398.095 58.848C398.319 59.088 398.567 59.304 398.839 59.496C399.111 59.672 399.399 59.816 399.703 59.928C400.023 60.04 400.335 60.096 400.639 60.096C400.959 60.096 401.223 59.976 401.431 59.736C401.639 59.48 401.647 59.104 401.455 58.608C401.375 58.4 401.263 58.168 401.119 57.912C400.991 57.64 400.839 57.384 400.663 57.144C400.503 56.904 400.319 56.704 400.111 56.544C399.919 56.384 399.719 56.304 399.511 56.304C399.303 56.304 399.087 56.368 398.863 56.496C398.639 56.624 398.415 56.824 398.191 57.096C397.967 57.352 397.743 57.696 397.519 58.128ZM407 63.12L407.24 59.76C407.976 59.76 408.504 59.688 408.824 59.544C409.144 59.384 409.336 59.096 409.4 58.68C409.464 58.248 409.48 57.624 409.448 56.808L409.016 45.432H412.4L412.88 57.048C412.912 57.976 412.872 58.816 412.76 59.568C412.664 60.304 412.416 60.936 412.016 61.464C411.632 61.992 411.032 62.4 410.216 62.688C409.416 62.976 408.344 63.12 407 63.12ZM416.045 63L415.541 45.432H418.901L419.405 63H416.045Z" fill="white"/>
<rect x="188" y="30" width="96" height="52" rx="26" fill="#18A0FB"/>
<path d="M207.624 62.328C207.624 61.96 207.656 61.528 207.72 61.032C207.784 60.536 207.904 59.976 208.08 59.352C208.256 58.712 208.52 58 208.872 57.216L211.824 58.248C211.648 58.744 211.496 59.2 211.368 59.616C211.24 60.016 211.144 60.392 211.08 60.744C211.016 61.08 210.984 61.416 210.984 61.752C210.984 62.568 211.16 63.24 211.512 63.768C211.88 64.296 212.392 64.688 213.048 64.944C213.704 65.2 214.464 65.328 215.328 65.328C216.48 65.328 217.392 65.136 218.064 64.752C218.736 64.368 219.224 63.832 219.528 63.144C219.832 62.472 220.016 61.688 220.08 60.792C220.16 59.88 220.184 58.912 220.152 57.888L219.696 45.432H223.08L223.488 57.672C223.52 58.712 223.48 59.752 223.368 60.792C223.272 61.832 223.056 62.816 222.72 63.744C222.4 64.672 221.928 65.496 221.304 66.216C220.68 66.936 219.872 67.504 218.88 67.92C217.904 68.336 216.696 68.544 215.256 68.544C214.216 68.544 213.232 68.424 212.304 68.184C211.392 67.944 210.584 67.568 209.88 67.056C209.176 66.56 208.624 65.92 208.224 65.136C207.824 64.352 207.624 63.416 207.624 62.328ZM226.157 68.52L225.461 65.16C226.597 65.016 227.589 64.84 228.437 64.632C229.285 64.44 229.997 64.168 230.573 63.816C231.149 63.464 231.581 62.984 231.869 62.376C232.157 61.752 232.301 60.952 232.301 59.976C232.301 59.624 232.269 59.272 232.205 58.92C232.141 58.552 232.045 58.216 231.917 57.912C231.789 57.608 231.621 57.36 231.413 57.168C231.221 56.976 230.989 56.88 230.717 56.88C230.429 56.88 230.173 56.984 229.949 57.192C229.725 57.384 229.549 57.632 229.421 57.936C229.293 58.224 229.229 58.52 229.229 58.824C229.229 59.048 229.285 59.24 229.397 59.4C229.509 59.544 229.677 59.656 229.901 59.736C230.125 59.8 230.405 59.832 230.741 59.832C231.125 59.832 231.517 59.792 231.917 59.712C232.333 59.616 232.709 59.488 233.045 59.328L233.141 61.944C232.757 62.248 232.317 62.52 231.821 62.76C231.325 62.984 230.725 63.096 230.021 63.096C229.445 63.096 228.909 63.032 228.413 62.904C227.917 62.76 227.477 62.544 227.093 62.256C226.725 61.968 226.437 61.6 226.229 61.152C226.021 60.688 225.917 60.136 225.917 59.496C225.917 58.712 226.045 57.952 226.301 57.216C226.557 56.48 226.909 55.824 227.357 55.248C227.821 54.656 228.349 54.192 228.941 53.856C229.549 53.504 230.189 53.328 230.861 53.328C231.661 53.328 232.357 53.528 232.949 53.928C233.557 54.328 234.061 54.856 234.461 55.512C234.861 56.152 235.165 56.848 235.373 57.6C235.581 58.352 235.685 59.072 235.685 59.76C235.685 61.568 235.301 63.104 234.533 64.368C233.765 65.632 232.669 66.608 231.245 67.296C229.821 68 228.125 68.408 226.157 68.52ZM241.974 59.76C242.694 59.76 243.246 59.696 243.63 59.568C244.014 59.44 244.278 59.272 244.422 59.064C244.566 58.856 244.638 58.632 244.638 58.392C244.638 58.008 244.526 57.56 244.302 57.048C244.094 56.536 243.83 56 243.51 55.44C243.19 54.88 242.854 54.344 242.502 53.832C242.166 53.32 241.862 52.872 241.59 52.488L244.446 50.592C245.134 51.52 245.726 52.44 246.222 53.352C246.718 54.248 247.118 55.08 247.422 55.848C247.742 56.616 247.966 57.272 248.094 57.816C248.222 58.328 248.414 58.728 248.67 59.016C248.942 59.288 249.254 59.48 249.606 59.592C249.958 59.704 250.31 59.76 250.662 59.76C251.27 59.76 251.702 59.92 251.958 60.24C252.23 60.544 252.366 60.928 252.366 61.392C252.366 61.888 252.198 62.304 251.862 62.64C251.542 62.96 251.062 63.12 250.422 63.12C249.718 63.12 249.102 63.024 248.574 62.832C248.046 62.64 247.598 62.336 247.23 61.92C246.862 61.504 246.55 60.976 246.294 60.336L247.758 60.648C247.63 61.096 247.334 61.512 246.87 61.896C246.422 62.264 245.822 62.568 245.07 62.808C244.334 63.032 243.462 63.144 242.454 63.144C241.974 63.144 241.438 63.104 240.846 63.024C240.27 62.944 239.694 62.824 239.118 62.664C238.558 62.504 238.046 62.296 237.582 62.04L238.758 58.992C239.35 59.248 239.918 59.44 240.462 59.568C241.022 59.696 241.526 59.76 241.974 59.76ZM250.453 63.12L250.693 59.76C251.429 59.76 251.957 59.688 252.277 59.544C252.597 59.384 252.789 59.096 252.853 58.68C252.917 58.248 252.933 57.624 252.901 56.808L252.469 45.432H255.853L256.333 57.048C256.365 57.976 256.325 58.816 256.213 59.568C256.117 60.304 255.869 60.936 255.469 61.464C255.085 61.992 254.485 62.4 253.669 62.688C252.869 62.976 251.797 63.12 250.453 63.12ZM259.498 63L258.994 45.432H262.354L262.858 63H259.498Z" fill="white"/>
<rect x="33" y="29" width="145" height="52" rx="26" fill="#18A0FB"/>
<path d="M69.968 72.432C69.6 71.12 69.296 69.872 69.056 68.688C68.816 67.52 68.64 66.456 68.528 65.496C68.416 64.552 68.36 63.76 68.36 63.12C68.36 61.696 68.584 60.432 69.032 59.328C69.496 58.208 70.088 57.248 70.808 56.448C71.544 55.632 72.328 54.96 73.16 54.432C74.008 53.904 74.824 53.512 75.608 53.256C76.408 53 77.088 52.872 77.648 52.872C78.224 52.872 78.696 53.024 79.064 53.328C79.448 53.632 79.784 54.072 80.072 54.648C80.376 55.208 80.696 55.888 81.032 56.688C81.416 57.552 81.752 58.208 82.04 58.656C82.344 59.088 82.656 59.384 82.976 59.544C83.296 59.688 83.656 59.76 84.056 59.76C84.664 59.76 85.104 59.92 85.376 60.24C85.648 60.544 85.784 60.928 85.784 61.392C85.784 61.888 85.616 62.304 85.28 62.64C84.944 62.96 84.456 63.12 83.816 63.12C83.032 63.12 82.352 62.992 81.776 62.736C81.2 62.464 80.68 62.08 80.216 61.584L80.888 60.84C80.744 61.336 80.544 61.784 80.288 62.184C80.048 62.568 79.72 62.872 79.304 63.096C78.904 63.32 78.4 63.432 77.792 63.432C77.248 63.432 76.704 63.352 76.16 63.192C75.632 63.032 75.112 62.792 74.6 62.472C74.104 62.152 73.624 61.76 73.16 61.296C72.696 60.816 72.256 60.264 71.84 59.64L72.728 59.472C72.376 60.016 72.12 60.624 71.96 61.296C71.8 61.968 71.72 62.632 71.72 63.288C71.72 63.8 71.76 64.392 71.84 65.064C71.936 65.752 72.056 66.472 72.2 67.224C72.344 67.992 72.504 68.744 72.68 69.48C72.872 70.232 73.056 70.92 73.232 71.544L69.968 72.432ZM77.744 60.048C78.048 60.048 78.288 60.008 78.464 59.928C78.656 59.832 78.776 59.696 78.824 59.52C78.888 59.344 78.872 59.136 78.776 58.896C78.616 58.464 78.456 58.088 78.296 57.768C78.152 57.448 78.008 57.176 77.864 56.952C77.736 56.728 77.6 56.56 77.456 56.448C77.328 56.336 77.192 56.28 77.048 56.28C76.84 56.28 76.584 56.352 76.28 56.496C75.976 56.624 75.672 56.784 75.368 56.976C75.064 57.168 74.808 57.36 74.6 57.552C74.392 57.728 74.272 57.864 74.24 57.96L73.952 57.168C74.24 57.728 74.584 58.232 74.984 58.68C75.4 59.112 75.848 59.448 76.328 59.688C76.808 59.928 77.28 60.048 77.744 60.048ZM83.8672 63.12L84.1072 59.76C84.6832 59.76 85.1792 59.704 85.5952 59.592C86.0112 59.48 86.3632 59.256 86.6512 58.92C86.9392 58.568 87.1792 58.056 87.3712 57.384C87.5792 56.712 87.7632 55.816 87.9232 54.696L91.0672 55.224C91.0352 55.464 90.9872 55.744 90.9232 56.064C90.8752 56.384 90.8272 56.712 90.7792 57.048C90.7472 57.368 90.7312 57.672 90.7312 57.96C90.7312 58.248 90.7872 58.504 90.8992 58.728C91.0112 58.952 91.1872 59.144 91.4272 59.304C91.6832 59.448 92.0112 59.56 92.4112 59.64C92.8272 59.72 93.3312 59.76 93.9232 59.76C94.5312 59.76 94.9632 59.92 95.2192 60.24C95.4752 60.544 95.6032 60.928 95.6032 61.392C95.6032 61.888 95.4352 62.304 95.0992 62.64C94.7792 62.96 94.3072 63.12 93.6832 63.12C92.9632 63.12 92.3072 63.064 91.7152 62.952C91.1392 62.84 90.6352 62.656 90.2032 62.4C89.7872 62.128 89.4432 61.776 89.1712 61.344C88.9152 60.896 88.7552 60.352 88.6912 59.712H89.8432C89.5552 60.48 89.1872 61.096 88.7392 61.56C88.3072 62.008 87.8192 62.344 87.2752 62.568C86.7312 62.792 86.1632 62.936 85.5712 63C84.9952 63.08 84.4272 63.12 83.8672 63.12ZM90.5632 68.688C90.0992 68.688 89.6992 68.52 89.3632 68.184C89.0432 67.864 88.8832 67.48 88.8832 67.032C88.8832 66.568 89.0432 66.168 89.3632 65.832C89.6992 65.496 90.0992 65.328 90.5632 65.328C91.0112 65.328 91.3952 65.496 91.7152 65.832C92.0352 66.168 92.1952 66.568 92.1952 67.032C92.1952 67.48 92.0352 67.864 91.7152 68.184C91.3952 68.52 91.0112 68.688 90.5632 68.688ZM86.4112 68.688C85.9472 68.688 85.5472 68.52 85.2112 68.184C84.8912 67.864 84.7312 67.48 84.7312 67.032C84.7312 66.568 84.8912 66.168 85.2112 65.832C85.5472 65.496 85.9472 65.328 86.4112 65.328C86.8592 65.328 87.2432 65.496 87.5632 65.832C87.8832 66.168 88.0432 66.568 88.0432 67.032C88.0432 67.48 87.8832 67.864 87.5632 68.184C87.2432 68.52 86.8592 68.688 86.4112 68.688ZM93.6875 63.12L93.9275 59.76C94.6635 59.76 95.1915 59.688 95.5115 59.544C95.8315 59.384 96.0235 59.096 96.0875 58.68C96.1515 58.248 96.1675 57.624 96.1355 56.808L95.7035 45.432H99.0875L99.5675 57.048C99.5995 57.976 99.5595 58.816 99.4475 59.568C99.3515 60.304 99.1035 60.936 98.7035 61.464C98.3195 61.992 97.7195 62.4 96.9035 62.688C96.1035 62.976 95.0315 63.12 93.6875 63.12ZM108.421 63.12C106.933 63.12 105.781 62.968 104.965 62.664C104.165 62.36 103.605 61.888 103.285 61.248C102.965 60.592 102.781 59.768 102.733 58.776L102.229 45.432H105.589L106.093 57.168C106.125 57.904 106.205 58.456 106.333 58.824C106.461 59.192 106.701 59.44 107.053 59.568C107.421 59.696 107.957 59.76 108.661 59.76C109.269 59.76 109.701 59.92 109.957 60.24C110.229 60.544 110.365 60.928 110.365 61.392C110.365 61.888 110.197 62.304 109.861 62.64C109.525 62.96 109.045 63.12 108.421 63.12ZM108.453 63.12L108.693 59.784C110.021 59.784 111.085 59.776 111.885 59.76C112.701 59.744 113.333 59.712 113.781 59.664C114.245 59.6 114.589 59.528 114.813 59.448C115.037 59.352 115.229 59.248 115.389 59.136C115.581 58.992 115.741 58.8 115.869 58.56C116.013 58.304 116.125 57.968 116.205 57.552C116.285 57.136 116.325 56.616 116.325 55.992C116.325 55.208 116.253 54.552 116.109 54.024C115.981 53.48 115.789 53.072 115.533 52.8C115.293 52.528 114.997 52.392 114.645 52.392C114.389 52.392 114.149 52.48 113.925 52.656C113.701 52.816 113.517 53.04 113.373 53.328C113.229 53.616 113.157 53.944 113.157 54.312C113.157 54.52 113.213 54.704 113.325 54.864C113.437 55.024 113.613 55.144 113.853 55.224C114.093 55.304 114.397 55.344 114.765 55.344C115.117 55.344 115.485 55.304 115.869 55.224C116.269 55.128 116.637 55 116.973 54.84L117.069 57.696C116.813 57.872 116.517 58.032 116.181 58.176C115.845 58.32 115.485 58.432 115.101 58.512C114.733 58.576 114.357 58.608 113.973 58.608C113.125 58.608 112.389 58.496 111.765 58.272C111.157 58.032 110.685 57.648 110.349 57.12C110.013 56.592 109.845 55.872 109.845 54.96C109.845 54.256 109.965 53.56 110.205 52.872C110.445 52.168 110.789 51.536 111.237 50.976C111.685 50.4 112.213 49.944 112.821 49.608C113.429 49.256 114.101 49.08 114.837 49.08C115.925 49.08 116.821 49.4 117.525 50.04C118.245 50.664 118.773 51.512 119.109 52.584C119.461 53.64 119.637 54.816 119.637 56.112C119.637 57.248 119.469 58.24 119.133 59.088C118.797 59.92 118.397 60.576 117.933 61.056C117.549 61.456 117.109 61.792 116.613 62.064C116.117 62.336 115.509 62.552 114.789 62.712C114.085 62.856 113.213 62.96 112.173 63.024C111.149 63.088 109.909 63.12 108.453 63.12ZM116.877 46.896C116.413 46.896 116.013 46.736 115.677 46.416C115.357 46.08 115.197 45.688 115.197 45.24C115.197 44.776 115.357 44.376 115.677 44.04C116.013 43.704 116.413 43.536 116.877 43.536C117.325 43.536 117.709 43.704 118.029 44.04C118.349 44.376 118.509 44.776 118.509 45.24C118.509 45.688 118.349 46.08 118.029 46.416C117.709 46.736 117.325 46.896 116.877 46.896ZM112.725 46.872C112.261 46.872 111.861 46.712 111.525 46.392C111.205 46.056 111.045 45.664 111.045 45.216C111.045 44.752 111.205 44.352 111.525 44.016C111.861 43.68 112.261 43.512 112.725 43.512C113.173 43.512 113.557 43.68 113.877 44.016C114.197 44.352 114.357 44.752 114.357 45.216C114.357 45.664 114.197 46.056 113.877 46.392C113.557 46.712 113.173 46.872 112.725 46.872ZM130.026 50.136C130.026 49.608 129.994 49.08 129.93 48.552C129.882 48.024 129.818 47.528 129.738 47.064C129.658 46.584 129.586 46.168 129.522 45.816L132.882 45.336C132.946 45.656 133.01 46.08 133.074 46.608C133.138 47.136 133.194 47.696 133.242 48.288C133.29 48.864 133.314 49.416 133.314 49.944C133.314 50.776 133.242 51.56 133.098 52.296C132.954 53.032 132.738 53.728 132.45 54.384C132.162 55.024 131.802 55.64 131.37 56.232L130.938 56.808C130.522 57.32 130.034 57.824 129.474 58.32C128.93 58.816 128.33 59.296 127.674 59.76H129.234C129.778 59.76 130.194 59.728 130.482 59.664C130.77 59.6 130.962 59.512 131.058 59.4C131.17 59.272 131.226 59.128 131.226 58.968C131.226 58.68 130.978 58.256 130.482 57.696C129.986 57.12 129.298 56.464 128.418 55.728C127.538 54.976 126.506 54.184 125.322 53.352C124.154 52.504 122.89 51.656 121.53 50.808L123.282 48.24C125.17 49.408 126.762 50.48 128.058 51.456C129.37 52.432 130.442 53.32 131.274 54.12C132.122 54.92 132.778 55.648 133.242 56.304C133.706 56.96 134.026 57.552 134.202 58.08C134.378 58.592 134.466 59.056 134.466 59.472C134.466 59.936 134.394 60.384 134.25 60.816C134.106 61.232 133.874 61.608 133.554 61.944C133.234 62.264 132.818 62.52 132.306 62.712C131.794 62.904 131.162 63 130.41 63H123.354V59.784C125.002 58.6 126.306 57.48 127.266 56.424C128.242 55.368 128.946 54.328 129.378 53.304C129.81 52.28 130.026 51.224 130.026 50.136ZM121.314 47.88L120.906 46.2C121.466 46.104 121.882 46.024 122.154 45.96C122.442 45.896 122.746 45.824 123.066 45.744L122.826 46.344C122.41 46.2 122.01 45.92 121.626 45.504C121.258 45.072 121.074 44.584 121.074 44.04C121.074 43.464 121.202 43 121.458 42.648C121.714 42.296 122.042 42.04 122.442 41.88C122.842 41.72 123.258 41.64 123.69 41.64C123.93 41.64 124.154 41.656 124.362 41.688C124.586 41.72 124.786 41.768 124.962 41.832L124.77 43.56C124.61 43.528 124.45 43.496 124.29 43.464C124.13 43.432 123.954 43.416 123.762 43.416C123.554 43.416 123.362 43.488 123.186 43.632C123.026 43.76 122.946 43.92 122.946 44.112C122.946 44.384 123.042 44.624 123.234 44.832C123.426 45.04 123.65 45.208 123.906 45.336C124.178 45.448 124.402 45.512 124.578 45.528L123.258 45.672C123.69 45.56 124.098 45.448 124.482 45.336C124.866 45.208 125.226 45.08 125.562 44.952L126.042 46.56C125.642 46.704 125.17 46.864 124.626 47.04C124.098 47.2 123.546 47.352 122.97 47.496C122.41 47.64 121.858 47.768 121.314 47.88ZM138.381 63L137.877 45.432H141.237L141.741 63H138.381Z" fill="white"/>
</g>
<defs>
<filter id="filter0_d_98_678" x="0" y="0" width="988" height="119" filterUnits="userSpaceOnUse" color-interpolation-filters="sRGB">
<feFlood flood-opacity="0" result="BackgroundImageFix"/>
<feColorMatrix in="SourceAlpha" type="matrix" values="0 0 0 0 0 0 0 0 0 0 0 0 0 0 0 0 0 0 127 0" result="hardAlpha"/>
<feOffset dy="4"/>
<feGaussianBlur stdDeviation="16.5"/>
<feComposite in2="hardAlpha" operator="out"/>
<feColorMatrix type="matrix" values="0 0 0 0 0 0 0 0 0 0 0 0 0 0 0 0 0 0 0.6 0"/>
<feBlend mode="normal" in2="BackgroundImageFix" result="effect1_dropShadow_98_678"/>
<feBlend mode="normal" in="SourceGraphic" in2="effect1_dropShadow_98_678" result="shape"/>
</filter>
</defs>
</svg>
