<svg width="389" height="123" viewBox="0 0 389 123" fill="none" xmlns="http://www.w3.org/2000/svg">
<g filter="url(#filter0_d_98_676)">
<path d="M20.5259 92.0327V73.0354C20.5259 68.7121 21.7975 65.2534 24.3406 62.6594C26.5786 60.4214 29.5795 59.1499 33.3433 58.8447C31.97 56.7085 31.2834 53.8856 31.2834 50.376C31.2834 44.7811 32.8093 40.3561 35.861 37.1008C38.5568 34.2525 42.1172 32.8284 46.5422 32.8284C51.069 32.8284 54.604 34.2779 57.1471 37.1771C59.3342 39.6694 60.4278 42.9246 60.4278 46.9428V56.0218C60.3769 59.7857 59.1053 62.7103 56.6131 64.7956C54.1208 66.881 50.6112 67.9491 46.0845 68H35.4796C33.5468 68 32.1735 68.4069 31.3597 69.2207C30.5459 70.0854 30.139 71.5095 30.139 73.4932V86.9973L20.5259 92.0327ZM50.8147 46.7902C50.8147 43.4333 49.3905 41.7548 46.5422 41.7548C44.7112 41.7548 43.2616 42.4923 42.1934 43.9673C41.1762 45.4423 40.6676 47.4769 40.6676 50.0709C40.6676 55.8692 42.5749 58.7684 46.3896 58.7684C49.3397 58.7684 50.8147 57.3442 50.8147 54.4959V46.7902ZM65.009 68L69.8155 58.7684H81.87C84.464 58.7684 85.761 57.2679 85.761 54.267C85.761 48.6721 83.0653 44.3742 77.6738 41.3733L82.4041 33.2098C90.3387 37.8383 94.6112 44.1199 95.2215 52.0545C95.425 54.5976 95.9845 56.3524 96.9 57.3188C97.8664 58.2852 99.494 58.7684 101.783 58.7684H107.581V68H101.249C97.4849 68 94.306 66.9573 91.712 64.8719C89.8301 66.9573 87.1343 68 83.6248 68H65.009ZM119.108 27.4115C117.582 27.4115 116.362 26.9537 115.446 26.0382C114.531 25.1226 114.073 23.8765 114.073 22.2998C114.073 18.9937 115.751 17.3406 119.108 17.3406C120.634 17.3406 121.829 17.7984 122.694 18.7139C123.61 19.5786 124.067 20.7739 124.067 22.2998C124.067 25.7076 122.414 27.4115 119.108 27.4115ZM130.857 27.4115C129.332 27.4115 128.111 26.9537 127.195 26.0382C126.28 25.1226 125.822 23.8765 125.822 22.2998C125.822 18.9937 127.501 17.3406 130.857 17.3406C132.383 17.3406 133.579 17.7984 134.443 18.7139C135.359 19.5786 135.817 20.7739 135.817 22.2998C135.817 25.7076 134.164 27.4115 130.857 27.4115ZM137.114 58.7684H149.168V68H131.086C128.492 68 126.458 67.822 124.983 67.4659C123.406 67.822 121.372 68 118.879 68H100.721V58.7684H112.776C110.843 55.6658 109.877 52.5123 109.877 49.3079C109.877 44.2216 111.377 40.1272 114.378 37.0245C117.074 34.2271 120.609 32.8284 124.983 32.8284C129.967 32.8284 133.833 34.634 136.58 38.2453C138.868 41.1953 140.013 44.8828 140.013 49.3079C140.013 52.5123 139.046 55.6658 137.114 58.7684ZM124.907 57.9292C126.636 57.1154 128.035 55.8692 129.103 54.1907C130.222 52.4614 130.781 50.6558 130.781 48.7739C130.781 46.5868 130.247 44.8828 129.179 43.6621C128.162 42.3906 126.763 41.7548 124.983 41.7548C121.117 41.7548 119.184 44.069 119.184 48.6976C119.184 50.6812 119.719 52.5377 120.787 54.267C121.855 55.9455 123.228 57.1662 124.907 57.9292ZM149.564 27.4115C148.039 27.4115 146.818 26.9537 145.902 26.0382C144.987 25.1226 144.529 23.8765 144.529 22.2998C144.529 20.8247 144.987 19.6295 145.902 18.7139C146.818 17.7984 148.039 17.3406 149.564 17.3406C151.09 17.3406 152.286 17.7984 153.15 18.7139C154.066 19.5786 154.524 20.7739 154.524 22.2998C154.524 25.7076 152.871 27.4115 149.564 27.4115ZM161.237 27.4115C159.712 27.4115 158.491 26.9537 157.575 26.0382C156.66 25.0718 156.202 23.8256 156.202 22.2998C156.202 20.8247 156.66 19.6295 157.575 18.7139C158.542 17.7984 159.762 17.3406 161.237 17.3406C162.763 17.3406 163.959 17.7984 164.823 18.7139C165.739 19.5786 166.197 20.7739 166.197 22.2998C166.197 25.7076 164.544 27.4115 161.237 27.4115ZM169.477 58.7684H176.344V68H168.562C164.849 68 161.772 67.0082 159.33 65.0245C156.889 67.0082 153.812 68 150.099 68H142.317V58.7684H149.183C151.116 58.7684 152.489 58.3615 153.303 57.5477C154.117 56.683 154.524 55.2589 154.524 53.2752V39.1608L164.137 34.1254V53.2752C164.137 55.2589 164.544 56.683 165.357 57.5477C166.171 58.3615 167.544 58.7684 169.477 58.7684ZM181.665 46.9428C181.665 42.3651 183.089 38.7793 185.937 36.1853C188.429 33.9473 191.634 32.8284 195.55 32.8284C200.586 32.8284 204.502 34.6849 207.3 38.3978C209.69 41.5005 210.885 45.4932 210.885 50.376C210.885 56.0218 209.385 60.4723 206.384 63.7275C203.688 66.5758 200.255 68 196.084 68C192.015 68 188.684 67.1099 186.09 65.3297C183.648 67.1099 180.698 68 177.24 68H169.458V58.7684H176.324C178.257 58.7684 179.63 58.3615 180.444 57.5477C181.258 56.683 181.665 55.2589 181.665 53.2752V46.9428ZM191.278 54.4959C191.278 57.3442 192.778 58.7684 195.779 58.7684C199.543 58.7684 201.425 55.8692 201.425 50.0709C201.425 44.5268 199.467 41.7548 195.55 41.7548C192.702 41.7548 191.278 43.4333 191.278 46.7902V54.4959ZM265.293 21.3079C262.241 21.3079 260.715 19.7312 260.715 16.5777C260.715 13.5259 262.241 12 265.293 12C268.395 12 269.947 13.5259 269.947 16.5777C269.947 19.7312 268.395 21.3079 265.293 21.3079ZM259.494 32.5232C257.968 32.5232 256.748 32.0654 255.832 31.1499C254.917 30.1835 254.459 28.9374 254.459 27.4115C254.459 25.9364 254.917 24.7412 255.832 23.8256C256.748 22.9101 257.968 22.4523 259.494 22.4523C261.02 22.4523 262.215 22.9101 263.08 23.8256C263.996 24.6903 264.453 25.8856 264.453 27.4115C264.453 30.8193 262.8 32.5232 259.494 32.5232ZM266.208 27.4115C266.208 24.1054 267.887 22.4523 271.244 22.4523C272.77 22.4523 273.965 22.9101 274.829 23.8256C275.745 24.6903 276.203 25.8856 276.203 27.4115C276.203 30.8193 274.55 32.5232 271.244 32.5232C269.718 32.5232 268.497 32.0654 267.582 31.1499C266.666 30.2344 266.208 28.9882 266.208 27.4115ZM297.336 58.7684H302.677V68H296.421C292.657 68 289.58 67.0082 287.189 65.0245C284.748 67.0082 281.645 68 277.881 68H250.644C246.321 68 242.938 66.5504 240.497 63.6512C238.31 61.1081 237.216 57.8274 237.216 53.8093V46.0273L246.753 40.9918V53.1989C246.753 55.2334 247.16 56.683 247.974 57.5477C248.839 58.3615 250.237 58.7684 252.17 58.7684H277.042C278.975 58.7684 280.348 58.3361 281.162 57.4714C281.976 56.6067 282.383 55.1826 282.383 53.1989V39.1608L291.996 34.1254V53.2752C291.996 55.2589 292.403 56.683 293.216 57.5477C294.03 58.3615 295.403 58.7684 297.336 58.7684ZM345.552 58.7684H351.961V68H345.476C341.457 68 338.228 67.5677 335.786 66.703C333.396 65.7875 331.158 64.2107 329.072 61.9728C322.714 65.9909 315.39 68 307.1 68H295.808V58.7684H307.176C316.128 58.7684 323.248 56.0981 328.538 50.7575C325.08 44.7048 320.883 41.6785 315.95 41.6785C311.881 41.6785 307.43 43.891 302.598 48.3161V39.8474C306.871 35.168 311.703 32.8284 317.094 32.8284C321.061 32.8284 324.927 34.2779 328.691 37.1771C332.455 40.0763 335.786 44.1962 338.685 49.5368V53.3515C337.872 54.4196 336.803 55.6149 335.481 56.9373C337.515 58.158 340.872 58.7684 345.552 58.7684ZM345.077 68V58.7684H351.944C353.877 58.7684 355.25 58.3615 356.064 57.5477C356.878 56.683 357.284 55.2589 357.284 53.2752V39.1608L366.898 34.1254V53.733C366.898 58.3615 365.473 61.9728 362.625 64.5668C360.133 66.8556 356.878 68 352.859 68H345.077ZM361.252 85.0136C359.726 85.0136 358.505 84.5558 357.59 83.6403C356.674 82.7248 356.216 81.4786 356.216 79.9019C356.216 78.4269 356.674 77.2316 357.59 76.3161C358.505 75.4005 359.726 74.9428 361.252 74.9428C362.778 74.9428 363.973 75.3751 364.838 76.2398C365.753 77.1553 366.211 78.376 366.211 79.9019C366.211 83.3097 364.558 85.0136 361.252 85.0136Z" fill="url(#paint0_linear_98_676)"/>
</g>
<defs>
<filter id="filter0_d_98_676" x="0.523438" y="0" width="388.375" height="122.032" filterUnits="userSpaceOnUse" color-interpolation-filters="sRGB">
<feFlood flood-opacity="0" result="BackgroundImageFix"/>
<feColorMatrix in="SourceAlpha" type="matrix" values="0 0 0 0 0 0 0 0 0 0 0 0 0 0 0 0 0 0 127 0" result="hardAlpha"/>
<feOffset dx="1" dy="9"/>
<feGaussianBlur stdDeviation="10.5"/>
<feComposite in2="hardAlpha" operator="out"/>
<feColorMatrix type="matrix" values="0 0 0 0 0 0 0 0 0 0 0 0 0 0 0 0 0 0 0.25 0"/>
<feBlend mode="normal" in2="BackgroundImageFix" result="effect1_dropShadow_98_676"/>
<feBlend mode="normal" in="SourceGraphic" in2="effect1_dropShadow_98_676" result="shape"/>
</filter>
<linearGradient id="paint0_linear_98_676" x1="35.8043" y1="22" x2="316.429" y2="200.693" gradientUnits="userSpaceOnUse">
<stop stop-color="#FFF5CF"/>
<stop offset="1" stop-color="#18A0FB"/>
</linearGradient>
</defs>
</svg>
