<svg width="915" height="117" viewBox="0 0 915 117" fill="none" xmlns="http://www.w3.org/2000/svg">
<rect width="914.13" height="117" rx="13.7646" fill="white"/>
<rect x="0.86029" y="0.86029" width="912.409" height="115.279" rx="12.9044" stroke="#6F6F6F" stroke-opacity="0.2" stroke-width="1.72058"/>
<path d="M100.933 70H95.5695L95.6047 67.2301H100.933C102.768 67.2301 104.297 66.8478 105.52 66.0833C106.743 65.307 107.661 64.225 108.272 62.8371C108.896 61.4374 109.207 59.8025 109.207 57.9324V56.3622C109.207 54.892 109.031 53.5864 108.678 52.4455C108.325 51.2929 107.808 50.3225 107.125 49.5345C106.443 48.7347 105.608 48.129 104.62 47.7173C103.644 47.3056 102.521 47.0998 101.25 47.0998H95.4636V44.3123H101.25C102.932 44.3123 104.467 44.5945 105.855 45.1591C107.243 45.7119 108.437 46.5176 109.437 47.5762C110.448 48.623 111.224 49.8932 111.765 51.387C112.306 52.869 112.577 54.5391 112.577 56.3975V57.9324C112.577 59.7908 112.306 61.4668 111.765 62.9606C111.224 64.4426 110.442 65.7069 109.419 66.7537C108.407 67.8005 107.184 68.6062 105.749 69.1708C104.326 69.7236 102.721 70 100.933 70ZM97.3866 44.3123V70H93.9816V44.3123H97.3866ZM129.178 66.7361V56.9091C129.178 56.1564 129.025 55.5036 128.719 54.9508C128.425 54.3862 127.978 53.951 127.378 53.6452C126.779 53.3394 126.038 53.1865 125.156 53.1865C124.332 53.1865 123.609 53.3277 122.985 53.61C122.374 53.8922 121.892 54.2627 121.539 54.7214C121.198 55.1802 121.027 55.6741 121.027 56.2034H117.763C117.763 55.5212 117.94 54.8449 118.293 54.1745C118.645 53.5041 119.151 52.8984 119.81 52.3573C120.48 51.8045 121.28 51.3693 122.209 51.0518C123.15 50.7224 124.197 50.5578 125.35 50.5578C126.737 50.5578 127.961 50.793 129.019 51.2635C130.09 51.7339 130.925 52.4455 131.525 53.3982C132.136 54.3392 132.442 55.5212 132.442 56.9444V65.8363C132.442 66.4715 132.495 67.1478 132.601 67.8652C132.718 68.5827 132.889 69.2002 133.112 69.7177V70H129.707C129.543 69.6236 129.413 69.1237 129.319 68.5004C129.225 67.8652 129.178 67.2771 129.178 66.7361ZM129.743 58.4264L129.778 60.72H126.479C125.55 60.72 124.72 60.7964 123.991 60.9493C123.262 61.0904 122.65 61.308 122.156 61.6021C121.662 61.8961 121.286 62.2666 121.027 62.7136C120.768 63.1488 120.639 63.6604 120.639 64.2485C120.639 64.8483 120.774 65.3953 121.045 65.8893C121.315 66.3833 121.721 66.7773 122.262 67.0713C122.815 67.3536 123.491 67.4947 124.291 67.4947C125.291 67.4947 126.173 67.283 126.937 66.8596C127.702 66.4362 128.308 65.9187 128.755 65.307C129.213 64.6954 129.46 64.1015 129.496 63.5251L130.889 65.0953C130.807 65.5893 130.584 66.1363 130.219 66.7361C129.854 67.336 129.366 67.9123 128.755 68.4651C128.155 69.0061 127.437 69.459 126.602 69.8236C125.779 70.1764 124.85 70.3529 123.815 70.3529C122.521 70.3529 121.386 70.1 120.41 69.5942C119.445 69.0885 118.692 68.4122 118.151 67.5653C117.622 66.7067 117.357 65.7481 117.357 64.6896C117.357 63.6663 117.557 62.7665 117.957 61.9902C118.357 61.2022 118.934 60.5494 119.686 60.0319C120.439 59.5026 121.345 59.1027 122.403 58.8322C123.462 58.5617 124.644 58.4264 125.949 58.4264H129.743ZM146.291 50.9106V53.4159H135.97V50.9106H146.291ZM139.463 46.2706H142.727V65.2718C142.727 65.9187 142.827 66.4068 143.027 66.7361C143.227 67.0654 143.486 67.283 143.803 67.3889C144.121 67.4947 144.462 67.5477 144.826 67.5477C145.097 67.5477 145.379 67.5241 145.673 67.4771C145.979 67.4183 146.208 67.3712 146.361 67.336L146.379 70C146.12 70.0823 145.779 70.1588 145.356 70.2294C144.944 70.3117 144.444 70.3529 143.856 70.3529C143.056 70.3529 142.321 70.1941 141.651 69.8765C140.98 69.5589 140.445 69.0297 140.045 68.2887C139.657 67.5359 139.463 66.5244 139.463 65.2541V46.2706ZM162.098 66.7361V56.9091C162.098 56.1564 161.945 55.5036 161.639 54.9508C161.345 54.3862 160.898 53.951 160.298 53.6452C159.698 53.3394 158.957 53.1865 158.075 53.1865C157.252 53.1865 156.529 53.3277 155.905 53.61C155.294 53.8922 154.811 54.2627 154.459 54.7214C154.117 55.1802 153.947 55.6741 153.947 56.2034H150.683C150.683 55.5212 150.859 54.8449 151.212 54.1745C151.565 53.5041 152.071 52.8984 152.73 52.3573C153.4 51.8045 154.2 51.3693 155.129 51.0518C156.07 50.7224 157.117 50.5578 158.269 50.5578C159.657 50.5578 160.881 50.793 161.939 51.2635C163.009 51.7339 163.844 52.4455 164.444 53.3982C165.056 54.3392 165.362 55.5212 165.362 56.9444V65.8363C165.362 66.4715 165.415 67.1478 165.521 67.8652C165.638 68.5827 165.809 69.2002 166.032 69.7177V70H162.627C162.462 69.6236 162.333 69.1237 162.239 68.5004C162.145 67.8652 162.098 67.2771 162.098 66.7361ZM162.662 58.4264L162.698 60.72H159.399C158.469 60.72 157.64 60.7964 156.911 60.9493C156.182 61.0904 155.57 61.308 155.076 61.6021C154.582 61.8961 154.206 62.2666 153.947 62.7136C153.688 63.1488 153.559 63.6604 153.559 64.2485C153.559 64.8483 153.694 65.3953 153.965 65.8893C154.235 66.3833 154.641 66.7773 155.182 67.0713C155.735 67.3536 156.411 67.4947 157.211 67.4947C158.211 67.4947 159.093 67.283 159.857 66.8596C160.622 66.4362 161.227 65.9187 161.674 65.307C162.133 64.6954 162.38 64.1015 162.415 63.5251L163.809 65.0953C163.727 65.5893 163.503 66.1363 163.139 66.7361C162.774 67.336 162.286 67.9123 161.674 68.4651C161.075 69.0061 160.357 69.459 159.522 69.8236C158.699 70.1764 157.77 70.3529 156.734 70.3529C155.441 70.3529 154.306 70.1 153.329 69.5942C152.365 69.0885 151.612 68.4122 151.071 67.5653C150.542 66.7067 150.277 65.7481 150.277 64.6896C150.277 63.6663 150.477 62.7665 150.877 61.9902C151.277 61.2022 151.853 60.5494 152.606 60.0319C153.359 59.5026 154.265 59.1027 155.323 58.8322C156.382 58.5617 157.564 58.4264 158.869 58.4264H162.662ZM171.271 68.271C171.271 67.7182 171.442 67.2536 171.783 66.8772C172.136 66.4891 172.642 66.295 173.3 66.295C173.959 66.295 174.459 66.4891 174.8 66.8772C175.153 67.2536 175.329 67.7182 175.329 68.271C175.329 68.8121 175.153 69.2708 174.8 69.6471C174.459 70.0235 173.959 70.2117 173.3 70.2117C172.642 70.2117 172.136 70.0235 171.783 69.6471C171.442 69.2708 171.271 68.8121 171.271 68.271ZM195.299 44.3123V70H191.894V44.3123H195.299ZM204.984 54.9861V70H201.72V50.9106H204.808L204.984 54.9861ZM204.208 59.732L202.85 59.679C202.861 58.3735 203.055 57.1679 203.432 56.0623C203.808 54.9449 204.337 53.9746 205.02 53.1512C205.702 52.3279 206.513 51.6928 207.454 51.2458C208.407 50.7871 209.46 50.5578 210.612 50.5578C211.553 50.5578 212.4 50.6871 213.153 50.9459C213.906 51.1929 214.547 51.5928 215.076 52.1456C215.617 52.6984 216.029 53.4159 216.311 54.298C216.593 55.1684 216.734 56.2328 216.734 57.4913V70H213.453V57.4561C213.453 56.4563 213.306 55.6565 213.012 55.0567C212.718 54.445 212.288 54.004 211.724 53.7335C211.159 53.4512 210.465 53.31 209.642 53.31C208.83 53.31 208.09 53.4806 207.419 53.8217C206.76 54.1628 206.19 54.6332 205.708 55.2331C205.237 55.8329 204.867 56.521 204.596 57.2973C204.337 58.0618 204.208 58.8734 204.208 59.732ZM233.53 64.9366C233.53 64.4661 233.424 64.0309 233.212 63.631C233.012 63.2193 232.594 62.8488 231.959 62.5195C231.336 62.1784 230.395 61.8844 229.137 61.6374C228.078 61.4139 227.119 61.1493 226.261 60.8435C225.414 60.5376 224.691 60.1671 224.091 59.732C223.503 59.2968 223.05 58.7851 222.732 58.197C222.415 57.609 222.256 56.9209 222.256 56.1329C222.256 55.3801 222.421 54.6685 222.75 53.9981C223.091 53.3277 223.567 52.7337 224.179 52.2162C224.802 51.6987 225.549 51.2929 226.42 50.9988C227.29 50.7048 228.26 50.5578 229.331 50.5578C230.86 50.5578 232.165 50.8283 233.247 51.3693C234.329 51.9104 235.159 52.6337 235.735 53.5394C236.311 54.4333 236.599 55.4271 236.599 56.521H233.335C233.335 55.9917 233.177 55.4801 232.859 54.9861C232.553 54.4803 232.1 54.0628 231.501 53.7335C230.913 53.4041 230.189 53.2395 229.331 53.2395C228.425 53.2395 227.69 53.3806 227.125 53.6629C226.572 53.9334 226.167 54.2804 225.908 54.7038C225.661 55.1272 225.537 55.5742 225.537 56.0446C225.537 56.3975 225.596 56.7151 225.714 56.9973C225.843 57.2679 226.067 57.5207 226.384 57.756C226.702 57.9795 227.149 58.1912 227.725 58.3911C228.301 58.5911 229.037 58.791 229.93 58.991C231.495 59.3438 232.783 59.7672 233.794 60.2612C234.806 60.7552 235.558 61.361 236.052 62.0784C236.546 62.7959 236.793 63.6663 236.793 64.6896C236.793 65.5246 236.617 66.2892 236.264 66.9831C235.923 67.677 235.423 68.2769 234.765 68.7827C234.118 69.2767 233.341 69.6648 232.436 69.9471C231.542 70.2176 230.536 70.3529 229.419 70.3529C227.737 70.3529 226.314 70.0529 225.149 69.4531C223.985 68.8532 223.103 68.0769 222.503 67.1242C221.903 66.1715 221.603 65.1659 221.603 64.1073H224.885C224.932 65.0012 225.19 65.7128 225.661 66.2421C226.131 66.7596 226.708 67.1301 227.39 67.3536C228.072 67.5653 228.748 67.6712 229.419 67.6712C230.313 67.6712 231.06 67.5535 231.659 67.3183C232.271 67.0831 232.736 66.7596 233.053 66.348C233.371 65.9363 233.53 65.4658 233.53 64.9366ZM245.349 50.9106V70H242.068V50.9106H245.349ZM241.821 45.8472C241.821 45.3179 241.98 44.8709 242.297 44.5063C242.627 44.1417 243.109 43.9594 243.744 43.9594C244.367 43.9594 244.844 44.1417 245.173 44.5063C245.514 44.8709 245.685 45.3179 245.685 45.8472C245.685 46.3529 245.514 46.7881 245.173 47.1527C244.844 47.5056 244.367 47.682 243.744 47.682C243.109 47.682 242.627 47.5056 242.297 47.1527C241.98 46.7881 241.821 46.3529 241.821 45.8472ZM263.679 50.9106H266.643V69.5942C266.643 71.2762 266.302 72.7111 265.62 73.899C264.938 75.087 263.985 75.9867 262.762 76.5984C261.551 77.2217 260.151 77.5334 258.563 77.5334C257.904 77.5334 257.128 77.4276 256.234 77.2159C255.352 77.0159 254.482 76.6689 253.623 76.1749C252.776 75.6927 252.065 75.0399 251.488 74.2166L253.2 72.2759C254 73.2404 254.835 73.9108 255.705 74.2872C256.587 74.6635 257.457 74.8517 258.316 74.8517C259.351 74.8517 260.245 74.6577 260.998 74.2695C261.751 73.8814 262.333 73.3051 262.744 72.5405C263.168 71.7878 263.38 70.8586 263.38 69.753V55.1096L263.679 50.9106ZM250.536 60.667V60.2965C250.536 58.8381 250.706 57.5149 251.047 56.3269C251.4 55.1272 251.9 54.0981 252.547 53.2395C253.206 52.3808 254 51.7222 254.929 51.2635C255.858 50.793 256.905 50.5578 258.069 50.5578C259.269 50.5578 260.316 50.7695 261.209 51.1929C262.115 51.6046 262.88 52.2103 263.503 53.0101C264.138 53.7981 264.638 54.7508 265.003 55.8682C265.367 56.9856 265.62 58.25 265.761 59.6614V61.2845C265.632 62.6842 265.379 63.9427 265.003 65.0601C264.638 66.1774 264.138 67.1301 263.503 67.9182C262.88 68.7062 262.115 69.3119 261.209 69.7354C260.304 70.147 259.245 70.3529 258.034 70.3529C256.893 70.3529 255.858 70.1117 254.929 69.6295C254.011 69.1473 253.223 68.471 252.565 67.6006C251.906 66.7302 251.4 65.7069 251.047 64.5308C250.706 63.3428 250.536 62.0549 250.536 60.667ZM253.8 60.2965V60.667C253.8 61.6197 253.894 62.5136 254.082 63.3487C254.282 64.1838 254.582 64.9189 254.982 65.554C255.393 66.1892 255.917 66.6891 256.552 67.0537C257.187 67.4065 257.946 67.583 258.828 67.583C259.91 67.583 260.804 67.3536 261.509 66.8949C262.215 66.4362 262.774 65.8304 263.185 65.0777C263.609 64.3249 263.938 63.5075 264.173 62.6254V58.3735C264.044 57.7266 263.844 57.1032 263.574 56.5034C263.315 55.8917 262.974 55.3507 262.55 54.8802C262.139 54.398 261.627 54.0157 261.015 53.7335C260.404 53.4512 259.686 53.31 258.863 53.31C257.969 53.31 257.199 53.4982 256.552 53.8746C255.917 54.2392 255.393 54.745 254.982 55.3919C254.582 56.027 254.282 56.768 254.082 57.6148C253.894 58.4499 253.8 59.3438 253.8 60.2965ZM275.588 42.9008V70H272.324V42.9008H275.588ZM274.811 59.732L273.453 59.679C273.465 58.3735 273.659 57.1679 274.035 56.0623C274.411 54.9449 274.941 53.9746 275.623 53.1512C276.305 52.3279 277.117 51.6928 278.058 51.2458C279.01 50.7871 280.063 50.5578 281.216 50.5578C282.157 50.5578 283.003 50.6871 283.756 50.9459C284.509 51.1929 285.15 51.5928 285.679 52.1456C286.22 52.6984 286.632 53.4159 286.914 54.298C287.196 55.1684 287.338 56.2328 287.338 57.4913V70H284.056V57.4561C284.056 56.4563 283.909 55.6565 283.615 55.0567C283.321 54.445 282.892 54.004 282.327 53.7335C281.763 53.4512 281.069 53.31 280.245 53.31C279.434 53.31 278.693 53.4806 278.022 53.8217C277.364 54.1628 276.793 54.6332 276.311 55.2331C275.84 55.8329 275.47 56.521 275.199 57.2973C274.941 58.0618 274.811 58.8734 274.811 59.732ZM300.939 50.9106V53.4159H290.618V50.9106H300.939ZM294.112 46.2706H297.376V65.2718C297.376 65.9187 297.476 66.4068 297.675 66.7361C297.875 67.0654 298.134 67.283 298.452 67.3889C298.769 67.4947 299.11 67.5477 299.475 67.5477C299.746 67.5477 300.028 67.5241 300.322 67.4771C300.628 67.4183 300.857 67.3712 301.01 67.336L301.028 70C300.769 70.0823 300.428 70.1588 300.004 70.2294C299.593 70.3117 299.093 70.3529 298.505 70.3529C297.705 70.3529 296.97 70.1941 296.299 69.8765C295.629 69.5589 295.094 69.0297 294.694 68.2887C294.306 67.5359 294.112 66.5244 294.112 65.2541V46.2706ZM316.605 64.9366C316.605 64.4661 316.5 64.0309 316.288 63.631C316.088 63.2193 315.67 62.8488 315.035 62.5195C314.412 62.1784 313.471 61.8844 312.212 61.6374C311.154 61.4139 310.195 61.1493 309.337 60.8435C308.49 60.5376 307.766 60.1671 307.167 59.732C306.578 59.2968 306.126 58.7851 305.808 58.197C305.49 57.609 305.332 56.9209 305.332 56.1329C305.332 55.3801 305.496 54.6685 305.826 53.9981C306.167 53.3277 306.643 52.7337 307.255 52.2162C307.878 51.6987 308.625 51.2929 309.495 50.9988C310.366 50.7048 311.336 50.5578 312.406 50.5578C313.935 50.5578 315.241 50.8283 316.323 51.3693C317.405 51.9104 318.234 52.6337 318.811 53.5394C319.387 54.4333 319.675 55.4271 319.675 56.521H316.411C316.411 55.9917 316.253 55.4801 315.935 54.9861C315.629 54.4803 315.176 54.0628 314.576 53.7335C313.988 53.4041 313.265 53.2395 312.406 53.2395C311.501 53.2395 310.766 53.3806 310.201 53.6629C309.648 53.9334 309.242 54.2804 308.984 54.7038C308.737 55.1272 308.613 55.5742 308.613 56.0446C308.613 56.3975 308.672 56.7151 308.79 56.9973C308.919 57.2679 309.143 57.5207 309.46 57.756C309.778 57.9795 310.225 58.1912 310.801 58.3911C311.377 58.5911 312.112 58.791 313.006 58.991C314.571 59.3438 315.858 59.7672 316.87 60.2612C317.882 60.7552 318.634 61.361 319.128 62.0784C319.622 62.7959 319.869 63.6663 319.869 64.6896C319.869 65.5246 319.693 66.2892 319.34 66.9831C318.999 67.677 318.499 68.2769 317.84 68.7827C317.193 69.2767 316.417 69.6648 315.512 69.9471C314.618 70.2176 313.612 70.3529 312.495 70.3529C310.813 70.3529 309.39 70.0529 308.225 69.4531C307.061 68.8532 306.179 68.0769 305.579 67.1242C304.979 66.1715 304.679 65.1659 304.679 64.1073H307.96C308.008 65.0012 308.266 65.7128 308.737 66.2421C309.207 66.7596 309.784 67.1301 310.466 67.3536C311.148 67.5653 311.824 67.6712 312.495 67.6712C313.389 67.6712 314.135 67.5535 314.735 67.3183C315.347 67.0831 315.811 66.7596 316.129 66.348C316.447 65.9363 316.605 65.4658 316.605 64.9366ZM324.932 68.271C324.932 67.7182 325.103 67.2536 325.444 66.8772C325.797 66.4891 326.302 66.295 326.961 66.295C327.62 66.295 328.119 66.4891 328.461 66.8772C328.813 67.2536 328.99 67.7182 328.99 68.271C328.99 68.8121 328.813 69.2708 328.461 69.6471C328.119 70.0235 327.62 70.2117 326.961 70.2117C326.302 70.2117 325.797 70.0235 325.444 69.6471C325.103 69.2708 324.932 68.8121 324.932 68.271ZM345.308 44.3123H353.812C355.741 44.3123 357.37 44.6063 358.699 45.1944C360.04 45.7825 361.057 46.6529 361.751 47.8055C362.457 48.9464 362.809 50.3519 362.809 52.0221C362.809 53.1983 362.568 54.2745 362.086 55.2507C361.616 56.2152 360.933 57.0385 360.04 57.7207C359.157 58.3911 358.099 58.891 356.864 59.2203L355.911 59.5908H347.919L347.884 56.8209H353.918C355.141 56.8209 356.158 56.6092 356.97 56.1858C357.781 55.7506 358.393 55.1684 358.805 54.4392C359.216 53.7099 359.422 52.9042 359.422 52.0221C359.422 51.0341 359.228 50.1696 358.84 49.4286C358.452 48.6876 357.84 48.1172 357.005 47.7173C356.182 47.3056 355.117 47.0998 353.812 47.0998H348.713V70H345.308V44.3123ZM360.322 70L354.076 58.3558L357.622 58.3382L363.956 69.7883V70H360.322ZM375.723 70.3529C374.394 70.3529 373.189 70.1294 372.106 69.6824C371.036 69.2237 370.113 68.5827 369.337 67.7594C368.572 66.9361 367.984 65.9598 367.572 64.8307C367.161 63.7016 366.955 62.4666 366.955 61.1257V60.3847C366.955 58.8322 367.184 57.4502 367.643 56.2387C368.102 55.0155 368.725 53.9804 369.513 53.1336C370.301 52.2868 371.195 51.6457 372.195 51.2105C373.194 50.7754 374.229 50.5578 375.3 50.5578C376.664 50.5578 377.84 50.793 378.828 51.2635C379.828 51.7339 380.645 52.3926 381.281 53.2395C381.916 54.0745 382.386 55.0625 382.692 56.2034C382.998 57.3326 383.151 58.5675 383.151 59.9084V61.3727H368.895V58.7087H379.887V58.4617C379.84 57.6148 379.663 56.7915 379.358 55.9917C379.064 55.1919 378.593 54.5333 377.946 54.0157C377.299 53.4982 376.417 53.2395 375.3 53.2395C374.559 53.2395 373.877 53.3982 373.253 53.7158C372.63 54.0216 372.095 54.4803 371.648 55.0919C371.201 55.7036 370.854 56.4504 370.607 57.3326C370.36 58.2147 370.236 59.2321 370.236 60.3847V61.1257C370.236 62.0314 370.36 62.8841 370.607 63.6839C370.866 64.472 371.236 65.1659 371.718 65.7658C372.212 66.3656 372.806 66.8361 373.5 67.1772C374.206 67.5183 375.006 67.6888 375.9 67.6888C377.052 67.6888 378.028 67.4536 378.828 66.9831C379.628 66.5126 380.328 65.8834 380.928 65.0953L382.904 66.6655C382.492 67.2889 381.969 67.8829 381.334 68.4474C380.698 69.012 379.916 69.4707 378.987 69.8236C378.07 70.1764 376.982 70.3529 375.723 70.3529ZM390.948 54.5803V77.3394H387.667V50.9106H390.666L390.948 54.5803ZM403.81 60.2965V60.667C403.81 62.0549 403.645 63.3428 403.316 64.5308C402.986 65.7069 402.504 66.7302 401.869 67.6006C401.246 68.471 400.475 69.1473 399.558 69.6295C398.64 70.1117 397.588 70.3529 396.4 70.3529C395.188 70.3529 394.118 70.1529 393.189 69.753C392.26 69.3531 391.471 68.7709 390.825 68.0064C390.178 67.2419 389.66 66.3244 389.272 65.2541C388.896 64.1838 388.637 62.9782 388.496 61.6374V59.6614C388.637 58.25 388.902 56.9856 389.29 55.8682C389.678 54.7508 390.189 53.7981 390.825 53.0101C391.471 52.2103 392.254 51.6046 393.171 51.1929C394.088 50.7695 395.147 50.5578 396.347 50.5578C397.546 50.5578 398.611 50.793 399.54 51.2635C400.469 51.7222 401.251 52.3808 401.887 53.2395C402.522 54.0981 402.998 55.1272 403.316 56.3269C403.645 57.5149 403.81 58.8381 403.81 60.2965ZM400.528 60.667V60.2965C400.528 59.3438 400.428 58.4499 400.228 57.6148C400.028 56.768 399.716 56.027 399.293 55.3919C398.881 54.745 398.352 54.2392 397.705 53.8746C397.058 53.4982 396.288 53.31 395.394 53.31C394.571 53.31 393.853 53.4512 393.242 53.7335C392.642 54.0157 392.13 54.398 391.707 54.8802C391.283 55.3507 390.936 55.8917 390.666 56.5034C390.407 57.1032 390.213 57.7266 390.084 58.3735V62.9429C390.319 63.7663 390.648 64.5425 391.072 65.2718C391.495 65.9892 392.06 66.5714 392.765 67.0184C393.471 67.4536 394.359 67.6712 395.429 67.6712C396.311 67.6712 397.07 67.4889 397.705 67.1242C398.352 66.7479 398.881 66.2362 399.293 65.5893C399.716 64.9424 400.028 64.2014 400.228 63.3664C400.428 62.5195 400.528 61.6197 400.528 60.667ZM407.831 60.667V60.2612C407.831 58.8851 408.031 57.609 408.431 56.4328C408.831 55.2448 409.408 54.2157 410.16 53.3453C410.913 52.4632 411.825 51.781 412.895 51.2988C413.965 50.8048 415.165 50.5578 416.494 50.5578C417.835 50.5578 419.04 50.8048 420.111 51.2988C421.193 51.781 422.11 52.4632 422.863 53.3453C423.628 54.2157 424.21 55.2448 424.61 56.4328C425.01 57.609 425.209 58.8851 425.209 60.2612V60.667C425.209 62.0432 425.01 63.3193 424.61 64.4955C424.21 65.6717 423.628 66.7008 422.863 67.583C422.11 68.4533 421.199 69.1355 420.128 69.6295C419.07 70.1117 417.87 70.3529 416.529 70.3529C415.188 70.3529 413.983 70.1117 412.913 69.6295C411.842 69.1355 410.925 68.4533 410.16 67.583C409.408 66.7008 408.831 65.6717 408.431 64.4955C408.031 63.3193 407.831 62.0432 407.831 60.667ZM411.095 60.2612V60.667C411.095 61.6197 411.207 62.5195 411.431 63.3664C411.654 64.2014 411.989 64.9424 412.436 65.5893C412.895 66.2362 413.465 66.7479 414.148 67.1242C414.83 67.4889 415.624 67.6712 416.529 67.6712C417.423 67.6712 418.205 67.4889 418.876 67.1242C419.558 66.7479 420.123 66.2362 420.569 65.5893C421.016 64.9424 421.352 64.2014 421.575 63.3664C421.81 62.5195 421.928 61.6197 421.928 60.667V60.2612C421.928 59.3203 421.81 58.4323 421.575 57.5972C421.352 56.7503 421.011 56.0035 420.552 55.3566C420.105 54.6979 419.54 54.1804 418.858 53.804C418.188 53.4276 417.4 53.2395 416.494 53.2395C415.6 53.2395 414.812 53.4276 414.13 53.804C413.459 54.1804 412.895 54.6979 412.436 55.3566C411.989 56.0035 411.654 56.7503 411.431 57.5972C411.207 58.4323 411.095 59.3203 411.095 60.2612ZM433.289 53.9099V70H430.025V50.9106H433.201L433.289 53.9099ZM439.252 50.8048L439.235 53.8393C438.964 53.7805 438.705 53.7452 438.458 53.7335C438.223 53.7099 437.953 53.6982 437.647 53.6982C436.894 53.6982 436.23 53.8158 435.653 54.051C435.077 54.2863 434.589 54.6156 434.189 55.039C433.789 55.4624 433.471 55.9682 433.236 56.5563C433.013 57.1326 432.866 57.7677 432.795 58.4617L431.878 58.991C431.878 57.8383 431.989 56.7562 432.213 55.7447C432.448 54.7332 432.807 53.8393 433.289 53.063C433.771 52.275 434.383 51.6634 435.124 51.2282C435.877 50.7812 436.771 50.5578 437.806 50.5578C438.041 50.5578 438.311 50.5872 438.617 50.646C438.923 50.693 439.135 50.746 439.252 50.8048ZM451.866 50.9106V53.4159H441.545V50.9106H451.866ZM445.038 46.2706H448.302V65.2718C448.302 65.9187 448.402 66.4068 448.602 66.7361C448.802 67.0654 449.061 67.283 449.379 67.3889C449.696 67.4947 450.037 67.5477 450.402 67.5477C450.672 67.5477 450.955 67.5241 451.249 67.4771C451.554 67.4183 451.784 67.3712 451.937 67.336L451.954 70C451.696 70.0823 451.354 70.1588 450.931 70.2294C450.519 70.3117 450.02 70.3529 449.431 70.3529C448.632 70.3529 447.897 70.1941 447.226 69.8765C446.556 69.5589 446.021 69.0297 445.621 68.2887C445.232 67.5359 445.038 66.5244 445.038 65.2541V46.2706ZM467.532 64.9366C467.532 64.4661 467.426 64.0309 467.215 63.631C467.015 63.2193 466.597 62.8488 465.962 62.5195C465.339 62.1784 464.398 61.8844 463.139 61.6374C462.081 61.4139 461.122 61.1493 460.263 60.8435C459.416 60.5376 458.693 60.1671 458.093 59.732C457.505 59.2968 457.052 58.7851 456.735 58.197C456.417 57.609 456.258 56.9209 456.258 56.1329C456.258 55.3801 456.423 54.6685 456.752 53.9981C457.094 53.3277 457.57 52.7337 458.182 52.2162C458.805 51.6987 459.552 51.2929 460.422 50.9988C461.293 50.7048 462.263 50.5578 463.333 50.5578C464.862 50.5578 466.168 50.8283 467.25 51.3693C468.332 51.9104 469.161 52.6337 469.737 53.5394C470.314 54.4333 470.602 55.4271 470.602 56.521H467.338C467.338 55.9917 467.179 55.4801 466.862 54.9861C466.556 54.4803 466.103 54.0628 465.503 53.7335C464.915 53.4041 464.192 53.2395 463.333 53.2395C462.428 53.2395 461.692 53.3806 461.128 53.6629C460.575 53.9334 460.169 54.2804 459.91 54.7038C459.663 55.1272 459.54 55.5742 459.54 56.0446C459.54 56.3975 459.599 56.7151 459.716 56.9973C459.846 57.2679 460.069 57.5207 460.387 57.756C460.704 57.9795 461.151 58.1912 461.728 58.3911C462.304 58.5911 463.039 58.791 463.933 58.991C465.497 59.3438 466.785 59.7672 467.797 60.2612C468.808 60.7552 469.561 61.361 470.055 62.0784C470.549 62.7959 470.796 63.6663 470.796 64.6896C470.796 65.5246 470.62 66.2892 470.267 66.9831C469.926 67.677 469.426 68.2769 468.767 68.7827C468.12 69.2767 467.344 69.6648 466.438 69.9471C465.544 70.2176 464.539 70.3529 463.421 70.3529C461.739 70.3529 460.316 70.0529 459.152 69.4531C457.987 68.8532 457.105 68.0769 456.505 67.1242C455.906 66.1715 455.606 65.1659 455.606 64.1073H458.887C458.934 65.0012 459.193 65.7128 459.663 66.2421C460.134 66.7596 460.71 67.1301 461.392 67.3536C462.075 67.5653 462.751 67.6712 463.421 67.6712C464.315 67.6712 465.062 67.5535 465.662 67.3183C466.274 67.0831 466.738 66.7596 467.056 66.348C467.373 65.9363 467.532 65.4658 467.532 64.9366ZM475.859 68.271C475.859 67.7182 476.029 67.2536 476.37 66.8772C476.723 66.4891 477.229 66.295 477.888 66.295C478.546 66.295 479.046 66.4891 479.387 66.8772C479.74 67.2536 479.917 67.7182 479.917 68.271C479.917 68.8121 479.74 69.2708 479.387 69.6471C479.046 70.0235 478.546 70.2117 477.888 70.2117C477.229 70.2117 476.723 70.0235 476.37 69.6471C476.029 69.2708 475.859 68.8121 475.859 68.271ZM497.311 44.3123H500.61L509.026 65.2541L517.423 44.3123H520.74L510.296 70H507.72L497.311 44.3123ZM496.235 44.3123H499.146L499.622 59.979V70H496.235V44.3123ZM518.888 44.3123H521.799V70H518.411V59.979L518.888 44.3123ZM539.264 66.7361V56.9091C539.264 56.1564 539.112 55.5036 538.806 54.9508C538.512 54.3862 538.065 53.951 537.465 53.6452C536.865 53.3394 536.124 53.1865 535.242 53.1865C534.419 53.1865 533.695 53.3277 533.072 53.61C532.46 53.8922 531.978 54.2627 531.625 54.7214C531.284 55.1802 531.114 55.6741 531.114 56.2034H527.85C527.85 55.5212 528.026 54.8449 528.379 54.1745C528.732 53.5041 529.238 52.8984 529.896 52.3573C530.567 51.8045 531.366 51.3693 532.296 51.0518C533.237 50.7224 534.283 50.5578 535.436 50.5578C536.824 50.5578 538.047 50.793 539.106 51.2635C540.176 51.7339 541.011 52.4455 541.611 53.3982C542.223 54.3392 542.528 55.5212 542.528 56.9444V65.8363C542.528 66.4715 542.581 67.1478 542.687 67.8652C542.805 68.5827 542.975 69.2002 543.199 69.7177V70H539.794C539.629 69.6236 539.5 69.1237 539.406 68.5004C539.311 67.8652 539.264 67.2771 539.264 66.7361ZM539.829 58.4264L539.864 60.72H536.565C535.636 60.72 534.807 60.7964 534.077 60.9493C533.348 61.0904 532.737 61.308 532.243 61.6021C531.749 61.8961 531.372 62.2666 531.114 62.7136C530.855 63.1488 530.725 63.6604 530.725 64.2485C530.725 64.8483 530.861 65.3953 531.131 65.8893C531.402 66.3833 531.807 66.7773 532.348 67.0713C532.901 67.3536 533.578 67.4947 534.377 67.4947C535.377 67.4947 536.259 67.283 537.024 66.8596C537.788 66.4362 538.394 65.9187 538.841 65.307C539.3 64.6954 539.547 64.1015 539.582 63.5251L540.976 65.0953C540.893 65.5893 540.67 66.1363 540.305 66.7361C539.941 67.336 539.453 67.9123 538.841 68.4651C538.241 69.0061 537.524 69.459 536.689 69.8236C535.865 70.1764 534.936 70.3529 533.901 70.3529C532.607 70.3529 531.472 70.1 530.496 69.5942C529.532 69.0885 528.779 68.4122 528.238 67.5653C527.708 66.7067 527.444 65.7481 527.444 64.6896C527.444 63.6663 527.644 62.7665 528.044 61.9902C528.444 61.2022 529.02 60.5494 529.773 60.0319C530.525 59.5026 531.431 59.1027 532.49 58.8322C533.548 58.5617 534.73 58.4264 536.036 58.4264H539.829ZM551.649 54.9861V70H548.385V50.9106H551.472L551.649 54.9861ZM550.873 59.732L549.514 59.679C549.526 58.3735 549.72 57.1679 550.096 56.0623C550.473 54.9449 551.002 53.9746 551.684 53.1512C552.366 52.3279 553.178 51.6928 554.119 51.2458C555.072 50.7871 556.124 50.5578 557.277 50.5578C558.218 50.5578 559.065 50.6871 559.817 50.9459C560.57 51.1929 561.211 51.5928 561.74 52.1456C562.282 52.6984 562.693 53.4159 562.975 54.298C563.258 55.1684 563.399 56.2328 563.399 57.4913V70H560.117V57.4561C560.117 56.4563 559.97 55.6565 559.676 55.0567C559.382 54.445 558.953 54.004 558.388 53.7335C557.824 53.4512 557.13 53.31 556.307 53.31C555.495 53.31 554.754 53.4806 554.084 53.8217C553.425 54.1628 552.854 54.6332 552.372 55.2331C551.902 55.8329 551.531 56.521 551.261 57.2973C551.002 58.0618 550.873 58.8734 550.873 59.732ZM580.759 65.5893V50.9106H584.04V70H580.917L580.759 65.5893ZM581.376 61.5668L582.735 61.5315C582.735 62.8018 582.599 63.978 582.329 65.0601C582.07 66.1304 581.647 67.0596 581.059 67.8476C580.47 68.6356 579.7 69.2531 578.747 69.7001C577.795 70.1353 576.636 70.3529 575.272 70.3529C574.343 70.3529 573.49 70.2176 572.714 69.9471C571.949 69.6766 571.29 69.259 570.738 68.6944C570.185 68.1299 569.755 67.3948 569.45 66.4891C569.156 65.5834 569.009 64.4955 569.009 63.2252V50.9106H572.272V63.2605C572.272 64.1191 572.367 64.8307 572.555 65.3953C572.755 65.9481 573.019 66.3891 573.349 66.7185C573.69 67.036 574.066 67.2595 574.478 67.3889C574.901 67.5183 575.336 67.583 575.783 67.583C577.171 67.583 578.271 67.3183 579.083 66.789C579.894 66.248 580.476 65.5246 580.829 64.619C581.194 63.7016 581.376 62.6842 581.376 61.5668ZM600.994 66.7361V56.9091C600.994 56.1564 600.841 55.5036 600.535 54.9508C600.241 54.3862 599.794 53.951 599.194 53.6452C598.595 53.3394 597.854 53.1865 596.972 53.1865C596.148 53.1865 595.425 53.3277 594.801 53.61C594.19 53.8922 593.708 54.2627 593.355 54.7214C593.014 55.1802 592.843 55.6741 592.843 56.2034H589.579C589.579 55.5212 589.756 54.8449 590.109 54.1745C590.461 53.5041 590.967 52.8984 591.626 52.3573C592.296 51.8045 593.096 51.3693 594.025 51.0518C594.966 50.7224 596.013 50.5578 597.166 50.5578C598.553 50.5578 599.777 50.793 600.835 51.2635C601.906 51.7339 602.741 52.4455 603.341 53.3982C603.952 54.3392 604.258 55.5212 604.258 56.9444V65.8363C604.258 66.4715 604.311 67.1478 604.417 67.8652C604.534 68.5827 604.705 69.2002 604.928 69.7177V70H601.523C601.359 69.6236 601.229 69.1237 601.135 68.5004C601.041 67.8652 600.994 67.2771 600.994 66.7361ZM601.559 58.4264L601.594 60.72H598.295C597.366 60.72 596.536 60.7964 595.807 60.9493C595.078 61.0904 594.466 61.308 593.972 61.6021C593.478 61.8961 593.102 62.2666 592.843 62.7136C592.584 63.1488 592.455 63.6604 592.455 64.2485C592.455 64.8483 592.59 65.3953 592.861 65.8893C593.131 66.3833 593.537 66.7773 594.078 67.0713C594.631 67.3536 595.307 67.4947 596.107 67.4947C597.107 67.4947 597.989 67.283 598.753 66.8596C599.518 66.4362 600.124 65.9187 600.571 65.307C601.029 64.6954 601.276 64.1015 601.312 63.5251L602.705 65.0953C602.623 65.5893 602.4 66.1363 602.035 66.7361C601.67 67.336 601.182 67.9123 600.571 68.4651C599.971 69.0061 599.253 69.459 598.418 69.8236C597.595 70.1764 596.666 70.3529 595.631 70.3529C594.337 70.3529 593.202 70.1 592.226 69.5942C591.261 69.0885 590.508 68.4122 589.967 67.5653C589.438 66.7067 589.173 65.7481 589.173 64.6896C589.173 63.6663 589.373 62.7665 589.773 61.9902C590.173 61.2022 590.75 60.5494 591.502 60.0319C592.255 59.5026 593.161 59.1027 594.219 58.8322C595.278 58.5617 596.46 58.4264 597.765 58.4264H601.559ZM613.661 42.9008V70H610.379V42.9008H613.661ZM630.738 64.9366C630.738 64.4661 630.632 64.0309 630.421 63.631C630.221 63.2193 629.803 62.8488 629.168 62.5195C628.545 62.1784 627.604 61.8844 626.345 61.6374C625.287 61.4139 624.328 61.1493 623.469 60.8435C622.623 60.5376 621.899 60.1671 621.299 59.732C620.711 59.2968 620.258 58.7851 619.941 58.197C619.623 57.609 619.465 56.9209 619.465 56.1329C619.465 55.3801 619.629 54.6685 619.959 53.9981C620.3 53.3277 620.776 52.7337 621.388 52.2162C622.011 51.6987 622.758 51.2929 623.628 50.9988C624.499 50.7048 625.469 50.5578 626.539 50.5578C628.068 50.5578 629.374 50.8283 630.456 51.3693C631.538 51.9104 632.367 52.6337 632.944 53.5394C633.52 54.4333 633.808 55.4271 633.808 56.521H630.544C630.544 55.9917 630.385 55.4801 630.068 54.9861C629.762 54.4803 629.309 54.0628 628.709 53.7335C628.121 53.4041 627.398 53.2395 626.539 53.2395C625.634 53.2395 624.898 53.3806 624.334 53.6629C623.781 53.9334 623.375 54.2804 623.117 54.7038C622.87 55.1272 622.746 55.5742 622.746 56.0446C622.746 56.3975 622.805 56.7151 622.922 56.9973C623.052 57.2679 623.275 57.5207 623.593 57.756C623.91 57.9795 624.357 58.1912 624.934 58.3911C625.51 58.5911 626.245 58.791 627.139 58.991C628.703 59.3438 629.991 59.7672 631.003 60.2612C632.014 60.7552 632.767 61.361 633.261 62.0784C633.755 62.7959 634.002 63.6663 634.002 64.6896C634.002 65.5246 633.826 66.2892 633.473 66.9831C633.132 67.677 632.632 68.2769 631.973 68.7827C631.326 69.2767 630.55 69.6648 629.644 69.9471C628.75 70.2176 627.745 70.3529 626.627 70.3529C624.946 70.3529 623.522 70.0529 622.358 69.4531C621.193 68.8532 620.311 68.0769 619.712 67.1242C619.112 66.1715 618.812 65.1659 618.812 64.1073H622.093C622.14 65.0012 622.399 65.7128 622.87 66.2421C623.34 66.7596 623.916 67.1301 624.599 67.3536C625.281 67.5653 625.957 67.6712 626.627 67.6712C627.521 67.6712 628.268 67.5535 628.868 67.3183C629.48 67.0831 629.944 66.7596 630.262 66.348C630.579 65.9363 630.738 65.4658 630.738 64.9366ZM639.065 68.271C639.065 67.7182 639.235 67.2536 639.576 66.8772C639.929 66.4891 640.435 66.295 641.094 66.295C641.752 66.295 642.252 66.4891 642.593 66.8772C642.946 67.2536 643.123 67.7182 643.123 68.271C643.123 68.8121 642.946 69.2708 642.593 69.6471C642.252 70.0235 641.752 70.2117 641.094 70.2117C640.435 70.2117 639.929 70.0235 639.576 69.6471C639.235 69.2708 639.065 68.8121 639.065 68.271ZM674.949 61.8314H678.336C678.16 63.4546 677.695 64.9071 676.942 66.1892C676.19 67.4712 675.125 68.4886 673.749 69.2414C672.373 69.9824 670.656 70.3529 668.597 70.3529C667.092 70.3529 665.722 70.0706 664.487 69.506C663.263 68.9414 662.211 68.1416 661.328 67.1066C660.446 66.0598 659.764 64.8072 659.282 63.3487C658.811 61.8785 658.576 60.2436 658.576 58.444V55.8859C658.576 54.0863 658.811 52.4573 659.282 50.9988C659.764 49.5286 660.452 48.2701 661.346 47.2233C662.252 46.1765 663.34 45.3708 664.61 44.8063C665.88 44.2417 667.309 43.9594 668.897 43.9594C670.838 43.9594 672.479 44.324 673.82 45.0533C675.16 45.7825 676.201 46.794 676.942 48.0878C677.695 49.3698 678.16 50.8577 678.336 52.5514H674.949C674.784 51.3517 674.478 50.3225 674.031 49.4639C673.584 48.5936 672.949 47.9231 672.126 47.4527C671.302 46.9822 670.226 46.747 668.897 46.747C667.756 46.747 666.751 46.9645 665.88 47.3997C665.022 47.8349 664.298 48.4524 663.71 49.2522C663.134 50.052 662.699 51.0106 662.405 52.128C662.111 53.2453 661.964 54.4862 661.964 55.8506V58.444C661.964 59.7026 662.093 60.8846 662.352 61.9902C662.622 63.0958 663.028 64.0662 663.569 64.9013C664.11 65.7364 664.798 66.395 665.633 66.8772C666.468 67.3477 667.456 67.583 668.597 67.583C670.044 67.583 671.197 67.3536 672.055 66.8949C672.914 66.4362 673.561 65.7775 673.996 64.9189C674.443 64.0603 674.76 63.0311 674.949 61.8314ZM682.34 60.667V60.2612C682.34 58.8851 682.54 57.609 682.94 56.4328C683.34 55.2448 683.916 54.2157 684.669 53.3453C685.422 52.4632 686.333 51.781 687.404 51.2988C688.474 50.8048 689.674 50.5578 691.003 50.5578C692.344 50.5578 693.549 50.8048 694.619 51.2988C695.702 51.781 696.619 52.4632 697.372 53.3453C698.136 54.2157 698.718 55.2448 699.118 56.4328C699.518 57.609 699.718 58.8851 699.718 60.2612V60.667C699.718 62.0432 699.518 63.3193 699.118 64.4955C698.718 65.6717 698.136 66.7008 697.372 67.583C696.619 68.4533 695.707 69.1355 694.637 69.6295C693.579 70.1117 692.379 70.3529 691.038 70.3529C689.697 70.3529 688.492 70.1117 687.421 69.6295C686.351 69.1355 685.434 68.4533 684.669 67.583C683.916 66.7008 683.34 65.6717 682.94 64.4955C682.54 63.3193 682.34 62.0432 682.34 60.667ZM685.604 60.2612V60.667C685.604 61.6197 685.716 62.5195 685.939 63.3664C686.163 64.2014 686.498 64.9424 686.945 65.5893C687.404 66.2362 687.974 66.7479 688.656 67.1242C689.338 67.4889 690.132 67.6712 691.038 67.6712C691.932 67.6712 692.714 67.4889 693.384 67.1242C694.067 66.7479 694.631 66.2362 695.078 65.5893C695.525 64.9424 695.86 64.2014 696.084 63.3664C696.319 62.5195 696.437 61.6197 696.437 60.667V60.2612C696.437 59.3203 696.319 58.4323 696.084 57.5972C695.86 56.7503 695.519 56.0035 695.061 55.3566C694.614 54.6979 694.049 54.1804 693.367 53.804C692.696 53.4276 691.908 53.2395 691.003 53.2395C690.109 53.2395 689.321 53.4276 688.639 53.804C687.968 54.1804 687.404 54.6979 686.945 55.3566C686.498 56.0035 686.163 56.7503 685.939 57.5972C685.716 58.4323 685.604 59.3203 685.604 60.2612ZM716.213 65.5893V50.9106H719.495V70H716.372L716.213 65.5893ZM716.831 61.5668L718.189 61.5315C718.189 62.8018 718.054 63.978 717.784 65.0601C717.525 66.1304 717.101 67.0596 716.513 67.8476C715.925 68.6356 715.155 69.2531 714.202 69.7001C713.249 70.1353 712.091 70.3529 710.727 70.3529C709.797 70.3529 708.945 70.2176 708.168 69.9471C707.404 69.6766 706.745 69.259 706.192 68.6944C705.64 68.1299 705.21 67.3948 704.904 66.4891C704.61 65.5834 704.463 64.4955 704.463 63.2252V50.9106H707.727V63.2605C707.727 64.1191 707.821 64.8307 708.01 65.3953C708.21 65.9481 708.474 66.3891 708.803 66.7185C709.145 67.036 709.521 67.2595 709.933 67.3889C710.356 67.5183 710.791 67.583 711.238 67.583C712.626 67.583 713.726 67.3183 714.537 66.789C715.349 66.248 715.931 65.5246 716.284 64.619C716.649 63.7016 716.831 62.6842 716.831 61.5668ZM728.457 53.9099V70H725.193V50.9106H728.368L728.457 53.9099ZM734.42 50.8048L734.402 53.8393C734.132 53.7805 733.873 53.7452 733.626 53.7335C733.391 53.7099 733.12 53.6982 732.814 53.6982C732.062 53.6982 731.397 53.8158 730.821 54.051C730.245 54.2863 729.756 54.6156 729.356 55.039C728.957 55.4624 728.639 55.9682 728.404 56.5563C728.18 57.1326 728.033 57.7677 727.963 58.4617L727.045 58.991C727.045 57.8383 727.157 56.7562 727.381 55.7447C727.616 54.7332 727.974 53.8393 728.457 53.063C728.939 52.275 729.551 51.6634 730.292 51.2282C731.044 50.7812 731.938 50.5578 732.973 50.5578C733.208 50.5578 733.479 50.5872 733.785 50.646C734.091 50.693 734.302 50.746 734.42 50.8048ZM749.274 64.9366C749.274 64.4661 749.169 64.0309 748.957 63.631C748.757 63.2193 748.339 62.8488 747.704 62.5195C747.081 62.1784 746.14 61.8844 744.881 61.6374C743.823 61.4139 742.864 61.1493 742.006 60.8435C741.159 60.5376 740.435 60.1671 739.836 59.732C739.247 59.2968 738.795 58.7851 738.477 58.197C738.159 57.609 738.001 56.9209 738.001 56.1329C738.001 55.3801 738.165 54.6685 738.495 53.9981C738.836 53.3277 739.312 52.7337 739.924 52.2162C740.547 51.6987 741.294 51.2929 742.164 50.9988C743.035 50.7048 744.005 50.5578 745.075 50.5578C746.604 50.5578 747.91 50.8283 748.992 51.3693C750.074 51.9104 750.903 52.6337 751.48 53.5394C752.056 54.4333 752.344 55.4271 752.344 56.521H749.08C749.08 55.9917 748.922 55.4801 748.604 54.9861C748.298 54.4803 747.845 54.0628 747.245 53.7335C746.657 53.4041 745.934 53.2395 745.075 53.2395C744.17 53.2395 743.435 53.3806 742.87 53.6629C742.317 53.9334 741.912 54.2804 741.653 54.7038C741.406 55.1272 741.282 55.5742 741.282 56.0446C741.282 56.3975 741.341 56.7151 741.459 56.9973C741.588 57.2679 741.812 57.5207 742.129 57.756C742.447 57.9795 742.894 58.1912 743.47 58.3911C744.046 58.5911 744.781 58.791 745.675 58.991C747.24 59.3438 748.528 59.7672 749.539 60.2612C750.551 60.7552 751.303 61.361 751.797 62.0784C752.291 62.7959 752.538 63.6663 752.538 64.6896C752.538 65.5246 752.362 66.2892 752.009 66.9831C751.668 67.677 751.168 68.2769 750.509 68.7827C749.862 69.2767 749.086 69.6648 748.181 69.9471C747.287 70.2176 746.281 70.3529 745.164 70.3529C743.482 70.3529 742.059 70.0529 740.894 69.4531C739.73 68.8532 738.848 68.0769 738.248 67.1242C737.648 66.1715 737.348 65.1659 737.348 64.1073H740.629C740.677 65.0012 740.935 65.7128 741.406 66.2421C741.876 66.7596 742.453 67.1301 743.135 67.3536C743.817 67.5653 744.493 67.6712 745.164 67.6712C746.058 67.6712 746.804 67.5535 747.404 67.3183C748.016 67.0831 748.48 66.7596 748.798 66.348C749.116 65.9363 749.274 65.4658 749.274 64.9366ZM765.47 70.3529C764.141 70.3529 762.935 70.1294 761.853 69.6824C760.783 69.2237 759.859 68.5827 759.083 67.7594C758.319 66.9361 757.73 65.9598 757.319 64.8307C756.907 63.7016 756.701 62.4666 756.701 61.1257V60.3847C756.701 58.8322 756.931 57.4502 757.389 56.2387C757.848 55.0155 758.471 53.9804 759.259 53.1336C760.047 52.2868 760.941 51.6457 761.941 51.2105C762.941 50.7754 763.976 50.5578 765.046 50.5578C766.411 50.5578 767.587 50.793 768.575 51.2635C769.575 51.7339 770.392 52.3926 771.027 53.2395C771.662 54.0745 772.133 55.0625 772.439 56.2034C772.744 57.3326 772.897 58.5675 772.897 59.9084V61.3727H758.642V58.7087H769.633V58.4617C769.586 57.6148 769.41 56.7915 769.104 55.9917C768.81 55.1919 768.34 54.5333 767.693 54.0157C767.046 53.4982 766.164 53.2395 765.046 53.2395C764.305 53.2395 763.623 53.3982 763 53.7158C762.376 54.0216 761.841 54.4803 761.394 55.0919C760.947 55.7036 760.6 56.4504 760.353 57.3326C760.106 58.2147 759.983 59.2321 759.983 60.3847V61.1257C759.983 62.0314 760.106 62.8841 760.353 63.6839C760.612 64.472 760.983 65.1659 761.465 65.7658C761.959 66.3656 762.553 66.8361 763.247 67.1772C763.952 67.5183 764.752 67.6888 765.646 67.6888C766.799 67.6888 767.775 67.4536 768.575 66.9831C769.375 66.5126 770.074 65.8834 770.674 65.0953L772.65 66.6655C772.239 67.2889 771.715 67.8829 771.08 68.4474C770.445 69.012 769.663 69.4707 768.734 69.8236C767.816 70.1764 766.728 70.3529 765.47 70.3529ZM788.546 64.9366C788.546 64.4661 788.44 64.0309 788.228 63.631C788.028 63.2193 787.61 62.8488 786.975 62.5195C786.352 62.1784 785.411 61.8844 784.153 61.6374C783.094 61.4139 782.135 61.1493 781.277 60.8435C780.43 60.5376 779.707 60.1671 779.107 59.732C778.519 59.2968 778.066 58.7851 777.748 58.197C777.431 57.609 777.272 56.9209 777.272 56.1329C777.272 55.3801 777.437 54.6685 777.766 53.9981C778.107 53.3277 778.583 52.7337 779.195 52.2162C779.818 51.6987 780.565 51.2929 781.436 50.9988C782.306 50.7048 783.276 50.5578 784.347 50.5578C785.876 50.5578 787.181 50.8283 788.263 51.3693C789.345 51.9104 790.175 52.6337 790.751 53.5394C791.327 54.4333 791.615 55.4271 791.615 56.521H788.351C788.351 55.9917 788.193 55.4801 787.875 54.9861C787.569 54.4803 787.117 54.0628 786.517 53.7335C785.929 53.4041 785.205 53.2395 784.347 53.2395C783.441 53.2395 782.706 53.3806 782.141 53.6629C781.588 53.9334 781.183 54.2804 780.924 54.7038C780.677 55.1272 780.553 55.5742 780.553 56.0446C780.553 56.3975 780.612 56.7151 780.73 56.9973C780.859 57.2679 781.083 57.5207 781.4 57.756C781.718 57.9795 782.165 58.1912 782.741 58.3911C783.317 58.5911 784.053 58.791 784.946 58.991C786.511 59.3438 787.799 59.7672 788.81 60.2612C789.822 60.7552 790.574 61.361 791.068 62.0784C791.562 62.7959 791.809 63.6663 791.809 64.6896C791.809 65.5246 791.633 66.2892 791.28 66.9831C790.939 67.677 790.439 68.2769 789.781 68.7827C789.134 69.2767 788.357 69.6648 787.452 69.9471C786.558 70.2176 785.552 70.3529 784.435 70.3529C782.753 70.3529 781.33 70.0529 780.165 69.4531C779.001 68.8532 778.119 68.0769 777.519 67.1242C776.919 66.1715 776.619 65.1659 776.619 64.1073H779.901C779.948 65.0012 780.206 65.7128 780.677 66.2421C781.147 66.7596 781.724 67.1301 782.406 67.3536C783.088 67.5653 783.764 67.6712 784.435 67.6712C785.329 67.6712 786.076 67.5535 786.675 67.3183C787.287 67.0831 787.752 66.7596 788.069 66.348C788.387 65.9363 788.546 65.4658 788.546 64.9366Z" fill="#6F6F6F"/>
<path d="M874.013 72.4997C874.648 73.2054 874.648 74.264 873.943 74.8991L871.967 76.8751C871.332 77.5808 870.273 77.5808 869.567 76.8751L862.581 69.8886C862.228 69.5357 862.087 69.1123 862.087 68.6889V67.4892C859.546 69.4651 856.441 70.5943 853.054 70.5943C844.938 70.5943 838.375 64.0312 838.375 55.9156C838.375 47.8705 844.938 41.2369 853.054 41.2369C861.099 41.2369 867.732 47.8705 867.732 55.9156C867.732 59.3735 866.533 62.4786 864.627 64.9486H865.756C866.18 64.9486 866.603 65.1603 866.956 65.4426L874.013 72.4997ZM853.054 64.9486C857.994 64.9486 862.087 60.9261 862.087 55.9156C862.087 50.9756 857.994 46.8825 853.054 46.8825C848.043 46.8825 844.021 50.9756 844.021 55.9156C844.021 60.9261 848.043 64.9486 853.054 64.9486Z" fill="#18A0FB"/>
</svg>
