<svg width="915" height="117" viewBox="0 0 915 117" fill="none" xmlns="http://www.w3.org/2000/svg">
<rect width="914.13" height="117" rx="13.7646" fill="white"/>
<rect x="0.86029" y="0.86029" width="912.409" height="115.279" rx="12.9044" stroke="#6F6F6F" stroke-opacity="0.2" stroke-width="1.72058"/>
<path d="M185.794 74.7588L186.734 71.7959C189.552 71.7959 191.973 71.7237 193.996 71.5791C196.044 71.4346 197.718 71.2058 199.019 70.8926C200.344 70.5554 201.319 70.1098 201.945 69.5557C202.596 68.9776 202.921 68.2791 202.921 67.4601C202.921 66.5447 202.752 65.4848 202.415 64.2804C202.078 63.076 201.644 61.7873 201.114 60.4143L203.897 59.4387C204.21 60.2095 204.499 61.0406 204.764 61.9318C205.053 62.799 205.294 63.6662 205.486 64.5334C205.679 65.3764 205.775 66.1593 205.775 66.882C205.775 68.3032 205.45 69.5196 204.8 70.5313C204.149 71.5189 203.066 72.3259 201.548 72.9522C200.03 73.5785 197.983 74.0361 195.405 74.3252C192.852 74.6142 189.648 74.7588 185.794 74.7588ZM185.794 74.7588C183.65 74.7588 181.76 74.6142 180.122 74.3252C178.508 74.0602 177.159 73.6387 176.075 73.0606C174.991 72.4824 174.172 71.7357 173.618 70.8204C173.064 69.8809 172.787 68.7488 172.787 67.4239C172.787 66.8217 172.835 66.2075 172.931 65.5812C173.028 64.9308 173.148 64.2804 173.293 63.6301C173.461 62.9797 173.63 62.3534 173.798 61.7512L176.508 62.4377C176.412 62.799 176.304 63.2326 176.183 63.7385C176.063 64.2202 175.954 64.714 175.858 65.2199C175.786 65.7257 175.75 66.1834 175.75 66.5929C175.75 67.8455 176.063 68.8572 176.689 69.628C177.339 70.3747 178.459 70.9288 180.049 71.2901C181.639 71.6273 183.867 71.7959 186.734 71.7959L187.456 73.6025L185.794 74.7588ZM191.828 59.511C191.323 59.511 190.889 59.3424 190.528 59.0051C190.19 58.6438 190.022 58.2223 190.022 57.7405C190.022 57.2587 190.19 56.8372 190.528 56.4759C190.889 56.1146 191.323 55.9339 191.828 55.9339C192.31 55.9339 192.72 56.1146 193.057 56.4759C193.418 56.8372 193.599 57.2587 193.599 57.7405C193.599 58.2223 193.418 58.6438 193.057 59.0051C192.72 59.3424 192.31 59.511 191.828 59.511ZM186.878 59.511C186.372 59.511 185.939 59.3424 185.578 59.0051C185.24 58.6438 185.072 58.2223 185.072 57.7405C185.072 57.2587 185.24 56.8372 185.578 56.4759C185.939 56.1146 186.372 55.9339 186.878 55.9339C187.36 55.9339 187.77 56.1146 188.107 56.4759C188.468 56.8372 188.649 57.2587 188.649 57.7405C188.649 58.2223 188.468 58.6438 188.107 59.0051C187.77 59.3424 187.36 59.511 186.878 59.511ZM211.635 74L210.912 48.2016H213.839L214.561 74H211.635ZM216.87 82.3104L215.822 79.5644C218.255 78.7935 220.122 77.8661 221.423 76.7822C222.747 75.7223 223.651 74.6142 224.133 73.458C224.638 72.3018 224.891 71.1937 224.891 70.1339C224.891 69.4594 224.819 68.809 224.675 68.1827C224.53 67.5564 224.277 66.8458 223.916 66.0509C223.554 65.256 223.049 64.2684 222.398 63.0881L225.036 61.7512C225.951 63.3169 226.602 64.7983 226.987 66.1954C227.397 67.5926 227.601 68.8211 227.601 69.8809C227.601 71.3985 227.348 72.7715 226.842 74C226.361 75.2285 225.71 76.3125 224.891 77.2519C224.096 78.2154 223.217 79.0344 222.254 79.7089C221.314 80.3834 220.363 80.9374 219.399 81.371C218.46 81.8046 217.617 82.1177 216.87 82.3104ZM232.811 82.3104L232.161 79.3476C233.606 79.1549 234.931 78.8778 236.135 78.5165C237.364 78.1793 238.412 77.6855 239.279 77.0351C240.17 76.3847 240.856 75.5296 241.338 74.4697C241.82 73.4098 242.061 72.085 242.061 70.4952C242.061 69.7484 241.989 69.0378 241.844 68.3634C241.7 67.6648 241.483 67.0506 241.194 66.5206C240.905 65.9907 240.555 65.5692 240.146 65.256C239.76 64.9429 239.315 64.7863 238.809 64.7863C238.255 64.7863 237.749 65.0031 237.291 65.4367C236.858 65.8462 236.509 66.3761 236.244 67.0265C236.003 67.6769 235.882 68.3272 235.882 68.9776C235.882 69.4835 235.979 69.9291 236.171 70.3145C236.388 70.6758 236.737 70.9529 237.219 71.1456C237.701 71.3383 238.327 71.4346 239.098 71.4346C239.797 71.4346 240.495 71.3623 241.194 71.2178C241.916 71.0733 242.531 70.8806 243.036 70.6397L243.181 73.169C242.603 73.5785 241.916 73.8675 241.121 74.0361C240.351 74.2047 239.568 74.2891 238.773 74.2891C237.858 74.2891 237.039 74.1927 236.316 74C235.617 73.8073 235.015 73.5303 234.509 73.169C234.028 72.7835 233.654 72.3018 233.389 71.7237C233.148 71.1456 233.028 70.4711 233.028 69.7003C233.028 68.7849 233.172 67.8696 233.461 66.9542C233.75 66.0148 234.16 65.1597 234.69 64.3888C235.22 63.618 235.858 63.0038 236.605 62.5461C237.352 62.0643 238.183 61.8234 239.098 61.8234C240.062 61.8234 240.905 62.0764 241.627 62.5822C242.35 63.064 242.952 63.7264 243.434 64.5695C243.916 65.4126 244.277 66.3641 244.518 67.4239C244.759 68.4838 244.879 69.5798 244.879 70.712C244.879 72.9522 244.422 74.8792 243.506 76.4931C242.615 78.1311 241.266 79.4319 239.459 80.3954C237.677 81.3589 235.461 81.9973 232.811 82.3104ZM255.367 71.2178C256.572 71.2178 257.523 71.0974 258.222 70.8565C258.944 70.6156 259.462 70.2663 259.775 69.8087C260.113 69.3269 260.281 68.7729 260.281 68.1466C260.281 67.6648 260.149 67.0867 259.884 66.4122C259.643 65.7378 259.306 64.991 258.872 64.172C258.438 63.329 257.933 62.4497 257.354 61.5344C256.8 60.595 256.198 59.6435 255.548 58.6799L258.041 57.054C258.98 58.4752 259.799 59.8241 260.498 61.1008C261.196 62.3534 261.787 63.5337 262.268 64.6418C262.75 65.7257 263.136 66.7495 263.425 67.713C263.762 68.7729 264.135 69.5557 264.545 70.0616C264.978 70.5674 265.424 70.8926 265.882 71.0372C266.339 71.1576 266.761 71.2178 267.146 71.2178C267.652 71.2178 268.025 71.3623 268.266 71.6514C268.507 71.9164 268.628 72.2416 268.628 72.627C268.628 73.0124 268.459 73.3737 268.122 73.7109C267.785 74.0241 267.351 74.1807 266.821 74.1807C266.026 74.1807 265.243 74.0361 264.472 73.7471C263.726 73.4339 263.075 72.9401 262.521 72.2657C261.967 71.5671 261.582 70.6397 261.365 69.4835L262.81 68.3272C262.81 69.2908 262.606 70.2302 262.196 71.1456C261.787 72.0368 261.04 72.7715 259.956 73.3496C258.896 73.9277 257.366 74.2168 255.367 74.2168C254.5 74.2168 253.657 74.1445 252.838 74C252.043 73.8555 251.308 73.6507 250.634 73.3858C249.959 73.0967 249.369 72.7595 248.863 72.3741L250.309 69.8809C250.79 70.1941 251.465 70.4952 252.332 70.7842C253.199 71.0733 254.211 71.2178 255.367 71.2178ZM267.552 74.1807L267.877 71.2178C269.25 71.2178 270.214 71.0853 270.768 70.8204C271.322 70.5554 271.635 70.0857 271.707 69.4112C271.803 68.7367 271.828 67.7973 271.779 66.5929L271.093 48.2016H274.02L274.742 66.2677C274.79 67.5444 274.742 68.6765 274.598 69.6641C274.477 70.6517 274.164 71.4828 273.658 72.1573C273.176 72.8317 272.442 73.3376 271.454 73.6748C270.491 74.012 269.19 74.1807 267.552 74.1807ZM280.985 74L280.262 48.2016H283.189L283.911 74H280.985ZM299.218 72.271C299.218 71.7182 299.389 71.2536 299.73 70.8772C300.083 70.4891 300.589 70.295 301.247 70.295C301.906 70.295 302.406 70.4891 302.747 70.8772C303.1 71.2536 303.276 71.7182 303.276 72.271C303.276 72.8121 303.1 73.2708 302.747 73.6471C302.406 74.0235 301.906 74.2117 301.247 74.2117C300.589 74.2117 300.083 74.0235 299.73 73.6471C299.389 73.2708 299.218 72.8121 299.218 72.271ZM324.488 74.1807C323.187 74.1807 322.031 74 321.019 73.6387C320.031 73.2533 319.237 72.6149 318.634 71.7237C318.056 70.8083 317.731 69.5437 317.659 67.9298L317.081 55.3558H320.007L320.585 67.2794C320.658 68.4116 320.863 69.2667 321.2 69.8448C321.537 70.3988 322.007 70.7722 322.609 70.9649C323.235 71.1335 323.982 71.2178 324.849 71.2178C325.355 71.2178 325.716 71.3623 325.933 71.6514C326.174 71.9164 326.294 72.2416 326.294 72.627C326.294 73.0124 326.126 73.3737 325.789 73.7109C325.451 74.0241 325.018 74.1807 324.488 74.1807ZM319.032 70.2061C317.659 70.6397 316.322 70.8565 315.021 70.8565C313.72 70.8565 312.54 70.6638 311.48 70.2784C310.42 69.893 309.577 69.3389 308.951 68.6163C308.325 67.8696 308.011 66.9783 308.011 65.9425C308.011 64.9308 308.264 63.9793 308.77 63.0881C309.3 62.1968 310.011 61.4019 310.902 60.7033C311.817 60.0048 312.865 59.4267 314.046 58.969C315.25 58.4872 316.527 58.1621 317.876 57.9934L318.381 61.0285C317.177 61.0767 316.105 61.2453 315.166 61.5344C314.25 61.7994 313.467 62.1486 312.817 62.5822C312.191 63.0158 311.709 63.4855 311.372 63.9914C311.035 64.4972 310.866 64.991 310.866 65.4728C310.866 66.0027 311.059 66.4363 311.444 66.7736C311.829 67.1108 312.323 67.3758 312.925 67.5685C313.528 67.7371 314.19 67.8455 314.913 67.8937C315.635 67.9177 316.334 67.8937 317.008 67.8214C317.683 67.725 318.261 67.5926 318.743 67.4239L319.032 70.2061ZM318.273 51.2006C317.767 51.2006 317.334 51.032 316.972 50.6947C316.635 50.3334 316.466 49.9119 316.466 49.4301C316.466 48.9483 316.635 48.5268 316.972 48.1655C317.334 47.8042 317.767 47.6235 318.273 47.6235C318.755 47.6235 319.164 47.8042 319.502 48.1655C319.863 48.5268 320.044 48.9483 320.044 49.4301C320.044 49.9119 319.863 50.3334 319.502 50.6947C319.164 51.032 318.755 51.2006 318.273 51.2006ZM313.323 51.2006C312.817 51.2006 312.383 51.032 312.022 50.6947C311.685 50.3334 311.516 49.9119 311.516 49.4301C311.516 48.9483 311.685 48.5268 312.022 48.1655C312.383 47.8042 312.817 47.6235 313.323 47.6235C313.805 47.6235 314.214 47.8042 314.551 48.1655C314.913 48.5268 315.093 48.9483 315.093 49.4301C315.093 49.9119 314.913 50.3334 314.551 50.6947C314.214 51.032 313.805 51.2006 313.323 51.2006ZM325.222 74.1807L325.547 71.2178C326.92 71.2178 327.884 71.0853 328.438 70.8204C328.992 70.5554 329.305 70.0857 329.377 69.4112C329.474 68.7367 329.498 67.7973 329.45 66.5929L328.763 48.2016H331.69L332.413 66.2677C332.461 67.5444 332.413 68.6765 332.268 69.6641C332.148 70.6517 331.834 71.4828 331.329 72.1573C330.847 72.8317 330.112 73.3376 329.125 73.6748C328.161 74.012 326.86 74.1807 325.222 74.1807ZM336.595 72.3741L338.041 69.8809C338.523 70.1941 339.197 70.4952 340.064 70.7842C340.931 71.0733 341.943 71.2178 343.099 71.2178C344.304 71.2178 345.255 71.0974 345.954 70.8565C346.676 70.6156 347.194 70.2663 347.507 69.8087C347.845 69.3269 348.013 68.7729 348.013 68.1466C348.013 67.6648 347.905 67.0747 347.688 66.3761C347.495 65.6535 347.062 64.6899 346.387 63.4855C345.713 62.257 344.677 60.6552 343.28 58.6799L345.773 57.054C347.05 58.8124 348.061 60.4022 348.808 61.8234C349.579 63.2446 350.121 64.4972 350.434 65.5812C350.771 66.6411 350.94 67.5564 350.94 68.3272C350.94 69.2908 350.699 70.2302 350.217 71.1456C349.736 72.0368 348.929 72.7715 347.796 73.3496C346.664 73.9277 345.099 74.2168 343.099 74.2168C342.232 74.2168 341.389 74.1445 340.57 74C339.775 73.8555 339.04 73.6507 338.366 73.3858C337.691 73.0967 337.101 72.7595 336.595 72.3741ZM367.473 54.6331C367.473 54.1032 367.437 53.4649 367.364 52.7181C367.292 51.9714 367.208 51.2247 367.111 50.4779C367.015 49.7312 366.919 49.0929 366.822 48.5629L369.93 48.2016C370.002 48.6834 370.074 49.3217 370.146 50.1166C370.243 50.8874 370.315 51.6583 370.363 52.4291C370.411 53.1999 370.436 53.8382 370.436 54.3441C370.436 55.5003 370.351 56.6325 370.183 57.7405C370.038 58.8245 369.797 59.8964 369.46 60.9563C369.123 61.9921 368.677 63.0038 368.123 63.9914L367.689 64.7863C367.015 65.9184 366.184 67.0144 365.196 68.0743C364.209 69.1101 363.052 70.0977 361.728 71.0372H366.28C367.099 71.0372 367.726 70.9408 368.159 70.7481C368.593 70.5313 368.882 70.2543 369.026 69.9171C369.195 69.5798 369.279 69.2185 369.279 68.8331C369.279 68.1827 368.882 67.3758 368.087 66.4122C367.316 65.4246 366.244 64.3407 364.871 63.1603C363.498 61.9559 361.944 60.6913 360.21 59.3665C358.476 58.0416 356.645 56.6927 354.718 55.3197L356.416 52.9349C358.632 54.5729 360.583 56.0543 362.27 57.3792C363.98 58.704 365.437 59.9205 366.642 61.0285C367.87 62.1125 368.87 63.1242 369.641 64.0636C370.436 64.979 371.014 65.8582 371.375 66.7013C371.76 67.5203 371.953 68.3272 371.953 69.1222C371.953 69.6521 371.857 70.2061 371.664 70.7842C371.495 71.3383 371.182 71.8682 370.725 72.3741C370.291 72.8558 369.665 73.2533 368.846 73.5664C368.051 73.8555 367.015 74 365.738 74H357.428V71.0733C359.909 69.2908 361.872 67.5564 363.317 65.8703C364.787 64.1841 365.847 62.4257 366.497 60.595C367.147 58.7643 367.473 56.777 367.473 54.6331ZM354.212 51.0199L353.779 49.0688C354.405 48.9243 354.911 48.8038 355.296 48.7075C355.682 48.6111 356.115 48.5027 356.597 48.3823L356.416 49.141C355.79 48.9483 355.188 48.5388 354.61 47.9125C354.056 47.2863 353.779 46.5757 353.779 45.7807C353.779 45.0581 353.947 44.4559 354.284 43.9741C354.646 43.4683 355.103 43.0949 355.657 42.854C356.236 42.6132 356.85 42.4927 357.5 42.4927C357.765 42.4927 358.042 42.5168 358.331 42.565C358.644 42.6132 358.933 42.6854 359.198 42.7818L358.909 44.5884C358.668 44.5402 358.44 44.492 358.223 44.4439C358.006 44.3957 357.765 44.3716 357.5 44.3716C356.946 44.3716 356.513 44.492 356.199 44.7329C355.886 44.9497 355.73 45.2629 355.73 45.6724C355.73 46.1782 355.886 46.6118 356.199 46.9731C356.537 47.3344 356.91 47.6235 357.32 47.8403C357.753 48.033 358.102 48.1293 358.367 48.1293L356.886 48.2739C357.536 48.1053 358.139 47.9366 358.693 47.768C359.271 47.5753 359.789 47.3947 360.246 47.226L360.824 49.0688C360.246 49.2856 359.56 49.5144 358.765 49.7553C357.994 49.9962 357.211 50.225 356.416 50.4418C355.621 50.6586 354.887 50.8513 354.212 51.0199ZM378.35 74L377.627 48.2016H380.554L381.276 74H378.35ZM396.583 72.271C396.583 71.7182 396.754 71.2536 397.095 70.8772C397.448 70.4891 397.954 70.295 398.612 70.295C399.271 70.295 399.771 70.4891 400.112 70.8772C400.465 71.2536 400.641 71.7182 400.641 72.271C400.641 72.8121 400.465 73.2708 400.112 73.6471C399.771 74.0235 399.271 74.2117 398.612 74.2117C397.954 74.2117 397.448 74.0235 397.095 73.6471C396.754 73.2708 396.583 72.8121 396.583 72.271ZM404.437 82.3827L403.389 79.6366C405.148 79.0585 406.605 78.3961 407.761 77.6494C408.942 76.9026 409.869 76.1077 410.543 75.2646C411.242 74.4215 411.736 73.5664 412.025 72.6992C412.314 71.808 412.458 70.9529 412.458 70.1339C412.458 68.9535 412.193 67.7612 411.664 66.5568C411.158 65.3283 410.592 64.172 409.965 63.0881L412.603 61.7512C413.061 62.5943 413.458 63.4253 413.795 64.2443C414.157 65.0633 414.47 65.8341 414.735 66.5568C415.024 67.2794 415.253 67.9418 415.421 68.544C415.758 69.5798 416.192 70.2904 416.722 70.6758C417.276 71.0372 418.023 71.2178 418.962 71.2178C419.468 71.2178 419.829 71.3623 420.046 71.6514C420.287 71.9164 420.408 72.2416 420.408 72.627C420.408 73.0124 420.239 73.3737 419.902 73.7109C419.564 74.0241 419.131 74.1807 418.601 74.1807C417.541 74.1807 416.674 74 415.999 73.6387C415.349 73.2533 414.855 72.7595 414.518 72.1573C414.181 71.531 413.952 70.8806 413.831 70.2061L414.988 70.8565C414.988 72.4463 414.626 73.8916 413.904 75.1924C413.205 76.5172 412.302 77.6614 411.194 78.6249C410.086 79.6125 408.93 80.4195 407.725 81.0458C406.521 81.6721 405.425 82.1177 404.437 82.3827ZM419.341 74.1807L419.702 71.2178C421.124 71.2178 422.232 71.1696 423.026 71.0733C423.821 70.9529 424.387 70.6758 424.725 70.2423C425.062 69.7846 425.231 69.074 425.231 68.1105C425.231 67.5082 425.134 66.7976 424.941 65.9787C424.749 65.1356 424.496 64.2443 424.183 63.3049C423.87 62.3654 423.532 61.438 423.171 60.5227L426.098 59.4387C426.411 60.2095 426.7 61.0888 426.965 62.0764C427.254 63.064 427.495 64.0396 427.688 65.0031C427.88 65.9666 427.977 66.8097 427.977 67.5323C427.977 68.7367 427.808 69.7605 427.471 70.6036C427.158 71.4467 426.652 72.1332 425.953 72.6631C425.255 73.193 424.351 73.5785 423.243 73.8193C422.159 74.0602 420.859 74.1807 419.341 74.1807ZM426.025 81.0096C425.52 81.0096 425.086 80.829 424.725 80.4677C424.387 80.1304 424.219 79.7209 424.219 79.2392C424.219 78.7574 424.387 78.3359 424.725 77.9745C425.086 77.6132 425.52 77.4326 426.025 77.4326C426.507 77.4326 426.917 77.6132 427.254 77.9745C427.615 78.3359 427.796 78.7574 427.796 79.2392C427.796 79.7209 427.615 80.1304 427.254 80.4677C426.917 80.829 426.507 81.0096 426.025 81.0096ZM421.075 81.0096C420.569 81.0096 420.136 80.829 419.775 80.4677C419.437 80.1304 419.269 79.7209 419.269 79.2392C419.269 78.7574 419.437 78.3359 419.775 77.9745C420.136 77.6132 420.569 77.4326 421.075 77.4326C421.557 77.4326 421.967 77.6132 422.304 77.9745C422.665 78.3359 422.846 78.7574 422.846 79.2392C422.846 79.7209 422.665 80.1304 422.304 80.4677C421.967 80.829 421.557 81.0096 421.075 81.0096ZM431.006 82.3104L429.958 79.5644C432.391 78.7935 434.257 77.8661 435.558 76.7822C436.883 75.7223 437.786 74.6142 438.268 73.458C438.774 72.3018 439.027 71.1937 439.027 70.1339C439.027 69.4594 438.955 68.809 438.81 68.1827C438.666 67.5564 438.413 66.8458 438.051 66.0509C437.69 65.256 437.184 64.2684 436.534 63.0881L439.171 61.7512C440.087 63.3169 440.737 64.7983 441.123 66.1954C441.532 67.5926 441.737 68.8211 441.737 69.8809C441.737 71.3985 441.484 72.7715 440.978 74C440.496 75.2285 439.846 76.3125 439.027 77.2519C438.232 78.2154 437.353 79.0344 436.389 79.7089C435.45 80.3834 434.498 80.9374 433.535 81.371C432.595 81.8046 431.752 82.1177 431.006 82.3104ZM455.365 74.1807C453.438 74.1807 451.957 73.9639 450.921 73.5303C449.909 73.0967 449.211 72.4222 448.825 71.5069C448.44 70.5915 448.223 69.4112 448.175 67.9659L447.452 48.2016H450.415L451.138 66.8097C451.186 67.99 451.294 68.9054 451.463 69.5557C451.656 70.182 452.065 70.6156 452.692 70.8565C453.342 71.0974 454.354 71.2178 455.727 71.2178C456.233 71.2178 456.594 71.3623 456.811 71.6514C457.052 71.9164 457.172 72.2416 457.172 72.627C457.172 73.0124 457.003 73.3737 456.666 73.7109C456.329 74.0241 455.895 74.1807 455.365 74.1807ZM456.089 74.1807L456.45 71.2178C457.052 71.2178 457.666 71.2178 458.293 71.2178C458.943 71.1937 459.581 71.1576 460.208 71.1094C460.834 71.0612 461.436 71.001 462.014 70.9288C462.592 70.8565 463.11 70.7481 463.568 70.6036C464.411 70.3386 465.182 69.9893 465.88 69.5557C466.603 69.1222 467.181 68.5922 467.615 67.9659C468.072 67.3396 468.301 66.617 468.301 65.798C468.301 65.244 468.169 64.6779 467.904 64.0998C467.639 63.4976 467.278 62.9917 466.82 62.5822C466.362 62.1727 465.832 61.968 465.23 61.968C464.652 61.968 464.11 62.1607 463.604 62.5461C463.122 62.9315 462.725 63.4374 462.412 64.0636C462.123 64.6658 461.978 65.2921 461.978 65.9425C461.978 66.7133 462.171 67.4119 462.556 68.0382C462.966 68.6404 463.46 69.1583 464.038 69.5919C464.616 70.0255 465.194 70.3747 465.772 70.6397L462.339 71.6514C461.954 71.3623 461.496 70.9649 460.966 70.459C460.461 69.9291 460.003 69.2787 459.593 68.5079C459.208 67.7371 459.015 66.8579 459.015 65.8703C459.015 64.9067 459.184 64.0155 459.521 63.1965C459.882 62.3534 460.352 61.6187 460.93 60.9924C461.533 60.3661 462.207 59.8844 462.954 59.5471C463.725 59.1858 464.519 59.0051 465.338 59.0051C466.519 59.0051 467.555 59.3303 468.446 59.9807C469.337 60.6311 470.024 61.4621 470.505 62.4738C471.011 63.4614 471.264 64.4972 471.264 65.5812C471.264 66.617 471.071 67.5564 470.686 68.3995C470.301 69.2185 469.771 69.9532 469.096 70.6036C468.446 71.254 467.675 71.808 466.784 72.2657C465.917 72.7233 464.989 73.0967 464.002 73.3858C463.448 73.5544 462.845 73.6869 462.195 73.7832C461.569 73.8796 460.906 73.9518 460.208 74C459.509 74.0723 458.811 74.1204 458.112 74.1445C457.413 74.1686 456.739 74.1807 456.089 74.1807ZM473.974 74.1807C472.77 74.1807 471.517 74.1084 470.216 73.9639C468.94 73.7953 467.723 73.5905 466.567 73.3496C465.435 73.0847 464.495 72.7956 463.749 72.4824L466.242 70.6758C466.964 70.7722 467.82 70.8685 468.807 70.9649C469.795 71.0372 470.782 71.0974 471.77 71.1456C472.758 71.1937 473.613 71.2178 474.335 71.2178C474.841 71.2178 475.203 71.3623 475.419 71.6514C475.66 71.9164 475.781 72.2416 475.781 72.627C475.781 73.0124 475.612 73.3737 475.275 73.7109C474.938 74.0241 474.504 74.1807 473.974 74.1807ZM467.543 55.2835C467.037 55.2835 466.603 55.1149 466.242 54.7777C465.905 54.4163 465.736 53.9948 465.736 53.513C465.736 53.0313 465.905 52.6097 466.242 52.2484C466.603 51.8871 467.037 51.7064 467.543 51.7064C468.024 51.7064 468.434 51.8871 468.771 52.2484C469.132 52.6097 469.313 53.0313 469.313 53.513C469.313 53.9948 469.132 54.4163 468.771 54.7777C468.434 55.1149 468.024 55.2835 467.543 55.2835ZM462.592 55.2835C462.087 55.2835 461.653 55.1149 461.292 54.7777C460.954 54.4163 460.786 53.9948 460.786 53.513C460.786 53.0313 460.954 52.6097 461.292 52.2484C461.653 51.8871 462.087 51.7064 462.592 51.7064C463.074 51.7064 463.484 51.8871 463.821 52.2484C464.182 52.6097 464.363 53.0313 464.363 53.513C464.363 53.9948 464.182 54.4163 463.821 54.7777C463.484 55.1149 463.074 55.2835 462.592 55.2835ZM474.701 74.1807L475.062 71.2178C476.267 71.2178 477.206 71.1335 477.881 70.9649C478.555 70.7722 479.061 70.4229 479.398 69.9171C479.759 69.3871 480.048 68.6283 480.265 67.6407C480.482 66.6531 480.747 65.3644 481.06 63.7746L483.879 64.3166C483.782 64.7502 483.674 65.2319 483.553 65.7619C483.433 66.2918 483.324 66.8217 483.228 67.3517C483.156 67.8575 483.12 68.3032 483.12 68.6886C483.12 69.0499 483.144 69.3871 483.192 69.7003C483.24 70.0134 483.421 70.2784 483.734 70.4952C484.047 70.712 484.577 70.8926 485.324 71.0372C486.071 71.1576 487.142 71.2178 488.54 71.2178C489.045 71.2178 489.407 71.3623 489.624 71.6514C489.864 71.9164 489.985 72.2416 489.985 72.627C489.985 73.0124 489.816 73.3737 489.479 73.7109C489.142 74.0241 488.708 74.1807 488.178 74.1807C486.709 74.1807 485.541 74.1084 484.673 73.9639C483.806 73.7953 483.144 73.5544 482.686 73.2412C482.253 72.9281 481.939 72.5427 481.747 72.085C481.578 71.6032 481.446 71.0492 481.349 70.4229L482.433 70.4952C482.048 71.266 481.626 71.8923 481.169 72.3741C480.735 72.8558 480.229 73.2292 479.651 73.4941C479.073 73.7591 478.374 73.9398 477.555 74.0361C476.76 74.1325 475.809 74.1807 474.701 74.1807ZM484.348 60.053C483.842 60.053 483.409 59.8844 483.047 59.5471C482.71 59.1858 482.542 58.7643 482.542 58.2825C482.542 57.8007 482.71 57.3792 483.047 57.0179C483.409 56.6565 483.842 56.4759 484.348 56.4759C484.83 56.4759 485.239 56.6565 485.577 57.0179C485.938 57.3792 486.119 57.8007 486.119 58.2825C486.119 58.7643 485.938 59.1858 485.577 59.5471C485.239 59.8844 484.83 60.053 484.348 60.053ZM479.398 60.053C478.892 60.053 478.459 59.8844 478.097 59.5471C477.76 59.1858 477.592 58.7643 477.592 58.2825C477.592 57.8007 477.76 57.3792 478.097 57.0179C478.459 56.6565 478.892 56.4759 479.398 56.4759C479.88 56.4759 480.289 56.6565 480.627 57.0179C480.988 57.3792 481.169 57.8007 481.169 58.2825C481.169 58.7643 480.988 59.1858 480.627 59.5471C480.289 59.8844 479.88 60.053 479.398 60.053ZM488.903 74.1807L489.228 71.2178C490.601 71.2178 491.564 71.0853 492.118 70.8204C492.672 70.5554 492.985 70.0857 493.058 69.4112C493.154 68.7367 493.178 67.7973 493.13 66.5929L492.444 48.2016H495.37L496.093 66.2677C496.141 67.5444 496.093 68.6765 495.948 69.6641C495.828 70.6517 495.515 71.4828 495.009 72.1573C494.527 72.8317 493.792 73.3376 492.805 73.6748C491.841 74.012 490.541 74.1807 488.903 74.1807ZM502.335 74L501.613 48.2016H504.539L505.262 74H502.335ZM520.569 72.271C520.569 71.7182 520.74 71.2536 521.081 70.8772C521.434 70.4891 521.939 70.295 522.598 70.295C523.257 70.295 523.756 70.4891 524.098 70.8772C524.45 71.2536 524.627 71.7182 524.627 72.271C524.627 72.8121 524.45 73.2708 524.098 73.6471C523.756 74.0235 523.257 74.2117 522.598 74.2117C521.939 74.2117 521.434 74.0235 521.081 73.6471C520.74 73.2708 520.569 72.8121 520.569 72.271ZM529.362 74.0361C529.362 73.458 529.41 72.8438 529.507 72.1934C529.627 71.5189 529.796 70.8083 530.013 70.0616C530.253 69.2908 530.542 68.4838 530.88 67.6407L533.481 68.6524C533.24 69.3269 533.024 69.9652 532.831 70.5674C532.662 71.1696 532.53 71.7357 532.433 72.2657C532.361 72.7956 532.325 73.3014 532.325 73.7832C532.325 74.7226 532.518 75.5416 532.903 76.2402C533.313 76.9388 533.879 77.5169 534.601 77.9745C535.324 78.4563 536.167 78.8176 537.131 79.0585C538.094 79.2994 539.13 79.4198 540.238 79.4198C541.972 79.4198 543.49 79.2271 544.791 78.8417C546.091 78.4804 547.175 78.0107 548.043 77.4326C548.91 76.8544 549.548 76.2522 549.958 75.6259C550.391 74.9997 550.608 74.4456 550.608 73.9639C550.608 73.6266 550.403 73.3255 549.994 73.0606C549.584 72.7956 549.054 72.5427 548.404 72.3018C547.753 72.0609 547.067 71.808 546.344 71.543C545.622 71.254 544.935 70.9167 544.285 70.5313C543.634 70.1459 543.104 69.6882 542.695 69.1583C542.285 68.6043 542.081 67.9539 542.081 67.2071C542.081 66.2195 542.322 65.244 542.803 64.2804C543.309 63.2928 543.984 62.3895 544.827 61.5705C545.694 60.7515 546.657 60.1011 547.717 59.6194C548.777 59.1135 549.873 58.8606 551.005 58.8606C552.017 58.8606 552.884 59.0051 553.607 59.2942C554.33 59.5592 554.847 59.8121 555.161 60.053L553.968 62.6184C553.559 62.4257 553.101 62.245 552.595 62.0764C552.089 61.9078 551.559 61.8234 551.005 61.8234C550.307 61.8234 549.596 61.968 548.874 62.257C548.175 62.5461 547.525 62.9315 546.922 63.4133C546.344 63.895 545.875 64.425 545.513 65.0031C545.152 65.5812 544.971 66.1593 544.971 66.7374C544.971 67.1469 545.176 67.5203 545.586 67.8575C546.019 68.1948 546.573 68.5079 547.248 68.797C547.922 69.086 548.633 69.3871 549.379 69.7003C550.15 69.9893 550.873 70.3145 551.547 70.6758C552.222 71.0131 552.764 71.4105 553.173 71.8682C553.607 72.3259 553.824 72.8679 553.824 73.4941C553.824 74.3854 553.523 75.3489 552.92 76.3847C552.318 77.4205 551.427 78.384 550.247 79.2753C549.066 80.1907 547.621 80.9374 545.911 81.5155C544.225 82.0936 542.273 82.3827 540.057 82.3827C538.54 82.3827 537.131 82.2141 535.83 81.8768C534.553 81.5396 533.421 81.0217 532.433 80.3231C531.47 79.6487 530.711 78.7815 530.157 77.7216C529.627 76.6858 529.362 75.4573 529.362 74.0361ZM558.549 82.3104L557.898 79.3476C559.343 79.1549 560.668 78.8778 561.873 78.5165C563.101 78.1793 564.149 77.6855 565.016 77.0351C565.907 76.3847 566.594 75.5296 567.076 74.4697C567.557 73.4098 567.798 72.085 567.798 70.4952C567.798 69.7484 567.726 69.0378 567.582 68.3634C567.437 67.6648 567.22 67.0506 566.931 66.5206C566.642 65.9907 566.293 65.5692 565.883 65.256C565.498 64.9429 565.052 64.7863 564.546 64.7863C563.992 64.7863 563.487 65.0031 563.029 65.4367C562.595 65.8462 562.246 66.3761 561.981 67.0265C561.74 67.6769 561.62 68.3272 561.62 68.9776C561.62 69.4835 561.716 69.9291 561.909 70.3145C562.126 70.6758 562.475 70.9529 562.957 71.1456C563.438 71.3383 564.065 71.4346 564.836 71.4346C565.534 71.4346 566.233 71.3623 566.931 71.2178C567.654 71.0733 568.268 70.8806 568.774 70.6397L568.918 73.169C568.34 73.5785 567.654 73.8675 566.859 74.0361C566.088 74.2047 565.305 74.2891 564.51 74.2891C563.595 74.2891 562.776 74.1927 562.053 74C561.355 73.8073 560.753 73.5303 560.247 73.169C559.765 72.7835 559.392 72.3018 559.127 71.7237C558.886 71.1456 558.765 70.4711 558.765 69.7003C558.765 68.7849 558.91 67.8696 559.199 66.9542C559.488 66.0148 559.897 65.1597 560.427 64.3888C560.957 63.618 561.596 63.0038 562.342 62.5461C563.089 62.0643 563.92 61.8234 564.836 61.8234C565.799 61.8234 566.642 62.0764 567.365 62.5822C568.087 63.064 568.69 63.7264 569.171 64.5695C569.653 65.4126 570.014 66.3641 570.255 67.4239C570.496 68.4838 570.617 69.5798 570.617 70.712C570.617 72.9522 570.159 74.8792 569.244 76.4931C568.352 78.1311 567.003 79.4319 565.197 80.3954C563.414 81.3589 561.198 81.9973 558.549 82.3104ZM561.584 57.8489L561.15 55.8978C561.776 55.7532 562.282 55.6328 562.668 55.5364C563.053 55.4401 563.487 55.3317 563.968 55.2113L563.788 55.97C563.161 55.7773 562.559 55.3678 561.981 54.7415C561.427 54.1152 561.15 53.4046 561.15 52.6097C561.15 51.8871 561.319 51.2849 561.656 50.8031C562.017 50.2973 562.475 49.9239 563.029 49.683C563.607 49.4421 564.221 49.3217 564.872 49.3217C565.137 49.3217 565.414 49.3458 565.703 49.394C566.016 49.4421 566.305 49.5144 566.57 49.6108L566.281 51.4174C566.04 51.3692 565.811 51.321 565.594 51.2728C565.378 51.2247 565.137 51.2006 564.872 51.2006C564.318 51.2006 563.884 51.321 563.571 51.5619C563.258 51.7787 563.101 52.0918 563.101 52.5013C563.101 53.0072 563.258 53.4408 563.571 53.8021C563.908 54.1634 564.281 54.4525 564.691 54.6693C565.125 54.862 565.474 54.9583 565.739 54.9583L564.257 55.1029C564.908 54.9342 565.51 54.7656 566.064 54.597C566.642 54.4043 567.16 54.2236 567.618 54.055L568.196 55.8978C567.618 56.1146 566.931 56.3434 566.136 56.5843C565.365 56.8252 564.583 57.054 563.788 57.2708C562.993 57.4876 562.258 57.6803 561.584 57.8489ZM573.481 82.3827L572.433 79.6366C574.191 79.0585 575.649 78.3961 576.805 77.6494C577.985 76.9026 578.913 76.1077 579.587 75.2646C580.286 74.4215 580.779 73.5664 581.068 72.6992C581.358 71.808 581.502 70.9529 581.502 70.1339C581.502 68.9535 581.237 67.7612 580.707 66.5568C580.201 65.3283 579.635 64.172 579.009 63.0881L581.647 61.7512C582.104 62.5943 582.502 63.4253 582.839 64.2443C583.2 65.0633 583.513 65.8341 583.778 66.5568C584.067 67.2794 584.296 67.9418 584.465 68.544C584.802 69.5798 585.236 70.2904 585.766 70.6758C586.32 71.0372 587.066 71.2178 588.006 71.2178C588.512 71.2178 588.873 71.3623 589.09 71.6514C589.331 71.9164 589.451 72.2416 589.451 72.627C589.451 73.0124 589.283 73.3737 588.945 73.7109C588.608 74.0241 588.174 74.1807 587.645 74.1807C586.585 74.1807 585.717 74 585.043 73.6387C584.393 73.2533 583.899 72.7595 583.562 72.1573C583.224 71.531 582.996 70.8806 582.875 70.2061L584.031 70.8565C584.031 72.4463 583.67 73.8916 582.947 75.1924C582.249 76.5172 581.345 77.6614 580.237 78.6249C579.129 79.6125 577.973 80.4195 576.769 81.0458C575.564 81.6721 574.468 82.1177 573.481 82.3827ZM588.385 74.1807L588.71 71.2178C590.083 71.2178 591.046 71.0853 591.6 70.8204C592.154 70.5554 592.468 70.0857 592.54 69.4112C592.636 68.7367 592.66 67.7973 592.612 66.5929L591.926 48.2016H594.852L595.575 66.2677C595.623 67.5444 595.575 68.6765 595.43 69.6641C595.31 70.6517 594.997 71.4828 594.491 72.1573C594.009 72.8317 593.275 73.3376 592.287 73.6748C591.323 74.012 590.023 74.1807 588.385 74.1807ZM601.817 74L601.095 48.2016H604.021L604.744 74H601.817ZM620.051 72.271C620.051 71.7182 620.222 71.2536 620.563 70.8772C620.916 70.4891 621.421 70.295 622.08 70.295C622.739 70.295 623.239 70.4891 623.58 70.8772C623.933 71.2536 624.109 71.7182 624.109 72.271C624.109 72.8121 623.933 73.2708 623.58 73.6471C623.239 74.0235 622.739 74.2117 622.08 74.2117C621.421 74.2117 620.916 74.0235 620.563 73.6471C620.222 73.2708 620.051 72.8121 620.051 72.271ZM641.852 74.7588L642.791 71.7959C645.61 71.7959 648.03 71.7237 650.054 71.5791C652.101 71.4346 653.776 71.2058 655.076 70.8926C656.401 70.5554 657.377 70.1098 658.003 69.5557C658.653 68.9776 658.979 68.2791 658.979 67.4601C658.979 66.5447 658.81 65.4848 658.473 64.2804C658.135 63.076 657.702 61.7873 657.172 60.4143L659.954 59.4387C660.267 60.2095 660.556 61.0406 660.821 61.9318C661.11 62.799 661.351 63.6662 661.544 64.5334C661.737 65.3764 661.833 66.1593 661.833 66.882C661.833 68.3032 661.508 69.5196 660.857 70.5313C660.207 71.5189 659.123 72.3259 657.606 72.9522C656.088 73.5785 654.04 74.0361 651.463 74.3252C648.91 74.6142 645.706 74.7588 641.852 74.7588ZM641.852 74.7588C639.708 74.7588 637.817 74.6142 636.179 74.3252C634.565 74.0602 633.216 73.6387 632.132 73.0606C631.048 72.4824 630.229 71.7357 629.675 70.8204C629.121 69.8809 628.844 68.7488 628.844 67.4239C628.844 66.8217 628.892 66.2075 628.989 65.5812C629.085 64.9308 629.206 64.2804 629.35 63.6301C629.519 62.9797 629.687 62.3534 629.856 61.7512L632.566 62.4377C632.47 62.799 632.361 63.2326 632.241 63.7385C632.12 64.2202 632.012 64.714 631.916 65.2199C631.843 65.7257 631.807 66.1834 631.807 66.5929C631.807 67.8455 632.12 68.8572 632.747 69.628C633.397 70.3747 634.517 70.9288 636.107 71.2901C637.697 71.6273 639.925 71.7959 642.791 71.7959L643.514 73.6025L641.852 74.7588ZM647.886 59.511C647.38 59.511 646.947 59.3424 646.585 59.0051C646.248 58.6438 646.079 58.2223 646.079 57.7405C646.079 57.2587 646.248 56.8372 646.585 56.4759C646.947 56.1146 647.38 55.9339 647.886 55.9339C648.368 55.9339 648.777 56.1146 649.114 56.4759C649.476 56.8372 649.656 57.2587 649.656 57.7405C649.656 58.2223 649.476 58.6438 649.114 59.0051C648.777 59.3424 648.368 59.511 647.886 59.511ZM642.936 59.511C642.43 59.511 641.996 59.3424 641.635 59.0051C641.298 58.6438 641.129 58.2223 641.129 57.7405C641.129 57.2587 641.298 56.8372 641.635 56.4759C641.996 56.1146 642.43 55.9339 642.936 55.9339C643.418 55.9339 643.827 56.1146 644.164 56.4759C644.526 56.8372 644.706 57.2587 644.706 57.7405C644.706 58.2223 644.526 58.6438 644.164 59.0051C643.827 59.3424 643.418 59.511 642.936 59.511ZM674.883 74.1807C672.956 74.1807 671.474 73.9639 670.438 73.5303C669.427 73.0967 668.728 72.4222 668.343 71.5069C667.957 70.5915 667.741 69.4112 667.692 67.9659L666.97 48.2016H669.933L670.655 66.8097C670.703 67.99 670.812 68.9054 670.98 69.5557C671.173 70.182 671.583 70.6156 672.209 70.8565C672.859 71.0974 673.871 71.2178 675.244 71.2178C675.75 71.2178 676.111 71.3623 676.328 71.6514C676.569 71.9164 676.689 72.2416 676.689 72.627C676.689 73.0124 676.521 73.3737 676.183 73.7109C675.846 74.0241 675.413 74.1807 674.883 74.1807ZM675.606 74.1807L675.967 71.2178C677.147 71.2178 678.087 71.1456 678.785 71.001C679.484 70.8565 679.99 70.5674 680.303 70.1339C680.616 69.6762 680.773 69.0017 680.773 68.1105C680.773 67.5082 680.676 66.7976 680.484 65.9787C680.291 65.1356 680.038 64.2443 679.725 63.3049C679.412 62.3654 679.075 61.438 678.713 60.5227L681.64 59.4387C681.953 60.2095 682.242 61.0888 682.507 62.0764C682.796 63.064 683.037 64.0396 683.23 65.0031C683.422 65.9666 683.519 66.8097 683.519 67.5323C683.519 68.4959 683.41 69.351 683.194 70.0977C683.001 70.8204 682.7 71.4467 682.29 71.9766C681.881 72.4824 681.351 72.904 680.7 73.2412C680.074 73.5544 679.339 73.7953 678.496 73.9639C677.653 74.1084 676.69 74.1807 675.606 74.1807ZM680.231 55.681C679.725 55.681 679.291 55.5124 678.93 55.1751C678.593 54.8138 678.424 54.3923 678.424 53.9105C678.424 53.4287 678.593 53.0072 678.93 52.6459C679.291 52.2845 679.725 52.1039 680.231 52.1039C680.713 52.1039 681.122 52.2845 681.459 52.6459C681.821 53.0072 682.001 53.4287 682.001 53.9105C682.001 54.3923 681.821 54.8138 681.459 55.1751C681.122 55.5124 680.713 55.681 680.231 55.681ZM696.546 74.1807C694.619 74.1807 693.138 73.9639 692.102 73.5303C691.09 73.0967 690.392 72.4222 690.007 71.5069C689.621 70.5915 689.404 69.4112 689.356 67.9659L688.634 48.2016H691.596L692.319 66.8097C692.367 67.99 692.476 68.9054 692.644 69.5557C692.837 70.182 693.246 70.6156 693.873 70.8565C694.523 71.0974 695.535 71.2178 696.908 71.2178C697.414 71.2178 697.775 71.3623 697.992 71.6514C698.233 71.9164 698.353 72.2416 698.353 72.627C698.353 73.0124 698.184 73.3737 697.847 73.7109C697.51 74.0241 697.076 74.1807 696.546 74.1807ZM697.27 74.1807L697.631 71.2178C698.835 71.2178 699.775 71.1335 700.449 70.9649C701.124 70.7722 701.63 70.4229 701.967 69.9171C702.328 69.3871 702.617 68.6283 702.834 67.6407C703.051 66.6531 703.316 65.3644 703.629 63.7746L706.447 64.3166C706.351 64.7502 706.242 65.2319 706.122 65.7619C706.002 66.2918 705.893 66.8217 705.797 67.3517C705.725 67.8575 705.688 68.3032 705.688 68.6886C705.688 69.0499 705.713 69.3871 705.761 69.7003C705.809 70.0134 705.99 70.2784 706.303 70.4952C706.616 70.712 707.146 70.8926 707.893 71.0372C708.639 71.1576 709.711 71.2178 711.108 71.2178C711.614 71.2178 711.975 71.3623 712.192 71.6514C712.433 71.9164 712.554 72.2416 712.554 72.627C712.554 73.0124 712.385 73.3737 712.048 73.7109C711.71 74.0241 711.277 74.1807 710.747 74.1807C709.278 74.1807 708.109 74.1084 707.242 73.9639C706.375 73.7953 705.713 73.5544 705.255 73.2412C704.821 72.9281 704.508 72.5427 704.315 72.085C704.147 71.6032 704.014 71.0492 703.918 70.4229L705.002 70.4952C704.617 71.266 704.195 71.8923 703.737 72.3741C703.304 72.8558 702.798 73.2292 702.22 73.4941C701.642 73.7591 700.943 73.9398 700.124 74.0361C699.329 74.1325 698.378 74.1807 697.27 74.1807ZM706.375 81.0096C705.869 81.0096 705.436 80.829 705.074 80.4677C704.737 80.1304 704.568 79.7209 704.568 79.2392C704.568 78.7574 704.737 78.3359 705.074 77.9745C705.436 77.6132 705.869 77.4326 706.375 77.4326C706.857 77.4326 707.266 77.6132 707.603 77.9745C707.965 78.3359 708.145 78.7574 708.145 79.2392C708.145 79.7209 707.965 80.1304 707.603 80.4677C707.266 80.829 706.857 81.0096 706.375 81.0096ZM701.425 81.0096C700.919 81.0096 700.485 80.829 700.124 80.4677C699.787 80.1304 699.618 79.7209 699.618 79.2392C699.618 78.7574 699.787 78.3359 700.124 77.9745C700.485 77.6132 700.919 77.4326 701.425 77.4326C701.907 77.4326 702.316 77.6132 702.653 77.9745C703.015 78.3359 703.195 78.7574 703.195 79.2392C703.195 79.7209 703.015 80.1304 702.653 80.4677C702.316 80.829 701.907 81.0096 701.425 81.0096ZM711.471 74.1807L711.833 71.2178C712.844 71.2178 713.639 71.1335 714.217 70.9649C714.795 70.7722 715.229 70.4229 715.518 69.9171C715.831 69.3871 716.096 68.6283 716.313 67.6407C716.53 66.6531 716.795 65.3644 717.108 63.7746L719.926 64.3166C719.83 64.7502 719.721 65.2319 719.601 65.7619C719.481 66.2918 719.372 66.8217 719.276 67.3517C719.204 67.8575 719.167 68.3032 719.167 68.6886C719.167 69.1703 719.276 69.6039 719.493 69.9893C719.709 70.3747 720.179 70.6758 720.902 70.8926C721.624 71.1094 722.733 71.2178 724.226 71.2178C724.732 71.2178 725.093 71.3623 725.31 71.6514C725.551 71.9164 725.671 72.2416 725.671 72.627C725.671 73.0124 725.503 73.3737 725.165 73.7109C724.828 74.0241 724.395 74.1807 723.865 74.1807C722.299 74.1807 721.07 74.0482 720.179 73.7832C719.288 73.4941 718.638 73.0726 718.228 72.5186C717.819 71.9405 717.542 71.2419 717.397 70.4229L718.481 70.4952C718.096 71.266 717.674 71.8923 717.216 72.3741C716.783 72.8558 716.301 73.2292 715.771 73.4941C715.241 73.7591 714.627 73.9398 713.928 74.0361C713.23 74.1325 712.411 74.1807 711.471 74.1807ZM717.614 80.9013C717.108 80.9013 716.674 80.7206 716.313 80.3593C715.976 80.022 715.807 79.6125 715.807 79.1308C715.807 78.649 715.976 78.2275 716.313 77.8661C716.674 77.5048 717.108 77.3242 717.614 77.3242C718.096 77.3242 718.505 77.5048 718.842 77.8661C719.204 78.2275 719.384 78.649 719.384 79.1308C719.384 79.6125 719.204 80.022 718.842 80.3593C718.505 80.7206 718.096 80.9013 717.614 80.9013ZM724.579 74.1807L724.904 71.2178C726.277 71.2178 727.241 71.0853 727.795 70.8204C728.349 70.5554 728.662 70.0857 728.734 69.4112C728.831 68.7367 728.855 67.7973 728.807 66.5929L728.12 48.2016H731.047L731.769 66.2677C731.818 67.5444 731.769 68.6765 731.625 69.6641C731.504 70.6517 731.191 71.4828 730.685 72.1573C730.204 72.8317 729.469 73.3376 728.481 73.6748C727.518 74.012 726.217 74.1807 724.579 74.1807ZM738.012 74L737.289 48.2016H740.216L740.938 74H738.012Z" fill="#6F6F6F"/>
<path d="M874.013 72.4997C874.648 73.2054 874.648 74.264 873.943 74.8991L871.967 76.8751C871.332 77.5808 870.273 77.5808 869.567 76.8751L862.581 69.8886C862.228 69.5357 862.087 69.1123 862.087 68.6889V67.4892C859.546 69.4651 856.441 70.5943 853.054 70.5943C844.938 70.5943 838.375 64.0312 838.375 55.9156C838.375 47.8705 844.938 41.2369 853.054 41.2369C861.099 41.2369 867.732 47.8705 867.732 55.9156C867.732 59.3735 866.533 62.4786 864.627 64.9486H865.756C866.18 64.9486 866.603 65.1603 866.956 65.4426L874.013 72.4997ZM853.054 64.9486C857.994 64.9486 862.087 60.9261 862.087 55.9156C862.087 50.9756 857.994 46.8825 853.054 46.8825C848.043 46.8825 844.021 50.9756 844.021 55.9156C844.021 60.9261 848.043 64.9486 853.054 64.9486Z" fill="#18A0FB"/>
</svg>
