<svg width="942" height="139" viewBox="0 0 942 139" fill="none" xmlns="http://www.w3.org/2000/svg">
<g filter="url(#filter0_d_98_663)">
<rect x="14" y="20" width="145" height="52" rx="26" fill="#18A0FB"/>
<path d="M55.8789 43.8867V46.6289H46.9727V43.8867H55.8789ZM48.0156 36.9375V54H44.5V36.9375H48.0156ZM58.3867 36.9375V54H54.8828V36.9375H58.3867ZM70.3281 49.5352C70.3281 49.2305 70.2812 48.957 70.1875 48.7148C70.1016 48.4648 69.9375 48.2383 69.6953 48.0352C69.4531 47.8242 69.1133 47.6172 68.6758 47.4141C68.2383 47.2109 67.6719 47 66.9766 46.7812C66.2031 46.5312 65.4688 46.25 64.7734 45.9375C64.0859 45.625 63.4766 45.2617 62.9453 44.8477C62.4219 44.4258 62.0078 43.9375 61.7031 43.3828C61.4062 42.8281 61.2578 42.1836 61.2578 41.4492C61.2578 40.7383 61.4141 40.0938 61.7266 39.5156C62.0391 38.9297 62.4766 38.4297 63.0391 38.0156C63.6016 37.5938 64.2656 37.2695 65.0312 37.043C65.8047 36.8164 66.6523 36.7031 67.5742 36.7031C68.832 36.7031 69.9297 36.9297 70.8672 37.3828C71.8047 37.8359 72.5312 38.457 73.0469 39.2461C73.5703 40.0352 73.832 40.9375 73.832 41.9531H70.3398C70.3398 41.4531 70.2344 41.0156 70.0234 40.6406C69.8203 40.2578 69.5078 39.957 69.0859 39.7383C68.6719 39.5195 68.1484 39.4102 67.5156 39.4102C66.9062 39.4102 66.3984 39.5039 65.9922 39.6914C65.5859 39.8711 65.2812 40.1172 65.0781 40.4297C64.875 40.7344 64.7734 41.0781 64.7734 41.4609C64.7734 41.75 64.8438 42.0117 64.9844 42.2461C65.1328 42.4805 65.3516 42.6992 65.6406 42.9023C65.9297 43.1055 66.2852 43.2969 66.707 43.4766C67.1289 43.6562 67.6172 43.832 68.1719 44.0039C69.1016 44.2852 69.918 44.6016 70.6211 44.9531C71.332 45.3047 71.9258 45.6992 72.4023 46.1367C72.8789 46.5742 73.2383 47.0703 73.4805 47.625C73.7227 48.1797 73.8438 48.8086 73.8438 49.5117C73.8438 50.2539 73.6992 50.918 73.4102 51.5039C73.1211 52.0898 72.7031 52.5859 72.1562 52.9922C71.6094 53.3984 70.957 53.707 70.1992 53.918C69.4414 54.1289 68.5938 54.2344 67.6562 54.2344C66.8125 54.2344 65.9805 54.125 65.1602 53.9062C64.3398 53.6797 63.5938 53.3398 62.9219 52.8867C62.2578 52.4336 61.7266 51.8555 61.3281 51.1523C60.9297 50.4492 60.7305 49.6172 60.7305 48.6562H64.2578C64.2578 49.1875 64.3398 49.6367 64.5039 50.0039C64.668 50.3711 64.8984 50.668 65.1953 50.8945C65.5 51.1211 65.8594 51.2852 66.2734 51.3867C66.6953 51.4883 67.1562 51.5391 67.6562 51.5391C68.2656 51.5391 68.7656 51.4531 69.1562 51.2812C69.5547 51.1094 69.8477 50.8711 70.0352 50.5664C70.2305 50.2617 70.3281 49.918 70.3281 49.5352ZM92.1016 48.3398H95.6055C95.5352 49.4883 95.2188 50.5078 94.6562 51.3984C94.1016 52.2891 93.3242 52.9844 92.3242 53.4844C91.332 53.9844 90.1367 54.2344 88.7383 54.2344C87.6445 54.2344 86.6641 54.0469 85.7969 53.6719C84.9297 53.2891 84.1875 52.7422 83.5703 52.0312C82.9609 51.3203 82.4961 50.4609 82.1758 49.4531C81.8555 48.4453 81.6953 47.3164 81.6953 46.0664V44.8828C81.6953 43.6328 81.8594 42.5039 82.1875 41.4961C82.5234 40.4805 83 39.6172 83.6172 38.9062C84.2422 38.1953 84.9883 37.6484 85.8555 37.2656C86.7227 36.8828 87.6914 36.6914 88.7617 36.6914C90.1836 36.6914 91.3828 36.9492 92.3594 37.4648C93.3438 37.9805 94.1055 38.6914 94.6445 39.5977C95.1914 40.5039 95.5195 41.5352 95.6289 42.6914H92.1133C92.0742 42.0039 91.9375 41.4219 91.7031 40.9453C91.4688 40.4609 91.1133 40.0977 90.6367 39.8555C90.168 39.6055 89.543 39.4805 88.7617 39.4805C88.1758 39.4805 87.6641 39.5898 87.2266 39.8086C86.7891 40.0273 86.4219 40.3594 86.125 40.8047C85.8281 41.25 85.6055 41.8125 85.457 42.4922C85.3164 43.1641 85.2461 43.9531 85.2461 44.8594V46.0664C85.2461 46.9492 85.3125 47.7266 85.4453 48.3984C85.5781 49.0625 85.7812 49.625 86.0547 50.0859C86.3359 50.5391 86.6953 50.8828 87.1328 51.1172C87.5781 51.3438 88.1133 51.457 88.7383 51.457C89.4727 51.457 90.0781 51.3398 90.5547 51.1055C91.0312 50.8711 91.3945 50.5234 91.6445 50.0625C91.9023 49.6016 92.0547 49.0273 92.1016 48.3398ZM97.1641 47.7891V47.543C97.1641 46.6133 97.2969 45.7578 97.5625 44.9766C97.8281 44.1875 98.2148 43.5039 98.7227 42.9258C99.2305 42.3477 99.8555 41.8984 100.598 41.5781C101.34 41.25 102.191 41.0859 103.152 41.0859C104.113 41.0859 104.969 41.25 105.719 41.5781C106.469 41.8984 107.098 42.3477 107.605 42.9258C108.121 43.5039 108.512 44.1875 108.777 44.9766C109.043 45.7578 109.176 46.6133 109.176 47.543V47.7891C109.176 48.7109 109.043 49.5664 108.777 50.3555C108.512 51.1367 108.121 51.8203 107.605 52.4062C107.098 52.9844 106.473 53.4336 105.73 53.7539C104.988 54.0742 104.137 54.2344 103.176 54.2344C102.215 54.2344 101.359 54.0742 100.609 53.7539C99.8672 53.4336 99.2383 52.9844 98.7227 52.4062C98.2148 51.8203 97.8281 51.1367 97.5625 50.3555C97.2969 49.5664 97.1641 48.7109 97.1641 47.7891ZM100.539 47.543V47.7891C100.539 48.3203 100.586 48.8164 100.68 49.2773C100.773 49.7383 100.922 50.1445 101.125 50.4961C101.336 50.8398 101.609 51.1094 101.945 51.3047C102.281 51.5 102.691 51.5977 103.176 51.5977C103.645 51.5977 104.047 51.5 104.383 51.3047C104.719 51.1094 104.988 50.8398 105.191 50.4961C105.395 50.1445 105.543 49.7383 105.637 49.2773C105.738 48.8164 105.789 48.3203 105.789 47.7891V47.543C105.789 47.0273 105.738 46.543 105.637 46.0898C105.543 45.6289 105.391 45.2227 105.18 44.8711C104.977 44.5117 104.707 44.2305 104.371 44.0273C104.035 43.8242 103.629 43.7227 103.152 43.7227C102.676 43.7227 102.27 43.8242 101.934 44.0273C101.605 44.2305 101.336 44.5117 101.125 44.8711C100.922 45.2227 100.773 45.6289 100.68 46.0898C100.586 46.543 100.539 47.0273 100.539 47.543ZM118.738 51.2344V36H122.137V54H119.078L118.738 51.2344ZM110.723 47.8125V47.5664C110.723 46.5977 110.832 45.7188 111.051 44.9297C111.27 44.1328 111.59 43.4492 112.012 42.8789C112.434 42.3086 112.953 41.8672 113.57 41.5547C114.188 41.2422 114.891 41.0859 115.68 41.0859C116.422 41.0859 117.07 41.2422 117.625 41.5547C118.188 41.8672 118.664 42.3125 119.055 42.8906C119.453 43.4609 119.773 44.1367 120.016 44.918C120.258 45.6914 120.434 46.5391 120.543 47.4609V48C120.434 48.8828 120.258 49.7031 120.016 50.4609C119.773 51.2188 119.453 51.8828 119.055 52.4531C118.664 53.0156 118.188 53.4531 117.625 53.7656C117.062 54.0781 116.406 54.2344 115.656 54.2344C114.867 54.2344 114.164 54.0742 113.547 53.7539C112.938 53.4336 112.422 52.9844 112 52.4062C111.586 51.8281 111.27 51.1484 111.051 50.3672C110.832 49.5859 110.723 48.7344 110.723 47.8125ZM114.098 47.5664V47.8125C114.098 48.3359 114.137 48.8242 114.215 49.2773C114.301 49.7305 114.438 50.1328 114.625 50.4844C114.82 50.8281 115.07 51.0977 115.375 51.293C115.688 51.4805 116.066 51.5742 116.512 51.5742C117.09 51.5742 117.566 51.4453 117.941 51.1875C118.316 50.9219 118.602 50.5586 118.797 50.0977C119 49.6367 119.117 49.1055 119.148 48.5039V46.9688C119.125 46.4766 119.055 46.0352 118.938 45.6445C118.828 45.2461 118.664 44.9062 118.445 44.625C118.234 44.3438 117.969 44.125 117.648 43.9688C117.336 43.8125 116.965 43.7344 116.535 43.7344C116.098 43.7344 115.723 43.8359 115.41 44.0391C115.098 44.2344 114.844 44.5039 114.648 44.8477C114.461 45.1914 114.32 45.5977 114.227 46.0664C114.141 46.5273 114.098 47.0273 114.098 47.5664ZM130.609 54.2344C129.625 54.2344 128.742 54.0781 127.961 53.7656C127.18 53.4453 126.516 53.0039 125.969 52.4414C125.43 51.8789 125.016 51.2266 124.727 50.4844C124.438 49.7344 124.293 48.9375 124.293 48.0938V47.625C124.293 46.6641 124.43 45.7852 124.703 44.9883C124.977 44.1914 125.367 43.5 125.875 42.9141C126.391 42.3281 127.016 41.8789 127.75 41.5664C128.484 41.2461 129.312 41.0859 130.234 41.0859C131.133 41.0859 131.93 41.2344 132.625 41.5312C133.32 41.8281 133.902 42.25 134.371 42.7969C134.848 43.3438 135.207 44 135.449 44.7656C135.691 45.5234 135.812 46.3672 135.812 47.2969V48.7031H125.734V46.4531H132.496V46.1953C132.496 45.7266 132.41 45.3086 132.238 44.9414C132.074 44.5664 131.824 44.2695 131.488 44.0508C131.152 43.832 130.723 43.7227 130.199 43.7227C129.754 43.7227 129.371 43.8203 129.051 44.0156C128.73 44.2109 128.469 44.4844 128.266 44.8359C128.07 45.1875 127.922 45.6016 127.82 46.0781C127.727 46.5469 127.68 47.0625 127.68 47.625V48.0938C127.68 48.6016 127.75 49.0703 127.891 49.5C128.039 49.9297 128.246 50.3008 128.512 50.6133C128.785 50.9258 129.113 51.168 129.496 51.3398C129.887 51.5117 130.328 51.5977 130.82 51.5977C131.43 51.5977 131.996 51.4805 132.52 51.2461C133.051 51.0039 133.508 50.6406 133.891 50.1562L135.531 51.9375C135.266 52.3203 134.902 52.6875 134.441 53.0391C133.988 53.3906 133.441 53.6797 132.801 53.9062C132.16 54.125 131.43 54.2344 130.609 54.2344Z" fill="white"/>
<rect x="167" y="20" width="154" height="52" rx="26" fill="#18A0FB"/>
<path d="M193.262 36.9375V54H189.758V36.9375H193.262ZM205.438 49.5352C205.438 49.2305 205.391 48.957 205.297 48.7148C205.211 48.4648 205.047 48.2383 204.805 48.0352C204.562 47.8242 204.223 47.6172 203.785 47.4141C203.348 47.2109 202.781 47 202.086 46.7812C201.312 46.5312 200.578 46.25 199.883 45.9375C199.195 45.625 198.586 45.2617 198.055 44.8477C197.531 44.4258 197.117 43.9375 196.812 43.3828C196.516 42.8281 196.367 42.1836 196.367 41.4492C196.367 40.7383 196.523 40.0938 196.836 39.5156C197.148 38.9297 197.586 38.4297 198.148 38.0156C198.711 37.5938 199.375 37.2695 200.141 37.043C200.914 36.8164 201.762 36.7031 202.684 36.7031C203.941 36.7031 205.039 36.9297 205.977 37.3828C206.914 37.8359 207.641 38.457 208.156 39.2461C208.68 40.0352 208.941 40.9375 208.941 41.9531H205.449C205.449 41.4531 205.344 41.0156 205.133 40.6406C204.93 40.2578 204.617 39.957 204.195 39.7383C203.781 39.5195 203.258 39.4102 202.625 39.4102C202.016 39.4102 201.508 39.5039 201.102 39.6914C200.695 39.8711 200.391 40.1172 200.188 40.4297C199.984 40.7344 199.883 41.0781 199.883 41.4609C199.883 41.75 199.953 42.0117 200.094 42.2461C200.242 42.4805 200.461 42.6992 200.75 42.9023C201.039 43.1055 201.395 43.2969 201.816 43.4766C202.238 43.6562 202.727 43.832 203.281 44.0039C204.211 44.2852 205.027 44.6016 205.73 44.9531C206.441 45.3047 207.035 45.6992 207.512 46.1367C207.988 46.5742 208.348 47.0703 208.59 47.625C208.832 48.1797 208.953 48.8086 208.953 49.5117C208.953 50.2539 208.809 50.918 208.52 51.5039C208.23 52.0898 207.812 52.5859 207.266 52.9922C206.719 53.3984 206.066 53.707 205.309 53.918C204.551 54.1289 203.703 54.2344 202.766 54.2344C201.922 54.2344 201.09 54.125 200.27 53.9062C199.449 53.6797 198.703 53.3398 198.031 52.8867C197.367 52.4336 196.836 51.8555 196.438 51.1523C196.039 50.4492 195.84 49.6172 195.84 48.6562H199.367C199.367 49.1875 199.449 49.6367 199.613 50.0039C199.777 50.3711 200.008 50.668 200.305 50.8945C200.609 51.1211 200.969 51.2852 201.383 51.3867C201.805 51.4883 202.266 51.5391 202.766 51.5391C203.375 51.5391 203.875 51.4531 204.266 51.2812C204.664 51.1094 204.957 50.8711 205.145 50.5664C205.34 50.2617 205.438 49.918 205.438 49.5352ZM215.082 36.9375V54H211.578V36.9375H215.082ZM228.266 48.3398H231.77C231.699 49.4883 231.383 50.5078 230.82 51.3984C230.266 52.2891 229.488 52.9844 228.488 53.4844C227.496 53.9844 226.301 54.2344 224.902 54.2344C223.809 54.2344 222.828 54.0469 221.961 53.6719C221.094 53.2891 220.352 52.7422 219.734 52.0312C219.125 51.3203 218.66 50.4609 218.34 49.4531C218.02 48.4453 217.859 47.3164 217.859 46.0664V44.8828C217.859 43.6328 218.023 42.5039 218.352 41.4961C218.688 40.4805 219.164 39.6172 219.781 38.9062C220.406 38.1953 221.152 37.6484 222.02 37.2656C222.887 36.8828 223.855 36.6914 224.926 36.6914C226.348 36.6914 227.547 36.9492 228.523 37.4648C229.508 37.9805 230.27 38.6914 230.809 39.5977C231.355 40.5039 231.684 41.5352 231.793 42.6914H228.277C228.238 42.0039 228.102 41.4219 227.867 40.9453C227.633 40.4609 227.277 40.0977 226.801 39.8555C226.332 39.6055 225.707 39.4805 224.926 39.4805C224.34 39.4805 223.828 39.5898 223.391 39.8086C222.953 40.0273 222.586 40.3594 222.289 40.8047C221.992 41.25 221.77 41.8125 221.621 42.4922C221.48 43.1641 221.41 43.9531 221.41 44.8594V46.0664C221.41 46.9492 221.477 47.7266 221.609 48.3984C221.742 49.0625 221.945 49.625 222.219 50.0859C222.5 50.5391 222.859 50.8828 223.297 51.1172C223.742 51.3438 224.277 51.457 224.902 51.457C225.637 51.457 226.242 51.3398 226.719 51.1055C227.195 50.8711 227.559 50.5234 227.809 50.0625C228.066 49.6016 228.219 49.0273 228.266 48.3398ZM249.945 48.3398H253.449C253.379 49.4883 253.062 50.5078 252.5 51.3984C251.945 52.2891 251.168 52.9844 250.168 53.4844C249.176 53.9844 247.98 54.2344 246.582 54.2344C245.488 54.2344 244.508 54.0469 243.641 53.6719C242.773 53.2891 242.031 52.7422 241.414 52.0312C240.805 51.3203 240.34 50.4609 240.02 49.4531C239.699 48.4453 239.539 47.3164 239.539 46.0664V44.8828C239.539 43.6328 239.703 42.5039 240.031 41.4961C240.367 40.4805 240.844 39.6172 241.461 38.9062C242.086 38.1953 242.832 37.6484 243.699 37.2656C244.566 36.8828 245.535 36.6914 246.605 36.6914C248.027 36.6914 249.227 36.9492 250.203 37.4648C251.188 37.9805 251.949 38.6914 252.488 39.5977C253.035 40.5039 253.363 41.5352 253.473 42.6914H249.957C249.918 42.0039 249.781 41.4219 249.547 40.9453C249.312 40.4609 248.957 40.0977 248.48 39.8555C248.012 39.6055 247.387 39.4805 246.605 39.4805C246.02 39.4805 245.508 39.5898 245.07 39.8086C244.633 40.0273 244.266 40.3594 243.969 40.8047C243.672 41.25 243.449 41.8125 243.301 42.4922C243.16 43.1641 243.09 43.9531 243.09 44.8594V46.0664C243.09 46.9492 243.156 47.7266 243.289 48.3984C243.422 49.0625 243.625 49.625 243.898 50.0859C244.18 50.5391 244.539 50.8828 244.977 51.1172C245.422 51.3438 245.957 51.457 246.582 51.457C247.316 51.457 247.922 51.3398 248.398 51.1055C248.875 50.8711 249.238 50.5234 249.488 50.0625C249.746 49.6016 249.898 49.0273 249.945 48.3398ZM269.773 45.0703V45.8789C269.773 47.1758 269.598 48.3398 269.246 49.3711C268.895 50.4023 268.398 51.2812 267.758 52.0078C267.117 52.7266 266.352 53.2773 265.461 53.6602C264.578 54.043 263.598 54.2344 262.52 54.2344C261.449 54.2344 260.469 54.043 259.578 53.6602C258.695 53.2773 257.93 52.7266 257.281 52.0078C256.633 51.2812 256.129 50.4023 255.77 49.3711C255.418 48.3398 255.242 47.1758 255.242 45.8789V45.0703C255.242 43.7656 255.418 42.6016 255.77 41.5781C256.121 40.5469 256.617 39.668 257.258 38.9414C257.906 38.2148 258.672 37.6602 259.555 37.2773C260.445 36.8945 261.426 36.7031 262.496 36.7031C263.574 36.7031 264.555 36.8945 265.438 37.2773C266.328 37.6602 267.094 38.2148 267.734 38.9414C268.383 39.668 268.883 40.5469 269.234 41.5781C269.594 42.6016 269.773 43.7656 269.773 45.0703ZM266.223 45.8789V45.0469C266.223 44.1406 266.141 43.3438 265.977 42.6562C265.812 41.9688 265.57 41.3906 265.25 40.9219C264.93 40.4531 264.539 40.1016 264.078 39.8672C263.617 39.625 263.09 39.5039 262.496 39.5039C261.902 39.5039 261.375 39.625 260.914 39.8672C260.461 40.1016 260.074 40.4531 259.754 40.9219C259.441 41.3906 259.203 41.9688 259.039 42.6562C258.875 43.3438 258.793 44.1406 258.793 45.0469V45.8789C258.793 46.7773 258.875 47.5742 259.039 48.2695C259.203 48.957 259.445 49.5391 259.766 50.0156C260.086 50.4844 260.477 50.8398 260.938 51.082C261.398 51.3242 261.926 51.4453 262.52 51.4453C263.113 51.4453 263.641 51.3242 264.102 51.082C264.562 50.8398 264.949 50.4844 265.262 50.0156C265.574 49.5391 265.812 48.957 265.977 48.2695C266.141 47.5742 266.223 46.7773 266.223 45.8789ZM277.543 54H273.828L273.852 51.2578H277.543C278.465 51.2578 279.242 51.0508 279.875 50.6367C280.508 50.2148 280.984 49.6016 281.305 48.7969C281.633 47.9922 281.797 47.0195 281.797 45.8789V45.0469C281.797 44.1719 281.703 43.4023 281.516 42.7383C281.336 42.0742 281.066 41.5156 280.707 41.0625C280.348 40.6094 279.906 40.2695 279.383 40.043C278.859 39.8086 278.258 39.6914 277.578 39.6914H273.758V36.9375H277.578C278.719 36.9375 279.762 37.1328 280.707 37.5234C281.66 37.9062 282.484 38.457 283.18 39.1758C283.875 39.8945 284.41 40.7539 284.785 41.7539C285.168 42.7461 285.359 43.8516 285.359 45.0703V45.8789C285.359 47.0898 285.168 48.1953 284.785 49.1953C284.41 50.1953 283.875 51.0547 283.18 51.7734C282.492 52.4844 281.668 53.0352 280.707 53.4258C279.754 53.8086 278.699 54 277.543 54ZM275.82 36.9375V54H272.305V36.9375H275.82ZM299.363 51.2578V54H290.281V51.2578H299.363ZM291.43 36.9375V54H287.914V36.9375H291.43ZM298.18 43.8867V46.5586H290.281V43.8867H298.18ZM299.352 36.9375V39.6914H290.281V36.9375H299.352Z" fill="white"/>
<rect x="329" y="20" width="174" height="52" rx="26" fill="#18A0FB"/>
<path d="M353.262 36.9375V54H349.758V36.9375H353.262ZM370.441 36.9375V54H366.926L360.07 42.5625V54H356.555V36.9375H360.07L366.938 48.3867V36.9375H370.441ZM378.738 54H375.023L375.047 51.2578H378.738C379.66 51.2578 380.438 51.0508 381.07 50.6367C381.703 50.2148 382.18 49.6016 382.5 48.7969C382.828 47.9922 382.992 47.0195 382.992 45.8789V45.0469C382.992 44.1719 382.898 43.4023 382.711 42.7383C382.531 42.0742 382.262 41.5156 381.902 41.0625C381.543 40.6094 381.102 40.2695 380.578 40.043C380.055 39.8086 379.453 39.6914 378.773 39.6914H374.953V36.9375H378.773C379.914 36.9375 380.957 37.1328 381.902 37.5234C382.855 37.9062 383.68 38.457 384.375 39.1758C385.07 39.8945 385.605 40.7539 385.98 41.7539C386.363 42.7461 386.555 43.8516 386.555 45.0703V45.8789C386.555 47.0898 386.363 48.1953 385.98 49.1953C385.605 50.1953 385.07 51.0547 384.375 51.7734C383.688 52.4844 382.863 53.0352 381.902 53.4258C380.949 53.8086 379.895 54 378.738 54ZM377.016 36.9375V54H373.5V36.9375H377.016ZM398.531 36.9375H402.035V48.2109C402.035 49.5234 401.754 50.6289 401.191 51.5273C400.637 52.4258 399.867 53.1016 398.883 53.5547C397.906 54.0078 396.781 54.2344 395.508 54.2344C394.234 54.2344 393.102 54.0078 392.109 53.5547C391.125 53.1016 390.352 52.4258 389.789 51.5273C389.234 50.6289 388.957 49.5234 388.957 48.2109V36.9375H392.473V48.2109C392.473 48.9766 392.594 49.6016 392.836 50.0859C393.078 50.5703 393.426 50.9258 393.879 51.1523C394.34 51.3789 394.883 51.4922 395.508 51.4922C396.148 51.4922 396.691 51.3789 397.137 51.1523C397.59 50.9258 397.934 50.5703 398.168 50.0859C398.41 49.6016 398.531 48.9766 398.531 48.2109V36.9375ZM413.812 49.5352C413.812 49.2305 413.766 48.957 413.672 48.7148C413.586 48.4648 413.422 48.2383 413.18 48.0352C412.938 47.8242 412.598 47.6172 412.16 47.4141C411.723 47.2109 411.156 47 410.461 46.7812C409.688 46.5312 408.953 46.25 408.258 45.9375C407.57 45.625 406.961 45.2617 406.43 44.8477C405.906 44.4258 405.492 43.9375 405.188 43.3828C404.891 42.8281 404.742 42.1836 404.742 41.4492C404.742 40.7383 404.898 40.0938 405.211 39.5156C405.523 38.9297 405.961 38.4297 406.523 38.0156C407.086 37.5938 407.75 37.2695 408.516 37.043C409.289 36.8164 410.137 36.7031 411.059 36.7031C412.316 36.7031 413.414 36.9297 414.352 37.3828C415.289 37.8359 416.016 38.457 416.531 39.2461C417.055 40.0352 417.316 40.9375 417.316 41.9531H413.824C413.824 41.4531 413.719 41.0156 413.508 40.6406C413.305 40.2578 412.992 39.957 412.57 39.7383C412.156 39.5195 411.633 39.4102 411 39.4102C410.391 39.4102 409.883 39.5039 409.477 39.6914C409.07 39.8711 408.766 40.1172 408.562 40.4297C408.359 40.7344 408.258 41.0781 408.258 41.4609C408.258 41.75 408.328 42.0117 408.469 42.2461C408.617 42.4805 408.836 42.6992 409.125 42.9023C409.414 43.1055 409.77 43.2969 410.191 43.4766C410.613 43.6562 411.102 43.832 411.656 44.0039C412.586 44.2852 413.402 44.6016 414.105 44.9531C414.816 45.3047 415.41 45.6992 415.887 46.1367C416.363 46.5742 416.723 47.0703 416.965 47.625C417.207 48.1797 417.328 48.8086 417.328 49.5117C417.328 50.2539 417.184 50.918 416.895 51.5039C416.605 52.0898 416.188 52.5859 415.641 52.9922C415.094 53.3984 414.441 53.707 413.684 53.918C412.926 54.1289 412.078 54.2344 411.141 54.2344C410.297 54.2344 409.465 54.125 408.645 53.9062C407.824 53.6797 407.078 53.3398 406.406 52.8867C405.742 52.4336 405.211 51.8555 404.812 51.1523C404.414 50.4492 404.215 49.6172 404.215 48.6562H407.742C407.742 49.1875 407.824 49.6367 407.988 50.0039C408.152 50.3711 408.383 50.668 408.68 50.8945C408.984 51.1211 409.344 51.2852 409.758 51.3867C410.18 51.4883 410.641 51.5391 411.141 51.5391C411.75 51.5391 412.25 51.4531 412.641 51.2812C413.039 51.1094 413.332 50.8711 413.52 50.5664C413.715 50.2617 413.812 49.918 413.812 49.5352ZM427.348 36.9375V54H423.844V36.9375H427.348ZM432.598 36.9375V39.6914H418.676V36.9375H432.598ZM434.602 36.9375H440.965C442.27 36.9375 443.391 37.1328 444.328 37.5234C445.273 37.9141 446 38.4922 446.508 39.2578C447.016 40.0234 447.27 40.9648 447.27 42.082C447.27 42.9961 447.113 43.7812 446.801 44.4375C446.496 45.0859 446.062 45.6289 445.5 46.0664C444.945 46.4961 444.293 46.8398 443.543 47.0977L442.43 47.6836H436.898L436.875 44.9414H440.988C441.605 44.9414 442.117 44.832 442.523 44.6133C442.93 44.3945 443.234 44.0898 443.438 43.6992C443.648 43.3086 443.754 42.8555 443.754 42.3398C443.754 41.793 443.652 41.3203 443.449 40.9219C443.246 40.5234 442.938 40.2188 442.523 40.0078C442.109 39.7969 441.59 39.6914 440.965 39.6914H438.117V54H434.602V36.9375ZM444.141 54L440.25 46.3945L443.965 46.3711L447.902 53.8359V54H444.141ZM453.715 36.9375V54H450.211V36.9375H453.715ZM468.457 51.2578V54H459.375V51.2578H468.457ZM460.523 36.9375V54H457.008V36.9375H460.523ZM467.273 43.8867V46.5586H459.375V43.8867H467.273ZM468.445 36.9375V39.6914H459.375V36.9375H468.445ZM479.391 49.5352C479.391 49.2305 479.344 48.957 479.25 48.7148C479.164 48.4648 479 48.2383 478.758 48.0352C478.516 47.8242 478.176 47.6172 477.738 47.4141C477.301 47.2109 476.734 47 476.039 46.7812C475.266 46.5312 474.531 46.25 473.836 45.9375C473.148 45.625 472.539 45.2617 472.008 44.8477C471.484 44.4258 471.07 43.9375 470.766 43.3828C470.469 42.8281 470.32 42.1836 470.32 41.4492C470.32 40.7383 470.477 40.0938 470.789 39.5156C471.102 38.9297 471.539 38.4297 472.102 38.0156C472.664 37.5938 473.328 37.2695 474.094 37.043C474.867 36.8164 475.715 36.7031 476.637 36.7031C477.895 36.7031 478.992 36.9297 479.93 37.3828C480.867 37.8359 481.594 38.457 482.109 39.2461C482.633 40.0352 482.895 40.9375 482.895 41.9531H479.402C479.402 41.4531 479.297 41.0156 479.086 40.6406C478.883 40.2578 478.57 39.957 478.148 39.7383C477.734 39.5195 477.211 39.4102 476.578 39.4102C475.969 39.4102 475.461 39.5039 475.055 39.6914C474.648 39.8711 474.344 40.1172 474.141 40.4297C473.938 40.7344 473.836 41.0781 473.836 41.4609C473.836 41.75 473.906 42.0117 474.047 42.2461C474.195 42.4805 474.414 42.6992 474.703 42.9023C474.992 43.1055 475.348 43.2969 475.77 43.4766C476.191 43.6562 476.68 43.832 477.234 44.0039C478.164 44.2852 478.98 44.6016 479.684 44.9531C480.395 45.3047 480.988 45.6992 481.465 46.1367C481.941 46.5742 482.301 47.0703 482.543 47.625C482.785 48.1797 482.906 48.8086 482.906 49.5117C482.906 50.2539 482.762 50.918 482.473 51.5039C482.184 52.0898 481.766 52.5859 481.219 52.9922C480.672 53.3984 480.02 53.707 479.262 53.918C478.504 54.1289 477.656 54.2344 476.719 54.2344C475.875 54.2344 475.043 54.125 474.223 53.9062C473.402 53.6797 472.656 53.3398 471.984 52.8867C471.32 52.4336 470.789 51.8555 470.391 51.1523C469.992 50.4492 469.793 49.6172 469.793 48.6562H473.32C473.32 49.1875 473.402 49.6367 473.566 50.0039C473.73 50.3711 473.961 50.668 474.258 50.8945C474.562 51.1211 474.922 51.2852 475.336 51.3867C475.758 51.4883 476.219 51.5391 476.719 51.5391C477.328 51.5391 477.828 51.4531 478.219 51.2812C478.617 51.1094 478.91 50.8711 479.098 50.5664C479.293 50.2617 479.391 49.918 479.391 49.5352Z" fill="white"/>
<rect x="511" y="20" width="127" height="52" rx="26" fill="#18A0FB"/>
<path d="M541.152 36.9375V54H537.648V36.9375H541.152ZM546.402 36.9375V39.6914H532.48V36.9375H546.402ZM562.094 45.0703V45.8789C562.094 47.1758 561.918 48.3398 561.566 49.3711C561.215 50.4023 560.719 51.2812 560.078 52.0078C559.438 52.7266 558.672 53.2773 557.781 53.6602C556.898 54.043 555.918 54.2344 554.84 54.2344C553.77 54.2344 552.789 54.043 551.898 53.6602C551.016 53.2773 550.25 52.7266 549.602 52.0078C548.953 51.2812 548.449 50.4023 548.09 49.3711C547.738 48.3398 547.562 47.1758 547.562 45.8789V45.0703C547.562 43.7656 547.738 42.6016 548.09 41.5781C548.441 40.5469 548.938 39.668 549.578 38.9414C550.227 38.2148 550.992 37.6602 551.875 37.2773C552.766 36.8945 553.746 36.7031 554.816 36.7031C555.895 36.7031 556.875 36.8945 557.758 37.2773C558.648 37.6602 559.414 38.2148 560.055 38.9414C560.703 39.668 561.203 40.5469 561.555 41.5781C561.914 42.6016 562.094 43.7656 562.094 45.0703ZM558.543 45.8789V45.0469C558.543 44.1406 558.461 43.3438 558.297 42.6562C558.133 41.9688 557.891 41.3906 557.57 40.9219C557.25 40.4531 556.859 40.1016 556.398 39.8672C555.938 39.625 555.41 39.5039 554.816 39.5039C554.223 39.5039 553.695 39.625 553.234 39.8672C552.781 40.1016 552.395 40.4531 552.074 40.9219C551.762 41.3906 551.523 41.9688 551.359 42.6562C551.195 43.3438 551.113 44.1406 551.113 45.0469V45.8789C551.113 46.7773 551.195 47.5742 551.359 48.2695C551.523 48.957 551.766 49.5391 552.086 50.0156C552.406 50.4844 552.797 50.8398 553.258 51.082C553.719 51.3242 554.246 51.4453 554.84 51.4453C555.434 51.4453 555.961 51.3242 556.422 51.082C556.883 50.8398 557.27 50.4844 557.582 50.0156C557.895 49.5391 558.133 48.957 558.297 48.2695C558.461 47.5742 558.543 46.7773 558.543 45.8789ZM571.27 47.918H566.922V45.1758H571.27C571.941 45.1758 572.488 45.0664 572.91 44.8477C573.332 44.6211 573.641 44.3086 573.836 43.9102C574.031 43.5117 574.129 43.0625 574.129 42.5625C574.129 42.0547 574.031 41.582 573.836 41.1445C573.641 40.707 573.332 40.3555 572.91 40.0898C572.488 39.8242 571.941 39.6914 571.27 39.6914H568.141V54H564.625V36.9375H571.27C572.605 36.9375 573.75 37.1797 574.703 37.6641C575.664 38.1406 576.398 38.8008 576.906 39.6445C577.414 40.4883 577.668 41.4531 577.668 42.5391C577.668 43.6406 577.414 44.5938 576.906 45.3984C576.398 46.2031 575.664 46.8242 574.703 47.2617C573.75 47.6992 572.605 47.918 571.27 47.918ZM583.832 36.9375V54H580.328V36.9375H583.832ZM597.016 48.3398H600.52C600.449 49.4883 600.133 50.5078 599.57 51.3984C599.016 52.2891 598.238 52.9844 597.238 53.4844C596.246 53.9844 595.051 54.2344 593.652 54.2344C592.559 54.2344 591.578 54.0469 590.711 53.6719C589.844 53.2891 589.102 52.7422 588.484 52.0312C587.875 51.3203 587.41 50.4609 587.09 49.4531C586.77 48.4453 586.609 47.3164 586.609 46.0664V44.8828C586.609 43.6328 586.773 42.5039 587.102 41.4961C587.438 40.4805 587.914 39.6172 588.531 38.9062C589.156 38.1953 589.902 37.6484 590.77 37.2656C591.637 36.8828 592.605 36.6914 593.676 36.6914C595.098 36.6914 596.297 36.9492 597.273 37.4648C598.258 37.9805 599.02 38.6914 599.559 39.5977C600.105 40.5039 600.434 41.5352 600.543 42.6914H597.027C596.988 42.0039 596.852 41.4219 596.617 40.9453C596.383 40.4609 596.027 40.0977 595.551 39.8555C595.082 39.6055 594.457 39.4805 593.676 39.4805C593.09 39.4805 592.578 39.5898 592.141 39.8086C591.703 40.0273 591.336 40.3594 591.039 40.8047C590.742 41.25 590.52 41.8125 590.371 42.4922C590.23 43.1641 590.16 43.9531 590.16 44.8594V46.0664C590.16 46.9492 590.227 47.7266 590.359 48.3984C590.492 49.0625 590.695 49.625 590.969 50.0859C591.25 50.5391 591.609 50.8828 592.047 51.1172C592.492 51.3438 593.027 51.457 593.652 51.457C594.387 51.457 594.992 51.3398 595.469 51.1055C595.945 50.8711 596.309 50.5234 596.559 50.0625C596.816 49.6016 596.969 49.0273 597.016 48.3398ZM611.711 49.5352C611.711 49.2305 611.664 48.957 611.57 48.7148C611.484 48.4648 611.32 48.2383 611.078 48.0352C610.836 47.8242 610.496 47.6172 610.059 47.4141C609.621 47.2109 609.055 47 608.359 46.7812C607.586 46.5312 606.852 46.25 606.156 45.9375C605.469 45.625 604.859 45.2617 604.328 44.8477C603.805 44.4258 603.391 43.9375 603.086 43.3828C602.789 42.8281 602.641 42.1836 602.641 41.4492C602.641 40.7383 602.797 40.0938 603.109 39.5156C603.422 38.9297 603.859 38.4297 604.422 38.0156C604.984 37.5938 605.648 37.2695 606.414 37.043C607.188 36.8164 608.035 36.7031 608.957 36.7031C610.215 36.7031 611.312 36.9297 612.25 37.3828C613.188 37.8359 613.914 38.457 614.43 39.2461C614.953 40.0352 615.215 40.9375 615.215 41.9531H611.723C611.723 41.4531 611.617 41.0156 611.406 40.6406C611.203 40.2578 610.891 39.957 610.469 39.7383C610.055 39.5195 609.531 39.4102 608.898 39.4102C608.289 39.4102 607.781 39.5039 607.375 39.6914C606.969 39.8711 606.664 40.1172 606.461 40.4297C606.258 40.7344 606.156 41.0781 606.156 41.4609C606.156 41.75 606.227 42.0117 606.367 42.2461C606.516 42.4805 606.734 42.6992 607.023 42.9023C607.312 43.1055 607.668 43.2969 608.09 43.4766C608.512 43.6562 609 43.832 609.555 44.0039C610.484 44.2852 611.301 44.6016 612.004 44.9531C612.715 45.3047 613.309 45.6992 613.785 46.1367C614.262 46.5742 614.621 47.0703 614.863 47.625C615.105 48.1797 615.227 48.8086 615.227 49.5117C615.227 50.2539 615.082 50.918 614.793 51.5039C614.504 52.0898 614.086 52.5859 613.539 52.9922C612.992 53.3984 612.34 53.707 611.582 53.918C610.824 54.1289 609.977 54.2344 609.039 54.2344C608.195 54.2344 607.363 54.125 606.543 53.9062C605.723 53.6797 604.977 53.3398 604.305 52.8867C603.641 52.4336 603.109 51.8555 602.711 51.1523C602.312 50.4492 602.113 49.6172 602.113 48.6562H605.641C605.641 49.1875 605.723 49.6367 605.887 50.0039C606.051 50.3711 606.281 50.668 606.578 50.8945C606.883 51.1211 607.242 51.2852 607.656 51.3867C608.078 51.4883 608.539 51.5391 609.039 51.5391C609.648 51.5391 610.148 51.4531 610.539 51.2812C610.938 51.1094 611.23 50.8711 611.418 50.5664C611.613 50.2617 611.711 49.918 611.711 49.5352Z" fill="white"/>
<rect x="646" y="20" width="174" height="52" rx="26" fill="#18A0FB"/>
<path d="M679.414 48.3398H682.918C682.848 49.4883 682.531 50.5078 681.969 51.3984C681.414 52.2891 680.637 52.9844 679.637 53.4844C678.645 53.9844 677.449 54.2344 676.051 54.2344C674.957 54.2344 673.977 54.0469 673.109 53.6719C672.242 53.2891 671.5 52.7422 670.883 52.0312C670.273 51.3203 669.809 50.4609 669.488 49.4531C669.168 48.4453 669.008 47.3164 669.008 46.0664V44.8828C669.008 43.6328 669.172 42.5039 669.5 41.4961C669.836 40.4805 670.312 39.6172 670.93 38.9062C671.555 38.1953 672.301 37.6484 673.168 37.2656C674.035 36.8828 675.004 36.6914 676.074 36.6914C677.496 36.6914 678.695 36.9492 679.672 37.4648C680.656 37.9805 681.418 38.6914 681.957 39.5977C682.504 40.5039 682.832 41.5352 682.941 42.6914H679.426C679.387 42.0039 679.25 41.4219 679.016 40.9453C678.781 40.4609 678.426 40.0977 677.949 39.8555C677.48 39.6055 676.855 39.4805 676.074 39.4805C675.488 39.4805 674.977 39.5898 674.539 39.8086C674.102 40.0273 673.734 40.3594 673.438 40.8047C673.141 41.25 672.918 41.8125 672.77 42.4922C672.629 43.1641 672.559 43.9531 672.559 44.8594V46.0664C672.559 46.9492 672.625 47.7266 672.758 48.3984C672.891 49.0625 673.094 49.625 673.367 50.0859C673.648 50.5391 674.008 50.8828 674.445 51.1172C674.891 51.3438 675.426 51.457 676.051 51.457C676.785 51.457 677.391 51.3398 677.867 51.1055C678.344 50.8711 678.707 50.5234 678.957 50.0625C679.215 49.6016 679.367 49.0273 679.414 48.3398ZM699.242 45.0703V45.8789C699.242 47.1758 699.066 48.3398 698.715 49.3711C698.363 50.4023 697.867 51.2812 697.227 52.0078C696.586 52.7266 695.82 53.2773 694.93 53.6602C694.047 54.043 693.066 54.2344 691.988 54.2344C690.918 54.2344 689.938 54.043 689.047 53.6602C688.164 53.2773 687.398 52.7266 686.75 52.0078C686.102 51.2812 685.598 50.4023 685.238 49.3711C684.887 48.3398 684.711 47.1758 684.711 45.8789V45.0703C684.711 43.7656 684.887 42.6016 685.238 41.5781C685.59 40.5469 686.086 39.668 686.727 38.9414C687.375 38.2148 688.141 37.6602 689.023 37.2773C689.914 36.8945 690.895 36.7031 691.965 36.7031C693.043 36.7031 694.023 36.8945 694.906 37.2773C695.797 37.6602 696.562 38.2148 697.203 38.9414C697.852 39.668 698.352 40.5469 698.703 41.5781C699.062 42.6016 699.242 43.7656 699.242 45.0703ZM695.691 45.8789V45.0469C695.691 44.1406 695.609 43.3438 695.445 42.6562C695.281 41.9688 695.039 41.3906 694.719 40.9219C694.398 40.4531 694.008 40.1016 693.547 39.8672C693.086 39.625 692.559 39.5039 691.965 39.5039C691.371 39.5039 690.844 39.625 690.383 39.8672C689.93 40.1016 689.543 40.4531 689.223 40.9219C688.91 41.3906 688.672 41.9688 688.508 42.6562C688.344 43.3438 688.262 44.1406 688.262 45.0469V45.8789C688.262 46.7773 688.344 47.5742 688.508 48.2695C688.672 48.957 688.914 49.5391 689.234 50.0156C689.555 50.4844 689.945 50.8398 690.406 51.082C690.867 51.3242 691.395 51.4453 691.988 51.4453C692.582 51.4453 693.109 51.3242 693.57 51.082C694.031 50.8398 694.418 50.4844 694.73 50.0156C695.043 49.5391 695.281 48.957 695.445 48.2695C695.609 47.5742 695.691 46.7773 695.691 45.8789ZM711.195 36.9375H714.699V48.2109C714.699 49.5234 714.418 50.6289 713.855 51.5273C713.301 52.4258 712.531 53.1016 711.547 53.5547C710.57 54.0078 709.445 54.2344 708.172 54.2344C706.898 54.2344 705.766 54.0078 704.773 53.5547C703.789 53.1016 703.016 52.4258 702.453 51.5273C701.898 50.6289 701.621 49.5234 701.621 48.2109V36.9375H705.137V48.2109C705.137 48.9766 705.258 49.6016 705.5 50.0859C705.742 50.5703 706.09 50.9258 706.543 51.1523C707.004 51.3789 707.547 51.4922 708.172 51.4922C708.812 51.4922 709.355 51.3789 709.801 51.1523C710.254 50.9258 710.598 50.5703 710.832 50.0859C711.074 49.6016 711.195 48.9766 711.195 48.2109V36.9375ZM731.48 36.9375V54H727.965L721.109 42.5625V54H717.594V36.9375H721.109L727.977 48.3867V36.9375H731.48ZM741.816 36.9375V54H738.312V36.9375H741.816ZM747.066 36.9375V39.6914H733.145V36.9375H747.066ZM752.809 36.9375V54H749.305V36.9375H752.809ZM756.102 36.9375H762.465C763.77 36.9375 764.891 37.1328 765.828 37.5234C766.773 37.9141 767.5 38.4922 768.008 39.2578C768.516 40.0234 768.77 40.9648 768.77 42.082C768.77 42.9961 768.613 43.7812 768.301 44.4375C767.996 45.0859 767.562 45.6289 767 46.0664C766.445 46.4961 765.793 46.8398 765.043 47.0977L763.93 47.6836H758.398L758.375 44.9414H762.488C763.105 44.9414 763.617 44.832 764.023 44.6133C764.43 44.3945 764.734 44.0898 764.938 43.6992C765.148 43.3086 765.254 42.8555 765.254 42.3398C765.254 41.793 765.152 41.3203 764.949 40.9219C764.746 40.5234 764.438 40.2188 764.023 40.0078C763.609 39.7969 763.09 39.6914 762.465 39.6914H759.617V54H756.102V36.9375ZM765.641 54L761.75 46.3945L765.465 46.3711L769.402 53.8359V54H765.641ZM782.926 51.2578V54H773.844V51.2578H782.926ZM774.992 36.9375V54H771.477V36.9375H774.992ZM781.742 43.8867V46.5586H773.844V43.8867H781.742ZM782.914 36.9375V39.6914H773.844V36.9375H782.914ZM793.859 49.5352C793.859 49.2305 793.812 48.957 793.719 48.7148C793.633 48.4648 793.469 48.2383 793.227 48.0352C792.984 47.8242 792.645 47.6172 792.207 47.4141C791.77 47.2109 791.203 47 790.508 46.7812C789.734 46.5312 789 46.25 788.305 45.9375C787.617 45.625 787.008 45.2617 786.477 44.8477C785.953 44.4258 785.539 43.9375 785.234 43.3828C784.938 42.8281 784.789 42.1836 784.789 41.4492C784.789 40.7383 784.945 40.0938 785.258 39.5156C785.57 38.9297 786.008 38.4297 786.57 38.0156C787.133 37.5938 787.797 37.2695 788.562 37.043C789.336 36.8164 790.184 36.7031 791.105 36.7031C792.363 36.7031 793.461 36.9297 794.398 37.3828C795.336 37.8359 796.062 38.457 796.578 39.2461C797.102 40.0352 797.363 40.9375 797.363 41.9531H793.871C793.871 41.4531 793.766 41.0156 793.555 40.6406C793.352 40.2578 793.039 39.957 792.617 39.7383C792.203 39.5195 791.68 39.4102 791.047 39.4102C790.438 39.4102 789.93 39.5039 789.523 39.6914C789.117 39.8711 788.812 40.1172 788.609 40.4297C788.406 40.7344 788.305 41.0781 788.305 41.4609C788.305 41.75 788.375 42.0117 788.516 42.2461C788.664 42.4805 788.883 42.6992 789.172 42.9023C789.461 43.1055 789.816 43.2969 790.238 43.4766C790.66 43.6562 791.148 43.832 791.703 44.0039C792.633 44.2852 793.449 44.6016 794.152 44.9531C794.863 45.3047 795.457 45.6992 795.934 46.1367C796.41 46.5742 796.77 47.0703 797.012 47.625C797.254 48.1797 797.375 48.8086 797.375 49.5117C797.375 50.2539 797.23 50.918 796.941 51.5039C796.652 52.0898 796.234 52.5859 795.688 52.9922C795.141 53.3984 794.488 53.707 793.73 53.918C792.973 54.1289 792.125 54.2344 791.188 54.2344C790.344 54.2344 789.512 54.125 788.691 53.9062C787.871 53.6797 787.125 53.3398 786.453 52.8867C785.789 52.4336 785.258 51.8555 784.859 51.1523C784.461 50.4492 784.262 49.6172 784.262 48.6562H787.789C787.789 49.1875 787.871 49.6367 788.035 50.0039C788.199 50.3711 788.43 50.668 788.727 50.8945C789.031 51.1211 789.391 51.2852 789.805 51.3867C790.227 51.4883 790.688 51.5391 791.188 51.5391C791.797 51.5391 792.297 51.4531 792.688 51.2812C793.086 51.1094 793.379 50.8711 793.566 50.5664C793.762 50.2617 793.859 49.918 793.859 49.5352Z" fill="white"/>
<rect x="70" y="79" width="265" height="52" rx="26" fill="#18A0FB"/>
<path d="M105.973 110.258V113H96.8906V110.258H105.973ZM98.0391 95.9375V113H94.5234V95.9375H98.0391ZM104.789 102.887V105.559H96.8906V102.887H104.789ZM105.961 95.9375V98.6914H96.8906V95.9375H105.961ZM117.914 107.34H121.418C121.348 108.488 121.031 109.508 120.469 110.398C119.914 111.289 119.137 111.984 118.137 112.484C117.145 112.984 115.949 113.234 114.551 113.234C113.457 113.234 112.477 113.047 111.609 112.672C110.742 112.289 110 111.742 109.383 111.031C108.773 110.32 108.309 109.461 107.988 108.453C107.668 107.445 107.508 106.316 107.508 105.066V103.883C107.508 102.633 107.672 101.504 108 100.496C108.336 99.4805 108.812 98.6172 109.43 97.9062C110.055 97.1953 110.801 96.6484 111.668 96.2656C112.535 95.8828 113.504 95.6914 114.574 95.6914C115.996 95.6914 117.195 95.9492 118.172 96.4648C119.156 96.9805 119.918 97.6914 120.457 98.5977C121.004 99.5039 121.332 100.535 121.441 101.691H117.926C117.887 101.004 117.75 100.422 117.516 99.9453C117.281 99.4609 116.926 99.0977 116.449 98.8555C115.98 98.6055 115.355 98.4805 114.574 98.4805C113.988 98.4805 113.477 98.5898 113.039 98.8086C112.602 99.0273 112.234 99.3594 111.938 99.8047C111.641 100.25 111.418 100.812 111.27 101.492C111.129 102.164 111.059 102.953 111.059 103.859V105.066C111.059 105.949 111.125 106.727 111.258 107.398C111.391 108.062 111.594 108.625 111.867 109.086C112.148 109.539 112.508 109.883 112.945 110.117C113.391 110.344 113.926 110.457 114.551 110.457C115.285 110.457 115.891 110.34 116.367 110.105C116.844 109.871 117.207 109.523 117.457 109.062C117.715 108.602 117.867 108.027 117.914 107.34ZM137.742 104.07V104.879C137.742 106.176 137.566 107.34 137.215 108.371C136.863 109.402 136.367 110.281 135.727 111.008C135.086 111.727 134.32 112.277 133.43 112.66C132.547 113.043 131.566 113.234 130.488 113.234C129.418 113.234 128.438 113.043 127.547 112.66C126.664 112.277 125.898 111.727 125.25 111.008C124.602 110.281 124.098 109.402 123.738 108.371C123.387 107.34 123.211 106.176 123.211 104.879V104.07C123.211 102.766 123.387 101.602 123.738 100.578C124.09 99.5469 124.586 98.668 125.227 97.9414C125.875 97.2148 126.641 96.6602 127.523 96.2773C128.414 95.8945 129.395 95.7031 130.465 95.7031C131.543 95.7031 132.523 95.8945 133.406 96.2773C134.297 96.6602 135.062 97.2148 135.703 97.9414C136.352 98.668 136.852 99.5469 137.203 100.578C137.562 101.602 137.742 102.766 137.742 104.07ZM134.191 104.879V104.047C134.191 103.141 134.109 102.344 133.945 101.656C133.781 100.969 133.539 100.391 133.219 99.9219C132.898 99.4531 132.508 99.1016 132.047 98.8672C131.586 98.625 131.059 98.5039 130.465 98.5039C129.871 98.5039 129.344 98.625 128.883 98.8672C128.43 99.1016 128.043 99.4531 127.723 99.9219C127.41 100.391 127.172 100.969 127.008 101.656C126.844 102.344 126.762 103.141 126.762 104.047V104.879C126.762 105.777 126.844 106.574 127.008 107.27C127.172 107.957 127.414 108.539 127.734 109.016C128.055 109.484 128.445 109.84 128.906 110.082C129.367 110.324 129.895 110.445 130.488 110.445C131.082 110.445 131.609 110.324 132.07 110.082C132.531 109.84 132.918 109.484 133.23 109.016C133.543 108.539 133.781 107.957 133.945 107.27C134.109 106.574 134.191 105.777 134.191 104.879ZM154.16 95.9375V113H150.645L143.789 101.562V113H140.273V95.9375H143.789L150.656 107.387V95.9375H154.16ZM171.234 104.07V104.879C171.234 106.176 171.059 107.34 170.707 108.371C170.355 109.402 169.859 110.281 169.219 111.008C168.578 111.727 167.812 112.277 166.922 112.66C166.039 113.043 165.059 113.234 163.98 113.234C162.91 113.234 161.93 113.043 161.039 112.66C160.156 112.277 159.391 111.727 158.742 111.008C158.094 110.281 157.59 109.402 157.23 108.371C156.879 107.34 156.703 106.176 156.703 104.879V104.07C156.703 102.766 156.879 101.602 157.23 100.578C157.582 99.5469 158.078 98.668 158.719 97.9414C159.367 97.2148 160.133 96.6602 161.016 96.2773C161.906 95.8945 162.887 95.7031 163.957 95.7031C165.035 95.7031 166.016 95.8945 166.898 96.2773C167.789 96.6602 168.555 97.2148 169.195 97.9414C169.844 98.668 170.344 99.5469 170.695 100.578C171.055 101.602 171.234 102.766 171.234 104.07ZM167.684 104.879V104.047C167.684 103.141 167.602 102.344 167.438 101.656C167.273 100.969 167.031 100.391 166.711 99.9219C166.391 99.4531 166 99.1016 165.539 98.8672C165.078 98.625 164.551 98.5039 163.957 98.5039C163.363 98.5039 162.836 98.625 162.375 98.8672C161.922 99.1016 161.535 99.4531 161.215 99.9219C160.902 100.391 160.664 100.969 160.5 101.656C160.336 102.344 160.254 103.141 160.254 104.047V104.879C160.254 105.777 160.336 106.574 160.5 107.27C160.664 107.957 160.906 108.539 161.227 109.016C161.547 109.484 161.938 109.84 162.398 110.082C162.859 110.324 163.387 110.445 163.98 110.445C164.574 110.445 165.102 110.324 165.562 110.082C166.023 109.84 166.41 109.484 166.723 109.016C167.035 108.539 167.273 107.957 167.438 107.27C167.602 106.574 167.684 105.777 167.684 104.879ZM175.371 95.9375H178.348L182.73 108.465L187.113 95.9375H190.09L183.926 113H181.535L175.371 95.9375ZM173.766 95.9375H176.73L177.27 108.148V113H173.766V95.9375ZM188.73 95.9375H191.707V113H188.191V108.148L188.73 95.9375ZM198.527 95.9375V113H195.023V95.9375H198.527ZM211.711 107.34H215.215C215.145 108.488 214.828 109.508 214.266 110.398C213.711 111.289 212.934 111.984 211.934 112.484C210.941 112.984 209.746 113.234 208.348 113.234C207.254 113.234 206.273 113.047 205.406 112.672C204.539 112.289 203.797 111.742 203.18 111.031C202.57 110.32 202.105 109.461 201.785 108.453C201.465 107.445 201.305 106.316 201.305 105.066V103.883C201.305 102.633 201.469 101.504 201.797 100.496C202.133 99.4805 202.609 98.6172 203.227 97.9062C203.852 97.1953 204.598 96.6484 205.465 96.2656C206.332 95.8828 207.301 95.6914 208.371 95.6914C209.793 95.6914 210.992 95.9492 211.969 96.4648C212.953 96.9805 213.715 97.6914 214.254 98.5977C214.801 99.5039 215.129 100.535 215.238 101.691H211.723C211.684 101.004 211.547 100.422 211.312 99.9453C211.078 99.4609 210.723 99.0977 210.246 98.8555C209.777 98.6055 209.152 98.4805 208.371 98.4805C207.785 98.4805 207.273 98.5898 206.836 98.8086C206.398 99.0273 206.031 99.3594 205.734 99.8047C205.438 100.25 205.215 100.812 205.066 101.492C204.926 102.164 204.855 102.953 204.855 103.859V105.066C204.855 105.949 204.922 106.727 205.055 107.398C205.188 108.062 205.391 108.625 205.664 109.086C205.945 109.539 206.305 109.883 206.742 110.117C207.188 110.344 207.723 110.457 208.348 110.457C209.082 110.457 209.688 110.34 210.164 110.105C210.641 109.871 211.004 109.523 211.254 109.062C211.512 108.602 211.664 108.027 211.711 107.34ZM230.18 105.512H225.797L225.773 103.098H229.453C230.102 103.098 230.633 103.016 231.047 102.852C231.461 102.68 231.77 102.434 231.973 102.113C232.184 101.785 232.289 101.387 232.289 100.918C232.289 100.387 232.188 99.957 231.984 99.6289C231.789 99.3008 231.48 99.0625 231.059 98.9141C230.645 98.7656 230.109 98.6914 229.453 98.6914H227.016V113H223.5V95.9375H229.453C230.445 95.9375 231.332 96.0312 232.113 96.2188C232.902 96.4062 233.57 96.6914 234.117 97.0742C234.664 97.457 235.082 97.9414 235.371 98.5273C235.66 99.1055 235.805 99.793 235.805 100.59C235.805 101.293 235.645 101.941 235.324 102.535C235.012 103.129 234.516 103.613 233.836 103.988C233.164 104.363 232.285 104.57 231.199 104.609L230.18 105.512ZM230.027 113H224.836L226.207 110.258H230.027C230.645 110.258 231.148 110.16 231.539 109.965C231.93 109.762 232.219 109.488 232.406 109.145C232.594 108.801 232.688 108.406 232.688 107.961C232.688 107.461 232.602 107.027 232.43 106.66C232.266 106.293 232 106.012 231.633 105.816C231.266 105.613 230.781 105.512 230.18 105.512H226.793L226.816 103.098H231.035L231.844 104.047C232.883 104.031 233.719 104.215 234.352 104.598C234.992 104.973 235.457 105.461 235.746 106.062C236.043 106.664 236.191 107.309 236.191 107.996C236.191 109.09 235.953 110.012 235.477 110.762C235 111.504 234.301 112.062 233.379 112.438C232.465 112.812 231.348 113 230.027 113ZM249.797 110.258V113H241.207V110.258H249.797ZM242.344 95.9375V113H238.828V95.9375H242.344ZM265.055 104.07V104.879C265.055 106.176 264.879 107.34 264.527 108.371C264.176 109.402 263.68 110.281 263.039 111.008C262.398 111.727 261.633 112.277 260.742 112.66C259.859 113.043 258.879 113.234 257.801 113.234C256.73 113.234 255.75 113.043 254.859 112.66C253.977 112.277 253.211 111.727 252.562 111.008C251.914 110.281 251.41 109.402 251.051 108.371C250.699 107.34 250.523 106.176 250.523 104.879V104.07C250.523 102.766 250.699 101.602 251.051 100.578C251.402 99.5469 251.898 98.668 252.539 97.9414C253.188 97.2148 253.953 96.6602 254.836 96.2773C255.727 95.8945 256.707 95.7031 257.777 95.7031C258.855 95.7031 259.836 95.8945 260.719 96.2773C261.609 96.6602 262.375 97.2148 263.016 97.9414C263.664 98.668 264.164 99.5469 264.516 100.578C264.875 101.602 265.055 102.766 265.055 104.07ZM261.504 104.879V104.047C261.504 103.141 261.422 102.344 261.258 101.656C261.094 100.969 260.852 100.391 260.531 99.9219C260.211 99.4531 259.82 99.1016 259.359 98.8672C258.898 98.625 258.371 98.5039 257.777 98.5039C257.184 98.5039 256.656 98.625 256.195 98.8672C255.742 99.1016 255.355 99.4531 255.035 99.9219C254.723 100.391 254.484 100.969 254.32 101.656C254.156 102.344 254.074 103.141 254.074 104.047V104.879C254.074 105.777 254.156 106.574 254.32 107.27C254.484 107.957 254.727 108.539 255.047 109.016C255.367 109.484 255.758 109.84 256.219 110.082C256.68 110.324 257.207 110.445 257.801 110.445C258.395 110.445 258.922 110.324 259.383 110.082C259.844 109.84 260.23 109.484 260.543 109.016C260.855 108.539 261.094 107.957 261.258 107.27C261.422 106.574 261.504 105.777 261.504 104.879ZM277.477 107.34H280.98C280.91 108.488 280.594 109.508 280.031 110.398C279.477 111.289 278.699 111.984 277.699 112.484C276.707 112.984 275.512 113.234 274.113 113.234C273.02 113.234 272.039 113.047 271.172 112.672C270.305 112.289 269.562 111.742 268.945 111.031C268.336 110.32 267.871 109.461 267.551 108.453C267.23 107.445 267.07 106.316 267.07 105.066V103.883C267.07 102.633 267.234 101.504 267.562 100.496C267.898 99.4805 268.375 98.6172 268.992 97.9062C269.617 97.1953 270.363 96.6484 271.23 96.2656C272.098 95.8828 273.066 95.6914 274.137 95.6914C275.559 95.6914 276.758 95.9492 277.734 96.4648C278.719 96.9805 279.48 97.6914 280.02 98.5977C280.566 99.5039 280.895 100.535 281.004 101.691H277.488C277.449 101.004 277.312 100.422 277.078 99.9453C276.844 99.4609 276.488 99.0977 276.012 98.8555C275.543 98.6055 274.918 98.4805 274.137 98.4805C273.551 98.4805 273.039 98.5898 272.602 98.8086C272.164 99.0273 271.797 99.3594 271.5 99.8047C271.203 100.25 270.98 100.812 270.832 101.492C270.691 102.164 270.621 102.953 270.621 103.859V105.066C270.621 105.949 270.688 106.727 270.82 107.398C270.953 108.062 271.156 108.625 271.43 109.086C271.711 109.539 272.07 109.883 272.508 110.117C272.953 110.344 273.488 110.457 274.113 110.457C274.848 110.457 275.453 110.34 275.93 110.105C276.406 109.871 276.77 109.523 277.02 109.062C277.277 108.602 277.43 108.027 277.477 107.34ZM286.805 95.9375V113H283.289V95.9375H286.805ZM297.023 95.9375L290.262 104.363L286.359 108.559L285.727 105.23L288.363 101.621L292.711 95.9375H297.023ZM293.027 113L288 105.113L290.602 102.934L297.188 113H293.027ZM307.43 108.535C307.43 108.23 307.383 107.957 307.289 107.715C307.203 107.465 307.039 107.238 306.797 107.035C306.555 106.824 306.215 106.617 305.777 106.414C305.34 106.211 304.773 106 304.078 105.781C303.305 105.531 302.57 105.25 301.875 104.938C301.188 104.625 300.578 104.262 300.047 103.848C299.523 103.426 299.109 102.938 298.805 102.383C298.508 101.828 298.359 101.184 298.359 100.449C298.359 99.7383 298.516 99.0938 298.828 98.5156C299.141 97.9297 299.578 97.4297 300.141 97.0156C300.703 96.5938 301.367 96.2695 302.133 96.043C302.906 95.8164 303.754 95.7031 304.676 95.7031C305.934 95.7031 307.031 95.9297 307.969 96.3828C308.906 96.8359 309.633 97.457 310.148 98.2461C310.672 99.0352 310.934 99.9375 310.934 100.953H307.441C307.441 100.453 307.336 100.016 307.125 99.6406C306.922 99.2578 306.609 98.957 306.188 98.7383C305.773 98.5195 305.25 98.4102 304.617 98.4102C304.008 98.4102 303.5 98.5039 303.094 98.6914C302.688 98.8711 302.383 99.1172 302.18 99.4297C301.977 99.7344 301.875 100.078 301.875 100.461C301.875 100.75 301.945 101.012 302.086 101.246C302.234 101.48 302.453 101.699 302.742 101.902C303.031 102.105 303.387 102.297 303.809 102.477C304.23 102.656 304.719 102.832 305.273 103.004C306.203 103.285 307.02 103.602 307.723 103.953C308.434 104.305 309.027 104.699 309.504 105.137C309.98 105.574 310.34 106.07 310.582 106.625C310.824 107.18 310.945 107.809 310.945 108.512C310.945 109.254 310.801 109.918 310.512 110.504C310.223 111.09 309.805 111.586 309.258 111.992C308.711 112.398 308.059 112.707 307.301 112.918C306.543 113.129 305.695 113.234 304.758 113.234C303.914 113.234 303.082 113.125 302.262 112.906C301.441 112.68 300.695 112.34 300.023 111.887C299.359 111.434 298.828 110.855 298.43 110.152C298.031 109.449 297.832 108.617 297.832 107.656H301.359C301.359 108.188 301.441 108.637 301.605 109.004C301.77 109.371 302 109.668 302.297 109.895C302.602 110.121 302.961 110.285 303.375 110.387C303.797 110.488 304.258 110.539 304.758 110.539C305.367 110.539 305.867 110.453 306.258 110.281C306.656 110.109 306.949 109.871 307.137 109.566C307.332 109.262 307.43 108.918 307.43 108.535Z" fill="white"/>
<rect x="346" y="79" width="145" height="52" rx="26" fill="#18A0FB"/>
<path d="M369.523 95.9375H375.887C377.191 95.9375 378.312 96.1328 379.25 96.5234C380.195 96.9141 380.922 97.4922 381.43 98.2578C381.938 99.0234 382.191 99.9648 382.191 101.082C382.191 101.996 382.035 102.781 381.723 103.438C381.418 104.086 380.984 104.629 380.422 105.066C379.867 105.496 379.215 105.84 378.465 106.098L377.352 106.684H371.82L371.797 103.941H375.91C376.527 103.941 377.039 103.832 377.445 103.613C377.852 103.395 378.156 103.09 378.359 102.699C378.57 102.309 378.676 101.855 378.676 101.34C378.676 100.793 378.574 100.32 378.371 99.9219C378.168 99.5234 377.859 99.2188 377.445 99.0078C377.031 98.7969 376.512 98.6914 375.887 98.6914H373.039V113H369.523V95.9375ZM379.062 113L375.172 105.395L378.887 105.371L382.824 112.836V113H379.062ZM396.348 110.258V113H387.266V110.258H396.348ZM388.414 95.9375V113H384.898V95.9375H388.414ZM395.164 102.887V105.559H387.266V102.887H395.164ZM396.336 95.9375V98.6914H387.266V95.9375H396.336ZM411.922 104.082V110.844C411.656 111.164 411.246 111.512 410.691 111.887C410.137 112.254 409.422 112.57 408.547 112.836C407.672 113.102 406.613 113.234 405.371 113.234C404.27 113.234 403.266 113.055 402.359 112.695C401.453 112.328 400.672 111.793 400.016 111.09C399.367 110.387 398.867 109.527 398.516 108.512C398.164 107.488 397.988 106.32 397.988 105.008V103.941C397.988 102.629 398.156 101.461 398.492 100.438C398.836 99.4141 399.324 98.5508 399.957 97.8477C400.59 97.1445 401.344 96.6094 402.219 96.2422C403.094 95.875 404.066 95.6914 405.137 95.6914C406.621 95.6914 407.84 95.9336 408.793 96.418C409.746 96.8945 410.473 97.5586 410.973 98.4102C411.48 99.2539 411.793 100.223 411.91 101.316H408.5C408.414 100.738 408.25 100.234 408.008 99.8047C407.766 99.375 407.418 99.0391 406.965 98.7969C406.52 98.5547 405.941 98.4336 405.23 98.4336C404.645 98.4336 404.121 98.5547 403.66 98.7969C403.207 99.0312 402.824 99.3789 402.512 99.8398C402.199 100.301 401.961 100.871 401.797 101.551C401.633 102.23 401.551 103.02 401.551 103.918V105.008C401.551 105.898 401.637 106.688 401.809 107.375C401.98 108.055 402.234 108.629 402.57 109.098C402.914 109.559 403.336 109.906 403.836 110.141C404.336 110.375 404.918 110.492 405.582 110.492C406.137 110.492 406.598 110.445 406.965 110.352C407.34 110.258 407.641 110.145 407.867 110.012C408.102 109.871 408.281 109.738 408.406 109.613V106.59H405.195V104.082H411.922ZM418.496 95.9375V113H414.992V95.9375H418.496ZM435.805 104.07V104.879C435.805 106.176 435.629 107.34 435.277 108.371C434.926 109.402 434.43 110.281 433.789 111.008C433.148 111.727 432.383 112.277 431.492 112.66C430.609 113.043 429.629 113.234 428.551 113.234C427.48 113.234 426.5 113.043 425.609 112.66C424.727 112.277 423.961 111.727 423.312 111.008C422.664 110.281 422.16 109.402 421.801 108.371C421.449 107.34 421.273 106.176 421.273 104.879V104.07C421.273 102.766 421.449 101.602 421.801 100.578C422.152 99.5469 422.648 98.668 423.289 97.9414C423.938 97.2148 424.703 96.6602 425.586 96.2773C426.477 95.8945 427.457 95.7031 428.527 95.7031C429.605 95.7031 430.586 95.8945 431.469 96.2773C432.359 96.6602 433.125 97.2148 433.766 97.9414C434.414 98.668 434.914 99.5469 435.266 100.578C435.625 101.602 435.805 102.766 435.805 104.07ZM432.254 104.879V104.047C432.254 103.141 432.172 102.344 432.008 101.656C431.844 100.969 431.602 100.391 431.281 99.9219C430.961 99.4531 430.57 99.1016 430.109 98.8672C429.648 98.625 429.121 98.5039 428.527 98.5039C427.934 98.5039 427.406 98.625 426.945 98.8672C426.492 99.1016 426.105 99.4531 425.785 99.9219C425.473 100.391 425.234 100.969 425.07 101.656C424.906 102.344 424.824 103.141 424.824 104.047V104.879C424.824 105.777 424.906 106.574 425.07 107.27C425.234 107.957 425.477 108.539 425.797 109.016C426.117 109.484 426.508 109.84 426.969 110.082C427.43 110.324 427.957 110.445 428.551 110.445C429.145 110.445 429.672 110.324 430.133 110.082C430.594 109.84 430.98 109.484 431.293 109.016C431.605 108.539 431.844 107.957 432.008 107.27C432.172 106.574 432.254 105.777 432.254 104.879ZM452.223 95.9375V113H448.707L441.852 101.562V113H438.336V95.9375H441.852L448.719 107.387V95.9375H452.223ZM464.164 108.535C464.164 108.23 464.117 107.957 464.023 107.715C463.938 107.465 463.773 107.238 463.531 107.035C463.289 106.824 462.949 106.617 462.512 106.414C462.074 106.211 461.508 106 460.812 105.781C460.039 105.531 459.305 105.25 458.609 104.938C457.922 104.625 457.312 104.262 456.781 103.848C456.258 103.426 455.844 102.938 455.539 102.383C455.242 101.828 455.094 101.184 455.094 100.449C455.094 99.7383 455.25 99.0938 455.562 98.5156C455.875 97.9297 456.312 97.4297 456.875 97.0156C457.438 96.5938 458.102 96.2695 458.867 96.043C459.641 95.8164 460.488 95.7031 461.41 95.7031C462.668 95.7031 463.766 95.9297 464.703 96.3828C465.641 96.8359 466.367 97.457 466.883 98.2461C467.406 99.0352 467.668 99.9375 467.668 100.953H464.176C464.176 100.453 464.07 100.016 463.859 99.6406C463.656 99.2578 463.344 98.957 462.922 98.7383C462.508 98.5195 461.984 98.4102 461.352 98.4102C460.742 98.4102 460.234 98.5039 459.828 98.6914C459.422 98.8711 459.117 99.1172 458.914 99.4297C458.711 99.7344 458.609 100.078 458.609 100.461C458.609 100.75 458.68 101.012 458.82 101.246C458.969 101.48 459.188 101.699 459.477 101.902C459.766 102.105 460.121 102.297 460.543 102.477C460.965 102.656 461.453 102.832 462.008 103.004C462.938 103.285 463.754 103.602 464.457 103.953C465.168 104.305 465.762 104.699 466.238 105.137C466.715 105.574 467.074 106.07 467.316 106.625C467.559 107.18 467.68 107.809 467.68 108.512C467.68 109.254 467.535 109.918 467.246 110.504C466.957 111.09 466.539 111.586 465.992 111.992C465.445 112.398 464.793 112.707 464.035 112.918C463.277 113.129 462.43 113.234 461.492 113.234C460.648 113.234 459.816 113.125 458.996 112.906C458.176 112.68 457.43 112.34 456.758 111.887C456.094 111.434 455.562 110.855 455.164 110.152C454.766 109.449 454.566 108.617 454.566 107.656H458.094C458.094 108.188 458.176 108.637 458.34 109.004C458.504 109.371 458.734 109.668 459.031 109.895C459.336 110.121 459.695 110.285 460.109 110.387C460.531 110.488 460.992 110.539 461.492 110.539C462.102 110.539 462.602 110.453 462.992 110.281C463.391 110.109 463.684 109.871 463.871 109.566C464.066 109.262 464.164 108.918 464.164 108.535Z" fill="white"/>
<rect x="497" y="79" width="167" height="52" rx="26" fill="#18A0FB"/>
<path d="M531.492 110.258V113H522.902V110.258H531.492ZM524.039 95.9375V113H520.523V95.9375H524.039ZM540.68 98.8555L536.039 113H532.301L538.641 95.9375H541.02L540.68 98.8555ZM544.535 113L539.883 98.8555L539.508 95.9375H541.91L548.285 113H544.535ZM544.324 106.648V109.402H535.312V106.648H544.324ZM563.754 95.9375V113H560.238L553.383 101.562V113H549.867V95.9375H553.383L560.25 107.387V95.9375H563.754ZM580.336 104.082V110.844C580.07 111.164 579.66 111.512 579.105 111.887C578.551 112.254 577.836 112.57 576.961 112.836C576.086 113.102 575.027 113.234 573.785 113.234C572.684 113.234 571.68 113.055 570.773 112.695C569.867 112.328 569.086 111.793 568.43 111.09C567.781 110.387 567.281 109.527 566.93 108.512C566.578 107.488 566.402 106.32 566.402 105.008V103.941C566.402 102.629 566.57 101.461 566.906 100.438C567.25 99.4141 567.738 98.5508 568.371 97.8477C569.004 97.1445 569.758 96.6094 570.633 96.2422C571.508 95.875 572.48 95.6914 573.551 95.6914C575.035 95.6914 576.254 95.9336 577.207 96.418C578.16 96.8945 578.887 97.5586 579.387 98.4102C579.895 99.2539 580.207 100.223 580.324 101.316H576.914C576.828 100.738 576.664 100.234 576.422 99.8047C576.18 99.375 575.832 99.0391 575.379 98.7969C574.934 98.5547 574.355 98.4336 573.645 98.4336C573.059 98.4336 572.535 98.5547 572.074 98.7969C571.621 99.0312 571.238 99.3789 570.926 99.8398C570.613 100.301 570.375 100.871 570.211 101.551C570.047 102.23 569.965 103.02 569.965 103.918V105.008C569.965 105.898 570.051 106.688 570.223 107.375C570.395 108.055 570.648 108.629 570.984 109.098C571.328 109.559 571.75 109.906 572.25 110.141C572.75 110.375 573.332 110.492 573.996 110.492C574.551 110.492 575.012 110.445 575.379 110.352C575.754 110.258 576.055 110.145 576.281 110.012C576.516 109.871 576.695 109.738 576.82 109.613V106.59H573.609V104.082H580.336ZM592.594 95.9375H596.098V107.211C596.098 108.523 595.816 109.629 595.254 110.527C594.699 111.426 593.93 112.102 592.945 112.555C591.969 113.008 590.844 113.234 589.57 113.234C588.297 113.234 587.164 113.008 586.172 112.555C585.188 112.102 584.414 111.426 583.852 110.527C583.297 109.629 583.02 108.523 583.02 107.211V95.9375H586.535V107.211C586.535 107.977 586.656 108.602 586.898 109.086C587.141 109.57 587.488 109.926 587.941 110.152C588.402 110.379 588.945 110.492 589.57 110.492C590.211 110.492 590.754 110.379 591.199 110.152C591.652 109.926 591.996 109.57 592.23 109.086C592.473 108.602 592.594 107.977 592.594 107.211V95.9375ZM605.672 98.8555L601.031 113H597.293L603.633 95.9375H606.012L605.672 98.8555ZM609.527 113L604.875 98.8555L604.5 95.9375H606.902L613.277 113H609.527ZM609.316 106.648V109.402H600.305V106.648H609.316ZM628.172 104.082V110.844C627.906 111.164 627.496 111.512 626.941 111.887C626.387 112.254 625.672 112.57 624.797 112.836C623.922 113.102 622.863 113.234 621.621 113.234C620.52 113.234 619.516 113.055 618.609 112.695C617.703 112.328 616.922 111.793 616.266 111.09C615.617 110.387 615.117 109.527 614.766 108.512C614.414 107.488 614.238 106.32 614.238 105.008V103.941C614.238 102.629 614.406 101.461 614.742 100.438C615.086 99.4141 615.574 98.5508 616.207 97.8477C616.84 97.1445 617.594 96.6094 618.469 96.2422C619.344 95.875 620.316 95.6914 621.387 95.6914C622.871 95.6914 624.09 95.9336 625.043 96.418C625.996 96.8945 626.723 97.5586 627.223 98.4102C627.73 99.2539 628.043 100.223 628.16 101.316H624.75C624.664 100.738 624.5 100.234 624.258 99.8047C624.016 99.375 623.668 99.0391 623.215 98.7969C622.77 98.5547 622.191 98.4336 621.48 98.4336C620.895 98.4336 620.371 98.5547 619.91 98.7969C619.457 99.0312 619.074 99.3789 618.762 99.8398C618.449 100.301 618.211 100.871 618.047 101.551C617.883 102.23 617.801 103.02 617.801 103.918V105.008C617.801 105.898 617.887 106.688 618.059 107.375C618.23 108.055 618.484 108.629 618.82 109.098C619.164 109.559 619.586 109.906 620.086 110.141C620.586 110.375 621.168 110.492 621.832 110.492C622.387 110.492 622.848 110.445 623.215 110.352C623.59 110.258 623.891 110.145 624.117 110.012C624.352 109.871 624.531 109.738 624.656 109.613V106.59H621.445V104.082H628.172ZM642.457 110.258V113H633.375V110.258H642.457ZM634.523 95.9375V113H631.008V95.9375H634.523ZM641.273 102.887V105.559H633.375V102.887H641.273ZM642.445 95.9375V98.6914H633.375V95.9375H642.445Z" fill="white"/>
<rect x="675" y="79" width="253" height="52" rx="26" fill="#18A0FB"/>
<path d="M703.762 113H700.047L700.07 110.258H703.762C704.684 110.258 705.461 110.051 706.094 109.637C706.727 109.215 707.203 108.602 707.523 107.797C707.852 106.992 708.016 106.02 708.016 104.879V104.047C708.016 103.172 707.922 102.402 707.734 101.738C707.555 101.074 707.285 100.516 706.926 100.062C706.566 99.6094 706.125 99.2695 705.602 99.043C705.078 98.8086 704.477 98.6914 703.797 98.6914H699.977V95.9375H703.797C704.938 95.9375 705.98 96.1328 706.926 96.5234C707.879 96.9062 708.703 97.457 709.398 98.1758C710.094 98.8945 710.629 99.7539 711.004 100.754C711.387 101.746 711.578 102.852 711.578 104.07V104.879C711.578 106.09 711.387 107.195 711.004 108.195C710.629 109.195 710.094 110.055 709.398 110.773C708.711 111.484 707.887 112.035 706.926 112.426C705.973 112.809 704.918 113 703.762 113ZM702.039 95.9375V113H698.523V95.9375H702.039ZM728.148 104.07V104.879C728.148 106.176 727.973 107.34 727.621 108.371C727.27 109.402 726.773 110.281 726.133 111.008C725.492 111.727 724.727 112.277 723.836 112.66C722.953 113.043 721.973 113.234 720.895 113.234C719.824 113.234 718.844 113.043 717.953 112.66C717.07 112.277 716.305 111.727 715.656 111.008C715.008 110.281 714.504 109.402 714.145 108.371C713.793 107.34 713.617 106.176 713.617 104.879V104.07C713.617 102.766 713.793 101.602 714.145 100.578C714.496 99.5469 714.992 98.668 715.633 97.9414C716.281 97.2148 717.047 96.6602 717.93 96.2773C718.82 95.8945 719.801 95.7031 720.871 95.7031C721.949 95.7031 722.93 95.8945 723.812 96.2773C724.703 96.6602 725.469 97.2148 726.109 97.9414C726.758 98.668 727.258 99.5469 727.609 100.578C727.969 101.602 728.148 102.766 728.148 104.07ZM724.598 104.879V104.047C724.598 103.141 724.516 102.344 724.352 101.656C724.188 100.969 723.945 100.391 723.625 99.9219C723.305 99.4531 722.914 99.1016 722.453 98.8672C721.992 98.625 721.465 98.5039 720.871 98.5039C720.277 98.5039 719.75 98.625 719.289 98.8672C718.836 99.1016 718.449 99.4531 718.129 99.9219C717.816 100.391 717.578 100.969 717.414 101.656C717.25 102.344 717.168 103.141 717.168 104.047V104.879C717.168 105.777 717.25 106.574 717.414 107.27C717.578 107.957 717.82 108.539 718.141 109.016C718.461 109.484 718.852 109.84 719.312 110.082C719.773 110.324 720.301 110.445 720.895 110.445C721.488 110.445 722.016 110.324 722.477 110.082C722.938 109.84 723.324 109.484 723.637 109.016C723.949 108.539 724.188 107.957 724.352 107.27C724.516 106.574 724.598 105.777 724.598 104.879ZM740.57 107.34H744.074C744.004 108.488 743.688 109.508 743.125 110.398C742.57 111.289 741.793 111.984 740.793 112.484C739.801 112.984 738.605 113.234 737.207 113.234C736.113 113.234 735.133 113.047 734.266 112.672C733.398 112.289 732.656 111.742 732.039 111.031C731.43 110.32 730.965 109.461 730.645 108.453C730.324 107.445 730.164 106.316 730.164 105.066V103.883C730.164 102.633 730.328 101.504 730.656 100.496C730.992 99.4805 731.469 98.6172 732.086 97.9062C732.711 97.1953 733.457 96.6484 734.324 96.2656C735.191 95.8828 736.16 95.6914 737.23 95.6914C738.652 95.6914 739.852 95.9492 740.828 96.4648C741.812 96.9805 742.574 97.6914 743.113 98.5977C743.66 99.5039 743.988 100.535 744.098 101.691H740.582C740.543 101.004 740.406 100.422 740.172 99.9453C739.938 99.4609 739.582 99.0977 739.105 98.8555C738.637 98.6055 738.012 98.4805 737.23 98.4805C736.645 98.4805 736.133 98.5898 735.695 98.8086C735.258 99.0273 734.891 99.3594 734.594 99.8047C734.297 100.25 734.074 100.812 733.926 101.492C733.785 102.164 733.715 102.953 733.715 103.859V105.066C733.715 105.949 733.781 106.727 733.914 107.398C734.047 108.062 734.25 108.625 734.523 109.086C734.805 109.539 735.164 109.883 735.602 110.117C736.047 110.344 736.582 110.457 737.207 110.457C737.941 110.457 738.547 110.34 739.023 110.105C739.5 109.871 739.863 109.523 740.113 109.062C740.371 108.602 740.523 108.027 740.57 107.34ZM755.805 95.9375H759.309V107.211C759.309 108.523 759.027 109.629 758.465 110.527C757.91 111.426 757.141 112.102 756.156 112.555C755.18 113.008 754.055 113.234 752.781 113.234C751.508 113.234 750.375 113.008 749.383 112.555C748.398 112.102 747.625 111.426 747.062 110.527C746.508 109.629 746.23 108.523 746.23 107.211V95.9375H749.746V107.211C749.746 107.977 749.867 108.602 750.109 109.086C750.352 109.57 750.699 109.926 751.152 110.152C751.613 110.379 752.156 110.492 752.781 110.492C753.422 110.492 753.965 110.379 754.41 110.152C754.863 109.926 755.207 109.57 755.441 109.086C755.684 108.602 755.805 107.977 755.805 107.211V95.9375ZM763.809 95.9375H766.785L771.168 108.465L775.551 95.9375H778.527L772.363 113H769.973L763.809 95.9375ZM762.203 95.9375H765.168L765.707 108.148V113H762.203V95.9375ZM777.168 95.9375H780.145V113H776.629V108.148L777.168 95.9375ZM794.676 110.258V113H785.594V110.258H794.676ZM786.742 95.9375V113H783.227V95.9375H786.742ZM793.492 102.887V105.559H785.594V102.887H793.492ZM794.664 95.9375V98.6914H785.594V95.9375H794.664ZM810.613 95.9375V113H807.098L800.242 101.562V113H796.727V95.9375H800.242L807.109 107.387V95.9375H810.613ZM820.949 95.9375V113H817.445V95.9375H820.949ZM826.199 95.9375V98.6914H812.277V95.9375H826.199ZM840.543 95.9375V113H837.039V95.9375H840.543ZM845.793 95.9375V98.6914H831.871V95.9375H845.793ZM850.328 95.9375L853.891 103.719L857.453 95.9375H861.285L855.672 106.789V113H852.109V106.789L846.484 95.9375H850.328ZM869.488 106.918H865.141V104.176H869.488C870.16 104.176 870.707 104.066 871.129 103.848C871.551 103.621 871.859 103.309 872.055 102.91C872.25 102.512 872.348 102.062 872.348 101.562C872.348 101.055 872.25 100.582 872.055 100.145C871.859 99.707 871.551 99.3555 871.129 99.0898C870.707 98.8242 870.16 98.6914 869.488 98.6914H866.359V113H862.844V95.9375H869.488C870.824 95.9375 871.969 96.1797 872.922 96.6641C873.883 97.1406 874.617 97.8008 875.125 98.6445C875.633 99.4883 875.887 100.453 875.887 101.539C875.887 102.641 875.633 103.594 875.125 104.398C874.617 105.203 873.883 105.824 872.922 106.262C871.969 106.699 870.824 106.918 869.488 106.918ZM889.762 110.258V113H880.68V110.258H889.762ZM881.828 95.9375V113H878.312V95.9375H881.828ZM888.578 102.887V105.559H880.68V102.887H888.578ZM889.75 95.9375V98.6914H880.68V95.9375H889.75ZM900.695 108.535C900.695 108.23 900.648 107.957 900.555 107.715C900.469 107.465 900.305 107.238 900.062 107.035C899.82 106.824 899.48 106.617 899.043 106.414C898.605 106.211 898.039 106 897.344 105.781C896.57 105.531 895.836 105.25 895.141 104.938C894.453 104.625 893.844 104.262 893.312 103.848C892.789 103.426 892.375 102.938 892.07 102.383C891.773 101.828 891.625 101.184 891.625 100.449C891.625 99.7383 891.781 99.0938 892.094 98.5156C892.406 97.9297 892.844 97.4297 893.406 97.0156C893.969 96.5938 894.633 96.2695 895.398 96.043C896.172 95.8164 897.02 95.7031 897.941 95.7031C899.199 95.7031 900.297 95.9297 901.234 96.3828C902.172 96.8359 902.898 97.457 903.414 98.2461C903.938 99.0352 904.199 99.9375 904.199 100.953H900.707C900.707 100.453 900.602 100.016 900.391 99.6406C900.188 99.2578 899.875 98.957 899.453 98.7383C899.039 98.5195 898.516 98.4102 897.883 98.4102C897.273 98.4102 896.766 98.5039 896.359 98.6914C895.953 98.8711 895.648 99.1172 895.445 99.4297C895.242 99.7344 895.141 100.078 895.141 100.461C895.141 100.75 895.211 101.012 895.352 101.246C895.5 101.48 895.719 101.699 896.008 101.902C896.297 102.105 896.652 102.297 897.074 102.477C897.496 102.656 897.984 102.832 898.539 103.004C899.469 103.285 900.285 103.602 900.988 103.953C901.699 104.305 902.293 104.699 902.77 105.137C903.246 105.574 903.605 106.07 903.848 106.625C904.09 107.18 904.211 107.809 904.211 108.512C904.211 109.254 904.066 109.918 903.777 110.504C903.488 111.09 903.07 111.586 902.523 111.992C901.977 112.398 901.324 112.707 900.566 112.918C899.809 113.129 898.961 113.234 898.023 113.234C897.18 113.234 896.348 113.125 895.527 112.906C894.707 112.68 893.961 112.34 893.289 111.887C892.625 111.434 892.094 110.855 891.695 110.152C891.297 109.449 891.098 108.617 891.098 107.656H894.625C894.625 108.188 894.707 108.637 894.871 109.004C895.035 109.371 895.266 109.668 895.562 109.895C895.867 110.121 896.227 110.285 896.641 110.387C897.062 110.488 897.523 110.539 898.023 110.539C898.633 110.539 899.133 110.453 899.523 110.281C899.922 110.109 900.215 109.871 900.402 109.566C900.598 109.262 900.695 108.918 900.695 108.535Z" fill="white"/>
</g>
<defs>
<filter id="filter0_d_98_663" x="0" y="0" width="942" height="139" filterUnits="userSpaceOnUse" color-interpolation-filters="sRGB">
<feFlood flood-opacity="0" result="BackgroundImageFix"/>
<feColorMatrix in="SourceAlpha" type="matrix" values="0 0 0 0 0 0 0 0 0 0 0 0 0 0 0 0 0 0 127 0" result="hardAlpha"/>
<feOffset dy="-6"/>
<feGaussianBlur stdDeviation="7"/>
<feComposite in2="hardAlpha" operator="out"/>
<feColorMatrix type="matrix" values="0 0 0 0 0 0 0 0 0 0 0 0 0 0 0 0 0 0 0.25 0"/>
<feBlend mode="normal" in2="BackgroundImageFix" result="effect1_dropShadow_98_663"/>
<feBlend mode="normal" in="SourceGraphic" in2="effect1_dropShadow_98_663" result="shape"/>
</filter>
</defs>
</svg>
