<svg width="696" height="126" viewBox="0 0 696 126" fill="none" xmlns="http://www.w3.org/2000/svg">
<g filter="url(#filter0_d_98_593)">
<path d="M31.7753 79H20.6119L37.6216 29.7273H51.0465L68.0321 79H56.8688L44.5265 40.9869H44.1416L31.7753 79ZM31.0776 59.6325H57.4462V67.7645H31.0776V59.6325ZM89.397 79H71.9302V29.7273H89.5413C94.4975 29.7273 98.7639 30.7137 102.341 32.6865C105.917 34.6433 108.668 37.4582 110.593 41.1312C112.534 44.8042 113.504 49.199 113.504 54.3155C113.504 59.4481 112.534 63.8589 110.593 67.5479C108.668 71.237 105.901 74.0679 102.293 76.0407C98.6998 78.0136 94.4012 79 89.397 79ZM82.3477 70.0741H88.9639C92.0434 70.0741 94.6338 69.5288 96.7349 68.4381C98.8521 67.3314 100.44 65.6232 101.499 63.3136C102.573 60.9879 103.111 57.9885 103.111 54.3155C103.111 50.6746 102.573 47.6993 101.499 45.3896C100.44 43.08 98.8602 41.3798 96.759 40.2891C94.6579 39.1985 92.0675 38.6531 88.988 38.6531H82.3477V70.0741ZM125.311 29.7273L137.221 67.163H137.678L149.611 29.7273H161.159L144.174 79H130.749L113.739 29.7273H125.311ZM167 79H155.837L172.846 29.7273H186.271L203.257 79H192.094L179.751 40.9869H179.366L167 79ZM166.302 59.6325H192.671V67.7645H166.302V59.6325ZM248.368 29.7273V79H239.37L217.933 47.988H217.572V79H207.155V29.7273H216.297L237.565 60.7152H237.999V29.7273H248.368ZM298.417 46.9775H287.879C287.687 45.6142 287.294 44.4032 286.7 43.3446C286.107 42.27 285.345 41.3558 284.415 40.6019C283.484 39.8481 282.41 39.2707 281.191 38.8697C279.988 38.4687 278.681 38.2682 277.269 38.2682C274.719 38.2682 272.498 38.9018 270.605 40.1689C268.712 41.4199 267.245 43.2484 266.202 45.6543C265.16 48.0442 264.638 50.9473 264.638 54.3636C264.638 57.8762 265.16 60.8275 266.202 63.2173C267.261 65.6072 268.736 67.4116 270.629 68.6306C272.522 69.8496 274.711 70.4591 277.197 70.4591C278.592 70.4591 279.884 70.2746 281.071 69.9057C282.273 69.5368 283.34 68.9995 284.27 68.2938C285.201 67.572 285.971 66.6979 286.58 65.6713C287.206 64.6448 287.639 63.474 287.879 62.1587L298.417 62.2069C298.144 64.4684 297.463 66.6497 296.372 68.7509C295.297 70.836 293.846 72.7046 292.017 74.3566C290.205 75.9926 288.04 77.2918 285.521 78.2542C283.019 79.2005 280.188 79.6737 277.029 79.6737C272.634 79.6737 268.704 78.6792 265.24 76.6903C261.791 74.7015 259.065 71.8224 257.06 68.0532C255.071 64.2839 254.076 59.7208 254.076 54.3636C254.076 48.9905 255.087 44.4193 257.108 40.65C259.129 36.8808 261.871 34.0098 265.336 32.0369C268.8 30.0481 272.698 29.0536 277.029 29.0536C279.884 29.0536 282.53 29.4546 284.968 30.2566C287.422 31.0585 289.595 32.2294 291.488 33.7692C293.381 35.2929 294.92 37.1615 296.107 39.3749C297.31 41.5883 298.08 44.1225 298.417 46.9775ZM303.855 79V29.7273H337.056V38.3163H314.272V50.0571H335.348V58.6461H314.272V70.411H337.152V79H303.855ZM360.773 79H343.306V29.7273H360.917C365.873 29.7273 370.14 30.7137 373.716 32.6865C377.293 34.6433 380.044 37.4582 381.969 41.1312C383.909 44.8042 384.88 49.199 384.88 54.3155C384.88 59.4481 383.909 63.8589 381.969 67.5479C380.044 71.237 377.277 74.0679 373.668 76.0407C370.076 78.0136 365.777 79 360.773 79ZM353.723 70.0741H360.34C363.419 70.0741 366.01 69.5288 368.111 68.4381C370.228 67.3314 371.816 65.6232 372.874 63.3136C373.949 60.9879 374.486 57.9885 374.486 54.3155C374.486 50.6746 373.949 47.6993 372.874 45.3896C371.816 43.08 370.236 41.3798 368.135 40.2891C366.034 39.1985 363.443 38.6531 360.364 38.6531H353.723V70.0741ZM430.942 43.898C430.749 41.9572 429.923 40.4495 428.464 39.3749C427.004 38.3003 425.023 37.763 422.521 37.763C420.821 37.763 419.385 38.0035 418.214 38.4847C417.044 38.9499 416.145 39.5995 415.52 40.4335C414.91 41.2675 414.606 42.2139 414.606 43.2725C414.574 44.1546 414.758 44.9245 415.159 45.5821C415.576 46.2397 416.145 46.8091 416.867 47.2903C417.589 47.7554 418.423 48.1644 419.369 48.5173C420.316 48.8541 421.326 49.1428 422.401 49.3834L426.828 50.442C428.977 50.9232 430.95 51.5648 432.746 52.3667C434.542 53.1687 436.098 54.1551 437.414 55.326C438.729 56.4969 439.747 57.8762 440.469 59.4641C441.207 61.052 441.584 62.8725 441.6 64.9255C441.584 67.9409 440.814 70.5553 439.29 72.7687C437.782 74.9661 435.601 76.6743 432.746 77.8933C429.907 79.0962 426.483 79.6977 422.473 79.6977C418.495 79.6977 415.031 79.0882 412.079 77.8692C409.144 76.6502 406.851 74.8458 405.199 72.456C403.563 70.0501 402.704 67.0748 402.624 63.5301H412.705C412.817 65.1821 413.29 66.5615 414.124 67.6682C414.975 68.7589 416.105 69.5849 417.517 70.1463C418.944 70.6916 420.556 70.9643 422.353 70.9643C424.117 70.9643 425.649 70.7077 426.948 70.1944C428.263 69.6812 429.282 68.9674 430.003 68.0532C430.725 67.1389 431.086 66.0884 431.086 64.9015C431.086 63.7947 430.757 62.8645 430.1 62.1106C429.458 61.3568 428.512 60.7152 427.261 60.1859C426.026 59.6566 424.51 59.1754 422.713 58.7424L417.348 57.3951C413.194 56.3846 409.914 54.8047 407.508 52.6555C405.102 50.5062 403.907 47.6111 403.923 43.9702C403.907 40.9869 404.701 38.3805 406.305 36.151C407.925 33.9215 410.147 32.1813 412.97 30.9302C415.793 29.6792 419 29.0536 422.593 29.0536C426.25 29.0536 429.442 29.6792 432.169 30.9302C434.911 32.1813 437.045 33.9215 438.568 36.151C440.092 38.3805 440.878 40.9628 440.926 43.898H430.942ZM446.574 79V29.7273H479.776V38.3163H456.992V50.0571H478.068V58.6461H456.992V70.411H479.872V79H446.574ZM494.518 79H483.355L500.365 29.7273H513.79L530.775 79H519.612L507.27 40.9869H506.885L494.518 79ZM493.821 59.6325H520.189V67.7645H493.821V59.6325ZM534.673 79V29.7273H554.113C557.834 29.7273 561.01 30.3929 563.64 31.7242C566.287 33.0394 568.3 34.908 569.679 37.3299C571.074 39.7358 571.772 42.5667 571.772 45.8227C571.772 49.0947 571.066 51.9096 569.655 54.2674C568.243 56.6091 566.198 58.4055 563.52 59.6566C560.857 60.9077 557.633 61.5332 553.848 61.5332H540.832V53.1607H552.164C554.153 53.1607 555.805 52.888 557.12 52.3427C558.435 51.7973 559.414 50.9793 560.055 49.8887C560.713 48.798 561.042 47.4427 561.042 45.8227C561.042 44.1867 560.713 42.8073 560.055 41.6846C559.414 40.5618 558.427 39.7117 557.096 39.1343C555.781 38.5409 554.121 38.2441 552.116 38.2441H545.091V79H534.673ZM561.282 56.5771L573.528 79H562.028L550.047 56.5771H561.282ZM620.576 46.9775H610.038C609.846 45.6142 609.453 44.4032 608.86 43.3446C608.266 42.27 607.504 41.3558 606.574 40.6019C605.644 39.8481 604.569 39.2707 603.35 38.8697C602.147 38.4687 600.84 38.2682 599.428 38.2682C596.878 38.2682 594.657 38.9018 592.764 40.1689C590.871 41.4199 589.404 43.2484 588.361 45.6543C587.319 48.0442 586.797 50.9473 586.797 54.3636C586.797 57.8762 587.319 60.8275 588.361 63.2173C589.42 65.6072 590.896 67.4116 592.788 68.6306C594.681 69.8496 596.87 70.4591 599.356 70.4591C600.752 70.4591 602.043 70.2746 603.23 69.9057C604.433 69.5368 605.499 68.9995 606.43 68.2938C607.36 67.572 608.13 66.6979 608.739 65.6713C609.365 64.6448 609.798 63.474 610.038 62.1587L620.576 62.2069C620.304 64.4684 619.622 66.6497 618.531 68.7509C617.457 70.836 616.005 72.7046 614.177 74.3566C612.364 75.9926 610.199 77.2918 607.681 78.2542C605.179 79.2005 602.348 79.6737 599.188 79.6737C594.793 79.6737 590.863 78.6792 587.399 76.6903C583.95 74.7015 581.224 71.8224 579.219 68.0532C577.23 64.2839 576.236 59.7208 576.236 54.3636C576.236 48.9905 577.246 44.4193 579.267 40.65C581.288 36.8808 584.031 34.0098 587.495 32.0369C590.96 30.0481 594.857 29.0536 599.188 29.0536C602.043 29.0536 604.689 29.4546 607.127 30.2566C609.581 31.0585 611.755 32.2294 613.647 33.7692C615.54 35.2929 617.08 37.1615 618.267 39.3749C619.47 41.5883 620.239 44.1225 620.576 46.9775ZM626.014 79V29.7273H636.432V50.0571H657.579V29.7273H667.973V79H657.579V58.6461H636.432V79H626.014Z" fill="url(#paint0_linear_98_593)"/>
</g>
<defs>
<filter id="filter0_d_98_593" x="0.609375" y="17.0537" width="689.367" height="92.644" filterUnits="userSpaceOnUse" color-interpolation-filters="sRGB">
<feFlood flood-opacity="0" result="BackgroundImageFix"/>
<feColorMatrix in="SourceAlpha" type="matrix" values="0 0 0 0 0 0 0 0 0 0 0 0 0 0 0 0 0 0 127 0" result="hardAlpha"/>
<feOffset dx="1" dy="9"/>
<feGaussianBlur stdDeviation="10.5"/>
<feComposite in2="hardAlpha" operator="out"/>
<feColorMatrix type="matrix" values="0 0 0 0 0 0 0 0 0 0 0 0 0 0 0 0 0 0 0.25 0"/>
<feBlend mode="normal" in2="BackgroundImageFix" result="effect1_dropShadow_98_593"/>
<feBlend mode="normal" in="SourceGraphic" in2="effect1_dropShadow_98_593" result="shape"/>
</filter>
<linearGradient id="paint0_linear_98_593" x1="50.6894" y1="-8.05398e-06" x2="512.459" y2="360.864" gradientUnits="userSpaceOnUse">
<stop stop-color="#FFF5CF"/>
<stop offset="1" stop-color="#18A0FB"/>
</linearGradient>
</defs>
</svg>
