<?xml version="1.0" encoding="UTF-8"?>
<svg id="Layer_1" xmlns="http://www.w3.org/2000/svg" xmlns:xlink="http://www.w3.org/1999/xlink" version="1.1" viewBox="0 0 96 96">
  <!-- Generator: Adobe Illustrator 29.3.0, SVG Export Plug-In . SVG Version: 2.1.0 Build 146)  -->
  <defs>
    <style>
      .st0 {
        fill: url(#linear-gradient2);
      }

      .st1 {
        fill: url(#linear-gradient1);
      }

      .st2 {
        fill: url(#linear-gradient9);
      }

      .st3 {
        fill: url(#linear-gradient3);
      }

      .st4 {
        fill: url(#linear-gradient6);
      }

      .st5 {
        fill: url(#linear-gradient8);
      }

      .st6 {
        fill: url(#linear-gradient7);
      }

      .st7 {
        fill: url(#linear-gradient5);
      }

      .st8 {
        fill: url(#linear-gradient4);
      }

      .st9 {
        fill: url(#linear-gradient18);
      }

      .st10 {
        fill: url(#linear-gradient13);
      }

      .st11 {
        fill: url(#linear-gradient12);
      }

      .st12 {
        fill: url(#linear-gradient15);
      }

      .st13 {
        fill: url(#linear-gradient16);
      }

      .st14 {
        fill: url(#linear-gradient11);
      }

      .st15 {
        fill: url(#linear-gradient10);
      }

      .st16 {
        fill: url(#linear-gradient17);
      }

      .st17 {
        fill: url(#linear-gradient14);
      }

      .st18 {
        fill: url(#linear-gradient19);
      }

      .st19 {
        fill: url(#linear-gradient21);
      }

      .st20 {
        fill: url(#linear-gradient20);
      }

      .st21 {
        fill: url(#linear-gradient);
      }
    </style>
    <linearGradient id="linear-gradient" x1="-951.5" y1="-534.9" x2="-41.7" y2="-736.3" gradientTransform="translate(564 -626) scale(1 -1)" gradientUnits="userSpaceOnUse">
      <stop offset="0" stop-color="#0884d5"/>
      <stop offset="1" stop-color="#009f83"/>
    </linearGradient>
    <linearGradient id="linear-gradient1" x1="-714.3" y1="-592.3" x2="114.8" y2="-789.7" xlink:href="#linear-gradient"/>
    <linearGradient id="linear-gradient2" x1="-642" y1="-637" x2="107.3" y2="-787.6" xlink:href="#linear-gradient"/>
    <linearGradient id="linear-gradient3" x1="-835.7" y1="-592.1" x2="337.8" y2="-838.9" xlink:href="#linear-gradient"/>
    <linearGradient id="linear-gradient4" x1="-1397" y1="-460.8" x2="288.8" y2="-818.4" xlink:href="#linear-gradient"/>
    <linearGradient id="linear-gradient5" x1="-1236.2" y1="-493.7" x2="-101.3" y2="-734.2" xlink:href="#linear-gradient"/>
    <linearGradient id="linear-gradient6" x1="-1214.1" y1="-479.1" x2="693.7" y2="-973.8" xlink:href="#linear-gradient"/>
    <linearGradient id="linear-gradient7" x1="-1379.9" y1="-473.5" x2="605.5" y2="-893.1" xlink:href="#linear-gradient"/>
    <linearGradient id="linear-gradient8" x1="-1092.9" y1="-561.9" x2="710.6" y2="-902.1" xlink:href="#linear-gradient"/>
    <linearGradient id="linear-gradient9" x1="-1601" y1="-448.7" x2="511.9" y2="-868.3" xlink:href="#linear-gradient"/>
    <linearGradient id="linear-gradient10" x1="-805.8" y1="-613.1" x2="391" y2="-885.1" xlink:href="#linear-gradient"/>
    <linearGradient id="linear-gradient11" x1="-1486.8" y1="-476.2" x2="117.8" y2="-792.3" xlink:href="#linear-gradient"/>
    <linearGradient id="linear-gradient12" x1="-1061.7" y1="-576.6" x2="572.8" y2="-889" xlink:href="#linear-gradient"/>
    <linearGradient id="linear-gradient13" x1="-1697" y1="-427" x2="516.2" y2="-894.9" xlink:href="#linear-gradient"/>
    <linearGradient id="linear-gradient14" x1="-686.1" y1="-668.1" x2="49" y2="-801.5" xlink:href="#linear-gradient"/>
    <linearGradient id="linear-gradient15" x1="-1280.2" y1="-524.6" x2="537" y2="-917.4" xlink:href="#linear-gradient"/>
    <linearGradient id="linear-gradient16" x1="-901.2" y1="-615.1" x2="245.7" y2="-860.8" xlink:href="#linear-gradient"/>
    <linearGradient id="linear-gradient17" x1="-1293.5" y1="-517.9" x2="-173.2" y2="-755.9" xlink:href="#linear-gradient"/>
    <linearGradient id="linear-gradient18" x1="-1466.8" y1="-464.2" x2="496.1" y2="-926.8" xlink:href="#linear-gradient"/>
    <linearGradient id="linear-gradient19" x1="-1486.9" y1="-489" x2="161" y2="-831.8" xlink:href="#linear-gradient"/>
    <linearGradient id="linear-gradient20" x1="-815.1" y1="-642.3" x2="-7.5" y2="-829.8" xlink:href="#linear-gradient"/>
    <linearGradient id="linear-gradient21" x1="-1113.8" y1="-580.2" x2="-125.9" y2="-794.4" xlink:href="#linear-gradient"/>
  </defs>
  <g id="Layer_11" data-name="Layer_1">
    <g id="Layer_1-2">
      <path class="st21" d="M70.6,13.2c7-4.8,6.7-7-1.3-10.7-6.2-2.9-8-3.2-9.6-1.3-1.1,1.1-1.1,2.1-.8,7.2.5,7.2.5,7.5,2.9,8.6,2.1.8,2.7.5,8.8-3.7h0Z"/>
      <path class="st1" d="M35.1,20.6c.5-.5,1.1-20.3.5-20.3s-4.3,2.1-9.4,4.5c-4.8,2.4-8.8,4.8-8.8,5.1,0,.8,17.1,11,17.4,10.4h0l.3.3Z"/>
      <path class="st0" d="M20.3,35.6c.3,0-2.1-4.3-5.6-9.1l-5.9-8.6-4.5,9.6C1.6,32.9-.2,37.2,0,37.2c.3.3,20.1-1.1,20.6-1.6h-.3Z"/>
      <path class="st3" d="M29.7,30.3c2.7-2.7,4.3-5.1,4-5.3-.5-.5-11.2-3.2-12.3-3.2s-.5,0-.5.5c0,.8,3.5,11.8,3.7,12.3.3,0,2.4-1.6,5.1-4.3h0Z"/>
      <path class="st8" d="M66.3,23.1c-1.6,1.6-1.6,4.8,0,6.4,2.7,2.9,8,.8,8-3.2s-5.3-6.2-8-3.2Z"/>
      <path class="st7" d="M88.3,35.6c2.1,0,3.2-.3,4.8-1.9,1.6-1.6,1.9-2.4,1.9-4.8s-.3-3.2-1.9-4.8c-2.9-2.7-6.4-2.7-9.4.3-4.5,4.5-1.6,11,4.8,11.2h-.3Z"/>
      <path class="st4" d="M46,31.9c-.3,0-2.1-1.3-4-2.7l-3.7-2.4v9.6l4.3-2.1c2.4-1.1,4-2.1,3.7-2.4h-.3Z"/>
      <path class="st6" d="M57.5,32.1c0-4.5-.8-5.3-4.8-2.7-1.6,1.1-2.9,2.1-2.9,2.7,0,1.1,4.5,3.5,6.4,3.5s1.3-.3,1.3-3.5h0Z"/>
      <path class="st5" d="M27.6,38.6c-.3.5,4,7.2,4.8,7.2s3.7-6.7,3.7-7.2-8-.3-8.6,0h0Z"/>
      <path class="st2" d="M67.1,43.1c.8-1.1,1.3-2.7,1.1-3.2-.8-1.9-5.3-2.1-6.7-.8-.8.8-.5,1.3.3,3.2,1.9,3.2,3.5,3.2,5.3.5h0v.3Z"/>
      <path class="st15" d="M11.3,47.4c-.3,0,11.8,6.7,12.3,6.7s.5-13.1,0-13.4c-.3,0-3.2,1.3-6.2,3.2-3.2,1.9-5.9,3.5-5.9,3.7l-.3-.3Z"/>
      <path class="st14" d="M78.4,43.1c-1.6,0-2.4.5-3.5,1.6-1.6,1.9-1.6,2.9-.5,4.8,1.1,1.9,1.9,2.4,4.3,2.4s4.8-2.4,4.8-4.5-2.4-4.5-4.8-4.5h0l-.3.3Z"/>
      <path class="st11" d="M34.5,51.4l-2.1-4-2.7,4-2.7,4h2.7c1.3.3,3.5.3,4.8,0h2.1l-2.1-4.3h0v.3Z"/>
      <path class="st10" d="M63.7,57.5c4.8.5,6.2-1.3,3.5-5.1-1.9-2.4-3.5-2.4-4.8,0-1.6,2.7-1.1,4.5,1.3,4.8h0v.3Z"/>
      <path class="st17" d="M.3,58.1s2.1,4.5,5.1,9.4c3.5,6.4,5.1,8.8,5.6,8.3.3-.5.5-1.1.5-1.3,0,0,0-.5.5-.8.8-.5,9.9-14.7,9.6-15-.5-.3-21.1-1.1-21.1-.5h-.3Z"/>
      <path class="st12" d="M39.9,57.8v4c0,2.1.5,4.3.8,4.5.3,0,2.1-.5,4-1.9l3.5-2.4-4-1.9c-2.1-1.1-4.3-2.1-4.3-2.1h0v-.3Z"/>
      <path class="st13" d="M35.3,69s-2.1-2.4-4.8-5.1c-3.5-3.5-5.1-4.5-5.3-4-1.1,2.7-3.5,13.1-2.9,13.1s13.1-3.7,13.4-4h-.3Z"/>
      <path class="st16" d="M92.8,60.2c-2.7-1.6-4.8-1.6-7.2,0-5.1,2.9-4,10.4,1.6,12,7.5,2.1,12.3-8,5.6-12h0Z"/>
      <path class="st9" d="M57.3,60.2c-.5,0-2.1.8-3.7,1.6-1.9.8-3.2,1.9-3.2,2.4,0,1.1,6.4,4.8,7.2,4.5.8-.5.8-8.6,0-8.6h-.3Z"/>
      <path class="st18" d="M75.2,70.4c.8-2.9-3.5-6.2-6.7-5.1-2.9,1.1-3.5,4.5-1.3,7.2,2.4,2.9,7,1.6,8-2.1Z"/>
      <path class="st20" d="M28.9,78.7c-4.5,3.2-8.3,5.9-8.6,6.2,0,.5,18.5,9.4,18.7,8.8.3-.3-1.3-20.1-1.6-20.3s-4,2.1-8.6,5.3h0Z"/>
      <path class="st19" d="M70.9,81.6c-4.3-2.4-5.9-2.4-8.3,0-1.9,1.6-1.9,2.1-1.9,6.4s0,4.5,1.6,5.9c.8.8,2.4,1.6,3.2,1.6,2.1,0,9.1-3.5,9.9-5.1,1.9-3.2.3-6.2-4.8-8.8h.3Z"/>
    </g>
  </g>
</svg>